<svg xmlns="http://www.w3.org/2000/svg" xmlns:xlink="http://www.w3.org/1999/xlink" contentStyleType="text/css" data-diagram-type="ACTIVITY" height="512px" preserveAspectRatio="none" style="width:451px;height:512px;background:#FFFFFF;" version="1.1" viewBox="0 0 451 512" width="451px" zoomAndPan="magnify"><defs/><g><ellipse cx="248.3647" cy="20" fill="#222222" rx="10" ry="10" style="stroke:#222222;stroke-width:1;"/><rect fill="#F1F1F1" height="33.9688" rx="12.5" ry="12.5" style="stroke:#181818;stroke-width:0.5;" width="259.4844" x="118.6226" y="50"/><text fill="#000000" font-family="sans-serif" font-size="12" lengthAdjust="spacing" textLength="239.4844" x="128.6226" y="71.1387">Initialize the connection with the socket</text><rect fill="#F1F1F1" height="33.9688" rx="12.5" ry="12.5" style="stroke:#181818;stroke-width:0.5;" width="277.4551" x="109.6372" y="164.7734"/><text fill="#000000" font-family="sans-serif" font-size="12" lengthAdjust="spacing" textLength="257.4551" x="119.6372" y="185.9121">Receive configuration message from client</text><rect fill="#F1F1F1" height="33.9688" rx="12.5" ry="12.5" style="stroke:#181818;stroke-width:0.5;" width="171.4883" x="162.6206" y="218.7422"/><text fill="#000000" font-family="sans-serif" font-size="12" lengthAdjust="spacing" textLength="151.4883" x="172.6206" y="239.8809">Update message filtering</text><rect fill="#F1F1F1" height="33.9688" rx="12.5" ry="12.5" style="stroke:#181818;stroke-width:0.5;" width="231.0781" x="132.8257" y="378.2417"/><text fill="#000000" font-family="sans-serif" font-size="12" lengthAdjust="spacing" textLength="211.0781" x="142.8257" y="399.3804">Send cached message to the client</text><polygon fill="#F1F1F1" points="129.7227,321.1133,367.0068,321.1133,379.0068,333.1133,367.0068,345.1133,129.7227,345.1133,117.7227,333.1133,129.7227,321.1133" style="stroke:#181818;stroke-width:0.5;"/><text fill="#000000" font-family="sans-serif" font-size="11" lengthAdjust="spacing" textLength="19.0083" x="252.3647" y="355.3237">yes</text><text fill="#000000" font-family="sans-serif" font-size="11" lengthAdjust="spacing" textLength="237.2842" x="129.7227" y="336.9214">Is there a cached metric message to send?</text><text fill="#000000" font-family="sans-serif" font-size="11" lengthAdjust="spacing" textLength="13.7017" x="104.021" y="330.519">no</text><polygon fill="#F1F1F1" points="112.5405,272.7109,384.189,272.7109,396.189,284.7109,384.189,296.7109,112.5405,296.7109,100.5405,284.7109,112.5405,272.7109" style="stroke:#181818;stroke-width:0.5;"/><text fill="#000000" font-family="sans-serif" font-size="11" lengthAdjust="spacing" textLength="19.0083" x="252.3647" y="306.9214">yes</text><text fill="#000000" font-family="sans-serif" font-size="11" lengthAdjust="spacing" textLength="271.6484" x="112.5405" y="288.519">Does the configuration request to receive cache?</text><text fill="#000000" font-family="sans-serif" font-size="11" lengthAdjust="spacing" textLength="13.7017" x="396.189" y="282.1167">no</text><polygon fill="#F1F1F1" points="248.3647,454.2104,260.3647,466.2104,248.3647,478.2104,236.3647,466.2104,248.3647,454.2104" style="stroke:#181818;stroke-width:0.5;"/><polygon fill="#F1F1F1" points="121.4189,103.9688,375.3105,103.9688,387.3105,115.9688,375.3105,127.9688,121.4189,127.9688,109.4189,115.9688,121.4189,103.9688" style="stroke:#181818;stroke-width:0.5;"/><text fill="#000000" font-family="sans-serif" font-size="11" lengthAdjust="spacing" textLength="19.0083" x="252.3647" y="138.1792">yes</text><text fill="#000000" font-family="sans-serif" font-size="11" lengthAdjust="spacing" textLength="253.8916" x="121.4189" y="119.7769">Is there a message to receive from the client?</text><text fill="#000000" font-family="sans-serif" font-size="11" lengthAdjust="spacing" textLength="99.4189" x="10" y="113.3745">connection closed</text><ellipse cx="60.7227" cy="162.9688" fill="none" rx="11" ry="11" style="stroke:#222222;stroke-width:1;"/><ellipse cx="60.7227" cy="162.9688" fill="#222222" rx="6" ry="6" style="stroke:#222222;stroke-width:1;"/><line style="stroke:#181818;stroke-width:1;" x1="248.3647" x2="248.3647" y1="30" y2="50"/><polygon fill="#181818" points="244.3647,40,248.3647,50,252.3647,40,248.3647,44" style="stroke:#181818;stroke-width:1;"/><line style="stroke:#181818;stroke-width:1;" x1="248.3647" x2="248.3647" y1="198.7422" y2="218.7422"/><polygon fill="#181818" points="244.3647,208.7422,248.3647,218.7422,252.3647,208.7422,248.3647,212.7422" style="stroke:#181818;stroke-width:1;"/><line style="stroke:#181818;stroke-width:1;" x1="248.3647" x2="248.3647" y1="345.1133" y2="378.2417"/><polygon fill="#181818" points="244.3647,368.2417,248.3647,378.2417,252.3647,368.2417,248.3647,372.2417" style="stroke:#181818;stroke-width:1;"/><line style="stroke:#181818;stroke-width:1;" x1="248.3647" x2="248.3647" y1="412.2104" y2="422.2104"/><line style="stroke:#181818;stroke-width:1;" x1="248.3647" x2="391.0068" y1="422.2104" y2="422.2104"/><polygon fill="#181818" points="387.0068,386.8237,391.0068,376.8237,395.0068,386.8237,391.0068,382.8237" style="stroke:#181818;stroke-width:1;"/><line style="stroke:#181818;stroke-width:1;" x1="391.0068" x2="391.0068" y1="333.1133" y2="422.2104"/><line style="stroke:#181818;stroke-width:1;" x1="391.0068" x2="379.0068" y1="333.1133" y2="333.1133"/><polygon fill="#181818" points="389.0068,329.1133,379.0068,333.1133,389.0068,337.1133,385.0068,333.1133" style="stroke:#181818;stroke-width:1;"/><line style="stroke:#181818;stroke-width:1;" x1="117.7227" x2="105.7227" y1="333.1133" y2="333.1133"/><polygon fill="#181818" points="101.7227,372.8237,105.7227,382.8237,109.7227,372.8237,105.7227,376.8237" style="stroke:#181818;stroke-width:1;"/><line style="stroke:#181818;stroke-width:1;" x1="105.7227" x2="105.7227" y1="333.1133" y2="434.2104"/><line style="stroke:#181818;stroke-width:1;" x1="105.7227" x2="248.3647" y1="434.2104" y2="434.2104"/><line style="stroke:#181818;stroke-width:1;" x1="248.3647" x2="248.3647" y1="434.2104" y2="454.2104"/><polygon fill="#181818" points="244.3647,444.2104,248.3647,454.2104,252.3647,444.2104,248.3647,448.2104" style="stroke:#181818;stroke-width:1;"/><line style="stroke:#181818;stroke-width:1;" x1="248.3647" x2="248.3647" y1="296.7109" y2="321.1133"/><polygon fill="#181818" points="244.3647,311.1133,248.3647,321.1133,252.3647,311.1133,248.3647,315.1133" style="stroke:#181818;stroke-width:1;"/><line style="stroke:#181818;stroke-width:1;" x1="396.189" x2="408.189" y1="284.7109" y2="284.7109"/><polygon fill="#181818" points="404.189,366.8237,408.189,376.8237,412.189,366.8237,408.189,370.8237" style="stroke:#181818;stroke-width:1;"/><line style="stroke:#181818;stroke-width:1;" x1="408.189" x2="408.189" y1="284.7109" y2="466.2104"/><line style="stroke:#181818;stroke-width:1;" x1="408.189" x2="260.3647" y1="466.2104" y2="466.2104"/><polygon fill="#181818" points="270.3647,462.2104,260.3647,466.2104,270.3647,470.2104,266.3647,466.2104" style="stroke:#181818;stroke-width:1;"/><line style="stroke:#181818;stroke-width:1;" x1="248.3647" x2="248.3647" y1="252.7109" y2="272.7109"/><polygon fill="#181818" points="244.3647,262.7109,248.3647,272.7109,252.3647,262.7109,248.3647,266.7109" style="stroke:#181818;stroke-width:1;"/><line style="stroke:#181818;stroke-width:1;" x1="248.3647" x2="248.3647" y1="127.9688" y2="164.7734"/><polygon fill="#181818" points="244.3647,154.7734,248.3647,164.7734,252.3647,154.7734,248.3647,158.7734" style="stroke:#181818;stroke-width:1;"/><line style="stroke:#181818;stroke-width:1;" x1="248.3647" x2="248.3647" y1="478.2104" y2="488.2104"/><line style="stroke:#181818;stroke-width:1;" x1="248.3647" x2="425.0068" y1="488.2104" y2="488.2104"/><polygon fill="#181818" points="421.0068,303.1289,425.0068,293.1289,429.0068,303.1289,425.0068,299.1289" style="stroke:#181818;stroke-width:1;"/><line style="stroke:#181818;stroke-width:1;" x1="425.0068" x2="425.0068" y1="115.9688" y2="488.2104"/><line style="stroke:#181818;stroke-width:1;" x1="425.0068" x2="387.3105" y1="115.9688" y2="115.9688"/><polygon fill="#181818" points="397.3105,111.9688,387.3105,115.9688,397.3105,119.9688,393.3105,115.9688" style="stroke:#181818;stroke-width:1;"/><line style="stroke:#181818;stroke-width:1;" x1="109.4189" x2="60.7227" y1="115.9688" y2="115.9688"/><line style="stroke:#181818;stroke-width:1;" x1="60.7227" x2="60.7227" y1="115.9688" y2="151.9688"/><polygon fill="#181818" points="56.7227,141.9688,60.7227,151.9688,64.7227,141.9688,60.7227,145.9688" style="stroke:#181818;stroke-width:1;"/><line style="stroke:#181818;stroke-width:1;" x1="248.3647" x2="248.3647" y1="83.9688" y2="103.9688"/><polygon fill="#181818" points="244.3647,93.9688,248.3647,103.9688,252.3647,93.9688,248.3647,97.9688" style="stroke:#181818;stroke-width:1;"/><!--SRC=[PP51SiCW34Ntd49B-mhsefjkicsd1s3mjwqfWHGfoRIdBuOuPbhjGE__Bu6eJMg6Ks1bw_a7f2l8nH3Wb6EWE-jQxYIwJ-XexYjxK7UIxJQ1B9qXOfUiZ9JWm3VGdEAvEdb6q9UUMAZxXlI6SWrl3ou7pRnSaorPkr5HL-LO-O_BP1K7m5wHE2orpJDrhn6opzvO9dnT8ThEvgnRqKoqgKBnsUh_UeMVShOcTksoWZ3ztMoluJqt3-bJSxp9-EGtyX4ROhM1b_OK9fvDWpN_utmKJBqHZPTV]--></g></svg>