<svg xmlns="http://www.w3.org/2000/svg" xmlns:xlink="http://www.w3.org/1999/xlink" contentStyleType="text/css" data-diagram-type="ACTIVITY" height="456px" preserveAspectRatio="none" style="width:440px;height:456px;background:#FFFFFF;" version="1.1" viewBox="0 0 440 456" width="440px" zoomAndPan="magnify"><defs/><g><ellipse cx="238.7075" cy="20" fill="#222222" rx="10" ry="10" style="stroke:#222222;stroke-width:1;"/><rect fill="#F1F1F1" height="33.9688" rx="12.5" ry="12.5" style="stroke:#181818;stroke-width:0.5;" width="267.5645" x="104.9253" y="110.8047"/><text fill="#000000" font-family="sans-serif" font-size="12" lengthAdjust="spacing" textLength="247.5645" x="114.9253" y="131.9434">Receive the message from the event bus</text><rect fill="#F1F1F1" height="33.9688" rx="12.5" ry="12.5" style="stroke:#181818;stroke-width:0.5;" width="194.1172" x="141.6489" y="164.7734"/><text fill="#000000" font-family="sans-serif" font-size="12" lengthAdjust="spacing" textLength="174.1172" x="151.6489" y="185.9121">Cache the received message</text><rect fill="#F1F1F1" height="33.9688" rx="12.5" ry="12.5" style="stroke:#181818;stroke-width:0.5;" width="207.6172" x="134.8989" y="322.855"/><text fill="#000000" font-family="sans-serif" font-size="12" lengthAdjust="spacing" textLength="187.6172" x="144.8989" y="343.9937">Send the message to the client</text><polygon fill="#F1F1F1" points="99.0725,274.4526,378.3425,274.4526,390.3425,286.4526,378.3425,298.4526,99.0725,298.4526,87.0725,286.4526,99.0725,274.4526" style="stroke:#181818;stroke-width:0.5;"/><text fill="#000000" font-family="sans-serif" font-size="11" lengthAdjust="spacing" textLength="19.0083" x="242.7075" y="308.6631">yes</text><text fill="#000000" font-family="sans-serif" font-size="11" lengthAdjust="spacing" textLength="279.27" x="99.0725" y="290.2607">Does the message matches the connection filters?</text><text fill="#000000" font-family="sans-serif" font-size="11" lengthAdjust="spacing" textLength="13.7017" x="390.3425" y="283.8584">no</text><polygon fill="#F1F1F1" points="238.7075,376.8237,250.7075,388.8237,238.7075,400.8237,226.7075,388.8237,238.7075,376.8237" style="stroke:#181818;stroke-width:0.5;"/><polygon fill="#F1F1F1" points="134.0061,218.7422,343.4089,218.7422,355.4089,230.7422,343.4089,242.7422,134.0061,242.7422,122.0061,230.7422,134.0061,218.7422" style="stroke:#181818;stroke-width:0.5;"/><text fill="#000000" font-family="sans-serif" font-size="11" lengthAdjust="spacing" textLength="19.0083" x="242.7075" y="252.9526">yes</text><text fill="#000000" font-family="sans-serif" font-size="11" lengthAdjust="spacing" textLength="209.4028" x="134.0061" y="234.5503">Is there an open connection to notify?</text><text fill="#000000" font-family="sans-serif" font-size="11" lengthAdjust="spacing" textLength="13.7017" x="108.3044" y="228.1479">no</text><polygon fill="#F1F1F1" points="161.4336,50,315.9814,50,327.9814,62,315.9814,74,161.4336,74,149.4336,62,161.4336,50" style="stroke:#181818;stroke-width:0.5;"/><text fill="#000000" font-family="sans-serif" font-size="11" lengthAdjust="spacing" textLength="100.3535" x="242.7075" y="84.2104">message received</text><text fill="#000000" font-family="sans-serif" font-size="11" lengthAdjust="spacing" textLength="154.5479" x="161.4336" y="65.8081">Wait for event bus message</text><text fill="#000000" font-family="sans-serif" font-size="11" lengthAdjust="spacing" textLength="139.4336" x="10" y="59.4058">application error/stopped</text><ellipse cx="40.0725" cy="109" fill="none" rx="11" ry="11" style="stroke:#222222;stroke-width:1;"/><ellipse cx="40.0725" cy="109" fill="#222222" rx="6" ry="6" style="stroke:#222222;stroke-width:1;"/><line style="stroke:#181818;stroke-width:1;" x1="238.7075" x2="238.7075" y1="144.7734" y2="164.7734"/><polygon fill="#181818" points="234.7075,154.7734,238.7075,164.7734,242.7075,154.7734,238.7075,158.7734" style="stroke:#181818;stroke-width:1;"/><line style="stroke:#181818;stroke-width:1;" x1="238.7075" x2="238.7075" y1="298.4526" y2="322.855"/><polygon fill="#181818" points="234.7075,312.855,238.7075,322.855,242.7075,312.855,238.7075,316.855" style="stroke:#181818;stroke-width:1;"/><line style="stroke:#181818;stroke-width:1;" x1="390.3425" x2="402.3425" y1="286.4526" y2="286.4526"/><polygon fill="#181818" points="398.3425,329.8394,402.3425,339.8394,406.3425,329.8394,402.3425,333.8394" style="stroke:#181818;stroke-width:1;"/><line style="stroke:#181818;stroke-width:1;" x1="402.3425" x2="402.3425" y1="286.4526" y2="388.8237"/><line style="stroke:#181818;stroke-width:1;" x1="402.3425" x2="250.7075" y1="388.8237" y2="388.8237"/><polygon fill="#181818" points="260.7075,384.8237,250.7075,388.8237,260.7075,392.8237,256.7075,388.8237" style="stroke:#181818;stroke-width:1;"/><line style="stroke:#181818;stroke-width:1;" x1="238.7075" x2="238.7075" y1="356.8237" y2="376.8237"/><polygon fill="#181818" points="234.7075,366.8237,238.7075,376.8237,242.7075,366.8237,238.7075,370.8237" style="stroke:#181818;stroke-width:1;"/><line style="stroke:#181818;stroke-width:1;" x1="238.7075" x2="238.7075" y1="242.7422" y2="274.4526"/><polygon fill="#181818" points="234.7075,264.4526,238.7075,274.4526,242.7075,264.4526,238.7075,268.4526" style="stroke:#181818;stroke-width:1;"/><line style="stroke:#181818;stroke-width:1;" x1="238.7075" x2="238.7075" y1="400.8237" y2="410.8237"/><line style="stroke:#181818;stroke-width:1;" x1="238.7075" x2="414.3425" y1="410.8237" y2="410.8237"/><polygon fill="#181818" points="410.3425,331.437,414.3425,321.437,418.3425,331.437,414.3425,327.437" style="stroke:#181818;stroke-width:1;"/><line style="stroke:#181818;stroke-width:1;" x1="414.3425" x2="414.3425" y1="230.7422" y2="410.8237"/><line style="stroke:#181818;stroke-width:1;" x1="414.3425" x2="355.4089" y1="230.7422" y2="230.7422"/><polygon fill="#181818" points="365.4089,226.7422,355.4089,230.7422,365.4089,234.7422,361.4089,230.7422" style="stroke:#181818;stroke-width:1;"/><line style="stroke:#181818;stroke-width:1;" x1="122.0061" x2="75.0725" y1="230.7422" y2="230.7422"/><polygon fill="#181818" points="71.0725,317.437,75.0725,327.437,79.0725,317.437,75.0725,321.437" style="stroke:#181818;stroke-width:1;"/><line style="stroke:#181818;stroke-width:1;" x1="75.0725" x2="75.0725" y1="230.7422" y2="422.8237"/><line style="stroke:#181818;stroke-width:1;" x1="75.0725" x2="426.3425" y1="422.8237" y2="422.8237"/><line style="stroke:#181818;stroke-width:1;" x1="426.3425" x2="426.3425" y1="62" y2="422.8237"/><line style="stroke:#181818;stroke-width:1;" x1="426.3425" x2="327.9814" y1="62" y2="62"/><polygon fill="#181818" points="337.9814,58,327.9814,62,337.9814,66,333.9814,62" style="stroke:#181818;stroke-width:1;"/><line style="stroke:#181818;stroke-width:1;" x1="238.7075" x2="238.7075" y1="198.7422" y2="218.7422"/><polygon fill="#181818" points="234.7075,208.7422,238.7075,218.7422,242.7075,208.7422,238.7075,212.7422" style="stroke:#181818;stroke-width:1;"/><line style="stroke:#181818;stroke-width:1;" x1="238.7075" x2="238.7075" y1="74" y2="110.8047"/><polygon fill="#181818" points="234.7075,100.8047,238.7075,110.8047,242.7075,100.8047,238.7075,104.8047" style="stroke:#181818;stroke-width:1;"/><line style="stroke:#181818;stroke-width:1;" x1="149.4336" x2="40.0725" y1="62" y2="62"/><line style="stroke:#181818;stroke-width:1;" x1="40.0725" x2="40.0725" y1="62" y2="98"/><polygon fill="#181818" points="36.0725,88,40.0725,98,44.0725,88,40.0725,92" style="stroke:#181818;stroke-width:1;"/><line style="stroke:#181818;stroke-width:1;" x1="238.7075" x2="238.7075" y1="30" y2="50"/><polygon fill="#181818" points="234.7075,40,238.7075,50,242.7075,40,238.7075,44" style="stroke:#181818;stroke-width:1;"/><!--SRC=[LP2nKiCm38RtF8N6T6Ad0mCih30m6rSckdCadwIMwzjZnqb8DKc-pxy-spoe3xyJPOJnAv134WMy8JjyNmrcD0i_U08o6DS152FI3I-d0MezV_GHVCADXwGoBmTxrBd3ho5E7TrIjZiTM5NUhJ6A41Ya84CKPenEmk02B4xf_jArxcZTf1Kb6Dy4xS5c3bwtzhD3KABig7Q8QGJlMOlm9_Bb8QokNt8orPUTTnYpLM-MVvLwaTAmTjl36d0OGocPObXqK5NqoLnAQN_RcZy0]--></g></svg>