<svg xmlns="http://www.w3.org/2000/svg" xmlns:xlink="http://www.w3.org/1999/xlink" contentStyleType="text/css" data-diagram-type="ACTIVITY" height="606px" preserveAspectRatio="none" style="width:2342px;height:606px;background:#FFFFFF;" version="1.1" viewBox="0 0 2342 606" width="2342px" zoomAndPan="magnify"><defs/><g><ellipse cx="1156.0504" cy="20" fill="#222222" rx="10" ry="10" style="stroke:#222222;stroke-width:1;"/><rect fill="#555555" height="6" rx="2.5" ry="2.5" style="stroke:#555555;stroke-width:1;" width="2320.1008" x="11" y="50"/><rect fill="none" height="467.4805" style="stroke:#000000;stroke-width:1.5;" width="539.7227" x="23" y="66"/><path d="M219.0811,66 L219.0811,75.2969 L209.0811,85.2969 L23,85.2969 " fill="none" style="stroke:#000000;stroke-width:1.5;"/><text fill="#000000" font-family="sans-serif" font-size="14" lengthAdjust="spacing" textLength="186.0811" x="26" y="79.9951">Process physiological alert</text><rect fill="#F1F1F1" height="33.9688" rx="12.5" ry="12.5" style="stroke:#181818;stroke-width:0.5;" width="342.5293" x="105.7344" y="150.6992"/><text fill="#000000" font-family="sans-serif" font-size="12" lengthAdjust="spacing" textLength="322.5293" x="115.7344" y="171.8379">Get existing alert with same code, patient and device</text><polygon fill="#F1F1F1" points="209.6643,205.7383,344.3337,205.7383,356.3337,217.7383,344.3337,229.7383,209.6643,229.7383,197.6643,217.7383,209.6643,205.7383" style="stroke:#181818;stroke-width:0.5;"/><text fill="#000000" font-family="sans-serif" font-size="11" lengthAdjust="spacing" textLength="134.6694" x="209.6643" y="221.5464">Incoming alert is active?</text><text fill="#000000" font-family="sans-serif" font-size="11" lengthAdjust="spacing" textLength="19.0083" x="178.656" y="215.144">yes</text><text fill="#000000" font-family="sans-serif" font-size="11" lengthAdjust="spacing" textLength="13.7017" x="356.3337" y="215.144">no</text><rect fill="#F1F1F1" height="33.9688" rx="12.5" ry="12.5" style="stroke:#181818;stroke-width:0.5;" width="173.6387" x="56.249" y="288.1406"/><text fill="#000000" font-family="sans-serif" font-size="12" lengthAdjust="spacing" textLength="153.6387" x="66.249" y="309.2793">Create physiological alert</text><rect fill="#F1F1F1" height="33.9688" rx="12.5" ry="12.5" style="stroke:#181818;stroke-width:0.5;" width="216.1367" x="35" y="357.1094"/><text fill="#000000" font-family="sans-serif" font-size="12" lengthAdjust="spacing" textLength="196.1367" x="45" y="378.248">Notify alert created to event bus</text><polygon fill="#F1F1F1" points="65.9019,239.7383,220.2349,239.7383,232.2349,251.7383,220.2349,263.7383,65.9019,263.7383,53.9019,251.7383,65.9019,239.7383" style="stroke:#181818;stroke-width:0.5;"/><text fill="#000000" font-family="sans-serif" font-size="11" lengthAdjust="spacing" textLength="13.7017" x="147.0684" y="273.9487">no</text><text fill="#000000" font-family="sans-serif" font-size="11" lengthAdjust="spacing" textLength="154.333" x="65.9019" y="255.5464">Does an alert already exist?</text><text fill="#000000" font-family="sans-serif" font-size="11" lengthAdjust="spacing" textLength="19.0083" x="232.2349" y="249.144">yes</text><polygon fill="#F1F1F1" points="143.0684,415.4805,155.0684,427.4805,143.0684,439.4805,131.0684,427.4805,143.0684,415.4805" style="stroke:#181818;stroke-width:0.5;"/><rect fill="#F1F1F1" height="33.9688" rx="12.5" ry="12.5" style="stroke:#181818;stroke-width:0.5;" width="142.0977" x="339.8809" y="288.1406"/><text fill="#000000" font-family="sans-serif" font-size="12" lengthAdjust="spacing" textLength="122.0977" x="349.8809" y="309.2793">Delete existing alert</text><rect fill="#F1F1F1" height="33.9688" rx="12.5" ry="12.5" style="stroke:#181818;stroke-width:0.5;" width="215.5859" x="303.1367" y="357.1094"/><text fill="#000000" font-family="sans-serif" font-size="12" lengthAdjust="spacing" textLength="195.5859" x="313.1367" y="378.248">Notify alert deleted to event bus</text><polygon fill="#F1F1F1" points="333.7632,239.7383,488.0962,239.7383,500.0962,251.7383,488.0962,263.7383,333.7632,263.7383,321.7632,251.7383,333.7632,239.7383" style="stroke:#181818;stroke-width:0.5;"/><text fill="#000000" font-family="sans-serif" font-size="11" lengthAdjust="spacing" textLength="19.0083" x="414.9297" y="273.9487">yes</text><text fill="#000000" font-family="sans-serif" font-size="11" lengthAdjust="spacing" textLength="154.333" x="333.7632" y="255.5464">Does an alert already exist?</text><text fill="#000000" font-family="sans-serif" font-size="11" lengthAdjust="spacing" textLength="13.7017" x="500.0962" y="249.144">no</text><polygon fill="#F1F1F1" points="410.9297,415.4805,422.9297,427.4805,410.9297,439.4805,398.9297,427.4805,410.9297,415.4805" style="stroke:#181818;stroke-width:0.5;"/><polygon fill="#F1F1F1" points="276.999,445.4805,288.999,457.4805,276.999,469.4805,264.999,457.4805,276.999,445.4805" style="stroke:#181818;stroke-width:0.5;"/><polygon fill="#F1F1F1" points="217.5706,102.2969,336.4275,102.2969,348.4275,114.2969,336.4275,126.2969,217.5706,126.2969,205.5706,114.2969,217.5706,102.2969" style="stroke:#181818;stroke-width:0.5;"/><text fill="#000000" font-family="sans-serif" font-size="11" lengthAdjust="spacing" textLength="19.0083" x="280.999" y="136.5073">yes</text><text fill="#000000" font-family="sans-serif" font-size="11" lengthAdjust="spacing" textLength="118.8569" x="217.5706" y="118.105">Is physiological alert?</text><text fill="#000000" font-family="sans-serif" font-size="11" lengthAdjust="spacing" textLength="13.7017" x="348.4275" y="111.7026">no</text><polygon fill="#F1F1F1" points="276.999,489.4805,288.999,501.4805,276.999,513.4805,264.999,501.4805,276.999,489.4805" style="stroke:#181818;stroke-width:0.5;"/><ellipse cx="276.999" cy="569.0078" fill="none" rx="10" ry="10" style="stroke:#222222;stroke-width:1.5;"/><line style="stroke:#222222;stroke-width:2.5;" x1="270.8118" x2="283.1862" y1="562.8206" y2="575.195"/><line style="stroke:#222222;stroke-width:2.5;" x1="283.1862" x2="270.8118" y1="562.8206" y2="575.195"/><rect fill="none" height="467.4805" style="stroke:#000000;stroke-width:1.5;" width="767.7852" x="572.7227" y="66"/><path d="M741.2139,66 L741.2139,75.2969 L731.2139,85.2969 L572.7227,85.2969 " fill="none" style="stroke:#000000;stroke-width:1.5;"/><text fill="#000000" font-family="sans-serif" font-size="14" lengthAdjust="spacing" textLength="158.4912" x="575.7227" y="79.9951">Process technical alert</text><rect fill="#F1F1F1" height="33.9688" rx="12.5" ry="12.5" style="stroke:#181818;stroke-width:0.5;" width="292.1973" x="855.1606" y="150.6992"/><text fill="#000000" font-family="sans-serif" font-size="12" lengthAdjust="spacing" textLength="272.1973" x="865.1606" y="171.8379">Get existing alert with same code and device</text><polygon fill="#F1F1F1" points="933.9246,205.7383,1068.594,205.7383,1080.594,217.7383,1068.594,229.7383,933.9246,229.7383,921.9246,217.7383,933.9246,205.7383" style="stroke:#181818;stroke-width:0.5;"/><text fill="#000000" font-family="sans-serif" font-size="11" lengthAdjust="spacing" textLength="134.6694" x="933.9246" y="221.5464">Incoming alert is active?</text><text fill="#000000" font-family="sans-serif" font-size="11" lengthAdjust="spacing" textLength="19.0083" x="902.9163" y="215.144">yes</text><text fill="#000000" font-family="sans-serif" font-size="11" lengthAdjust="spacing" textLength="13.7017" x="1080.594" y="215.144">no</text><polygon fill="#F1F1F1" points="736.6372,239.7383,890.9702,239.7383,902.9702,251.7383,890.9702,263.7383,736.6372,263.7383,724.6372,251.7383,736.6372,239.7383" style="stroke:#181818;stroke-width:0.5;"/><text fill="#000000" font-family="sans-serif" font-size="11" lengthAdjust="spacing" textLength="154.333" x="736.6372" y="255.5464">Does an alert already exist?</text><text fill="#000000" font-family="sans-serif" font-size="11" lengthAdjust="spacing" textLength="19.0083" x="705.6289" y="249.144">yes</text><text fill="#000000" font-family="sans-serif" font-size="11" lengthAdjust="spacing" textLength="13.7017" x="902.9702" y="249.144">no</text><rect fill="#F1F1F1" height="33.9688" rx="12.5" ry="12.5" style="stroke:#181818;stroke-width:0.5;" width="146.1289" x="621.6895" y="273.7383"/><text fill="#000000" font-family="sans-serif" font-size="12" lengthAdjust="spacing" textLength="126.1289" x="631.6895" y="294.877">Update existing alert</text><rect fill="#F1F1F1" height="33.9688" rx="12.5" ry="12.5" style="stroke:#181818;stroke-width:0.5;" width="220.0625" x="584.7227" y="342.707"/><text fill="#000000" font-family="sans-serif" font-size="12" lengthAdjust="spacing" textLength="200.0625" x="594.7227" y="363.8457">Notify alert updated to event bus</text><rect fill="#F1F1F1" height="33.9688" rx="12.5" ry="12.5" style="stroke:#181818;stroke-width:0.5;" width="120.2773" x="872.7148" y="273.7383"/><text fill="#000000" font-family="sans-serif" font-size="12" lengthAdjust="spacing" textLength="100.2773" x="882.7148" y="294.877">Create new alert</text><rect fill="#F1F1F1" height="33.9688" rx="12.5" ry="12.5" style="stroke:#181818;stroke-width:0.5;" width="216.1367" x="824.7852" y="342.707"/><text fill="#000000" font-family="sans-serif" font-size="12" lengthAdjust="spacing" textLength="196.1367" x="834.7852" y="363.8457">Notify alert created to event bus</text><polygon fill="#F1F1F1" points="813.8037,382.6758,825.8037,394.6758,813.8037,406.6758,801.8037,394.6758,813.8037,382.6758" style="stroke:#181818;stroke-width:0.5;"/><rect fill="#F1F1F1" height="33.9688" rx="12.5" ry="12.5" style="stroke:#181818;stroke-width:0.5;" width="142.0977" x="1117.666" y="288.1406"/><text fill="#000000" font-family="sans-serif" font-size="12" lengthAdjust="spacing" textLength="122.0977" x="1127.666" y="309.2793">Delete existing alert</text><rect fill="#F1F1F1" height="33.9688" rx="12.5" ry="12.5" style="stroke:#181818;stroke-width:0.5;" width="215.5859" x="1080.9219" y="357.1094"/><text fill="#000000" font-family="sans-serif" font-size="12" lengthAdjust="spacing" textLength="195.5859" x="1090.9219" y="378.248">Notify alert deleted to event bus</text><polygon fill="#F1F1F1" points="1111.5483,239.7383,1265.8813,239.7383,1277.8813,251.7383,1265.8813,263.7383,1111.5483,263.7383,1099.5483,251.7383,1111.5483,239.7383" style="stroke:#181818;stroke-width:0.5;"/><text fill="#000000" font-family="sans-serif" font-size="11" lengthAdjust="spacing" textLength="19.0083" x="1192.7148" y="273.9487">yes</text><text fill="#000000" font-family="sans-serif" font-size="11" lengthAdjust="spacing" textLength="154.333" x="1111.5483" y="255.5464">Does an alert already exist?</text><text fill="#000000" font-family="sans-serif" font-size="11" lengthAdjust="spacing" textLength="13.7017" x="1277.8813" y="249.144">no</text><polygon fill="#F1F1F1" points="1188.7148,415.4805,1200.7148,427.4805,1188.7148,439.4805,1176.7148,427.4805,1188.7148,415.4805" style="stroke:#181818;stroke-width:0.5;"/><polygon fill="#F1F1F1" points="1001.2593,445.4805,1013.2593,457.4805,1001.2593,469.4805,989.2593,457.4805,1001.2593,445.4805" style="stroke:#181818;stroke-width:0.5;"/><polygon fill="#F1F1F1" points="952.6697,102.2969,1049.8489,102.2969,1061.8489,114.2969,1049.8489,126.2969,952.6697,126.2969,940.6697,114.2969,952.6697,102.2969" style="stroke:#181818;stroke-width:0.5;"/><text fill="#000000" font-family="sans-serif" font-size="11" lengthAdjust="spacing" textLength="19.0083" x="1005.2593" y="136.5073">yes</text><text fill="#000000" font-family="sans-serif" font-size="11" lengthAdjust="spacing" textLength="97.1792" x="952.6697" y="118.105">Is technical alert?</text><text fill="#000000" font-family="sans-serif" font-size="11" lengthAdjust="spacing" textLength="13.7017" x="1061.8489" y="111.7026">no</text><polygon fill="#F1F1F1" points="1001.2593,489.4805,1013.2593,501.4805,1001.2593,513.4805,989.2593,501.4805,1001.2593,489.4805" style="stroke:#181818;stroke-width:0.5;"/><ellipse cx="1001.2593" cy="569.0078" fill="none" rx="10" ry="10" style="stroke:#222222;stroke-width:1.5;"/><line style="stroke:#222222;stroke-width:2.5;" x1="995.0721" x2="1007.4465" y1="562.8206" y2="575.195"/><line style="stroke:#222222;stroke-width:2.5;" x1="1007.4465" x2="995.0721" y1="562.8206" y2="575.195"/><rect fill="none" height="368.5352" style="stroke:#000000;stroke-width:1.5;" width="968.593" x="1350.5078" y="115.4727"/><path d="M1476.7393,115.4727 L1476.7393,124.7695 L1466.7393,134.7695 L1350.5078,134.7695 " fill="none" style="stroke:#000000;stroke-width:1.5;"/><text fill="#000000" font-family="sans-serif" font-size="14" lengthAdjust="spacing" textLength="116.2314" x="1353.5078" y="129.4678">Process alert log</text><rect fill="#F1F1F1" height="33.9688" rx="12.5" ry="12.5" style="stroke:#181818;stroke-width:0.5;" width="386.7031" x="1817.9022" y="151.7695"/><text fill="#000000" font-family="sans-serif" font-size="12" lengthAdjust="spacing" textLength="366.7031" x="1827.9022" y="172.9082">Get alert log with same code, device and determination time</text><polygon fill="#F1F1F1" points="1946.3629,206.8086,2076.1447,206.8086,2088.1447,218.8086,2076.1447,230.8086,1946.3629,230.8086,1934.3629,218.8086,1946.3629,206.8086" style="stroke:#181818;stroke-width:0.5;"/><text fill="#000000" font-family="sans-serif" font-size="11" lengthAdjust="spacing" textLength="129.7817" x="1946.3629" y="222.6167">Does an alert log exist?</text><text fill="#000000" font-family="sans-serif" font-size="11" lengthAdjust="spacing" textLength="19.0083" x="1915.3546" y="216.2144">yes</text><text fill="#000000" font-family="sans-serif" font-size="11" lengthAdjust="spacing" textLength="13.7017" x="2088.1447" y="216.2144">no</text><path d="M1362.5078,289.2109 L1362.5078,390.0078 A0,0 0 0 0 1362.5078,390.0078 L1743.9722,390.0078 A0,0 0 0 0 1743.9722,390.0078 L1743.9722,343.6094 L1763.9722,339.6094 L1743.9722,335.6094 L1743.9722,299.2109 L1733.9722,289.2109 L1362.5078,289.2109 A0,0 0 0 0 1362.5078,289.2109 " fill="#FEFFDD" style="stroke:#181818;stroke-width:0.5;"/><path d="M1733.9722,289.2109 L1733.9722,299.2109 L1743.9722,299.2109 L1733.9722,289.2109 " fill="#FEFFDD" style="stroke:#181818;stroke-width:0.5;"/><text fill="#000000" font-family="sans-serif" font-size="13" lengthAdjust="spacing" textLength="265.1543" x="1368.5078" y="306.2778">This means an alert with the same code,</text><text fill="#000000" font-family="sans-serif" font-size="13" lengthAdjust="spacing" textLength="303.9004" x="1368.5078" y="321.4106">device and determination time triggered twice</text><text fill="#000000" font-family="sans-serif" font-size="13" lengthAdjust="spacing" textLength="282.5469" x="1368.5078" y="336.5435">once active and once inactive (or latching).</text><text fill="#000000" font-family="sans-serif" font-size="13" lengthAdjust="spacing" textLength="4.1323" x="1368.5078" y="351.6763">&#160;</text><text fill="#000000" font-family="sans-serif" font-size="13" lengthAdjust="spacing" textLength="360.4644" x="1368.5078" y="366.8091">This is an error as the determination time must change</text><text fill="#000000" font-family="sans-serif" font-size="13" lengthAdjust="spacing" textLength="271.8511" x="1368.5078" y="381.9419">when an alert is activated or deactivated.</text><rect fill="#F1F1F1" height="33.9688" rx="12.5" ry="12.5" style="stroke:#181818;stroke-width:0.5;" width="164.6211" x="1763.9722" y="322.625"/><text fill="#000000" font-family="sans-serif" font-size="12" lengthAdjust="spacing" textLength="144.6211" x="1773.9722" y="343.7637">Notify an error occurred</text><polygon fill="#F1F1F1" points="1691.2166,240.8086,2001.3489,240.8086,2013.3489,252.8086,2001.3489,264.8086,1691.2166,264.8086,1679.2166,252.8086,1691.2166,240.8086" style="stroke:#181818;stroke-width:0.5;"/><text fill="#000000" font-family="sans-serif" font-size="11" lengthAdjust="spacing" textLength="19.0083" x="1850.2827" y="275.019">yes</text><text fill="#000000" font-family="sans-serif" font-size="11" lengthAdjust="spacing" textLength="310.1323" x="1691.2166" y="256.6167">Is the activation state different from the incoming alert?</text><text fill="#000000" font-family="sans-serif" font-size="11" lengthAdjust="spacing" textLength="13.7017" x="2013.3489" y="250.2144">no</text><polygon fill="#F1F1F1" points="1846.2827,414.4102,1858.2827,426.4102,1846.2827,438.4102,1834.2827,426.4102,1846.2827,414.4102" style="stroke:#181818;stroke-width:0.5;"/><rect fill="#F1F1F1" height="33.9688" rx="12.5" ry="12.5" style="stroke:#181818;stroke-width:0.5;" width="248.0527" x="2052.1985" y="240.8086"/><text fill="#000000" font-family="sans-serif" font-size="12" lengthAdjust="spacing" textLength="228.0527" x="2062.1985" y="261.9473">Create alert log for the incoming alert</text><rect fill="#F1F1F1" height="33.9688" rx="12.5" ry="12.5" style="stroke:#181818;stroke-width:0.5;" width="261.752" x="2045.3489" y="309.7773"/><text fill="#000000" font-family="sans-serif" font-size="12" lengthAdjust="spacing" textLength="241.752" x="2055.3489" y="330.916">Notify alert log created to the event bus</text><polygon fill="#F1F1F1" points="2011.2538,444.4102,2023.2538,456.4102,2011.2538,468.4102,1999.2538,456.4102,2011.2538,444.4102" style="stroke:#181818;stroke-width:0.5;"/><ellipse cx="2011.2538" cy="529.0078" fill="none" rx="10" ry="10" style="stroke:#222222;stroke-width:1.5;"/><line style="stroke:#222222;stroke-width:2.5;" x1="2005.0666" x2="2017.441" y1="522.8206" y2="535.195"/><line style="stroke:#222222;stroke-width:2.5;" x1="2017.441" x2="2005.0666" y1="522.8206" y2="535.195"/><rect fill="#555555" height="6" rx="2.5" ry="2.5" style="stroke:#555555;stroke-width:1;" width="2320.1008" x="11" y="589.0078"/><line style="stroke:#181818;stroke-width:1;" x1="143.0684" x2="143.0684" y1="322.1094" y2="357.1094"/><polygon fill="#181818" points="139.0684,347.1094,143.0684,357.1094,147.0684,347.1094,143.0684,351.1094" style="stroke:#181818;stroke-width:1;"/><line style="stroke:#181818;stroke-width:1;" x1="143.0684" x2="143.0684" y1="263.7383" y2="288.1406"/><polygon fill="#181818" points="139.0684,278.1406,143.0684,288.1406,147.0684,278.1406,143.0684,282.1406" style="stroke:#181818;stroke-width:1;"/><line style="stroke:#181818;stroke-width:1;" x1="232.2349" x2="261.1367" y1="251.7383" y2="251.7383"/><polygon fill="#181818" points="257.1367,329.6094,261.1367,339.6094,265.1367,329.6094,261.1367,333.6094" style="stroke:#181818;stroke-width:1;"/><line style="stroke:#181818;stroke-width:1;" x1="261.1367" x2="261.1367" y1="251.7383" y2="427.4805"/><line style="stroke:#181818;stroke-width:1;" x1="261.1367" x2="155.0684" y1="427.4805" y2="427.4805"/><polygon fill="#181818" points="165.0684,423.4805,155.0684,427.4805,165.0684,431.4805,161.0684,427.4805" style="stroke:#181818;stroke-width:1;"/><line style="stroke:#181818;stroke-width:1;" x1="143.0684" x2="143.0684" y1="391.0781" y2="415.4805"/><polygon fill="#181818" points="139.0684,405.4805,143.0684,415.4805,147.0684,405.4805,143.0684,409.4805" style="stroke:#181818;stroke-width:1;"/><line style="stroke:#181818;stroke-width:1;" x1="410.9297" x2="410.9297" y1="322.1094" y2="357.1094"/><polygon fill="#181818" points="406.9297,347.1094,410.9297,357.1094,414.9297,347.1094,410.9297,351.1094" style="stroke:#181818;stroke-width:1;"/><line style="stroke:#181818;stroke-width:1;" x1="410.9297" x2="410.9297" y1="263.7383" y2="288.1406"/><polygon fill="#181818" points="406.9297,278.1406,410.9297,288.1406,414.9297,278.1406,410.9297,282.1406" style="stroke:#181818;stroke-width:1;"/><line style="stroke:#181818;stroke-width:1;" x1="500.0962" x2="528.7227" y1="251.7383" y2="251.7383"/><polygon fill="#181818" points="524.7227,329.6094,528.7227,339.6094,532.7227,329.6094,528.7227,333.6094" style="stroke:#181818;stroke-width:1;"/><line style="stroke:#181818;stroke-width:1;" x1="528.7227" x2="528.7227" y1="251.7383" y2="427.4805"/><line style="stroke:#181818;stroke-width:1;" x1="528.7227" x2="422.9297" y1="427.4805" y2="427.4805"/><polygon fill="#181818" points="432.9297,423.4805,422.9297,427.4805,432.9297,431.4805,428.9297,427.4805" style="stroke:#181818;stroke-width:1;"/><line style="stroke:#181818;stroke-width:1;" x1="410.9297" x2="410.9297" y1="391.0781" y2="415.4805"/><polygon fill="#181818" points="406.9297,405.4805,410.9297,415.4805,414.9297,405.4805,410.9297,409.4805" style="stroke:#181818;stroke-width:1;"/><line style="stroke:#181818;stroke-width:1;" x1="197.6643" x2="143.0684" y1="217.7383" y2="217.7383"/><line style="stroke:#181818;stroke-width:1;" x1="143.0684" x2="143.0684" y1="217.7383" y2="239.7383"/><polygon fill="#181818" points="139.0684,229.7383,143.0684,239.7383,147.0684,229.7383,143.0684,233.7383" style="stroke:#181818;stroke-width:1;"/><line style="stroke:#181818;stroke-width:1;" x1="356.3337" x2="410.9297" y1="217.7383" y2="217.7383"/><line style="stroke:#181818;stroke-width:1;" x1="410.9297" x2="410.9297" y1="217.7383" y2="239.7383"/><polygon fill="#181818" points="406.9297,229.7383,410.9297,239.7383,414.9297,229.7383,410.9297,233.7383" style="stroke:#181818;stroke-width:1;"/><line style="stroke:#181818;stroke-width:1;" x1="143.0684" x2="143.0684" y1="439.4805" y2="457.4805"/><line style="stroke:#181818;stroke-width:1;" x1="143.0684" x2="264.999" y1="457.4805" y2="457.4805"/><polygon fill="#181818" points="254.999,453.4805,264.999,457.4805,254.999,461.4805,258.999,457.4805" style="stroke:#181818;stroke-width:1;"/><line style="stroke:#181818;stroke-width:1;" x1="410.9297" x2="410.9297" y1="439.4805" y2="457.4805"/><line style="stroke:#181818;stroke-width:1;" x1="410.9297" x2="288.999" y1="457.4805" y2="457.4805"/><polygon fill="#181818" points="298.999,453.4805,288.999,457.4805,298.999,461.4805,294.999,457.4805" style="stroke:#181818;stroke-width:1;"/><line style="stroke:#181818;stroke-width:1;" x1="276.999" x2="276.999" y1="184.668" y2="205.7383"/><polygon fill="#181818" points="272.999,195.7383,276.999,205.7383,280.999,195.7383,276.999,199.7383" style="stroke:#181818;stroke-width:1;"/><line style="stroke:#181818;stroke-width:1;" x1="276.999" x2="276.999" y1="126.2969" y2="150.6992"/><polygon fill="#181818" points="272.999,140.6992,276.999,150.6992,280.999,140.6992,276.999,144.6992" style="stroke:#181818;stroke-width:1;"/><line style="stroke:#181818;stroke-width:1;" x1="348.4275" x2="546.7227" y1="114.2969" y2="114.2969"/><polygon fill="#181818" points="542.7227,293.125,546.7227,303.125,550.7227,293.125,546.7227,297.125" style="stroke:#181818;stroke-width:1;"/><line style="stroke:#181818;stroke-width:1;" x1="546.7227" x2="546.7227" y1="114.2969" y2="501.4805"/><line style="stroke:#181818;stroke-width:1;" x1="546.7227" x2="288.999" y1="501.4805" y2="501.4805"/><polygon fill="#181818" points="298.999,497.4805,288.999,501.4805,298.999,505.4805,294.999,501.4805" style="stroke:#181818;stroke-width:1;"/><line style="stroke:#181818;stroke-width:1;" x1="276.999" x2="276.999" y1="469.4805" y2="489.4805"/><polygon fill="#181818" points="272.999,479.4805,276.999,489.4805,280.999,479.4805,276.999,483.4805" style="stroke:#181818;stroke-width:1;"/><line style="stroke:#181818;stroke-width:1;" x1="276.999" x2="276.999" y1="513.4805" y2="559.0078"/><polygon fill="#181818" points="272.999,549.0078,276.999,559.0078,280.999,549.0078,276.999,553.0078" style="stroke:#181818;stroke-width:1;"/><line style="stroke:#181818;stroke-width:1;" x1="694.7539" x2="694.7539" y1="307.707" y2="342.707"/><polygon fill="#181818" points="690.7539,332.707,694.7539,342.707,698.7539,332.707,694.7539,336.707" style="stroke:#181818;stroke-width:1;"/><line style="stroke:#181818;stroke-width:1;" x1="932.8535" x2="932.8535" y1="307.707" y2="342.707"/><polygon fill="#181818" points="928.8535,332.707,932.8535,342.707,936.8535,332.707,932.8535,336.707" style="stroke:#181818;stroke-width:1;"/><line style="stroke:#181818;stroke-width:1;" x1="724.6372" x2="694.7539" y1="251.7383" y2="251.7383"/><line style="stroke:#181818;stroke-width:1;" x1="694.7539" x2="694.7539" y1="251.7383" y2="273.7383"/><polygon fill="#181818" points="690.7539,263.7383,694.7539,273.7383,698.7539,263.7383,694.7539,267.7383" style="stroke:#181818;stroke-width:1;"/><line style="stroke:#181818;stroke-width:1;" x1="902.9702" x2="932.8535" y1="251.7383" y2="251.7383"/><line style="stroke:#181818;stroke-width:1;" x1="932.8535" x2="932.8535" y1="251.7383" y2="273.7383"/><polygon fill="#181818" points="928.8535,263.7383,932.8535,273.7383,936.8535,263.7383,932.8535,267.7383" style="stroke:#181818;stroke-width:1;"/><line style="stroke:#181818;stroke-width:1;" x1="694.7539" x2="694.7539" y1="376.6758" y2="394.6758"/><line style="stroke:#181818;stroke-width:1;" x1="694.7539" x2="801.8037" y1="394.6758" y2="394.6758"/><polygon fill="#181818" points="791.8037,390.6758,801.8037,394.6758,791.8037,398.6758,795.8037,394.6758" style="stroke:#181818;stroke-width:1;"/><line style="stroke:#181818;stroke-width:1;" x1="932.8535" x2="932.8535" y1="376.6758" y2="394.6758"/><line style="stroke:#181818;stroke-width:1;" x1="932.8535" x2="825.8037" y1="394.6758" y2="394.6758"/><polygon fill="#181818" points="835.8037,390.6758,825.8037,394.6758,835.8037,398.6758,831.8037,394.6758" style="stroke:#181818;stroke-width:1;"/><line style="stroke:#181818;stroke-width:1;" x1="1188.7148" x2="1188.7148" y1="322.1094" y2="357.1094"/><polygon fill="#181818" points="1184.7148,347.1094,1188.7148,357.1094,1192.7148,347.1094,1188.7148,351.1094" style="stroke:#181818;stroke-width:1;"/><line style="stroke:#181818;stroke-width:1;" x1="1188.7148" x2="1188.7148" y1="263.7383" y2="288.1406"/><polygon fill="#181818" points="1184.7148,278.1406,1188.7148,288.1406,1192.7148,278.1406,1188.7148,282.1406" style="stroke:#181818;stroke-width:1;"/><line style="stroke:#181818;stroke-width:1;" x1="1277.8813" x2="1306.5078" y1="251.7383" y2="251.7383"/><polygon fill="#181818" points="1302.5078,329.6094,1306.5078,339.6094,1310.5078,329.6094,1306.5078,333.6094" style="stroke:#181818;stroke-width:1;"/><line style="stroke:#181818;stroke-width:1;" x1="1306.5078" x2="1306.5078" y1="251.7383" y2="427.4805"/><line style="stroke:#181818;stroke-width:1;" x1="1306.5078" x2="1200.7148" y1="427.4805" y2="427.4805"/><polygon fill="#181818" points="1210.7148,423.4805,1200.7148,427.4805,1210.7148,431.4805,1206.7148,427.4805" style="stroke:#181818;stroke-width:1;"/><line style="stroke:#181818;stroke-width:1;" x1="1188.7148" x2="1188.7148" y1="391.0781" y2="415.4805"/><polygon fill="#181818" points="1184.7148,405.4805,1188.7148,415.4805,1192.7148,405.4805,1188.7148,409.4805" style="stroke:#181818;stroke-width:1;"/><line style="stroke:#181818;stroke-width:1;" x1="921.9246" x2="813.8037" y1="217.7383" y2="217.7383"/><line style="stroke:#181818;stroke-width:1;" x1="813.8037" x2="813.8037" y1="217.7383" y2="239.7383"/><polygon fill="#181818" points="809.8037,229.7383,813.8037,239.7383,817.8037,229.7383,813.8037,233.7383" style="stroke:#181818;stroke-width:1;"/><line style="stroke:#181818;stroke-width:1;" x1="1080.594" x2="1188.7148" y1="217.7383" y2="217.7383"/><line style="stroke:#181818;stroke-width:1;" x1="1188.7148" x2="1188.7148" y1="217.7383" y2="239.7383"/><polygon fill="#181818" points="1184.7148,229.7383,1188.7148,239.7383,1192.7148,229.7383,1188.7148,233.7383" style="stroke:#181818;stroke-width:1;"/><line style="stroke:#181818;stroke-width:1;" x1="813.8037" x2="813.8037" y1="406.6758" y2="457.4805"/><line style="stroke:#181818;stroke-width:1;" x1="813.8037" x2="989.2593" y1="457.4805" y2="457.4805"/><polygon fill="#181818" points="979.2593,453.4805,989.2593,457.4805,979.2593,461.4805,983.2593,457.4805" style="stroke:#181818;stroke-width:1;"/><line style="stroke:#181818;stroke-width:1;" x1="1188.7148" x2="1188.7148" y1="439.4805" y2="457.4805"/><line style="stroke:#181818;stroke-width:1;" x1="1188.7148" x2="1013.2593" y1="457.4805" y2="457.4805"/><polygon fill="#181818" points="1023.2593,453.4805,1013.2593,457.4805,1023.2593,461.4805,1019.2593,457.4805" style="stroke:#181818;stroke-width:1;"/><line style="stroke:#181818;stroke-width:1;" x1="1001.2593" x2="1001.2593" y1="184.668" y2="205.7383"/><polygon fill="#181818" points="997.2593,195.7383,1001.2593,205.7383,1005.2593,195.7383,1001.2593,199.7383" style="stroke:#181818;stroke-width:1;"/><line style="stroke:#181818;stroke-width:1;" x1="1001.2593" x2="1001.2593" y1="126.2969" y2="150.6992"/><polygon fill="#181818" points="997.2593,140.6992,1001.2593,150.6992,1005.2593,140.6992,1001.2593,144.6992" style="stroke:#181818;stroke-width:1;"/><line style="stroke:#181818;stroke-width:1;" x1="1061.8489" x2="1324.5078" y1="114.2969" y2="114.2969"/><polygon fill="#181818" points="1320.5078,293.125,1324.5078,303.125,1328.5078,293.125,1324.5078,297.125" style="stroke:#181818;stroke-width:1;"/><line style="stroke:#181818;stroke-width:1;" x1="1324.5078" x2="1324.5078" y1="114.2969" y2="501.4805"/><line style="stroke:#181818;stroke-width:1;" x1="1324.5078" x2="1013.2593" y1="501.4805" y2="501.4805"/><polygon fill="#181818" points="1023.2593,497.4805,1013.2593,501.4805,1023.2593,505.4805,1019.2593,501.4805" style="stroke:#181818;stroke-width:1;"/><line style="stroke:#181818;stroke-width:1;" x1="1001.2593" x2="1001.2593" y1="469.4805" y2="489.4805"/><polygon fill="#181818" points="997.2593,479.4805,1001.2593,489.4805,1005.2593,479.4805,1001.2593,483.4805" style="stroke:#181818;stroke-width:1;"/><line style="stroke:#181818;stroke-width:1;" x1="1001.2593" x2="1001.2593" y1="513.4805" y2="559.0078"/><polygon fill="#181818" points="997.2593,549.0078,1001.2593,559.0078,1005.2593,549.0078,1001.2593,553.0078" style="stroke:#181818;stroke-width:1;"/><line style="stroke:#181818;stroke-width:1;" x1="1846.2827" x2="1846.2827" y1="264.8086" y2="322.625"/><polygon fill="#181818" points="1842.2827,312.625,1846.2827,322.625,1850.2827,312.625,1846.2827,316.625" style="stroke:#181818;stroke-width:1;"/><line style="stroke:#181818;stroke-width:1;" x1="2013.3489" x2="2025.3489" y1="252.8086" y2="252.8086"/><polygon fill="#181818" points="2021.3489,329.6094,2025.3489,339.6094,2029.3489,329.6094,2025.3489,333.6094" style="stroke:#181818;stroke-width:1;"/><line style="stroke:#181818;stroke-width:1;" x1="2025.3489" x2="2025.3489" y1="252.8086" y2="426.4102"/><line style="stroke:#181818;stroke-width:1;" x1="2025.3489" x2="1858.2827" y1="426.4102" y2="426.4102"/><polygon fill="#181818" points="1868.2827,422.4102,1858.2827,426.4102,1868.2827,430.4102,1864.2827,426.4102" style="stroke:#181818;stroke-width:1;"/><line style="stroke:#181818;stroke-width:1;" x1="1846.2827" x2="1846.2827" y1="356.5938" y2="414.4102"/><polygon fill="#181818" points="1842.2827,404.4102,1846.2827,414.4102,1850.2827,404.4102,1846.2827,408.4102" style="stroke:#181818;stroke-width:1;"/><line style="stroke:#181818;stroke-width:1;" x1="2176.2249" x2="2176.2249" y1="274.7773" y2="309.7773"/><polygon fill="#181818" points="2172.2249,299.7773,2176.2249,309.7773,2180.2249,299.7773,2176.2249,303.7773" style="stroke:#181818;stroke-width:1;"/><line style="stroke:#181818;stroke-width:1;" x1="1934.3629" x2="1846.2827" y1="218.8086" y2="218.8086"/><line style="stroke:#181818;stroke-width:1;" x1="1846.2827" x2="1846.2827" y1="218.8086" y2="240.8086"/><polygon fill="#181818" points="1842.2827,230.8086,1846.2827,240.8086,1850.2827,230.8086,1846.2827,234.8086" style="stroke:#181818;stroke-width:1;"/><line style="stroke:#181818;stroke-width:1;" x1="2088.1447" x2="2176.2249" y1="218.8086" y2="218.8086"/><line style="stroke:#181818;stroke-width:1;" x1="2176.2249" x2="2176.2249" y1="218.8086" y2="240.8086"/><polygon fill="#181818" points="2172.2249,230.8086,2176.2249,240.8086,2180.2249,230.8086,2176.2249,234.8086" style="stroke:#181818;stroke-width:1;"/><line style="stroke:#181818;stroke-width:1;" x1="1846.2827" x2="1846.2827" y1="438.4102" y2="456.4102"/><line style="stroke:#181818;stroke-width:1;" x1="1846.2827" x2="1999.2538" y1="456.4102" y2="456.4102"/><polygon fill="#181818" points="1989.2538,452.4102,1999.2538,456.4102,1989.2538,460.4102,1993.2538,456.4102" style="stroke:#181818;stroke-width:1;"/><line style="stroke:#181818;stroke-width:1;" x1="2176.2249" x2="2176.2249" y1="343.7461" y2="456.4102"/><line style="stroke:#181818;stroke-width:1;" x1="2176.2249" x2="2023.2538" y1="456.4102" y2="456.4102"/><polygon fill="#181818" points="2033.2538,452.4102,2023.2538,456.4102,2033.2538,460.4102,2029.2538,456.4102" style="stroke:#181818;stroke-width:1;"/><line style="stroke:#181818;stroke-width:1;" x1="2011.2538" x2="2011.2538" y1="185.7383" y2="206.8086"/><polygon fill="#181818" points="2007.2538,196.8086,2011.2538,206.8086,2015.2538,196.8086,2011.2538,200.8086" style="stroke:#181818;stroke-width:1;"/><line style="stroke:#181818;stroke-width:1;" x1="2011.2538" x2="2011.2538" y1="468.4102" y2="519.0078"/><polygon fill="#181818" points="2007.2538,509.0078,2011.2538,519.0078,2015.2538,509.0078,2011.2538,513.0078" style="stroke:#181818;stroke-width:1;"/><line style="stroke:#181818;stroke-width:1;" x1="276.999" x2="276.999" y1="56" y2="102.2969"/><polygon fill="#181818" points="272.999,92.2969,276.999,102.2969,280.999,92.2969,276.999,96.2969" style="stroke:#181818;stroke-width:1;"/><line style="stroke:#181818;stroke-width:1;" x1="1001.2593" x2="1001.2593" y1="56" y2="102.2969"/><polygon fill="#181818" points="997.2593,92.2969,1001.2593,102.2969,1005.2593,92.2969,1001.2593,96.2969" style="stroke:#181818;stroke-width:1;"/><line style="stroke:#181818;stroke-width:1;" x1="2011.2538" x2="2011.2538" y1="56" y2="151.7695"/><polygon fill="#181818" points="2007.2538,141.7695,2011.2538,151.7695,2015.2538,141.7695,2011.2538,145.7695" style="stroke:#181818;stroke-width:1;"/><line style="stroke:#181818;stroke-width:1;" x1="1156.0504" x2="1156.0504" y1="30" y2="50"/><polygon fill="#181818" points="1152.0504,40,1156.0504,50,1160.0504,40,1156.0504,44" style="stroke:#181818;stroke-width:1;"/><!--SRC=[xLJ1Rjim3BtdAtXCWA4Vi1vsM86XbsA7xGCqYRQ5sbGWqSdozwCa9xPd9GxQImTC9rlIeyZ7znXOUTvKphzkG5RjNR-7xzvf307spIbOrxhQQjM2Qb6kmh1i1TldufKlEx01jYSCE-06wGA9w_CtPC3VDh2bEj-7e-K6WkeGj3Fu2VQABHA38WC63rRZuon6UfgqwyOGyg3IR0zuy_4p-CcXtAS1grgFofnoLgjuR0F2bjnkSPBA-ogn64kqF9O1BuvjTHfIqGbjW1tW8LBmgmzB79AnrUQ-fDvRRihn2LkKekPjkwSUau2hzLpDlb3fR6U97C_bAylv_9TK3gfMbWfQPzGDNTVvNyVlrFZ7b7RA_UVUg3Vrka_0j_TwQX_2ut_J_0EcoGdBcDlCj7_PNepshFb1_enUT2x3tX6mxIPMM3OW1bid_spM1hDdSkp0KLDIOeK-ybbvrwKxTkQqrRPUsaI0tZiFJklUUpJBxf2J5rkikDZl7uqyrA6YIO69gPZKo5OHUvD1O6_hMgeKzHpbMZ628ptGayEaVucITxPILwjODyBBxg4Ou7fDDepagDo7Gf9T7yIrZQAwdE1Ho1-9ES-_v769Q_3o-m0byIVoxt3wcYkc0saKeVYXe9sv0kP-ZgZ9Z8hWWgzlUJ3kH1_-0G00]--></g></svg>