<svg xmlns="http://www.w3.org/2000/svg" xmlns:xlink="http://www.w3.org/1999/xlink" contentStyleType="text/css" data-diagram-type="ACTIVITY" height="543px" preserveAspectRatio="none" style="width:730px;height:543px;background:#FFFFFF;" version="1.1" viewBox="0 0 730 543" width="730px" zoomAndPan="magnify"><defs/><g><ellipse cx="363.8557" cy="20" fill="#222222" rx="10" ry="10" style="stroke:#222222;stroke-width:1;"/><polygon fill="#F1F1F1" points="309.1887,50,418.5227,50,430.5227,62,418.5227,74,309.1887,74,297.1887,62,309.1887,50" style="stroke:#181818;stroke-width:0.5;"/><text fill="#000000" font-family="sans-serif" font-size="11" lengthAdjust="spacing" textLength="109.334" x="309.1887" y="65.8081">Is this backfill data?</text><text fill="#000000" font-family="sans-serif" font-size="11" lengthAdjust="spacing" textLength="19.0083" x="278.1804" y="59.4058">yes</text><text fill="#000000" font-family="sans-serif" font-size="11" lengthAdjust="spacing" textLength="13.7017" x="430.5227" y="59.4058">no</text><rect fill="#F1F1F1" height="33.9688" rx="12.5" ry="12.5" style="stroke:#181818;stroke-width:0.5;" width="175.0449" x="98.2383" y="139.7104"/><text fill="#000000" font-family="sans-serif" font-size="12" lengthAdjust="spacing" textLength="155.0449" x="108.2383" y="160.8491">Create backfill vital range</text><rect fill="#F1F1F1" height="33.9688" rx="12.5" ry="12.5" style="stroke:#181818;stroke-width:0.5;" width="299.5215" x="36" y="202.7769"/><text fill="#000000" font-family="sans-serif" font-size="12" lengthAdjust="spacing" textLength="279.5215" x="46" y="223.9155">Notify backfill vital range created to event bus</text><polygon fill="#F1F1F1" points="98.8914,84,272.6301,84,284.6301,96,272.6301,108,98.8914,108,86.8914,96,98.8914,84" style="stroke:#181818;stroke-width:0.5;"/><text fill="#000000" font-family="sans-serif" font-size="11" lengthAdjust="spacing" textLength="19.0083" x="189.7607" y="118.2104">yes</text><text fill="#000000" font-family="sans-serif" font-size="11" lengthAdjust="spacing" textLength="173.7388" x="98.8914" y="99.8081">Is there a vital range to create?</text><text fill="#000000" font-family="sans-serif" font-size="11" lengthAdjust="spacing" textLength="13.7017" x="73.1897" y="93.4058">no</text><rect fill="#F1F1F1" height="33.9688" rx="12.5" ry="12.5" style="stroke:#181818;stroke-width:0.5;" width="178.9238" x="452.4888" y="139.7104"/><text fill="#000000" font-family="sans-serif" font-size="12" lengthAdjust="spacing" textLength="158.9238" x="462.4888" y="160.8491">Delete existing vital range</text><rect fill="#F1F1F1" height="33.9688" rx="12.5" ry="12.5" style="stroke:#181818;stroke-width:0.5;" width="173.2695" x="455.3159" y="202.7769"/><text fill="#000000" font-family="sans-serif" font-size="12" lengthAdjust="spacing" textLength="153.2695" x="465.3159" y="223.9155">Notify vital range deleted</text><polygon fill="#F1F1F1" points="403.5215,84,680.3799,84,692.3799,96,680.3799,108,403.5215,108,391.5215,96,403.5215,84" style="stroke:#181818;stroke-width:0.5;"/><text fill="#000000" font-family="sans-serif" font-size="11" lengthAdjust="spacing" textLength="19.0083" x="545.9507" y="118.2104">yes</text><text fill="#000000" font-family="sans-serif" font-size="11" lengthAdjust="spacing" textLength="276.8584" x="403.5215" y="99.8081">Is there an existing vital range that was modified?</text><text fill="#000000" font-family="sans-serif" font-size="11" lengthAdjust="spacing" textLength="13.7017" x="377.8198" y="93.4058">no</text><rect fill="#F1F1F1" height="33.9688" rx="12.5" ry="12.5" style="stroke:#181818;stroke-width:0.5;" width="128.4863" x="477.7075" y="336.9561"/><text fill="#000000" font-family="sans-serif" font-size="12" lengthAdjust="spacing" textLength="108.4863" x="487.7075" y="358.0947">Create vital range</text><rect fill="#F1F1F1" height="33.9688" rx="12.5" ry="12.5" style="stroke:#181818;stroke-width:0.5;" width="173.8203" x="455.0405" y="405.0225"/><text fill="#000000" font-family="sans-serif" font-size="12" lengthAdjust="spacing" textLength="153.8203" x="465.0405" y="426.1611">Notify vital range created</text><polygon fill="#F1F1F1" points="455.0813,281.2456,628.8201,281.2456,640.8201,293.2456,628.8201,305.2456,455.0813,305.2456,443.0813,293.2456,455.0813,281.2456" style="stroke:#181818;stroke-width:0.5;"/><text fill="#000000" font-family="sans-serif" font-size="11" lengthAdjust="spacing" textLength="19.0083" x="545.9507" y="315.4561">yes</text><text fill="#000000" font-family="sans-serif" font-size="11" lengthAdjust="spacing" textLength="173.7388" x="455.0813" y="297.0537">Is there a vital range to create?</text><text fill="#000000" font-family="sans-serif" font-size="11" lengthAdjust="spacing" textLength="13.7017" x="429.3796" y="290.6514">no</text><polygon fill="#F1F1F1" points="363.8557,466.9912,375.8557,478.9912,363.8557,490.9912,351.8557,478.9912,363.8557,466.9912" style="stroke:#181818;stroke-width:0.5;"/><ellipse cx="363.8557" cy="521.9912" fill="none" rx="11" ry="11" style="stroke:#222222;stroke-width:1;"/><ellipse cx="363.8557" cy="521.9912" fill="#222222" rx="6" ry="6" style="stroke:#222222;stroke-width:1;"/><line style="stroke:#181818;stroke-width:1;" x1="185.7607" x2="185.7607" y1="173.6792" y2="202.7769"/><polygon fill="#181818" points="181.7607,192.7769,185.7607,202.7769,189.7607,192.7769,185.7607,196.7769" style="stroke:#181818;stroke-width:1;"/><line style="stroke:#181818;stroke-width:1;" x1="185.7607" x2="185.7607" y1="108" y2="139.7104"/><polygon fill="#181818" points="181.7607,129.7104,185.7607,139.7104,189.7607,129.7104,185.7607,133.7104" style="stroke:#181818;stroke-width:1;"/><line style="stroke:#181818;stroke-width:1;" x1="185.7607" x2="185.7607" y1="236.7456" y2="246.7456"/><line style="stroke:#181818;stroke-width:1;" x1="185.7607" x2="347.5215" y1="246.7456" y2="246.7456"/><polygon fill="#181818" points="343.5215,182.7769,347.5215,172.7769,351.5215,182.7769,347.5215,178.7769" style="stroke:#181818;stroke-width:1;"/><line style="stroke:#181818;stroke-width:1;" x1="347.5215" x2="347.5215" y1="96" y2="246.7456"/><line style="stroke:#181818;stroke-width:1;" x1="347.5215" x2="284.6301" y1="96" y2="96"/><polygon fill="#181818" points="294.6301,92,284.6301,96,294.6301,100,290.6301,96" style="stroke:#181818;stroke-width:1;"/><line style="stroke:#181818;stroke-width:1;" x1="86.8914" x2="24" y1="96" y2="96"/><polygon fill="#181818" points="20,268.7456,24,278.7456,28,268.7456,24,272.7456" style="stroke:#181818;stroke-width:1;"/><line style="stroke:#181818;stroke-width:1;" x1="24" x2="24" y1="96" y2="478.9912"/><line style="stroke:#181818;stroke-width:1;" x1="24" x2="351.8557" y1="478.9912" y2="478.9912"/><polygon fill="#181818" points="341.8557,474.9912,351.8557,478.9912,341.8557,482.9912,345.8557,478.9912" style="stroke:#181818;stroke-width:1;"/><line style="stroke:#181818;stroke-width:1;" x1="541.9507" x2="541.9507" y1="173.6792" y2="202.7769"/><polygon fill="#181818" points="537.9507,192.7769,541.9507,202.7769,545.9507,192.7769,541.9507,196.7769" style="stroke:#181818;stroke-width:1;"/><line style="stroke:#181818;stroke-width:1;" x1="541.9507" x2="541.9507" y1="108" y2="139.7104"/><polygon fill="#181818" points="537.9507,129.7104,541.9507,139.7104,545.9507,129.7104,541.9507,133.7104" style="stroke:#181818;stroke-width:1;"/><line style="stroke:#181818;stroke-width:1;" x1="541.9507" x2="541.9507" y1="236.7456" y2="246.7456"/><line style="stroke:#181818;stroke-width:1;" x1="541.9507" x2="704.3799" y1="246.7456" y2="246.7456"/><polygon fill="#181818" points="700.3799,182.7769,704.3799,172.7769,708.3799,182.7769,704.3799,178.7769" style="stroke:#181818;stroke-width:1;"/><line style="stroke:#181818;stroke-width:1;" x1="704.3799" x2="704.3799" y1="96" y2="246.7456"/><line style="stroke:#181818;stroke-width:1;" x1="704.3799" x2="692.3799" y1="96" y2="96"/><polygon fill="#181818" points="702.3799,92,692.3799,96,702.3799,100,698.3799,96" style="stroke:#181818;stroke-width:1;"/><line style="stroke:#181818;stroke-width:1;" x1="391.5215" x2="379.5215" y1="96" y2="96"/><polygon fill="#181818" points="375.5215,168.7769,379.5215,178.7769,383.5215,168.7769,379.5215,172.7769" style="stroke:#181818;stroke-width:1;"/><line style="stroke:#181818;stroke-width:1;" x1="379.5215" x2="379.5215" y1="96" y2="258.7456"/><line style="stroke:#181818;stroke-width:1;" x1="379.5215" x2="541.9507" y1="258.7456" y2="258.7456"/><line style="stroke:#181818;stroke-width:1;" x1="541.9507" x2="541.9507" y1="258.7456" y2="281.2456"/><polygon fill="#181818" points="537.9507,271.2456,541.9507,281.2456,545.9507,271.2456,541.9507,275.2456" style="stroke:#181818;stroke-width:1;"/><line style="stroke:#181818;stroke-width:1;" x1="541.9507" x2="541.9507" y1="370.9248" y2="405.0225"/><polygon fill="#181818" points="537.9507,395.0225,541.9507,405.0225,545.9507,395.0225,541.9507,399.0225" style="stroke:#181818;stroke-width:1;"/><line style="stroke:#181818;stroke-width:1;" x1="541.9507" x2="541.9507" y1="305.2456" y2="336.9561"/><polygon fill="#181818" points="537.9507,326.9561,541.9507,336.9561,545.9507,326.9561,541.9507,330.9561" style="stroke:#181818;stroke-width:1;"/><line style="stroke:#181818;stroke-width:1;" x1="541.9507" x2="541.9507" y1="438.9912" y2="448.9912"/><line style="stroke:#181818;stroke-width:1;" x1="541.9507" x2="652.8201" y1="448.9912" y2="448.9912"/><polygon fill="#181818" points="648.8201,380.0225,652.8201,370.0225,656.8201,380.0225,652.8201,376.0225" style="stroke:#181818;stroke-width:1;"/><line style="stroke:#181818;stroke-width:1;" x1="652.8201" x2="652.8201" y1="293.2456" y2="448.9912"/><line style="stroke:#181818;stroke-width:1;" x1="652.8201" x2="640.8201" y1="293.2456" y2="293.2456"/><polygon fill="#181818" points="650.8201,289.2456,640.8201,293.2456,650.8201,297.2456,646.8201,293.2456" style="stroke:#181818;stroke-width:1;"/><line style="stroke:#181818;stroke-width:1;" x1="443.0813" x2="431.0813" y1="293.2456" y2="293.2456"/><polygon fill="#181818" points="427.0813,375.0225,431.0813,385.0225,435.0813,375.0225,431.0813,379.0225" style="stroke:#181818;stroke-width:1;"/><line style="stroke:#181818;stroke-width:1;" x1="431.0813" x2="431.0813" y1="293.2456" y2="478.9912"/><line style="stroke:#181818;stroke-width:1;" x1="431.0813" x2="375.8557" y1="478.9912" y2="478.9912"/><polygon fill="#181818" points="385.8557,474.9912,375.8557,478.9912,385.8557,482.9912,381.8557,478.9912" style="stroke:#181818;stroke-width:1;"/><line style="stroke:#181818;stroke-width:1;" x1="297.1887" x2="185.7607" y1="62" y2="62"/><line style="stroke:#181818;stroke-width:1;" x1="185.7607" x2="185.7607" y1="62" y2="84"/><polygon fill="#181818" points="181.7607,74,185.7607,84,189.7607,74,185.7607,78" style="stroke:#181818;stroke-width:1;"/><line style="stroke:#181818;stroke-width:1;" x1="430.5227" x2="541.9507" y1="62" y2="62"/><line style="stroke:#181818;stroke-width:1;" x1="541.9507" x2="541.9507" y1="62" y2="84"/><polygon fill="#181818" points="537.9507,74,541.9507,84,545.9507,74,541.9507,78" style="stroke:#181818;stroke-width:1;"/><line style="stroke:#181818;stroke-width:1;" x1="363.8557" x2="363.8557" y1="30" y2="50"/><polygon fill="#181818" points="359.8557,40,363.8557,50,367.8557,40,363.8557,44" style="stroke:#181818;stroke-width:1;"/><line style="stroke:#181818;stroke-width:1;" x1="363.8557" x2="363.8557" y1="490.9912" y2="510.9912"/><polygon fill="#181818" points="359.8557,500.9912,363.8557,510.9912,367.8557,500.9912,363.8557,504.9912" style="stroke:#181818;stroke-width:1;"/><!--SRC=[hP2n4e8m38RtFaL6UGKT77HnyHq23P2pjbuJGTxUWdZWsS71JBqcN_B_loX6DLp3vYIWBGkKM5rgTWuiAkuBI5-RWQH8NV86KlKjEve1YWG87IiwYEWR0WrGHKAb5JjXOsqFKsiviY9tozGvADT3TcfURiSxr95NAE_oGidRjpOV2aDEvbTMj0Twi2ZxvbD-Ymez2bo3vPh9PcqSoL6oaTlmRMEztawWpGh-KxO_QvcJp8VdatiZ6cvF]--></g></svg>