<svg xmlns="http://www.w3.org/2000/svg" xmlns:xlink="http://www.w3.org/1999/xlink" contentStyleType="text/css" data-diagram-type="ACTIVITY" height="696px" preserveAspectRatio="none" style="width:681px;height:696px;background:#FFFFFF;" version="1.1" viewBox="0 0 681 696" width="681px" zoomAndPan="magnify"><defs/><g><ellipse cx="336.3271" cy="20" fill="#222222" rx="10" ry="10" style="stroke:#222222;stroke-width:1;"/><rect fill="#555555" height="6" rx="2.5" ry="2.5" style="stroke:#555555;stroke-width:1;" width="659.6543" x="11" y="50"/><rect fill="none" height="300.3594" style="stroke:#000000;stroke-width:1.5;" width="293.6934" x="23" y="196.5195"/><path d="M203.1328,196.5195 L203.1328,205.8164 L193.1328,215.8164 L23,215.8164 " fill="none" style="stroke:#000000;stroke-width:1.5;"/><text fill="#000000" font-family="sans-serif" font-size="14" lengthAdjust="spacing" textLength="170.1328" x="26" y="210.5146">Delete patient alert logs</text><rect fill="#F1F1F1" height="33.9688" rx="12.5" ry="12.5" style="stroke:#181818;stroke-width:0.5;" width="147.7871" x="95.9531" y="232.8164"/><text fill="#000000" font-family="sans-serif" font-size="12" lengthAdjust="spacing" textLength="127.7871" x="105.9531" y="253.9551">Get patient alert logs</text><rect fill="#F1F1F1" height="33.9688" rx="12.5" ry="12.5" style="stroke:#181818;stroke-width:0.5;" width="113.0586" x="113.3174" y="355.8438"/><text fill="#000000" font-family="sans-serif" font-size="12" lengthAdjust="spacing" textLength="93.0586" x="123.3174" y="376.9824">Delete alert log</text><rect fill="#F1F1F1" height="33.9688" rx="12.5" ry="12.5" style="stroke:#181818;stroke-width:0.5;" width="237.6934" x="51" y="418.9102"/><text fill="#000000" font-family="sans-serif" font-size="12" lengthAdjust="spacing" textLength="217.6934" x="61" y="440.0488">Notify alert log deleted to event bus</text><polygon fill="#F1F1F1" points="86.49,295.0391,253.2034,295.0391,265.2034,307.0391,253.2034,319.0391,86.49,319.0391,74.49,307.0391,86.49,295.0391" style="stroke:#181818;stroke-width:0.5;"/><text fill="#000000" font-family="sans-serif" font-size="11" lengthAdjust="spacing" textLength="19.0083" x="173.8467" y="329.2495">yes</text><text fill="#000000" font-family="sans-serif" font-size="11" lengthAdjust="spacing" textLength="166.7134" x="86.49" y="310.8472">Is there an alert log to delete?</text><text fill="#000000" font-family="sans-serif" font-size="11" lengthAdjust="spacing" textLength="13.7017" x="60.7883" y="304.4448">no</text><ellipse cx="169.8467" cy="541.8789" fill="none" rx="10" ry="10" style="stroke:#222222;stroke-width:1.5;"/><line style="stroke:#222222;stroke-width:2.5;" x1="163.6595" x2="176.0339" y1="535.6917" y2="548.0661"/><line style="stroke:#222222;stroke-width:2.5;" x1="176.0339" x2="163.6595" y1="535.6917" y2="548.0661"/><rect fill="none" height="222.293" style="stroke:#000000;stroke-width:1.5;" width="294.291" x="354.5283" y="66"/><path d="M522.6504,66 L522.6504,75.2969 L512.6504,85.2969 L354.5283,85.2969 " fill="none" style="stroke:#000000;stroke-width:1.5;"/><text fill="#000000" font-family="sans-serif" font-size="14" lengthAdjust="spacing" textLength="158.1221" x="357.5283" y="79.9951">Delete technical alerts</text><rect fill="#F1F1F1" height="33.9688" rx="12.5" ry="12.5" style="stroke:#181818;stroke-width:0.5;" width="274.291" x="364.5283" y="102.2969"/><text fill="#000000" font-family="sans-serif" font-size="12" lengthAdjust="spacing" textLength="254.291" x="374.5283" y="123.4355">Get technical alerts for connected sensors</text><rect fill="#F1F1F1" height="33.9688" rx="12.5" ry="12.5" style="stroke:#181818;stroke-width:0.5;" width="149.2813" x="427.0332" y="217.0703"/><text fill="#000000" font-family="sans-serif" font-size="12" lengthAdjust="spacing" textLength="129.2813" x="437.0332" y="238.209">Delete techincal alert</text><polygon fill="#F1F1F1" points="428.4497,156.2656,574.8979,156.2656,586.8979,168.2656,574.8979,180.2656,428.4497,180.2656,416.4497,168.2656,428.4497,156.2656" style="stroke:#181818;stroke-width:0.5;"/><text fill="#000000" font-family="sans-serif" font-size="11" lengthAdjust="spacing" textLength="19.0083" x="505.6738" y="190.4761">yes</text><text fill="#000000" font-family="sans-serif" font-size="11" lengthAdjust="spacing" textLength="146.4482" x="428.4497" y="172.0737">Is there an alert to delete?</text><rect fill="none" height="306.7031" style="stroke:#000000;stroke-width:1.5;" width="313.9609" x="344.6934" y="323.293"/><path d="M497.9678,323.293 L497.9678,332.5898 L487.9678,342.5898 L344.6934,342.5898 " fill="none" style="stroke:#000000;stroke-width:1.5;"/><text fill="#000000" font-family="sans-serif" font-size="14" lengthAdjust="spacing" textLength="143.2744" x="347.6934" y="337.2881">Complete encounter</text><rect fill="#F1F1F1" height="33.9688" rx="12.5" ry="12.5" style="stroke:#181818;stroke-width:0.5;" width="293.9609" x="354.6934" y="359.5898"/><text fill="#000000" font-family="sans-serif" font-size="12" lengthAdjust="spacing" textLength="273.9609" x="364.6934" y="380.7285">Get existing encounter for patient and device</text><rect fill="#F1F1F1" height="33.9688" rx="12.5" ry="12.5" style="stroke:#181818;stroke-width:0.5;" width="193.9531" x="404.6973" y="471.0586"/><text fill="#000000" font-family="sans-serif" font-size="12" lengthAdjust="spacing" textLength="173.9531" x="414.6973" y="492.1973">Complete existing encounter</text><rect fill="#F1F1F1" height="33.9688" rx="12.5" ry="12.5" style="stroke:#181818;stroke-width:0.5;" width="188.1406" x="407.6035" y="540.0273"/><text fill="#000000" font-family="sans-serif" font-size="12" lengthAdjust="spacing" textLength="168.1406" x="417.6035" y="561.166">Notify encounter completed</text><polygon fill="#F1F1F1" points="431.5837,422.6563,571.7639,422.6563,583.7639,434.6563,571.7639,446.6563,431.5837,446.6563,419.5837,434.6563,431.5837,422.6563" style="stroke:#181818;stroke-width:0.5;"/><text fill="#000000" font-family="sans-serif" font-size="11" lengthAdjust="spacing" textLength="19.0083" x="505.6738" y="456.8667">yes</text><text fill="#000000" font-family="sans-serif" font-size="11" lengthAdjust="spacing" textLength="140.1802" x="431.5837" y="438.4644">Does an encounter exist?</text><polygon fill="#F1F1F1" points="501.6738,593.9961,513.6738,605.9961,501.6738,617.9961,489.6738,605.9961,501.6738,593.9961" style="stroke:#181818;stroke-width:0.5;"/><ellipse cx="501.6738" cy="659.9961" fill="none" rx="10" ry="10" style="stroke:#222222;stroke-width:1.5;"/><line style="stroke:#222222;stroke-width:2.5;" x1="495.4866" x2="507.861" y1="653.8089" y2="666.1833"/><line style="stroke:#222222;stroke-width:2.5;" x1="507.861" x2="495.4866" y1="653.8089" y2="666.1833"/><rect fill="#555555" height="6" rx="2.5" ry="2.5" style="stroke:#555555;stroke-width:1;" width="659.6543" x="11" y="679.9961"/><line style="stroke:#181818;stroke-width:1;" x1="169.8467" x2="169.8467" y1="389.8125" y2="418.9102"/><polygon fill="#181818" points="165.8467,408.9102,169.8467,418.9102,173.8467,408.9102,169.8467,412.9102" style="stroke:#181818;stroke-width:1;"/><line style="stroke:#181818;stroke-width:1;" x1="169.8467" x2="169.8467" y1="319.0391" y2="355.8438"/><polygon fill="#181818" points="165.8467,345.8438,169.8467,355.8438,173.8467,345.8438,169.8467,349.8438" style="stroke:#181818;stroke-width:1;"/><line style="stroke:#181818;stroke-width:1;" x1="169.8467" x2="169.8467" y1="452.8789" y2="464.8789"/><line style="stroke:#181818;stroke-width:1;" x1="169.8467" x2="300.6934" y1="464.8789" y2="464.8789"/><polygon fill="#181818" points="296.6934,398.9102,300.6934,388.9102,304.6934,398.9102,300.6934,394.9102" style="stroke:#181818;stroke-width:1;"/><line style="stroke:#181818;stroke-width:1;" x1="300.6934" x2="300.6934" y1="307.0391" y2="464.8789"/><line style="stroke:#181818;stroke-width:1;" x1="300.6934" x2="265.2034" y1="307.0391" y2="307.0391"/><polygon fill="#181818" points="275.2034,303.0391,265.2034,307.0391,275.2034,311.0391,271.2034,307.0391" style="stroke:#181818;stroke-width:1;"/><line style="stroke:#181818;stroke-width:1;" x1="74.49" x2="39" y1="307.0391" y2="307.0391"/><polygon fill="#181818" points="35,384.9102,39,394.9102,43,384.9102,39,388.9102" style="stroke:#181818;stroke-width:1;"/><line style="stroke:#181818;stroke-width:1;" x1="39" x2="39" y1="307.0391" y2="476.8789"/><line style="stroke:#181818;stroke-width:1;" x1="39" x2="169.8467" y1="476.8789" y2="476.8789"/><line style="stroke:#181818;stroke-width:1;" x1="169.8467" x2="169.8467" y1="476.8789" y2="531.8789"/><polygon fill="#181818" points="165.8467,521.8789,169.8467,531.8789,173.8467,521.8789,169.8467,525.8789" style="stroke:#181818;stroke-width:1;"/><line style="stroke:#181818;stroke-width:1;" x1="169.8467" x2="169.8467" y1="266.7852" y2="295.0391"/><polygon fill="#181818" points="165.8467,285.0391,169.8467,295.0391,173.8467,285.0391,169.8467,289.0391" style="stroke:#181818;stroke-width:1;"/><line style="stroke:#181818;stroke-width:1;" x1="501.6738" x2="501.6738" y1="180.2656" y2="217.0703"/><polygon fill="#181818" points="497.6738,207.0703,501.6738,217.0703,505.6738,207.0703,501.6738,211.0703" style="stroke:#181818;stroke-width:1;"/><line style="stroke:#181818;stroke-width:1;" x1="501.6738" x2="501.6738" y1="251.0391" y2="263.0391"/><line style="stroke:#181818;stroke-width:1;" x1="501.6738" x2="598.8979" y1="263.0391" y2="263.0391"/><polygon fill="#181818" points="594.8979,225.6523,598.8979,215.6523,602.8979,225.6523,598.8979,221.6523" style="stroke:#181818;stroke-width:1;"/><line style="stroke:#181818;stroke-width:1;" x1="598.8979" x2="598.8979" y1="168.2656" y2="263.0391"/><line style="stroke:#181818;stroke-width:1;" x1="598.8979" x2="586.8979" y1="168.2656" y2="168.2656"/><polygon fill="#181818" points="596.8979,164.2656,586.8979,168.2656,596.8979,172.2656,592.8979,168.2656" style="stroke:#181818;stroke-width:1;"/><line style="stroke:#181818;stroke-width:1;" x1="416.4497" x2="404.4497" y1="168.2656" y2="168.2656"/><polygon fill="#181818" points="400.4497,211.6523,404.4497,221.6523,408.4497,211.6523,404.4497,215.6523" style="stroke:#181818;stroke-width:1;"/><line style="stroke:#181818;stroke-width:1;" x1="404.4497" x2="404.4497" y1="168.2656" y2="275.0391"/><line style="stroke:#181818;stroke-width:1;" x1="404.4497" x2="501.6738" y1="275.0391" y2="275.0391"/><line style="stroke:#181818;stroke-width:1;" x1="501.6738" x2="501.6738" y1="275.0391" y2="359.5898"/><polygon fill="#181818" points="497.6738,349.5898,501.6738,359.5898,505.6738,349.5898,501.6738,353.5898" style="stroke:#181818;stroke-width:1;"/><line style="stroke:#181818;stroke-width:1;" x1="501.6738" x2="501.6738" y1="136.2656" y2="156.2656"/><polygon fill="#181818" points="497.6738,146.2656,501.6738,156.2656,505.6738,146.2656,501.6738,150.2656" style="stroke:#181818;stroke-width:1;"/><line style="stroke:#181818;stroke-width:1;" x1="501.6738" x2="501.6738" y1="505.0273" y2="540.0273"/><polygon fill="#181818" points="497.6738,530.0273,501.6738,540.0273,505.6738,530.0273,501.6738,534.0273" style="stroke:#181818;stroke-width:1;"/><line style="stroke:#181818;stroke-width:1;" x1="501.6738" x2="501.6738" y1="446.6563" y2="471.0586"/><polygon fill="#181818" points="497.6738,461.0586,501.6738,471.0586,505.6738,461.0586,501.6738,465.0586" style="stroke:#181818;stroke-width:1;"/><line style="stroke:#181818;stroke-width:1;" x1="583.7639" x2="608.6504" y1="434.6563" y2="434.6563"/><polygon fill="#181818" points="604.6504,512.5273,608.6504,522.5273,612.6504,512.5273,608.6504,516.5273" style="stroke:#181818;stroke-width:1;"/><line style="stroke:#181818;stroke-width:1;" x1="608.6504" x2="608.6504" y1="434.6563" y2="605.9961"/><line style="stroke:#181818;stroke-width:1;" x1="608.6504" x2="513.6738" y1="605.9961" y2="605.9961"/><polygon fill="#181818" points="523.6738,601.9961,513.6738,605.9961,523.6738,609.9961,519.6738,605.9961" style="stroke:#181818;stroke-width:1;"/><line style="stroke:#181818;stroke-width:1;" x1="501.6738" x2="501.6738" y1="573.9961" y2="593.9961"/><polygon fill="#181818" points="497.6738,583.9961,501.6738,593.9961,505.6738,583.9961,501.6738,587.9961" style="stroke:#181818;stroke-width:1;"/><line style="stroke:#181818;stroke-width:1;" x1="501.6738" x2="501.6738" y1="393.5586" y2="422.6563"/><polygon fill="#181818" points="497.6738,412.6563,501.6738,422.6563,505.6738,412.6563,501.6738,416.6563" style="stroke:#181818;stroke-width:1;"/><line style="stroke:#181818;stroke-width:1;" x1="501.6738" x2="501.6738" y1="617.9961" y2="649.9961"/><polygon fill="#181818" points="497.6738,639.9961,501.6738,649.9961,505.6738,639.9961,501.6738,643.9961" style="stroke:#181818;stroke-width:1;"/><line style="stroke:#181818;stroke-width:1;" x1="169.8467" x2="169.8467" y1="56" y2="232.8164"/><polygon fill="#181818" points="165.8467,222.8164,169.8467,232.8164,173.8467,222.8164,169.8467,226.8164" style="stroke:#181818;stroke-width:1;"/><line style="stroke:#181818;stroke-width:1;" x1="501.6738" x2="501.6738" y1="56" y2="102.2969"/><polygon fill="#181818" points="497.6738,92.2969,501.6738,102.2969,505.6738,92.2969,501.6738,96.2969" style="stroke:#181818;stroke-width:1;"/><line style="stroke:#181818;stroke-width:1;" x1="336.3271" x2="336.3271" y1="30" y2="50"/><polygon fill="#181818" points="332.3271,40,336.3271,50,340.3271,40,336.3271,44" style="stroke:#181818;stroke-width:1;"/><!--SRC=[ZP4nRiCm34LtduAZSuLcwD00HPRUGPLecuXA6XATDBUl9IUMdRX0j4aK__-FZ6g2Les4KmNZQOCCFHpGeoBqHWbPmNWC2bxQcF-ay_Q9kb7Vpnyk7Nc4-XX1Emm8XiitK06NBTvtG17gAyRTt9dbRmdcblsw_2LApNMXECcvf8pdbEbxM8H1TlT0B9DJUigmrVsQXm2cDSJFer2q7PCrVl9y6CHZ5KOfiCACDeMAo572AyDvUJ39aNXst43TefoGFkIdpoB8LWPM36iQ_AMen6sfPvvvswEcmpDPBAxKG7qGZ8caT6MX1KcYvJLEoV9akhtoecvlhMu5Jyr_wqrFQSL_]--></g></svg>