<svg xmlns="http://www.w3.org/2000/svg" xmlns:xlink="http://www.w3.org/1999/xlink" contentStyleType="text/css" data-diagram-type="ACTIVITY" height="352px" preserveAspectRatio="none" style="width:278px;height:352px;background:#FFFFFF;" version="1.1" viewBox="0 0 278 352" width="278px" zoomAndPan="magnify"><defs/><g><ellipse cx="126.8848" cy="20" fill="#222222" rx="10" ry="10" style="stroke:#222222;stroke-width:1;"/><rect fill="#F1F1F1" height="33.9688" rx="12.5" ry="12.5" style="stroke:#181818;stroke-width:0.5;" width="135.7637" x="59.0029" y="50"/><text fill="#000000" font-family="sans-serif" font-size="12" lengthAdjust="spacing" textLength="115.7637" x="69.0029" y="71.1387">Get existing device</text><rect fill="#F1F1F1" height="33.9688" rx="12.5" ry="12.5" style="stroke:#181818;stroke-width:0.5;" width="203.4805" x="25.1445" y="152.3711"/><text fill="#000000" font-family="sans-serif" font-size="12" lengthAdjust="spacing" textLength="183.4805" x="35.1445" y="173.5098">Update the device information</text><rect fill="#F1F1F1" height="33.9688" rx="12.5" ry="12.5" style="stroke:#181818;stroke-width:0.5;" width="231.7695" x="11" y="221.3398"/><text fill="#000000" font-family="sans-serif" font-size="12" lengthAdjust="spacing" textLength="211.7695" x="21" y="242.4785">Notify device updated to event bus</text><polygon fill="#F1F1F1" points="64.5908,103.9688,189.1787,103.9688,201.1787,115.9688,189.1787,127.9688,64.5908,127.9688,52.5908,115.9688,64.5908,103.9688" style="stroke:#181818;stroke-width:0.5;"/><text fill="#000000" font-family="sans-serif" font-size="11" lengthAdjust="spacing" textLength="19.0083" x="130.8848" y="138.1792">yes</text><text fill="#000000" font-family="sans-serif" font-size="11" lengthAdjust="spacing" textLength="124.5879" x="64.5908" y="119.7769">Does the device exist?</text><polygon fill="#F1F1F1" points="126.8848,275.3086,138.8848,287.3086,126.8848,299.3086,114.8848,287.3086,126.8848,275.3086" style="stroke:#181818;stroke-width:0.5;"/><ellipse cx="126.8848" cy="330.3086" fill="none" rx="11" ry="11" style="stroke:#222222;stroke-width:1;"/><ellipse cx="126.8848" cy="330.3086" fill="#222222" rx="6" ry="6" style="stroke:#222222;stroke-width:1;"/><line style="stroke:#181818;stroke-width:1;" x1="126.8848" x2="126.8848" y1="30" y2="50"/><polygon fill="#181818" points="122.8848,40,126.8848,50,130.8848,40,126.8848,44" style="stroke:#181818;stroke-width:1;"/><line style="stroke:#181818;stroke-width:1;" x1="126.8848" x2="126.8848" y1="186.3398" y2="221.3398"/><polygon fill="#181818" points="122.8848,211.3398,126.8848,221.3398,130.8848,211.3398,126.8848,215.3398" style="stroke:#181818;stroke-width:1;"/><line style="stroke:#181818;stroke-width:1;" x1="126.8848" x2="126.8848" y1="127.9688" y2="152.3711"/><polygon fill="#181818" points="122.8848,142.3711,126.8848,152.3711,130.8848,142.3711,126.8848,146.3711" style="stroke:#181818;stroke-width:1;"/><line style="stroke:#181818;stroke-width:1;" x1="201.1787" x2="252.7695" y1="115.9688" y2="115.9688"/><polygon fill="#181818" points="248.7695,193.8398,252.7695,203.8398,256.7695,193.8398,252.7695,197.8398" style="stroke:#181818;stroke-width:1;"/><line style="stroke:#181818;stroke-width:1;" x1="252.7695" x2="252.7695" y1="115.9688" y2="287.3086"/><line style="stroke:#181818;stroke-width:1;" x1="252.7695" x2="138.8848" y1="287.3086" y2="287.3086"/><polygon fill="#181818" points="148.8848,283.3086,138.8848,287.3086,148.8848,291.3086,144.8848,287.3086" style="stroke:#181818;stroke-width:1;"/><line style="stroke:#181818;stroke-width:1;" x1="126.8848" x2="126.8848" y1="255.3086" y2="275.3086"/><polygon fill="#181818" points="122.8848,265.3086,126.8848,275.3086,130.8848,265.3086,126.8848,269.3086" style="stroke:#181818;stroke-width:1;"/><line style="stroke:#181818;stroke-width:1;" x1="126.8848" x2="126.8848" y1="83.9688" y2="103.9688"/><polygon fill="#181818" points="122.8848,93.9688,126.8848,103.9688,130.8848,93.9688,126.8848,97.9688" style="stroke:#181818;stroke-width:1;"/><line style="stroke:#181818;stroke-width:1;" x1="126.8848" x2="126.8848" y1="299.3086" y2="319.3086"/><polygon fill="#181818" points="122.8848,309.3086,126.8848,319.3086,130.8848,309.3086,126.8848,313.3086" style="stroke:#181818;stroke-width:1;"/><!--SRC=[JOix3i9034JxFONBv0hPWWQ9Zeu3BEmikC2Euab4Riyd837bUs-2PM8Q3g3WeK6rgrGiUa5EsgJREq9umnTkqQuN3UbMHFzsbkIruJJMGlp7QisdUw6wvQqvEhMjFpz_7bNeWWL6ES-H4wngIq4Vdm00]--></g></svg>