<svg xmlns="http://www.w3.org/2000/svg" xmlns:xlink="http://www.w3.org/1999/xlink" contentStyleType="text/css" data-diagram-type="ACTIVITY" height="453px" preserveAspectRatio="none" style="width:609px;height:453px;background:#FFFFFF;" version="1.1" viewBox="0 0 609 453" width="609px" zoomAndPan="magnify"><defs/><g><ellipse cx="308.895" cy="20" fill="#222222" rx="10" ry="10" style="stroke:#222222;stroke-width:1;"/><rect fill="#555555" height="6" rx="2.5" ry="2.5" style="stroke:#555555;stroke-width:1;" width="587.4863" x="11" y="50"/><rect fill="none" height="302.0078" style="stroke:#000000;stroke-width:1.5;" width="270.1934" x="23" y="72"/><path d="M218.7119,72 L218.7119,81.2969 L208.7119,91.2969 L23,91.2969 " fill="none" style="stroke:#000000;stroke-width:1.5;"/><text fill="#000000" font-family="sans-serif" font-size="14" lengthAdjust="spacing" textLength="185.7119" x="26" y="85.9951">Delete physiological alerts</text><rect fill="#F1F1F1" height="33.9688" rx="12.5" ry="12.5" style="stroke:#181818;stroke-width:0.5;" width="248.1934" x="35" y="108.2969"/><text fill="#000000" font-family="sans-serif" font-size="12" lengthAdjust="spacing" textLength="228.1934" x="45" y="129.4355">Get physiological alerts for the device</text><rect fill="#F1F1F1" height="33.9688" rx="12.5" ry="12.5" style="stroke:#181818;stroke-width:0.5;" width="90.9512" x="113.6211" y="229.0703"/><text fill="#000000" font-family="sans-serif" font-size="12" lengthAdjust="spacing" textLength="70.9512" x="123.6211" y="250.209">Delete alert</text><rect fill="#F1F1F1" height="33.9688" rx="12.5" ry="12.5" style="stroke:#181818;stroke-width:0.5;" width="215.5859" x="51.3037" y="298.0391"/><text fill="#000000" font-family="sans-serif" font-size="12" lengthAdjust="spacing" textLength="195.5859" x="61.3037" y="319.1777">Notify alert deleted to event bus</text><polygon fill="#F1F1F1" points="82.1934,168.2656,236,168.2656,248,180.2656,236,192.2656,82.1934,192.2656,70.1934,180.2656,82.1934,168.2656" style="stroke:#181818;stroke-width:0.5;"/><text fill="#000000" font-family="sans-serif" font-size="11" lengthAdjust="spacing" textLength="19.0083" x="163.0967" y="202.4761">yes</text><text fill="#000000" font-family="sans-serif" font-size="11" lengthAdjust="spacing" textLength="153.8066" x="82.1934" y="184.0737">Is there an alert to remove?</text><text fill="#000000" font-family="sans-serif" font-size="11" lengthAdjust="spacing" textLength="13.7017" x="56.4917" y="177.6714">no</text><ellipse cx="159.0967" cy="410.0078" fill="none" rx="10" ry="10" style="stroke:#222222;stroke-width:1.5;"/><line style="stroke:#222222;stroke-width:2.5;" x1="152.9095" x2="165.2839" y1="403.8206" y2="416.195"/><line style="stroke:#222222;stroke-width:2.5;" x1="165.2839" x2="152.9095" y1="403.8206" y2="416.195"/><rect fill="none" height="314.0078" style="stroke:#000000;stroke-width:1.5;" width="265.293" x="321.1934" y="66"/><path d="M427.6279,66 L427.6279,75.2969 L417.6279,85.2969 L321.1934,85.2969 " fill="none" style="stroke:#000000;stroke-width:1.5;"/><text fill="#000000" font-family="sans-serif" font-size="14" lengthAdjust="spacing" textLength="96.4346" x="324.1934" y="79.9951">Delete device</text><rect fill="#F1F1F1" height="33.9688" rx="12.5" ry="12.5" style="stroke:#181818;stroke-width:0.5;" width="135.7637" x="378.958" y="102.2969"/><text fill="#000000" font-family="sans-serif" font-size="12" lengthAdjust="spacing" textLength="115.7637" x="388.958" y="123.4355">Get existing device</text><rect fill="#F1F1F1" height="33.9688" rx="12.5" ry="12.5" style="stroke:#181818;stroke-width:0.5;" width="126.166" x="383.7568" y="210.668"/><text fill="#000000" font-family="sans-serif" font-size="12" lengthAdjust="spacing" textLength="106.166" x="393.7568" y="231.8066">Delete the device</text><rect fill="#F1F1F1" height="33.9688" rx="12.5" ry="12.5" style="stroke:#181818;stroke-width:0.5;" width="227.293" x="333.1934" y="279.6367"/><text fill="#000000" font-family="sans-serif" font-size="12" lengthAdjust="spacing" textLength="207.293" x="343.1934" y="300.7754">Notify device deleted to event bus</text><polygon fill="#F1F1F1" points="384.5459,162.2656,509.1338,162.2656,521.1338,174.2656,509.1338,186.2656,384.5459,186.2656,372.5459,174.2656,384.5459,162.2656" style="stroke:#181818;stroke-width:0.5;"/><text fill="#000000" font-family="sans-serif" font-size="11" lengthAdjust="spacing" textLength="19.0083" x="450.8398" y="196.4761">yes</text><text fill="#000000" font-family="sans-serif" font-size="11" lengthAdjust="spacing" textLength="124.5879" x="384.5459" y="178.0737">Does the device exist?</text><polygon fill="#F1F1F1" points="446.8398,338.0078,458.8398,350.0078,446.8398,362.0078,434.8398,350.0078,446.8398,338.0078" style="stroke:#181818;stroke-width:0.5;"/><ellipse cx="446.8398" cy="416.0078" fill="none" rx="10" ry="10" style="stroke:#222222;stroke-width:1.5;"/><line style="stroke:#222222;stroke-width:2.5;" x1="440.6527" x2="453.027" y1="409.8206" y2="422.195"/><line style="stroke:#222222;stroke-width:2.5;" x1="453.027" x2="440.6527" y1="409.8206" y2="422.195"/><rect fill="#555555" height="6" rx="2.5" ry="2.5" style="stroke:#555555;stroke-width:1;" width="587.4863" x="11" y="436.0078"/><line style="stroke:#181818;stroke-width:1;" x1="159.0967" x2="159.0967" y1="263.0391" y2="298.0391"/><polygon fill="#181818" points="155.0967,288.0391,159.0967,298.0391,163.0967,288.0391,159.0967,292.0391" style="stroke:#181818;stroke-width:1;"/><line style="stroke:#181818;stroke-width:1;" x1="159.0967" x2="159.0967" y1="192.2656" y2="229.0703"/><polygon fill="#181818" points="155.0967,219.0703,159.0967,229.0703,163.0967,219.0703,159.0967,223.0703" style="stroke:#181818;stroke-width:1;"/><line style="stroke:#181818;stroke-width:1;" x1="159.0967" x2="159.0967" y1="332.0078" y2="344.0078"/><line style="stroke:#181818;stroke-width:1;" x1="159.0967" x2="278.8896" y1="344.0078" y2="344.0078"/><polygon fill="#181818" points="274.8896,272.1367,278.8896,262.1367,282.8896,272.1367,278.8896,268.1367" style="stroke:#181818;stroke-width:1;"/><line style="stroke:#181818;stroke-width:1;" x1="278.8896" x2="278.8896" y1="180.2656" y2="344.0078"/><line style="stroke:#181818;stroke-width:1;" x1="278.8896" x2="248" y1="180.2656" y2="180.2656"/><polygon fill="#181818" points="258,176.2656,248,180.2656,258,184.2656,254,180.2656" style="stroke:#181818;stroke-width:1;"/><line style="stroke:#181818;stroke-width:1;" x1="70.1934" x2="39.3037" y1="180.2656" y2="180.2656"/><polygon fill="#181818" points="35.3037,258.1367,39.3037,268.1367,43.3037,258.1367,39.3037,262.1367" style="stroke:#181818;stroke-width:1;"/><line style="stroke:#181818;stroke-width:1;" x1="39.3037" x2="39.3037" y1="180.2656" y2="356.0078"/><line style="stroke:#181818;stroke-width:1;" x1="39.3037" x2="159.0967" y1="356.0078" y2="356.0078"/><line style="stroke:#181818;stroke-width:1;" x1="159.0967" x2="159.0967" y1="356.0078" y2="400.0078"/><polygon fill="#181818" points="155.0967,390.0078,159.0967,400.0078,163.0967,390.0078,159.0967,394.0078" style="stroke:#181818;stroke-width:1;"/><line style="stroke:#181818;stroke-width:1;" x1="159.0967" x2="159.0967" y1="142.2656" y2="168.2656"/><polygon fill="#181818" points="155.0967,158.2656,159.0967,168.2656,163.0967,158.2656,159.0967,162.2656" style="stroke:#181818;stroke-width:1;"/><line style="stroke:#181818;stroke-width:1;" x1="446.8398" x2="446.8398" y1="244.6367" y2="279.6367"/><polygon fill="#181818" points="442.8398,269.6367,446.8398,279.6367,450.8398,269.6367,446.8398,273.6367" style="stroke:#181818;stroke-width:1;"/><line style="stroke:#181818;stroke-width:1;" x1="446.8398" x2="446.8398" y1="186.2656" y2="210.668"/><polygon fill="#181818" points="442.8398,200.668,446.8398,210.668,450.8398,200.668,446.8398,204.668" style="stroke:#181818;stroke-width:1;"/><line style="stroke:#181818;stroke-width:1;" x1="521.1338" x2="570.4863" y1="174.2656" y2="174.2656"/><polygon fill="#181818" points="566.4863,252.1367,570.4863,262.1367,574.4863,252.1367,570.4863,256.1367" style="stroke:#181818;stroke-width:1;"/><line style="stroke:#181818;stroke-width:1;" x1="570.4863" x2="570.4863" y1="174.2656" y2="350.0078"/><line style="stroke:#181818;stroke-width:1;" x1="570.4863" x2="458.8398" y1="350.0078" y2="350.0078"/><polygon fill="#181818" points="468.8398,346.0078,458.8398,350.0078,468.8398,354.0078,464.8398,350.0078" style="stroke:#181818;stroke-width:1;"/><line style="stroke:#181818;stroke-width:1;" x1="446.8398" x2="446.8398" y1="313.6055" y2="338.0078"/><polygon fill="#181818" points="442.8398,328.0078,446.8398,338.0078,450.8398,328.0078,446.8398,332.0078" style="stroke:#181818;stroke-width:1;"/><line style="stroke:#181818;stroke-width:1;" x1="446.8398" x2="446.8398" y1="136.2656" y2="162.2656"/><polygon fill="#181818" points="442.8398,152.2656,446.8398,162.2656,450.8398,152.2656,446.8398,156.2656" style="stroke:#181818;stroke-width:1;"/><line style="stroke:#181818;stroke-width:1;" x1="446.8398" x2="446.8398" y1="362.0078" y2="406.0078"/><polygon fill="#181818" points="442.8398,396.0078,446.8398,406.0078,450.8398,396.0078,446.8398,400.0078" style="stroke:#181818;stroke-width:1;"/><line style="stroke:#181818;stroke-width:1;" x1="159.0967" x2="159.0967" y1="56" y2="108.2969"/><polygon fill="#181818" points="155.0967,98.2969,159.0967,108.2969,163.0967,98.2969,159.0967,102.2969" style="stroke:#181818;stroke-width:1;"/><line style="stroke:#181818;stroke-width:1;" x1="446.8398" x2="446.8398" y1="56" y2="102.2969"/><polygon fill="#181818" points="442.8398,92.2969,446.8398,102.2969,450.8398,92.2969,446.8398,96.2969" style="stroke:#181818;stroke-width:1;"/><line style="stroke:#181818;stroke-width:1;" x1="308.895" x2="308.895" y1="30" y2="50"/><polygon fill="#181818" points="304.895,40,308.895,50,312.895,40,308.895,44" style="stroke:#181818;stroke-width:1;"/><!--SRC=[XP1DZi8m38NtFOMNvGgmc0qIOiCTClIrjGWnYardUdj8-aCH7OrtYP-V_Jqr5wse9LuAUbOJvNwZFJmCT6jxPV7IyDbvSXxHDAjIRG-mLGKzpSXQK8MEpzZD4pyjUr1vrDID81U62JAXYAjq-DeGAvKzT3DFvLtZGLc-Us-TnBZkHwSgwwhaY0x1wFkkBpr2DHqHPDYGlZ9pCJrp5kGQn-4paG7fFGFyiXg7veENQoht0bs4COWNcAaNLbdN4bm2ZuR_4dFz5sZwIh0F]--></g></svg>