<?xml version="1.0" encoding="us-ascii" standalone="no"?><svg xmlns="http://www.w3.org/2000/svg" xmlns:xlink="http://www.w3.org/1999/xlink" contentStyleType="text/css" height="672px" preserveAspectRatio="none" style="width:456px;height:672px;background:#FFFFFF;" version="1.1" viewBox="0 0 456 672" width="456px" zoomAndPan="magnify"><defs/><g><rect fill="none" height="173.9746" style="stroke:#000000;stroke-width:1.5;" width="394.5" x="10" y="141.7539"/><rect fill="none" height="114.5313" style="stroke:#000000;stroke-width:1.5;" width="251.5" x="143" y="194.1973"/><rect fill="none" height="101.709" style="stroke:#000000;stroke-width:1.5;" width="326" x="10" y="357.8613"/><line style="stroke:#181818;stroke-width:0.5;stroke-dasharray:5.0,5.0;" x1="65" x2="65" y1="82.4883" y2="589.2344"/><line style="stroke:#181818;stroke-width:0.5;stroke-dasharray:5.0,5.0;" x1="239" x2="239" y1="82.4883" y2="589.2344"/><line style="stroke:#181818;stroke-width:0.5;stroke-dasharray:5.0,5.0;" x1="398.5" x2="398.5" y1="82.4883" y2="589.2344"/><text fill="#000000" font-family="sans-serif" font-size="14" lengthAdjust="spacing" textLength="85" x="20" y="79.5352">Clinical User</text><ellipse cx="65.5" cy="21.5" fill="#E2E2F0" rx="16" ry="16" style="stroke:#181818;stroke-width:0.5;"/><path d="M65.5,41.5 C69.5,41.5 72.5,41.5 76.5,37.5 C84.5,37.5 92.5,45.5 92.5,53.5 L92.5,57.5 C92.5,61.5 88.5,65.5 84.5,65.5 L46.5,65.5 C42.5,65.5 38.5,61.5 38.5,57.5 L38.5,53.5 C38.5,45.5 46.5,37.5 54.5,37.5 C58.5,41.5 61.5,41.5 65.5,41.5 " fill="#E2E2F0" style="stroke:#181818;stroke-width:0.5;"/><text fill="#000000" font-family="sans-serif" font-size="14" lengthAdjust="spacing" textLength="85" x="20" y="601.7695">Clinical User</text><ellipse cx="65.5" cy="621.2227" fill="#E2E2F0" rx="16" ry="16" style="stroke:#181818;stroke-width:0.5;"/><path d="M65.5,641.2227 C69.5,641.2227 72.5,641.2227 76.5,637.2227 C84.5,637.2227 92.5,645.2227 92.5,653.2227 L92.5,657.2227 C92.5,661.2227 88.5,665.2227 84.5,665.2227 L46.5,665.2227 C42.5,665.2227 38.5,661.2227 38.5,657.2227 L38.5,653.2227 C38.5,645.2227 46.5,637.2227 54.5,637.2227 C58.5,641.2227 61.5,641.2227 65.5,641.2227 " fill="#E2E2F0" style="stroke:#181818;stroke-width:0.5;"/><rect fill="#E2E2F0" height="30.4883" rx="2.5" ry="2.5" style="stroke:#181818;stroke-width:0.5;" width="173" x="153" y="51"/><text fill="#000000" font-family="sans-serif" font-size="14" lengthAdjust="spacing" textLength="159" x="160" y="71.5352">Central Monitoring Site</text><rect fill="#E2E2F0" height="30.4883" rx="2.5" ry="2.5" style="stroke:#181818;stroke-width:0.5;" width="173" x="153" y="588.2344"/><text fill="#000000" font-family="sans-serif" font-size="14" lengthAdjust="spacing" textLength="159" x="160" y="608.7695">Central Monitoring Site</text><rect fill="#E2E2F0" height="30.4883" rx="2.5" ry="2.5" style="stroke:#181818;stroke-width:0.5;" width="104" x="346.5" y="51"/><text fill="#000000" font-family="sans-serif" font-size="14" lengthAdjust="spacing" textLength="90" x="353.5" y="71.5352">Web Gateway</text><rect fill="#E2E2F0" height="30.4883" rx="2.5" ry="2.5" style="stroke:#181818;stroke-width:0.5;" width="104" x="346.5" y="588.2344"/><text fill="#000000" font-family="sans-serif" font-size="14" lengthAdjust="spacing" textLength="90" x="353.5" y="608.7695">Web Gateway</text><polygon fill="#666666" points="76.5,122.7539,66.5,126.7539,76.5,130.7539,72.5,126.7539" style="stroke:#666666;stroke-width:1.0;"/><line style="stroke:#666666;stroke-width:1.0;" x1="70.5" x2="238.5" y1="126.7539" y2="126.7539"/><text fill="#666666" font-family="sans-serif" font-size="12" lengthAdjust="spacing" textLength="35" x="83" y="108.0898">Shows</text><text fill="#666666" font-family="sans-serif" font-size="12" lengthAdjust="spacing" textLength="4" x="118" y="108.0898">&#160;</text><text fill="#666666" font-family="sans-serif" font-size="12" lengthAdjust="spacing" textLength="22" x="122" y="108.0898">Bed</text><text fill="#666666" font-family="sans-serif" font-size="12" lengthAdjust="spacing" textLength="4" x="144" y="108.0898">&#160;</text><text fill="#666666" font-family="sans-serif" font-size="12" lengthAdjust="spacing" textLength="74" x="148" y="108.0898">Management</text><text fill="#666666" font-family="sans-serif" font-size="12" lengthAdjust="spacing" textLength="35" x="110.5" y="122.2227">Modal</text><text fill="#666666" font-family="sans-serif" font-size="12" lengthAdjust="spacing" textLength="4" x="145.5" y="122.2227">&#160;</text><text fill="#666666" font-family="sans-serif" font-size="12" lengthAdjust="spacing" textLength="29" x="149.5" y="122.2227">(Step</text><text fill="#666666" font-family="sans-serif" font-size="12" lengthAdjust="spacing" textLength="4" x="178.5" y="122.2227">&#160;</text><text fill="#666666" font-family="sans-serif" font-size="12" lengthAdjust="spacing" textLength="12" x="182.5" y="122.2227">2)</text><path d="M10,141.7539 L84,141.7539 L84,149.0645 L74,159.0645 L10,159.0645 L10,141.7539 " fill="#EEEEEE" style="stroke:#000000;stroke-width:1.5;"/><rect fill="none" height="173.9746" style="stroke:#000000;stroke-width:1.5;" width="394.5" x="10" y="141.7539"/><text fill="#000000" font-family="sans-serif" font-size="13" font-weight="bold" lengthAdjust="spacing" textLength="29" x="25" y="155.3223">loop</text><text fill="#000000" font-family="sans-serif" font-size="11" font-weight="bold" lengthAdjust="spacing" textLength="166" x="99" y="154.3887">[while more edits are needed]</text><polygon fill="#666666" points="227.5,175.1973,237.5,179.1973,227.5,183.1973,231.5,179.1973" style="stroke:#666666;stroke-width:1.0;"/><line style="stroke:#666666;stroke-width:1.0;" x1="65.5" x2="233.5" y1="179.1973" y2="179.1973"/><text fill="#666666" font-family="sans-serif" font-size="12" lengthAdjust="spacing" textLength="76" x="80.5" y="174.666">Add/Remove</text><text fill="#666666" font-family="sans-serif" font-size="12" lengthAdjust="spacing" textLength="4" x="156.5" y="174.666">&#160;</text><text fill="#666666" font-family="sans-serif" font-size="12" lengthAdjust="spacing" textLength="64" x="160.5" y="174.666">assignation</text><path d="M143,194.1973 L205,194.1973 L205,201.5078 L195,211.5078 L143,211.5078 L143,194.1973 " fill="#EEEEEE" style="stroke:#000000;stroke-width:1.5;"/><rect fill="none" height="114.5313" style="stroke:#000000;stroke-width:1.5;" width="251.5" x="143" y="194.1973"/><text fill="#000000" font-family="sans-serif" font-size="13" font-weight="bold" lengthAdjust="spacing" textLength="17" x="158" y="207.7656">alt</text><text fill="#000000" font-family="sans-serif" font-size="11" font-weight="bold" lengthAdjust="spacing" textLength="166" x="220" y="206.832">[no beds have a PM assigned]</text><line style="stroke:#666666;stroke-width:1.0;" x1="239.5" x2="281.5" y1="231.6406" y2="231.6406"/><line style="stroke:#666666;stroke-width:1.0;" x1="281.5" x2="281.5" y1="231.6406" y2="244.6406"/><line style="stroke:#666666;stroke-width:1.0;" x1="240.5" x2="281.5" y1="244.6406" y2="244.6406"/><polygon fill="#666666" points="250.5,240.6406,240.5,244.6406,250.5,248.6406,246.5,244.6406" style="stroke:#666666;stroke-width:1.0;"/><text fill="#666666" font-family="sans-serif" font-size="12" lengthAdjust="spacing" textLength="65" x="246.5" y="227.1094">deactivates</text><text fill="#666666" font-family="sans-serif" font-size="12" lengthAdjust="spacing" textLength="4" x="311.5" y="227.1094">&#160;</text><text fill="#666666" font-family="sans-serif" font-size="12" lengthAdjust="spacing" textLength="26" x="315.5" y="227.1094">save</text><text fill="#666666" font-family="sans-serif" font-size="12" lengthAdjust="spacing" textLength="4" x="341.5" y="227.1094">&#160;</text><text fill="#666666" font-family="sans-serif" font-size="12" lengthAdjust="spacing" textLength="37" x="345.5" y="227.1094">button</text><line style="stroke:#000000;stroke-width:1.0;stroke-dasharray:2.0,2.0;" x1="143" x2="394.5" y1="253.6406" y2="253.6406"/><text fill="#000000" font-family="sans-serif" font-size="11" font-weight="bold" lengthAdjust="spacing" textLength="97" x="148" y="264.2754">[no errors found]</text><line style="stroke:#666666;stroke-width:1.0;" x1="239.5" x2="281.5" y1="287.7285" y2="287.7285"/><line style="stroke:#666666;stroke-width:1.0;" x1="281.5" x2="281.5" y1="287.7285" y2="300.7285"/><line style="stroke:#666666;stroke-width:1.0;" x1="240.5" x2="281.5" y1="300.7285" y2="300.7285"/><polygon fill="#666666" points="250.5,296.7285,240.5,300.7285,250.5,304.7285,246.5,300.7285" style="stroke:#666666;stroke-width:1.0;"/><text fill="#666666" font-family="sans-serif" font-size="12" lengthAdjust="spacing" textLength="50" x="246.5" y="283.1973">activates</text><text fill="#666666" font-family="sans-serif" font-size="12" lengthAdjust="spacing" textLength="4" x="296.5" y="283.1973">&#160;</text><text fill="#666666" font-family="sans-serif" font-size="12" lengthAdjust="spacing" textLength="26" x="300.5" y="283.1973">save</text><text fill="#666666" font-family="sans-serif" font-size="12" lengthAdjust="spacing" textLength="4" x="326.5" y="283.1973">&#160;</text><text fill="#666666" font-family="sans-serif" font-size="12" lengthAdjust="spacing" textLength="37" x="330.5" y="283.1973">button</text><polygon fill="#666666" points="227.5,338.8613,237.5,342.8613,227.5,346.8613,231.5,342.8613" style="stroke:#666666;stroke-width:1.0;"/><line style="stroke:#666666;stroke-width:1.0;" x1="65.5" x2="233.5" y1="342.8613" y2="342.8613"/><text fill="#666666" font-family="sans-serif" font-size="12" lengthAdjust="spacing" textLength="44" x="95" y="338.3301">Presses</text><text fill="#666666" font-family="sans-serif" font-size="12" lengthAdjust="spacing" textLength="4" x="139" y="338.3301">&#160;</text><text fill="#666666" font-family="sans-serif" font-size="12" lengthAdjust="spacing" textLength="26" x="143" y="338.3301">save</text><text fill="#666666" font-family="sans-serif" font-size="12" lengthAdjust="spacing" textLength="4" x="169" y="338.3301">&#160;</text><text fill="#666666" font-family="sans-serif" font-size="12" lengthAdjust="spacing" textLength="37" x="173" y="338.3301">button</text><path d="M10,357.8613 L72,357.8613 L72,365.1719 L62,375.1719 L10,375.1719 L10,357.8613 " fill="#EEEEEE" style="stroke:#000000;stroke-width:1.5;"/><rect fill="none" height="101.709" style="stroke:#000000;stroke-width:1.5;" width="326" x="10" y="357.8613"/><text fill="#000000" font-family="sans-serif" font-size="13" font-weight="bold" lengthAdjust="spacing" textLength="17" x="25" y="371.4297">alt</text><text fill="#000000" font-family="sans-serif" font-size="11" font-weight="bold" lengthAdjust="spacing" textLength="183" x="87" y="370.4961">[at least one pm is not assigned]</text><polygon fill="#666666" points="76.5,391.3047,66.5,395.3047,76.5,399.3047,72.5,395.3047" style="stroke:#666666;stroke-width:1.0;"/><line style="stroke:#666666;stroke-width:1.0;" x1="70.5" x2="238.5" y1="395.3047" y2="395.3047"/><text fill="#666666" font-family="sans-serif" font-size="12" lengthAdjust="spacing" textLength="35" x="77.5" y="390.7734">Shows</text><text fill="#666666" font-family="sans-serif" font-size="12" lengthAdjust="spacing" textLength="4" x="112.5" y="390.7734">&#160;</text><text fill="#666666" font-family="sans-serif" font-size="12" lengthAdjust="spacing" textLength="71" x="116.5" y="390.7734">confirmation</text><text fill="#666666" font-family="sans-serif" font-size="12" lengthAdjust="spacing" textLength="4" x="187.5" y="390.7734">&#160;</text><text fill="#666666" font-family="sans-serif" font-size="12" lengthAdjust="spacing" textLength="36" x="191.5" y="390.7734">modal</text><polygon fill="#666666" points="227.5,419.4375,237.5,423.4375,227.5,427.4375,231.5,423.4375" style="stroke:#666666;stroke-width:1.0;"/><line style="stroke:#666666;stroke-width:1.0;" x1="65.5" x2="233.5" y1="423.4375" y2="423.4375"/><text fill="#666666" font-family="sans-serif" font-size="12" lengthAdjust="spacing" textLength="51" x="101.5" y="418.9063">Confirms</text><text fill="#666666" font-family="sans-serif" font-size="12" lengthAdjust="spacing" textLength="4" x="152.5" y="418.9063">&#160;</text><text fill="#666666" font-family="sans-serif" font-size="12" lengthAdjust="spacing" textLength="47" x="156.5" y="418.9063">updates</text><polygon fill="#666666" points="76.5,447.5703,66.5,451.5703,76.5,455.5703,72.5,451.5703" style="stroke:#666666;stroke-width:1.0;"/><line style="stroke:#666666;stroke-width:1.0;" x1="70.5" x2="238.5" y1="451.5703" y2="451.5703"/><text fill="#666666" font-family="sans-serif" font-size="12" lengthAdjust="spacing" textLength="33" x="78.5" y="447.0391">Hides</text><text fill="#666666" font-family="sans-serif" font-size="12" lengthAdjust="spacing" textLength="4" x="111.5" y="447.0391">&#160;</text><text fill="#666666" font-family="sans-serif" font-size="12" lengthAdjust="spacing" textLength="71" x="115.5" y="447.0391">confirmation</text><text fill="#666666" font-family="sans-serif" font-size="12" lengthAdjust="spacing" textLength="4" x="186.5" y="447.0391">&#160;</text><text fill="#666666" font-family="sans-serif" font-size="12" lengthAdjust="spacing" textLength="36" x="190.5" y="447.0391">modal</text><polygon fill="#666666" points="386.5,496.8359,396.5,500.8359,386.5,504.8359,390.5,500.8359" style="stroke:#666666;stroke-width:1.0;"/><line style="stroke:#666666;stroke-width:1.0;" x1="239.5" x2="392.5" y1="500.8359" y2="500.8359"/><text fill="#666666" font-family="sans-serif" font-size="12" lengthAdjust="spacing" textLength="48" x="267" y="482.1719">Updates</text><text fill="#666666" font-family="sans-serif" font-size="12" lengthAdjust="spacing" textLength="4" x="315" y="482.1719">&#160;</text><text fill="#666666" font-family="sans-serif" font-size="12" lengthAdjust="spacing" textLength="52" x="319" y="482.1719">PM/beds</text><text fill="#666666" font-family="sans-serif" font-size="12" lengthAdjust="spacing" textLength="69" x="284.5" y="496.3047">associations</text><polygon fill="#666666" points="250.5,524.9688,240.5,528.9688,250.5,532.9688,246.5,528.9688" style="stroke:#666666;stroke-width:1.0;"/><line style="stroke:#666666;stroke-width:1.0;" x1="244.5" x2="397.5" y1="528.9688" y2="528.9688"/><text fill="#666666" font-family="sans-serif" font-size="12" lengthAdjust="spacing" textLength="38" x="251.5" y="524.4375">Return</text><text fill="#666666" font-family="sans-serif" font-size="12" lengthAdjust="spacing" textLength="4" x="289.5" y="524.4375">&#160;</text><text fill="#666666" font-family="sans-serif" font-size="12" lengthAdjust="spacing" textLength="38" x="293.5" y="524.4375">sucess</text><text fill="#666666" font-family="sans-serif" font-size="12" lengthAdjust="spacing" textLength="4" x="331.5" y="524.4375">&#160;</text><text fill="#666666" font-family="sans-serif" font-size="12" lengthAdjust="spacing" textLength="51" x="335.5" y="524.4375">message</text><polygon fill="#666666" points="76.5,567.2344,66.5,571.2344,76.5,575.2344,72.5,571.2344" style="stroke:#666666;stroke-width:1.0;"/><line style="stroke:#666666;stroke-width:1.0;" x1="70.5" x2="238.5" y1="571.2344" y2="571.2344"/><text fill="#666666" font-family="sans-serif" font-size="12" lengthAdjust="spacing" textLength="37" x="82" y="552.5703">Closes</text><text fill="#666666" font-family="sans-serif" font-size="12" lengthAdjust="spacing" textLength="4" x="119" y="552.5703">&#160;</text><text fill="#666666" font-family="sans-serif" font-size="12" lengthAdjust="spacing" textLength="22" x="123" y="552.5703">Bed</text><text fill="#666666" font-family="sans-serif" font-size="12" lengthAdjust="spacing" textLength="4" x="145" y="552.5703">&#160;</text><text fill="#666666" font-family="sans-serif" font-size="12" lengthAdjust="spacing" textLength="74" x="149" y="552.5703">Management</text><text fill="#666666" font-family="sans-serif" font-size="12" lengthAdjust="spacing" textLength="35" x="135" y="566.7031">Modal</text><!--SRC=[VPB1QiCm38RlVWgjf-qm2gEdCWfR3jkbK5hAZiE9jLPWMy5o6lRsavCmQCbcIF3XqsVfj-yeDhvp2C_LQbcjFYiEBKUCUMECRJ8d6DUYyXIfiHwEWca1O0KwtPdMfamDjJPcXRGmARFbI5fByGG7ohWeT1Fa6lx06jvinjv-3q2FjJ5AmUDcKCCQ3cVk1LxHmTP6UyAWVfKxFUB-aB65fmVZcLlep-GH0YS4T9G5hEuYeaDdIlk3Jxr5luONvvPx37n1FLVe56qcZWDeVOR8KACJEDi2m6uxKPEhhAdDKUTGawABZY8WfQRkSfvyw0MB45FY9F35NVp3yez3IyftFSGkeSWDNRgt6JnQoQ3N26q04Zq_NuymbtB3yOjI6ABG93NZcUIg4TAxRrtfTSRsJWvdRMM42TMhLl8uEZJWvP2tjiWD3ILY2l9xx1vpbo98r-ZC4FIdZ-7chLIUInnpZyMO7m00]--></g></svg>