<?xml version="1.0" encoding="us-ascii" standalone="no"?><svg xmlns="http://www.w3.org/2000/svg" xmlns:xlink="http://www.w3.org/1999/xlink" contentStyleType="text/css" height="706px" preserveAspectRatio="none" style="width:398px;height:706px;background:#FFFFFF;" version="1.1" viewBox="0 0 398 706" width="398px" zoomAndPan="magnify"><defs/><g><rect fill="none" height="409.3906" style="stroke:#000000;stroke-width:1.5;" width="381.5" x="10" y="197.0195"/><rect fill="none" height="293.8594" style="stroke:#000000;stroke-width:1.5;" width="348" x="20" y="305.5508"/><rect fill="none" height="219.4609" style="stroke:#000000;stroke-width:1.5;" width="328" x="30" y="372.9492"/><rect fill="none" height="130.9297" style="stroke:#000000;stroke-width:1.5;" width="308" x="40" y="454.4805"/><line style="stroke:#181818;stroke-width:0.5;stroke-dasharray:5.0,5.0;" x1="77" x2="77" y1="82.4883" y2="623.4102"/><line style="stroke:#181818;stroke-width:0.5;stroke-dasharray:5.0,5.0;" x1="251" x2="251" y1="82.4883" y2="623.4102"/><text fill="#000000" font-family="sans-serif" font-size="14" lengthAdjust="spacing" textLength="31" x="59" y="79.5352">User</text><ellipse cx="77.5" cy="21.5" fill="#E2E2F0" rx="16" ry="16" style="stroke:#181818;stroke-width:0.5;"/><path d="M77.5,41.5 C81.5,41.5 84.5,41.5 88.5,37.5 C96.5,37.5 104.5,45.5 104.5,53.5 L104.5,57.5 C104.5,61.5 100.5,65.5 96.5,65.5 L58.5,65.5 C54.5,65.5 50.5,61.5 50.5,57.5 L50.5,53.5 C50.5,45.5 58.5,37.5 66.5,37.5 C70.5,41.5 73.5,41.5 77.5,41.5 " fill="#E2E2F0" style="stroke:#181818;stroke-width:0.5;"/><text fill="#000000" font-family="sans-serif" font-size="14" lengthAdjust="spacing" textLength="31" x="59" y="635.9453">User</text><ellipse cx="77.5" cy="655.3984" fill="#E2E2F0" rx="16" ry="16" style="stroke:#181818;stroke-width:0.5;"/><path d="M77.5,675.3984 C81.5,675.3984 84.5,675.3984 88.5,671.3984 C96.5,671.3984 104.5,679.3984 104.5,687.3984 L104.5,691.3984 C104.5,695.3984 100.5,699.3984 96.5,699.3984 L58.5,699.3984 C54.5,699.3984 50.5,695.3984 50.5,691.3984 L50.5,687.3984 C50.5,679.3984 58.5,671.3984 66.5,671.3984 C70.5,675.3984 73.5,675.3984 77.5,675.3984 " fill="#E2E2F0" style="stroke:#181818;stroke-width:0.5;"/><rect fill="#E2E2F0" height="30.4883" rx="2.5" ry="2.5" style="stroke:#181818;stroke-width:0.5;" width="173" x="165" y="51"/><text fill="#000000" font-family="sans-serif" font-size="14" lengthAdjust="spacing" textLength="159" x="172" y="71.5352">Central Monitoring Site</text><rect fill="#E2E2F0" height="30.4883" rx="2.5" ry="2.5" style="stroke:#181818;stroke-width:0.5;" width="173" x="165" y="622.4102"/><text fill="#000000" font-family="sans-serif" font-size="14" lengthAdjust="spacing" textLength="159" x="172" y="642.9453">Central Monitoring Site</text><polygon fill="#666666" points="239.5,122.7539,249.5,126.7539,239.5,130.7539,243.5,126.7539" style="stroke:#666666;stroke-width:1.0;"/><line style="stroke:#666666;stroke-width:1.0;" x1="77.5" x2="245.5" y1="126.7539" y2="126.7539"/><text fill="#666666" font-family="sans-serif" font-size="12" lengthAdjust="spacing" textLength="37" x="116" y="108.0898">Opens</text><text fill="#666666" font-family="sans-serif" font-size="12" lengthAdjust="spacing" textLength="4" x="153" y="108.0898">&#160;</text><text fill="#666666" font-family="sans-serif" font-size="12" lengthAdjust="spacing" textLength="23" x="157" y="108.0898">root</text><text fill="#666666" font-family="sans-serif" font-size="12" lengthAdjust="spacing" textLength="4" x="180" y="108.0898">&#160;</text><text fill="#666666" font-family="sans-serif" font-size="12" lengthAdjust="spacing" textLength="29" x="184" y="108.0898">page</text><text fill="#666666" font-family="sans-serif" font-size="12" lengthAdjust="spacing" textLength="59" x="93" y="122.2227">(optionally</text><text fill="#666666" font-family="sans-serif" font-size="12" lengthAdjust="spacing" textLength="4" x="152" y="122.2227">&#160;</text><text fill="#666666" font-family="sans-serif" font-size="12" lengthAdjust="spacing" textLength="23" x="156" y="122.2227">with</text><text fill="#666666" font-family="sans-serif" font-size="12" lengthAdjust="spacing" textLength="4" x="179" y="122.2227">&#160;</text><text fill="#666666" font-family="sans-serif" font-size="12" lengthAdjust="spacing" textLength="34" x="183" y="122.2227">group</text><text fill="#666666" font-family="sans-serif" font-size="12" lengthAdjust="spacing" textLength="4" x="217" y="122.2227">&#160;</text><text fill="#666666" font-family="sans-serif" font-size="12" lengthAdjust="spacing" textLength="15" x="221" y="122.2227">id)</text><line style="stroke:#666666;stroke-width:1.0;" x1="251.5" x2="293.5" y1="169.0195" y2="169.0195"/><line style="stroke:#666666;stroke-width:1.0;" x1="293.5" x2="293.5" y1="169.0195" y2="182.0195"/><line style="stroke:#666666;stroke-width:1.0;" x1="252.5" x2="293.5" y1="182.0195" y2="182.0195"/><polygon fill="#666666" points="262.5,178.0195,252.5,182.0195,262.5,186.0195,258.5,182.0195" style="stroke:#666666;stroke-width:1.0;"/><text fill="#666666" font-family="sans-serif" font-size="12" lengthAdjust="spacing" textLength="53" x="258.5" y="150.3555">Retrieves</text><text fill="#666666" font-family="sans-serif" font-size="12" lengthAdjust="spacing" textLength="4" x="311.5" y="150.3555">&#160;</text><text fill="#666666" font-family="sans-serif" font-size="12" lengthAdjust="spacing" textLength="37" x="315.5" y="150.3555">stored</text><text fill="#666666" font-family="sans-serif" font-size="12" lengthAdjust="spacing" textLength="4" x="352.5" y="150.3555">&#160;</text><text fill="#666666" font-family="sans-serif" font-size="12" lengthAdjust="spacing" textLength="25" x="356.5" y="150.3555">user</text><text fill="#666666" font-family="sans-serif" font-size="12" lengthAdjust="spacing" textLength="65" x="287.5" y="164.4883">information</text><path d="M10,197.0195 L72,197.0195 L72,204.3301 L62,214.3301 L10,214.3301 L10,197.0195 " fill="#EEEEEE" style="stroke:#000000;stroke-width:1.5;"/><rect fill="none" height="409.3906" style="stroke:#000000;stroke-width:1.5;" width="381.5" x="10" y="197.0195"/><text fill="#000000" font-family="sans-serif" font-size="13" font-weight="bold" lengthAdjust="spacing" textLength="17" x="25" y="210.5879">alt</text><text fill="#000000" font-family="sans-serif" font-size="11" font-weight="bold" lengthAdjust="spacing" textLength="160" x="87" y="209.6543">[no user information stored]</text><polygon fill="#666666" points="88.5,230.4629,78.5,234.4629,88.5,238.4629,84.5,234.4629" style="stroke:#666666;stroke-width:1.0;"/><line style="stroke:#666666;stroke-width:1.0;" x1="82.5" x2="250.5" y1="234.4629" y2="234.4629"/><text fill="#666666" font-family="sans-serif" font-size="12" lengthAdjust="spacing" textLength="35" x="96" y="229.9316">Shows</text><text fill="#666666" font-family="sans-serif" font-size="12" lengthAdjust="spacing" textLength="4" x="131" y="229.9316">&#160;</text><text fill="#666666" font-family="sans-serif" font-size="12" lengthAdjust="spacing" textLength="25" x="135" y="229.9316">user</text><text fill="#666666" font-family="sans-serif" font-size="12" lengthAdjust="spacing" textLength="4" x="160" y="229.9316">&#160;</text><text fill="#666666" font-family="sans-serif" font-size="12" lengthAdjust="spacing" textLength="38" x="164" y="229.9316">clinical</text><text fill="#666666" font-family="sans-serif" font-size="12" lengthAdjust="spacing" textLength="4" x="202" y="229.9316">&#160;</text><text fill="#666666" font-family="sans-serif" font-size="12" lengthAdjust="spacing" textLength="27" x="206" y="229.9316">login</text><line style="stroke:#000000;stroke-width:1.0;stroke-dasharray:2.0,2.0;" x1="10" x2="391.5" y1="243.4629" y2="243.4629"/><text fill="#000000" font-family="sans-serif" font-size="11" font-weight="bold" lengthAdjust="spacing" textLength="165" x="15" y="254.0977">[has stored user information]</text><line style="stroke:#666666;stroke-width:1.0;" x1="251.5" x2="293.5" y1="277.5508" y2="277.5508"/><line style="stroke:#666666;stroke-width:1.0;" x1="293.5" x2="293.5" y1="277.5508" y2="290.5508"/><line style="stroke:#666666;stroke-width:1.0;" x1="252.5" x2="293.5" y1="290.5508" y2="290.5508"/><polygon fill="#666666" points="262.5,286.5508,252.5,290.5508,262.5,294.5508,258.5,290.5508" style="stroke:#666666;stroke-width:1.0;"/><text fill="#666666" font-family="sans-serif" font-size="12" lengthAdjust="spacing" textLength="41" x="258.5" y="273.0195">Checks</text><text fill="#666666" font-family="sans-serif" font-size="12" lengthAdjust="spacing" textLength="4" x="299.5" y="273.0195">&#160;</text><text fill="#666666" font-family="sans-serif" font-size="12" lengthAdjust="spacing" textLength="32" x="303.5" y="273.0195">token</text><text fill="#666666" font-family="sans-serif" font-size="12" lengthAdjust="spacing" textLength="4" x="335.5" y="273.0195">&#160;</text><text fill="#666666" font-family="sans-serif" font-size="12" lengthAdjust="spacing" textLength="9" x="339.5" y="273.0195">is</text><text fill="#666666" font-family="sans-serif" font-size="12" lengthAdjust="spacing" textLength="4" x="348.5" y="273.0195">&#160;</text><text fill="#666666" font-family="sans-serif" font-size="12" lengthAdjust="spacing" textLength="27" x="352.5" y="273.0195">valid</text><path d="M20,305.5508 L82,305.5508 L82,312.8613 L72,322.8613 L20,322.8613 L20,305.5508 " fill="#EEEEEE" style="stroke:#000000;stroke-width:1.5;"/><rect fill="none" height="293.8594" style="stroke:#000000;stroke-width:1.5;" width="348" x="20" y="305.5508"/><text fill="#000000" font-family="sans-serif" font-size="13" font-weight="bold" lengthAdjust="spacing" textLength="17" x="35" y="319.1191">alt</text><text fill="#000000" font-family="sans-serif" font-size="11" font-weight="bold" lengthAdjust="spacing" textLength="96" x="97" y="318.1855">[token is invalid]</text><polygon fill="#666666" points="88.5,338.9941,78.5,342.9941,88.5,346.9941,84.5,342.9941" style="stroke:#666666;stroke-width:1.0;"/><line style="stroke:#666666;stroke-width:1.0;" x1="82.5" x2="250.5" y1="342.9941" y2="342.9941"/><text fill="#666666" font-family="sans-serif" font-size="12" lengthAdjust="spacing" textLength="35" x="96" y="338.4629">Shows</text><text fill="#666666" font-family="sans-serif" font-size="12" lengthAdjust="spacing" textLength="4" x="131" y="338.4629">&#160;</text><text fill="#666666" font-family="sans-serif" font-size="12" lengthAdjust="spacing" textLength="25" x="135" y="338.4629">user</text><text fill="#666666" font-family="sans-serif" font-size="12" lengthAdjust="spacing" textLength="4" x="160" y="338.4629">&#160;</text><text fill="#666666" font-family="sans-serif" font-size="12" lengthAdjust="spacing" textLength="38" x="164" y="338.4629">clinical</text><text fill="#666666" font-family="sans-serif" font-size="12" lengthAdjust="spacing" textLength="4" x="202" y="338.4629">&#160;</text><text fill="#666666" font-family="sans-serif" font-size="12" lengthAdjust="spacing" textLength="27" x="206" y="338.4629">login</text><line style="stroke:#000000;stroke-width:1.0;stroke-dasharray:2.0,2.0;" x1="20" x2="368" y1="351.9941" y2="351.9941"/><text fill="#000000" font-family="sans-serif" font-size="11" font-weight="bold" lengthAdjust="spacing" textLength="85" x="25" y="362.6289">[token is valid]</text><path d="M30,372.9492 L92,372.9492 L92,380.2598 L82,390.2598 L30,390.2598 L30,372.9492 " fill="#EEEEEE" style="stroke:#000000;stroke-width:1.5;"/><rect fill="none" height="219.4609" style="stroke:#000000;stroke-width:1.5;" width="328" x="30" y="372.9492"/><text fill="#000000" font-family="sans-serif" font-size="13" font-weight="bold" lengthAdjust="spacing" textLength="17" x="45" y="386.5176">alt</text><text fill="#000000" font-family="sans-serif" font-size="11" font-weight="bold" lengthAdjust="spacing" textLength="100" x="107" y="385.584">[user is technical]</text><polygon fill="#666666" points="88.5,420.5254,78.5,424.5254,88.5,428.5254,84.5,424.5254" style="stroke:#666666;stroke-width:1.0;"/><line style="stroke:#666666;stroke-width:1.0;" x1="82.5" x2="250.5" y1="424.5254" y2="424.5254"/><text fill="#666666" font-family="sans-serif" font-size="12" lengthAdjust="spacing" textLength="35" x="105.5" y="405.8613">Shows</text><text fill="#666666" font-family="sans-serif" font-size="12" lengthAdjust="spacing" textLength="4" x="140.5" y="405.8613">&#160;</text><text fill="#666666" font-family="sans-serif" font-size="12" lengthAdjust="spacing" textLength="25" x="144.5" y="405.8613">user</text><text fill="#666666" font-family="sans-serif" font-size="12" lengthAdjust="spacing" textLength="4" x="169.5" y="405.8613">&#160;</text><text fill="#666666" font-family="sans-serif" font-size="12" lengthAdjust="spacing" textLength="50" x="173.5" y="405.8613">technical</text><text fill="#666666" font-family="sans-serif" font-size="12" lengthAdjust="spacing" textLength="43" x="143" y="419.9941">module</text><line style="stroke:#000000;stroke-width:1.0;stroke-dasharray:2.0,2.0;" x1="30" x2="358" y1="433.5254" y2="433.5254"/><text fill="#000000" font-family="sans-serif" font-size="11" font-weight="bold" lengthAdjust="spacing" textLength="91" x="35" y="444.1602">[user is clinical]</text><path d="M40,454.4805 L102,454.4805 L102,461.791 L92,471.791 L40,471.791 L40,454.4805 " fill="#EEEEEE" style="stroke:#000000;stroke-width:1.5;"/><rect fill="none" height="130.9297" style="stroke:#000000;stroke-width:1.5;" width="308" x="40" y="454.4805"/><text fill="#000000" font-family="sans-serif" font-size="13" font-weight="bold" lengthAdjust="spacing" textLength="17" x="55" y="468.0488">alt</text><text fill="#000000" font-family="sans-serif" font-size="11" font-weight="bold" lengthAdjust="spacing" textLength="109" x="117" y="467.1152">[group is provided]</text><polygon fill="#666666" points="88.5,516.1895,78.5,520.1895,88.5,524.1895,84.5,520.1895" style="stroke:#666666;stroke-width:1.0;"/><line style="stroke:#666666;stroke-width:1.0;" x1="82.5" x2="250.5" y1="520.1895" y2="520.1895"/><text fill="#666666" font-family="sans-serif" font-size="12" lengthAdjust="spacing" textLength="35" x="111.5" y="487.3926">Shows</text><text fill="#666666" font-family="sans-serif" font-size="12" lengthAdjust="spacing" textLength="4" x="146.5" y="487.3926">&#160;</text><text fill="#666666" font-family="sans-serif" font-size="12" lengthAdjust="spacing" textLength="25" x="150.5" y="487.3926">user</text><text fill="#666666" font-family="sans-serif" font-size="12" lengthAdjust="spacing" textLength="4" x="175.5" y="487.3926">&#160;</text><text fill="#666666" font-family="sans-serif" font-size="12" lengthAdjust="spacing" textLength="38" x="179.5" y="487.3926">clincial</text><text fill="#666666" font-family="sans-serif" font-size="12" lengthAdjust="spacing" textLength="43" x="103.5" y="501.5254">module</text><text fill="#666666" font-family="sans-serif" font-size="12" lengthAdjust="spacing" textLength="4" x="146.5" y="501.5254">&#160;</text><text fill="#666666" font-family="sans-serif" font-size="12" lengthAdjust="spacing" textLength="23" x="150.5" y="501.5254">with</text><text fill="#666666" font-family="sans-serif" font-size="12" lengthAdjust="spacing" textLength="4" x="173.5" y="501.5254">&#160;</text><text fill="#666666" font-family="sans-serif" font-size="12" lengthAdjust="spacing" textLength="48" x="177.5" y="501.5254">selected</text><text fill="#666666" font-family="sans-serif" font-size="12" lengthAdjust="spacing" textLength="34" x="147.5" y="515.6582">group</text><line style="stroke:#000000;stroke-width:1.0;stroke-dasharray:2.0,2.0;" x1="40" x2="348" y1="529.1895" y2="529.1895"/><text fill="#000000" font-family="sans-serif" font-size="11" font-weight="bold" lengthAdjust="spacing" textLength="131" x="45" y="539.8242">[group is not provided]</text><polygon fill="#666666" points="88.5,573.4102,78.5,577.4102,88.5,581.4102,84.5,577.4102" style="stroke:#666666;stroke-width:1.0;"/><line style="stroke:#666666;stroke-width:1.0;" x1="82.5" x2="250.5" y1="577.4102" y2="577.4102"/><text fill="#666666" font-family="sans-serif" font-size="12" lengthAdjust="spacing" textLength="35" x="89.5" y="558.7461">Shows</text><text fill="#666666" font-family="sans-serif" font-size="12" lengthAdjust="spacing" textLength="4" x="124.5" y="558.7461">&#160;</text><text fill="#666666" font-family="sans-serif" font-size="12" lengthAdjust="spacing" textLength="25" x="128.5" y="558.7461">user</text><text fill="#666666" font-family="sans-serif" font-size="12" lengthAdjust="spacing" textLength="4" x="153.5" y="558.7461">&#160;</text><text fill="#666666" font-family="sans-serif" font-size="12" lengthAdjust="spacing" textLength="40" x="157.5" y="558.7461">default</text><text fill="#666666" font-family="sans-serif" font-size="12" lengthAdjust="spacing" textLength="4" x="197.5" y="558.7461">&#160;</text><text fill="#666666" font-family="sans-serif" font-size="12" lengthAdjust="spacing" textLength="38" x="201.5" y="558.7461">clinical</text><text fill="#666666" font-family="sans-serif" font-size="12" lengthAdjust="spacing" textLength="43" x="143" y="572.8789">module</text><!--SRC=[bP8nJyCm48Lt_ueZ4mo8fLE5kcH6I5JCo7AkoQdEdMKxhVZts4vZQ84Y8aLnudllVNVE3R6nKuVmsAuUsjLRAwCJHeuRfRI9uc6-cjU0lW7G0QQqKaxxI8QSvWXDc-gzjl0aJ4b2tCEM8ZQvsen1gIo1-qr-WJKyE-G0NYI2qpt2hRX8mjhQTpXI7A3tCZcWxavbGTMzOFI41mmGKWfsXGI8T-97dHqIiet0yctZ952vavDbALd3Tf3Zt18OIqmcjM6b9rPe0yAWVm_xOZRpjGEQVO0eUsIW00TjQSxCMFKpyUV61T0rdbnQc7xmNp9cneI0PYZQkdkryreEetIJnQegUOlfmdFccLDFnnN0UJbGXzrPnPypDrI3v-CFQD74DF9YV6PMW6eUvp_etvaTxlIKiEjyBvekEVnfkAppCzyV]--></g></svg>