<?xml version="1.0" encoding="us-ascii" standalone="no"?><svg xmlns="http://www.w3.org/2000/svg" xmlns:xlink="http://www.w3.org/1999/xlink" contentStyleType="text/css" height="817px" preserveAspectRatio="none" style="width:478px;height:817px;background:#FFFFFF;" version="1.1" viewBox="0 0 478 817" width="478px" zoomAndPan="magnify"><defs/><g><rect fill="none" height="45.4434" style="stroke:#000000;stroke-width:1.5;" width="325" x="20" y="502.9238"/><line style="stroke:#181818;stroke-width:0.5;stroke-dasharray:5.0,5.0;" x1="75" x2="75" y1="82.4883" y2="734.4297"/><line style="stroke:#181818;stroke-width:0.5;stroke-dasharray:5.0,5.0;" x1="248" x2="248" y1="82.4883" y2="734.4297"/><line style="stroke:#181818;stroke-width:0.5;stroke-dasharray:5.0,5.0;" x1="420.5" x2="420.5" y1="82.4883" y2="734.4297"/><text fill="#000000" font-family="sans-serif" font-size="14" lengthAdjust="spacing" textLength="85" x="30" y="79.5352">Clinical User</text><ellipse cx="75.5" cy="21.5" fill="#E2E2F0" rx="16" ry="16" style="stroke:#181818;stroke-width:0.5;"/><path d="M75.5,41.5 C79.5,41.5 82.5,41.5 86.5,37.5 C94.5,37.5 102.5,45.5 102.5,53.5 L102.5,57.5 C102.5,61.5 98.5,65.5 94.5,65.5 L56.5,65.5 C52.5,65.5 48.5,61.5 48.5,57.5 L48.5,53.5 C48.5,45.5 56.5,37.5 64.5,37.5 C68.5,41.5 71.5,41.5 75.5,41.5 " fill="#E2E2F0" style="stroke:#181818;stroke-width:0.5;"/><text fill="#000000" font-family="sans-serif" font-size="14" lengthAdjust="spacing" textLength="85" x="30" y="746.9648">Clinical User</text><ellipse cx="75.5" cy="766.418" fill="#E2E2F0" rx="16" ry="16" style="stroke:#181818;stroke-width:0.5;"/><path d="M75.5,786.418 C79.5,786.418 82.5,786.418 86.5,782.418 C94.5,782.418 102.5,790.418 102.5,798.418 L102.5,802.418 C102.5,806.418 98.5,810.418 94.5,810.418 L56.5,810.418 C52.5,810.418 48.5,806.418 48.5,802.418 L48.5,798.418 C48.5,790.418 56.5,782.418 64.5,782.418 C68.5,786.418 71.5,786.418 75.5,786.418 " fill="#E2E2F0" style="stroke:#181818;stroke-width:0.5;"/><rect fill="#E2E2F0" height="30.4883" rx="2.5" ry="2.5" style="stroke:#181818;stroke-width:0.5;" width="173" x="162" y="51"/><text fill="#000000" font-family="sans-serif" font-size="14" lengthAdjust="spacing" textLength="159" x="169" y="71.5352">Central Monitoring Site</text><rect fill="#E2E2F0" height="30.4883" rx="2.5" ry="2.5" style="stroke:#181818;stroke-width:0.5;" width="173" x="162" y="733.4297"/><text fill="#000000" font-family="sans-serif" font-size="14" lengthAdjust="spacing" textLength="159" x="169" y="753.9648">Central Monitoring Site</text><rect fill="#E2E2F0" height="30.4883" rx="2.5" ry="2.5" style="stroke:#181818;stroke-width:0.5;" width="104" x="368.5" y="51"/><text fill="#000000" font-family="sans-serif" font-size="14" lengthAdjust="spacing" textLength="90" x="375.5" y="71.5352">Web Gateway</text><rect fill="#E2E2F0" height="30.4883" rx="2.5" ry="2.5" style="stroke:#181818;stroke-width:0.5;" width="104" x="368.5" y="733.4297"/><text fill="#000000" font-family="sans-serif" font-size="14" lengthAdjust="spacing" textLength="90" x="375.5" y="753.9648">Web Gateway</text><line style="stroke:#666666;stroke-width:1.0;" x1="248.5" x2="290.5" y1="112.6211" y2="112.6211"/><line style="stroke:#666666;stroke-width:1.0;" x1="290.5" x2="290.5" y1="112.6211" y2="125.6211"/><line style="stroke:#666666;stroke-width:1.0;" x1="249.5" x2="290.5" y1="125.6211" y2="125.6211"/><polygon fill="#666666" points="259.5,121.6211,249.5,125.6211,259.5,129.6211,255.5,125.6211" style="stroke:#666666;stroke-width:1.0;"/><text fill="#666666" font-family="sans-serif" font-size="12" lengthAdjust="spacing" textLength="34" x="255.5" y="108.0898">Loads</text><text fill="#666666" font-family="sans-serif" font-size="12" lengthAdjust="spacing" textLength="4" x="289.5" y="108.0898">&#160;</text><text fill="#666666" font-family="sans-serif" font-size="12" lengthAdjust="spacing" textLength="40" x="293.5" y="108.0898">Clinical</text><text fill="#666666" font-family="sans-serif" font-size="12" lengthAdjust="spacing" textLength="4" x="333.5" y="108.0898">&#160;</text><text fill="#666666" font-family="sans-serif" font-size="12" lengthAdjust="spacing" textLength="42" x="337.5" y="108.0898">Module</text><polygon fill="#666666" points="236.5,149.7539,246.5,153.7539,236.5,157.7539,240.5,153.7539" style="stroke:#666666;stroke-width:1.0;"/><line style="stroke:#666666;stroke-width:1.0;" x1="75.5" x2="242.5" y1="153.7539" y2="153.7539"/><text fill="#666666" font-family="sans-serif" font-size="12" lengthAdjust="spacing" textLength="33" x="92" y="149.2227">Clicks</text><text fill="#666666" font-family="sans-serif" font-size="12" lengthAdjust="spacing" textLength="4" x="125" y="149.2227">&#160;</text><text fill="#666666" font-family="sans-serif" font-size="12" lengthAdjust="spacing" textLength="14" x="129" y="149.2227">on</text><text fill="#666666" font-family="sans-serif" font-size="12" lengthAdjust="spacing" textLength="4" x="143" y="149.2227">&#160;</text><text fill="#666666" font-family="sans-serif" font-size="12" lengthAdjust="spacing" textLength="44" x="147" y="149.2227">Settings</text><text fill="#666666" font-family="sans-serif" font-size="12" lengthAdjust="spacing" textLength="4" x="191" y="149.2227">&#160;</text><text fill="#666666" font-family="sans-serif" font-size="12" lengthAdjust="spacing" textLength="37" x="195" y="149.2227">button</text><polygon fill="#666666" points="86.5,177.8867,76.5,181.8867,86.5,185.8867,82.5,181.8867" style="stroke:#666666;stroke-width:1.0;"/><line style="stroke:#666666;stroke-width:1.0;" x1="80.5" x2="247.5" y1="181.8867" y2="181.8867"/><text fill="#666666" font-family="sans-serif" font-size="12" lengthAdjust="spacing" textLength="35" x="96.5" y="177.3555">Shows</text><text fill="#666666" font-family="sans-serif" font-size="12" lengthAdjust="spacing" textLength="4" x="131.5" y="177.3555">&#160;</text><text fill="#666666" font-family="sans-serif" font-size="12" lengthAdjust="spacing" textLength="44" x="135.5" y="177.3555">Settings</text><text fill="#666666" font-family="sans-serif" font-size="12" lengthAdjust="spacing" textLength="4" x="179.5" y="177.3555">&#160;</text><text fill="#666666" font-family="sans-serif" font-size="12" lengthAdjust="spacing" textLength="44" x="183.5" y="177.3555">Sidebar</text><polygon fill="#666666" points="236.5,220.1523,246.5,224.1523,236.5,228.1523,240.5,224.1523" style="stroke:#666666;stroke-width:1.0;"/><line style="stroke:#666666;stroke-width:1.0;" x1="75.5" x2="242.5" y1="224.1523" y2="224.1523"/><text fill="#666666" font-family="sans-serif" font-size="12" lengthAdjust="spacing" textLength="33" x="92.5" y="205.4883">Clicks</text><text fill="#666666" font-family="sans-serif" font-size="12" lengthAdjust="spacing" textLength="4" x="125.5" y="205.4883">&#160;</text><text fill="#666666" font-family="sans-serif" font-size="12" lengthAdjust="spacing" textLength="43" x="129.5" y="205.4883">Change</text><text fill="#666666" font-family="sans-serif" font-size="12" lengthAdjust="spacing" textLength="4" x="172.5" y="205.4883">&#160;</text><text fill="#666666" font-family="sans-serif" font-size="12" lengthAdjust="spacing" textLength="55" x="176.5" y="205.4883">Password</text><text fill="#666666" font-family="sans-serif" font-size="12" lengthAdjust="spacing" textLength="36" x="144" y="219.6211">Button</text><polygon fill="#666666" points="86.5,262.418,76.5,266.418,86.5,270.418,82.5,266.418" style="stroke:#666666;stroke-width:1.0;"/><line style="stroke:#666666;stroke-width:1.0;" x1="80.5" x2="247.5" y1="266.418" y2="266.418"/><text fill="#666666" font-family="sans-serif" font-size="12" lengthAdjust="spacing" textLength="48" x="88" y="247.7539">Prompts</text><text fill="#666666" font-family="sans-serif" font-size="12" lengthAdjust="spacing" textLength="4" x="136" y="247.7539">&#160;</text><text fill="#666666" font-family="sans-serif" font-size="12" lengthAdjust="spacing" textLength="25" x="140" y="247.7539">user</text><text fill="#666666" font-family="sans-serif" font-size="12" lengthAdjust="spacing" textLength="4" x="165" y="247.7539">&#160;</text><text fill="#666666" font-family="sans-serif" font-size="12" lengthAdjust="spacing" textLength="11" x="169" y="247.7539">to</text><text fill="#666666" font-family="sans-serif" font-size="12" lengthAdjust="spacing" textLength="4" x="180" y="247.7539">&#160;</text><text fill="#666666" font-family="sans-serif" font-size="12" lengthAdjust="spacing" textLength="30" x="184" y="247.7539">enter</text><text fill="#666666" font-family="sans-serif" font-size="12" lengthAdjust="spacing" textLength="4" x="214" y="247.7539">&#160;</text><text fill="#666666" font-family="sans-serif" font-size="12" lengthAdjust="spacing" textLength="18" x="218" y="247.7539">old</text><text fill="#666666" font-family="sans-serif" font-size="12" lengthAdjust="spacing" textLength="56" x="134" y="261.8867">password</text><polygon fill="#666666" points="236.5,304.6836,246.5,308.6836,236.5,312.6836,240.5,308.6836" style="stroke:#666666;stroke-width:1.0;"/><line style="stroke:#666666;stroke-width:1.0;" x1="75.5" x2="242.5" y1="308.6836" y2="308.6836"/><text fill="#666666" font-family="sans-serif" font-size="12" lengthAdjust="spacing" textLength="36" x="101" y="290.0195">Enters</text><text fill="#666666" font-family="sans-serif" font-size="12" lengthAdjust="spacing" textLength="4" x="137" y="290.0195">&#160;</text><text fill="#666666" font-family="sans-serif" font-size="12" lengthAdjust="spacing" textLength="56" x="141" y="290.0195">password</text><text fill="#666666" font-family="sans-serif" font-size="12" lengthAdjust="spacing" textLength="4" x="197" y="290.0195">&#160;</text><text fill="#666666" font-family="sans-serif" font-size="12" lengthAdjust="spacing" textLength="22" x="201" y="290.0195">and</text><text fill="#666666" font-family="sans-serif" font-size="12" lengthAdjust="spacing" textLength="49" x="137.5" y="304.1523">confirms</text><polygon fill="#666666" points="408.5,346.9492,418.5,350.9492,408.5,354.9492,412.5,350.9492" style="stroke:#666666;stroke-width:1.0;"/><line style="stroke:#666666;stroke-width:1.0;" x1="248.5" x2="414.5" y1="350.9492" y2="350.9492"/><text fill="#666666" font-family="sans-serif" font-size="12" lengthAdjust="spacing" textLength="53" x="278" y="332.2852">Requests</text><text fill="#666666" font-family="sans-serif" font-size="12" lengthAdjust="spacing" textLength="4" x="331" y="332.2852">&#160;</text><text fill="#666666" font-family="sans-serif" font-size="12" lengthAdjust="spacing" textLength="56" x="335" y="332.2852">password</text><text fill="#666666" font-family="sans-serif" font-size="12" lengthAdjust="spacing" textLength="55" x="307" y="346.418">validation</text><polygon fill="#666666" points="259.5,375.082,249.5,379.082,259.5,383.082,255.5,379.082" style="stroke:#666666;stroke-width:1.0;"/><line style="stroke:#666666;stroke-width:1.0;" x1="253.5" x2="419.5" y1="379.082" y2="379.082"/><text fill="#666666" font-family="sans-serif" font-size="12" lengthAdjust="spacing" textLength="44" x="260.5" y="374.5508">Returns</text><text fill="#666666" font-family="sans-serif" font-size="12" lengthAdjust="spacing" textLength="4" x="304.5" y="374.5508">&#160;</text><text fill="#666666" font-family="sans-serif" font-size="12" lengthAdjust="spacing" textLength="56" x="308.5" y="374.5508">password</text><text fill="#666666" font-family="sans-serif" font-size="12" lengthAdjust="spacing" textLength="4" x="364.5" y="374.5508">&#160;</text><text fill="#666666" font-family="sans-serif" font-size="12" lengthAdjust="spacing" textLength="9" x="368.5" y="374.5508">is</text><text fill="#666666" font-family="sans-serif" font-size="12" lengthAdjust="spacing" textLength="4" x="377.5" y="374.5508">&#160;</text><text fill="#666666" font-family="sans-serif" font-size="12" lengthAdjust="spacing" textLength="27" x="381.5" y="374.5508">valid</text><polygon fill="#666666" points="86.5,417.3477,76.5,421.3477,86.5,425.3477,82.5,421.3477" style="stroke:#666666;stroke-width:1.0;"/><line style="stroke:#666666;stroke-width:1.0;" x1="80.5" x2="247.5" y1="421.3477" y2="421.3477"/><text fill="#666666" font-family="sans-serif" font-size="12" lengthAdjust="spacing" textLength="35" x="91.5" y="402.6836">Shows</text><text fill="#666666" font-family="sans-serif" font-size="12" lengthAdjust="spacing" textLength="4" x="126.5" y="402.6836">&#160;</text><text fill="#666666" font-family="sans-serif" font-size="12" lengthAdjust="spacing" textLength="43" x="130.5" y="402.6836">Change</text><text fill="#666666" font-family="sans-serif" font-size="12" lengthAdjust="spacing" textLength="4" x="173.5" y="402.6836">&#160;</text><text fill="#666666" font-family="sans-serif" font-size="12" lengthAdjust="spacing" textLength="55" x="177.5" y="402.6836">Password</text><text fill="#666666" font-family="sans-serif" font-size="12" lengthAdjust="spacing" textLength="35" x="144.5" y="416.8164">Modal</text><polygon fill="#666666" points="236.5,483.9238,246.5,487.9238,236.5,491.9238,240.5,487.9238" style="stroke:#666666;stroke-width:1.0;"/><line style="stroke:#666666;stroke-width:1.0;" x1="75.5" x2="242.5" y1="487.9238" y2="487.9238"/><text fill="#666666" font-family="sans-serif" font-size="12" lengthAdjust="spacing" textLength="36" x="87.5" y="469.2598">Enters</text><text fill="#666666" font-family="sans-serif" font-size="12" lengthAdjust="spacing" textLength="4" x="123.5" y="469.2598">&#160;</text><text fill="#666666" font-family="sans-serif" font-size="12" lengthAdjust="spacing" textLength="23" x="127.5" y="469.2598">new</text><text fill="#666666" font-family="sans-serif" font-size="12" lengthAdjust="spacing" textLength="4" x="150.5" y="469.2598">&#160;</text><text fill="#666666" font-family="sans-serif" font-size="12" lengthAdjust="spacing" textLength="56" x="154.5" y="469.2598">password</text><text fill="#666666" font-family="sans-serif" font-size="12" lengthAdjust="spacing" textLength="4" x="210.5" y="469.2598">&#160;</text><text fill="#666666" font-family="sans-serif" font-size="12" lengthAdjust="spacing" textLength="22" x="214.5" y="469.2598">and</text><text fill="#666666" font-family="sans-serif" font-size="12" lengthAdjust="spacing" textLength="44" x="134.5" y="483.3926">repeats</text><text fill="#666666" font-family="sans-serif" font-size="12" lengthAdjust="spacing" textLength="4" x="178.5" y="483.3926">&#160;</text><text fill="#666666" font-family="sans-serif" font-size="12" lengthAdjust="spacing" textLength="7" x="182.5" y="483.3926">it</text><path d="M20,502.9238 L82,502.9238 L82,510.2344 L72,520.2344 L20,520.2344 L20,502.9238 " fill="#EEEEEE" style="stroke:#000000;stroke-width:1.5;"/><rect fill="none" height="45.4434" style="stroke:#000000;stroke-width:1.5;" width="325" x="20" y="502.9238"/><text fill="#000000" font-family="sans-serif" font-size="13" font-weight="bold" lengthAdjust="spacing" textLength="17" x="35" y="516.4922">alt</text><text fill="#000000" font-family="sans-serif" font-size="11" font-weight="bold" lengthAdjust="spacing" textLength="189" x="97" y="515.5586">[password information is invalid]</text><polygon fill="#666666" points="86.5,536.3672,76.5,540.3672,86.5,544.3672,82.5,540.3672" style="stroke:#666666;stroke-width:1.0;"/><line style="stroke:#666666;stroke-width:1.0;" x1="80.5" x2="247.5" y1="540.3672" y2="540.3672"/><text fill="#666666" font-family="sans-serif" font-size="12" lengthAdjust="spacing" textLength="35" x="100.5" y="535.8359">Shows</text><text fill="#666666" font-family="sans-serif" font-size="12" lengthAdjust="spacing" textLength="4" x="135.5" y="535.8359">&#160;</text><text fill="#666666" font-family="sans-serif" font-size="12" lengthAdjust="spacing" textLength="29" x="139.5" y="535.8359">error</text><text fill="#666666" font-family="sans-serif" font-size="12" lengthAdjust="spacing" textLength="4" x="168.5" y="535.8359">&#160;</text><text fill="#666666" font-family="sans-serif" font-size="12" lengthAdjust="spacing" textLength="51" x="172.5" y="535.8359">message</text><polygon fill="#666666" points="408.5,585.6328,418.5,589.6328,408.5,593.6328,412.5,589.6328" style="stroke:#666666;stroke-width:1.0;"/><line style="stroke:#666666;stroke-width:1.0;" x1="248.5" x2="414.5" y1="589.6328" y2="589.6328"/><text fill="#666666" font-family="sans-serif" font-size="12" lengthAdjust="spacing" textLength="53" x="278" y="570.9688">Requests</text><text fill="#666666" font-family="sans-serif" font-size="12" lengthAdjust="spacing" textLength="4" x="331" y="570.9688">&#160;</text><text fill="#666666" font-family="sans-serif" font-size="12" lengthAdjust="spacing" textLength="56" x="335" y="570.9688">password</text><text fill="#666666" font-family="sans-serif" font-size="12" lengthAdjust="spacing" textLength="41" x="314" y="585.1016">change</text><polygon fill="#666666" points="86.5,627.8984,76.5,631.8984,86.5,635.8984,82.5,631.8984" style="stroke:#666666;stroke-width:1.0;"/><line style="stroke:#666666;stroke-width:1.0;" x1="80.5" x2="419.5" y1="631.8984" y2="631.8984"/><text fill="#666666" font-family="sans-serif" font-size="12" lengthAdjust="spacing" textLength="44" x="173.5" y="613.2344">Returns</text><text fill="#666666" font-family="sans-serif" font-size="12" lengthAdjust="spacing" textLength="4" x="217.5" y="613.2344">&#160;</text><text fill="#666666" font-family="sans-serif" font-size="12" lengthAdjust="spacing" textLength="56" x="221.5" y="613.2344">password</text><text fill="#666666" font-family="sans-serif" font-size="12" lengthAdjust="spacing" textLength="4" x="277.5" y="613.2344">&#160;</text><text fill="#666666" font-family="sans-serif" font-size="12" lengthAdjust="spacing" textLength="41" x="281.5" y="613.2344">change</text><text fill="#666666" font-family="sans-serif" font-size="12" lengthAdjust="spacing" textLength="44" x="226" y="627.3672">success</text><polygon fill="#666666" points="86.5,670.1641,76.5,674.1641,86.5,678.1641,82.5,674.1641" style="stroke:#666666;stroke-width:1.0;"/><line style="stroke:#666666;stroke-width:1.0;" x1="80.5" x2="247.5" y1="674.1641" y2="674.1641"/><text fill="#666666" font-family="sans-serif" font-size="12" lengthAdjust="spacing" textLength="35" x="88" y="655.5">Shows</text><text fill="#666666" font-family="sans-serif" font-size="12" lengthAdjust="spacing" textLength="4" x="123" y="655.5">&#160;</text><text fill="#666666" font-family="sans-serif" font-size="12" lengthAdjust="spacing" textLength="56" x="127" y="655.5">password</text><text fill="#666666" font-family="sans-serif" font-size="12" lengthAdjust="spacing" textLength="4" x="183" y="655.5">&#160;</text><text fill="#666666" font-family="sans-serif" font-size="12" lengthAdjust="spacing" textLength="49" x="187" y="655.5">changed</text><text fill="#666666" font-family="sans-serif" font-size="12" lengthAdjust="spacing" textLength="36" x="144" y="669.6328">modal</text><polygon fill="#666666" points="236.5,712.4297,246.5,716.4297,236.5,720.4297,240.5,716.4297" style="stroke:#666666;stroke-width:1.0;"/><line style="stroke:#666666;stroke-width:1.0;" x1="75.5" x2="242.5" y1="716.4297" y2="716.4297"/><text fill="#666666" font-family="sans-serif" font-size="12" lengthAdjust="spacing" textLength="82" x="87.5" y="697.7656">Acknowledges</text><text fill="#666666" font-family="sans-serif" font-size="12" lengthAdjust="spacing" textLength="4" x="169.5" y="697.7656">&#160;</text><text fill="#666666" font-family="sans-serif" font-size="12" lengthAdjust="spacing" textLength="18" x="173.5" y="697.7656">the</text><text fill="#666666" font-family="sans-serif" font-size="12" lengthAdjust="spacing" textLength="4" x="191.5" y="697.7656">&#160;</text><text fill="#666666" font-family="sans-serif" font-size="12" lengthAdjust="spacing" textLength="41" x="195.5" y="697.7656">change</text><text fill="#666666" font-family="sans-serif" font-size="12" lengthAdjust="spacing" textLength="14" x="117.5" y="711.8984">by</text><text fill="#666666" font-family="sans-serif" font-size="12" lengthAdjust="spacing" textLength="4" x="131.5" y="711.8984">&#160;</text><text fill="#666666" font-family="sans-serif" font-size="12" lengthAdjust="spacing" textLength="42" x="135.5" y="711.8984">clicking</text><text fill="#666666" font-family="sans-serif" font-size="12" lengthAdjust="spacing" textLength="4" x="177.5" y="711.8984">&#160;</text><text fill="#666666" font-family="sans-serif" font-size="12" lengthAdjust="spacing" textLength="25" x="181.5" y="711.8984">"OK"</text><!--SRC=[XPD1ZzGm38Nl-HMcTyHbJokq4bI80wnOxGXnH6xYdKQRsYLngVRVuxGpipD34Jr5okTdlnVtJMIVfa3mlhrvrzxyR6KOXOdrpZdqAXdMhsbJvEWnmVT2kG700fETt8XPeuyZiXfaXTcOU-5ejP7ti8jAJQNzK2xX7zJ1PrIQyMK1PkgSCmhUtbKORk6hO2XmwdmlOKhaQjjNncxzSm5Xs96gTIpGJQh2Hwa5luLTBtDvPNOnK8TvMwpjaVS43rZAB3d0not1XsnHwPe2g81PjuEa0EEXxahyKmNAwHQG0tZXfvWjcOEsPM3a8_sQgEWP-njJ3AZHfgZ8IVEHTCfy1iQoiflkhtrPe9XS4XbXxcCYO9hFfFX9yh0qXTxUXqMX8-BZqFGFWnSYrMIcaT3SH7MOTBk1pHrvdRokszRqbBEjuq2bu9uSSVXVQ7wnUmpieFLNOYi5PVBUf3Tpks8334jmb-u_-6UMEL7OKm7jwIZSlO2lQrL_XkRRbyRz0G00]--></g></svg>