<?xml version="1.0" encoding="us-ascii" standalone="no"?><svg xmlns="http://www.w3.org/2000/svg" xmlns:xlink="http://www.w3.org/1999/xlink" contentStyleType="text/css" height="813px" preserveAspectRatio="none" style="width:484px;height:813px;background:#FFFFFF;" version="1.1" viewBox="0 0 484 813" width="484px" zoomAndPan="magnify"><defs/><g><rect fill="none" height="515.6992" style="stroke:#000000;stroke-width:1.5;" width="467.5" x="10" y="198.0195"/><rect fill="none" height="202.9727" style="stroke:#000000;stroke-width:1.5;" width="319" x="20" y="418.3926"/><line style="stroke:#181818;stroke-width:0.5;stroke-dasharray:5.0,5.0;" x1="75" x2="75" y1="82.4883" y2="730.7188"/><line style="stroke:#181818;stroke-width:0.5;stroke-dasharray:5.0,5.0;" x1="242" x2="242" y1="82.4883" y2="730.7188"/><line style="stroke:#181818;stroke-width:0.5;stroke-dasharray:5.0,5.0;" x1="415.5" x2="415.5" y1="82.4883" y2="730.7188"/><text fill="#000000" font-family="sans-serif" font-size="14" lengthAdjust="spacing" textLength="85" x="30" y="79.5352">Clinical User</text><ellipse cx="75.5" cy="21.5" fill="#E2E2F0" rx="16" ry="16" style="stroke:#181818;stroke-width:0.5;"/><path d="M75.5,41.5 C79.5,41.5 82.5,41.5 86.5,37.5 C94.5,37.5 102.5,45.5 102.5,53.5 L102.5,57.5 C102.5,61.5 98.5,65.5 94.5,65.5 L56.5,65.5 C52.5,65.5 48.5,61.5 48.5,57.5 L48.5,53.5 C48.5,45.5 56.5,37.5 64.5,37.5 C68.5,41.5 71.5,41.5 75.5,41.5 " fill="#E2E2F0" style="stroke:#181818;stroke-width:0.5;"/><text fill="#000000" font-family="sans-serif" font-size="14" lengthAdjust="spacing" textLength="85" x="30" y="743.2539">Clinical User</text><ellipse cx="75.5" cy="762.707" fill="#E2E2F0" rx="16" ry="16" style="stroke:#181818;stroke-width:0.5;"/><path d="M75.5,782.707 C79.5,782.707 82.5,782.707 86.5,778.707 C94.5,778.707 102.5,786.707 102.5,794.707 L102.5,798.707 C102.5,802.707 98.5,806.707 94.5,806.707 L56.5,806.707 C52.5,806.707 48.5,802.707 48.5,798.707 L48.5,794.707 C48.5,786.707 56.5,778.707 64.5,778.707 C68.5,782.707 71.5,782.707 75.5,782.707 " fill="#E2E2F0" style="stroke:#181818;stroke-width:0.5;"/><rect fill="#E2E2F0" height="30.4883" rx="2.5" ry="2.5" style="stroke:#181818;stroke-width:0.5;" width="173" x="156" y="51"/><text fill="#000000" font-family="sans-serif" font-size="14" lengthAdjust="spacing" textLength="159" x="163" y="71.5352">Central Monitoring Site</text><rect fill="#E2E2F0" height="30.4883" rx="2.5" ry="2.5" style="stroke:#181818;stroke-width:0.5;" width="173" x="156" y="729.7188"/><text fill="#000000" font-family="sans-serif" font-size="14" lengthAdjust="spacing" textLength="159" x="163" y="750.2539">Central Monitoring Site</text><rect fill="#E2E2F0" height="30.4883" rx="2.5" ry="2.5" style="stroke:#181818;stroke-width:0.5;" width="104" x="363.5" y="51"/><text fill="#000000" font-family="sans-serif" font-size="14" lengthAdjust="spacing" textLength="90" x="370.5" y="71.5352">Web Gateway</text><rect fill="#E2E2F0" height="30.4883" rx="2.5" ry="2.5" style="stroke:#181818;stroke-width:0.5;" width="104" x="363.5" y="729.7188"/><text fill="#000000" font-family="sans-serif" font-size="14" lengthAdjust="spacing" textLength="90" x="370.5" y="750.2539">Web Gateway</text><polygon fill="#666666" points="86.5,108.6211,76.5,112.6211,86.5,116.6211,82.5,112.6211" style="stroke:#666666;stroke-width:1.0;"/><line style="stroke:#666666;stroke-width:1.0;" x1="80.5" x2="241.5" y1="112.6211" y2="112.6211"/><text fill="#666666" font-family="sans-serif" font-size="12" lengthAdjust="spacing" textLength="35" x="88.5" y="108.0898">Shows</text><text fill="#666666" font-family="sans-serif" font-size="12" lengthAdjust="spacing" textLength="4" x="123.5" y="108.0898">&#160;</text><text fill="#666666" font-family="sans-serif" font-size="12" lengthAdjust="spacing" textLength="38" x="127.5" y="108.0898">clinical</text><text fill="#666666" font-family="sans-serif" font-size="12" lengthAdjust="spacing" textLength="4" x="165.5" y="108.0898">&#160;</text><text fill="#666666" font-family="sans-serif" font-size="12" lengthAdjust="spacing" textLength="27" x="169.5" y="108.0898">login</text><text fill="#666666" font-family="sans-serif" font-size="12" lengthAdjust="spacing" textLength="4" x="196.5" y="108.0898">&#160;</text><text fill="#666666" font-family="sans-serif" font-size="12" lengthAdjust="spacing" textLength="29" x="200.5" y="108.0898">page</text><polygon fill="#666666" points="230.5,150.8867,240.5,154.8867,230.5,158.8867,234.5,154.8867" style="stroke:#666666;stroke-width:1.0;"/><line style="stroke:#666666;stroke-width:1.0;" x1="75.5" x2="236.5" y1="154.8867" y2="154.8867"/><text fill="#666666" font-family="sans-serif" font-size="12" lengthAdjust="spacing" textLength="49" x="91.5" y="136.2227">Provides</text><text fill="#666666" font-family="sans-serif" font-size="12" lengthAdjust="spacing" textLength="4" x="140.5" y="136.2227">&#160;</text><text fill="#666666" font-family="sans-serif" font-size="12" lengthAdjust="spacing" textLength="56" x="144.5" y="136.2227">password</text><text fill="#666666" font-family="sans-serif" font-size="12" lengthAdjust="spacing" textLength="4" x="200.5" y="136.2227">&#160;</text><text fill="#666666" font-family="sans-serif" font-size="12" lengthAdjust="spacing" textLength="22" x="204.5" y="136.2227">and</text><text fill="#666666" font-family="sans-serif" font-size="12" lengthAdjust="spacing" textLength="45" x="136.5" y="150.3555">submits</text><polygon fill="#666666" points="403.5,179.0195,413.5,183.0195,403.5,187.0195,407.5,183.0195" style="stroke:#666666;stroke-width:1.0;"/><line style="stroke:#666666;stroke-width:1.0;" x1="242.5" x2="409.5" y1="183.0195" y2="183.0195"/><text fill="#666666" font-family="sans-serif" font-size="12" lengthAdjust="spacing" textLength="53" x="254.5" y="178.4883">Validates</text><text fill="#666666" font-family="sans-serif" font-size="12" lengthAdjust="spacing" textLength="4" x="307.5" y="178.4883">&#160;</text><text fill="#666666" font-family="sans-serif" font-size="12" lengthAdjust="spacing" textLength="25" x="311.5" y="178.4883">user</text><text fill="#666666" font-family="sans-serif" font-size="12" lengthAdjust="spacing" textLength="4" x="336.5" y="178.4883">&#160;</text><text fill="#666666" font-family="sans-serif" font-size="12" lengthAdjust="spacing" textLength="63" x="340.5" y="178.4883">credentials</text><path d="M10,198.0195 L72,198.0195 L72,205.3301 L62,215.3301 L10,215.3301 L10,198.0195 " fill="#EEEEEE" style="stroke:#000000;stroke-width:1.5;"/><rect fill="none" height="515.6992" style="stroke:#000000;stroke-width:1.5;" width="467.5" x="10" y="198.0195"/><text fill="#000000" font-family="sans-serif" font-size="13" font-weight="bold" lengthAdjust="spacing" textLength="17" x="25" y="211.5879">alt</text><text fill="#000000" font-family="sans-serif" font-size="11" font-weight="bold" lengthAdjust="spacing" textLength="93" x="87" y="210.6543">[sucessfull case]</text><polygon fill="#666666" points="253.5,231.4629,243.5,235.4629,253.5,239.4629,249.5,235.4629" style="stroke:#666666;stroke-width:1.0;"/><line style="stroke:#666666;stroke-width:1.0;" x1="247.5" x2="414.5" y1="235.4629" y2="235.4629"/><text fill="#666666" font-family="sans-serif" font-size="12" lengthAdjust="spacing" textLength="44" x="273.5" y="230.9316">Returns</text><text fill="#666666" font-family="sans-serif" font-size="12" lengthAdjust="spacing" textLength="4" x="317.5" y="230.9316">&#160;</text><text fill="#666666" font-family="sans-serif" font-size="12" lengthAdjust="spacing" textLength="27" x="321.5" y="230.9316">valid</text><text fill="#666666" font-family="sans-serif" font-size="12" lengthAdjust="spacing" textLength="4" x="348.5" y="230.9316">&#160;</text><text fill="#666666" font-family="sans-serif" font-size="12" lengthAdjust="spacing" textLength="32" x="352.5" y="230.9316">token</text><line style="stroke:#666666;stroke-width:1.0;" x1="242.5" x2="284.5" y1="263.5957" y2="263.5957"/><line style="stroke:#666666;stroke-width:1.0;" x1="284.5" x2="284.5" y1="263.5957" y2="276.5957"/><line style="stroke:#666666;stroke-width:1.0;" x1="243.5" x2="284.5" y1="276.5957" y2="276.5957"/><polygon fill="#666666" points="253.5,272.5957,243.5,276.5957,253.5,280.5957,249.5,276.5957" style="stroke:#666666;stroke-width:1.0;"/><text fill="#666666" font-family="sans-serif" font-size="12" lengthAdjust="spacing" textLength="35" x="249.5" y="259.0645">Stores</text><text fill="#666666" font-family="sans-serif" font-size="12" lengthAdjust="spacing" textLength="4" x="284.5" y="259.0645">&#160;</text><text fill="#666666" font-family="sans-serif" font-size="12" lengthAdjust="spacing" textLength="27" x="288.5" y="259.0645">valid</text><text fill="#666666" font-family="sans-serif" font-size="12" lengthAdjust="spacing" textLength="4" x="315.5" y="259.0645">&#160;</text><text fill="#666666" font-family="sans-serif" font-size="12" lengthAdjust="spacing" textLength="32" x="319.5" y="259.0645">token</text><polygon fill="#666666" points="86.5,314.8613,76.5,318.8613,86.5,322.8613,82.5,318.8613" style="stroke:#666666;stroke-width:1.0;"/><line style="stroke:#666666;stroke-width:1.0;" x1="80.5" x2="241.5" y1="318.8613" y2="318.8613"/><text fill="#666666" font-family="sans-serif" font-size="12" lengthAdjust="spacing" textLength="54" x="124.5" y="300.1973">Redirects</text><text fill="#666666" font-family="sans-serif" font-size="12" lengthAdjust="spacing" textLength="4" x="178.5" y="300.1973">&#160;</text><text fill="#666666" font-family="sans-serif" font-size="12" lengthAdjust="spacing" textLength="11" x="182.5" y="300.1973">to</text><text fill="#666666" font-family="sans-serif" font-size="12" lengthAdjust="spacing" textLength="78" x="96.5" y="314.3301">authenticated</text><text fill="#666666" font-family="sans-serif" font-size="12" lengthAdjust="spacing" textLength="4" x="174.5" y="314.3301">&#160;</text><text fill="#666666" font-family="sans-serif" font-size="12" lengthAdjust="spacing" textLength="43" x="178.5" y="314.3301">module</text><polygon fill="#666666" points="403.5,357.127,413.5,361.127,403.5,365.127,407.5,361.127" style="stroke:#666666;stroke-width:1.0;"/><line style="stroke:#666666;stroke-width:1.0;" x1="242.5" x2="409.5" y1="361.127" y2="361.127"/><text fill="#666666" font-family="sans-serif" font-size="12" lengthAdjust="spacing" textLength="53" x="259" y="342.4629">Requests</text><text fill="#666666" font-family="sans-serif" font-size="12" lengthAdjust="spacing" textLength="4" x="312" y="342.4629">&#160;</text><text fill="#666666" font-family="sans-serif" font-size="12" lengthAdjust="spacing" textLength="33" x="316" y="342.4629">beds,</text><text fill="#666666" font-family="sans-serif" font-size="12" lengthAdjust="spacing" textLength="4" x="349" y="342.4629">&#160;</text><text fill="#666666" font-family="sans-serif" font-size="12" lengthAdjust="spacing" textLength="46" x="353" y="342.4629">patients</text><text fill="#666666" font-family="sans-serif" font-size="12" lengthAdjust="spacing" textLength="22" x="281" y="356.5957">and</text><text fill="#666666" font-family="sans-serif" font-size="12" lengthAdjust="spacing" textLength="4" x="303" y="356.5957">&#160;</text><text fill="#666666" font-family="sans-serif" font-size="12" lengthAdjust="spacing" textLength="40" x="307" y="356.5957">groups</text><text fill="#666666" font-family="sans-serif" font-size="12" lengthAdjust="spacing" textLength="4" x="347" y="356.5957">&#160;</text><text fill="#666666" font-family="sans-serif" font-size="12" lengthAdjust="spacing" textLength="26" x="351" y="356.5957">data</text><polygon fill="#666666" points="253.5,399.3926,243.5,403.3926,253.5,407.3926,249.5,403.3926" style="stroke:#666666;stroke-width:1.0;"/><line style="stroke:#666666;stroke-width:1.0;" x1="247.5" x2="414.5" y1="403.3926" y2="403.3926"/><text fill="#666666" font-family="sans-serif" font-size="12" lengthAdjust="spacing" textLength="49" x="261" y="384.7285">Provides</text><text fill="#666666" font-family="sans-serif" font-size="12" lengthAdjust="spacing" textLength="4" x="310" y="384.7285">&#160;</text><text fill="#666666" font-family="sans-serif" font-size="12" lengthAdjust="spacing" textLength="33" x="314" y="384.7285">beds,</text><text fill="#666666" font-family="sans-serif" font-size="12" lengthAdjust="spacing" textLength="4" x="347" y="384.7285">&#160;</text><text fill="#666666" font-family="sans-serif" font-size="12" lengthAdjust="spacing" textLength="46" x="351" y="384.7285">patients</text><text fill="#666666" font-family="sans-serif" font-size="12" lengthAdjust="spacing" textLength="22" x="281" y="398.8613">and</text><text fill="#666666" font-family="sans-serif" font-size="12" lengthAdjust="spacing" textLength="4" x="303" y="398.8613">&#160;</text><text fill="#666666" font-family="sans-serif" font-size="12" lengthAdjust="spacing" textLength="40" x="307" y="398.8613">groups</text><text fill="#666666" font-family="sans-serif" font-size="12" lengthAdjust="spacing" textLength="4" x="347" y="398.8613">&#160;</text><text fill="#666666" font-family="sans-serif" font-size="12" lengthAdjust="spacing" textLength="26" x="351" y="398.8613">data</text><path d="M20,418.3926 L82,418.3926 L82,425.7031 L72,435.7031 L20,435.7031 L20,418.3926 " fill="#EEEEEE" style="stroke:#000000;stroke-width:1.5;"/><rect fill="none" height="202.9727" style="stroke:#000000;stroke-width:1.5;" width="319" x="20" y="418.3926"/><text fill="#000000" font-family="sans-serif" font-size="13" font-weight="bold" lengthAdjust="spacing" textLength="17" x="35" y="431.9609">alt</text><text fill="#000000" font-family="sans-serif" font-size="11" font-weight="bold" lengthAdjust="spacing" textLength="106" x="97" y="431.0273">[no beds in systen]</text><polygon fill="#666666" points="86.5,465.9688,76.5,469.9688,86.5,473.9688,82.5,469.9688" style="stroke:#666666;stroke-width:1.0;"/><line style="stroke:#666666;stroke-width:1.0;" x1="80.5" x2="241.5" y1="469.9688" y2="469.9688"/><text fill="#666666" font-family="sans-serif" font-size="12" lengthAdjust="spacing" textLength="35" x="103" y="451.3047">Shows</text><text fill="#666666" font-family="sans-serif" font-size="12" lengthAdjust="spacing" textLength="4" x="138" y="451.3047">&#160;</text><text fill="#666666" font-family="sans-serif" font-size="12" lengthAdjust="spacing" textLength="23" x="142" y="451.3047">bed</text><text fill="#666666" font-family="sans-serif" font-size="12" lengthAdjust="spacing" textLength="4" x="165" y="451.3047">&#160;</text><text fill="#666666" font-family="sans-serif" font-size="12" lengthAdjust="spacing" textLength="46" x="169" y="451.3047">creation</text><text fill="#666666" font-family="sans-serif" font-size="12" lengthAdjust="spacing" textLength="36" x="141" y="465.4375">modal</text><line style="stroke:#000000;stroke-width:1.0;stroke-dasharray:2.0,2.0;" x1="20" x2="339" y1="478.9688" y2="478.9688"/><text fill="#000000" font-family="sans-serif" font-size="11" font-weight="bold" lengthAdjust="spacing" textLength="201" x="25" y="489.6035">[no bed/pm associations in system]</text><polygon fill="#666666" points="86.5,523.1895,76.5,527.1895,86.5,531.1895,82.5,527.1895" style="stroke:#666666;stroke-width:1.0;"/><line style="stroke:#666666;stroke-width:1.0;" x1="80.5" x2="241.5" y1="527.1895" y2="527.1895"/><text fill="#666666" font-family="sans-serif" font-size="12" lengthAdjust="spacing" textLength="35" x="115.5" y="508.5254">Shows</text><text fill="#666666" font-family="sans-serif" font-size="12" lengthAdjust="spacing" textLength="4" x="150.5" y="508.5254">&#160;</text><text fill="#666666" font-family="sans-serif" font-size="12" lengthAdjust="spacing" textLength="48" x="154.5" y="508.5254">bed/pm</text><text fill="#666666" font-family="sans-serif" font-size="12" lengthAdjust="spacing" textLength="63" x="107.5" y="522.6582">association</text><text fill="#666666" font-family="sans-serif" font-size="12" lengthAdjust="spacing" textLength="4" x="170.5" y="522.6582">&#160;</text><text fill="#666666" font-family="sans-serif" font-size="12" lengthAdjust="spacing" textLength="36" x="174.5" y="522.6582">modal</text><line style="stroke:#000000;stroke-width:1.0;stroke-dasharray:2.0,2.0;" x1="20" x2="339" y1="536.1895" y2="536.1895"/><text fill="#000000" font-family="sans-serif" font-size="11" font-weight="bold" lengthAdjust="spacing" textLength="123" x="25" y="546.8242">[no groups in system]</text><polygon fill="#666666" points="86.5,566.2773,76.5,570.2773,86.5,574.2773,82.5,570.2773" style="stroke:#666666;stroke-width:1.0;"/><line style="stroke:#666666;stroke-width:1.0;" x1="80.5" x2="241.5" y1="570.2773" y2="570.2773"/><text fill="#666666" font-family="sans-serif" font-size="12" lengthAdjust="spacing" textLength="35" x="102.5" y="565.7461">Shows</text><text fill="#666666" font-family="sans-serif" font-size="12" lengthAdjust="spacing" textLength="4" x="137.5" y="565.7461">&#160;</text><text fill="#666666" font-family="sans-serif" font-size="12" lengthAdjust="spacing" textLength="34" x="141.5" y="565.7461">group</text><text fill="#666666" font-family="sans-serif" font-size="12" lengthAdjust="spacing" textLength="4" x="175.5" y="565.7461">&#160;</text><text fill="#666666" font-family="sans-serif" font-size="12" lengthAdjust="spacing" textLength="36" x="179.5" y="565.7461">modal</text><line style="stroke:#000000;stroke-width:1.0;stroke-dasharray:2.0,2.0;" x1="20" x2="339" y1="579.2773" y2="579.2773"/><text fill="#000000" font-family="sans-serif" font-size="11" font-weight="bold" lengthAdjust="spacing" textLength="180" x="25" y="589.9121">[all pre-existing data in system]</text><polygon fill="#666666" points="86.5,609.3652,76.5,613.3652,86.5,617.3652,82.5,613.3652" style="stroke:#666666;stroke-width:1.0;"/><line style="stroke:#666666;stroke-width:1.0;" x1="80.5" x2="241.5" y1="613.3652" y2="613.3652"/><text fill="#666666" font-family="sans-serif" font-size="12" lengthAdjust="spacing" textLength="35" x="87.5" y="608.834">Shows</text><text fill="#666666" font-family="sans-serif" font-size="12" lengthAdjust="spacing" textLength="4" x="122.5" y="608.834">&#160;</text><text fill="#666666" font-family="sans-serif" font-size="12" lengthAdjust="spacing" textLength="75" x="126.5" y="608.834">multi-patient</text><text fill="#666666" font-family="sans-serif" font-size="12" lengthAdjust="spacing" textLength="4" x="201.5" y="608.834">&#160;</text><text fill="#666666" font-family="sans-serif" font-size="12" lengthAdjust="spacing" textLength="25" x="205.5" y="608.834">view</text><line style="stroke:#000000;stroke-width:1.0;stroke-dasharray:2.0,2.0;" x1="10" x2="477.5" y1="629.3652" y2="629.3652"/><text fill="#000000" font-family="sans-serif" font-size="11" font-weight="bold" lengthAdjust="spacing" textLength="119" x="15" y="640">[authentication error]</text><polygon fill="#666666" points="253.5,659.4531,243.5,663.4531,253.5,667.4531,249.5,663.4531" style="stroke:#666666;stroke-width:1.0;"/><line style="stroke:#666666;stroke-width:1.0;" x1="247.5" x2="414.5" y1="663.4531" y2="663.4531"/><text fill="#666666" font-family="sans-serif" font-size="12" lengthAdjust="spacing" textLength="44" x="274.5" y="658.9219">Returns</text><text fill="#666666" font-family="sans-serif" font-size="12" lengthAdjust="spacing" textLength="4" x="318.5" y="658.9219">&#160;</text><text fill="#666666" font-family="sans-serif" font-size="12" lengthAdjust="spacing" textLength="29" x="322.5" y="658.9219">error</text><text fill="#666666" font-family="sans-serif" font-size="12" lengthAdjust="spacing" textLength="4" x="351.5" y="658.9219">&#160;</text><text fill="#666666" font-family="sans-serif" font-size="12" lengthAdjust="spacing" textLength="28" x="355.5" y="658.9219">code</text><polygon fill="#666666" points="86.5,701.7188,76.5,705.7188,86.5,709.7188,82.5,705.7188" style="stroke:#666666;stroke-width:1.0;"/><line style="stroke:#666666;stroke-width:1.0;" x1="80.5" x2="241.5" y1="705.7188" y2="705.7188"/><text fill="#666666" font-family="sans-serif" font-size="12" lengthAdjust="spacing" textLength="35" x="118" y="687.0547">Shows</text><text fill="#666666" font-family="sans-serif" font-size="12" lengthAdjust="spacing" textLength="4" x="153" y="687.0547">&#160;</text><text fill="#666666" font-family="sans-serif" font-size="12" lengthAdjust="spacing" textLength="29" x="157" y="687.0547">error</text><text fill="#666666" font-family="sans-serif" font-size="12" lengthAdjust="spacing" textLength="4" x="186" y="687.0547">&#160;</text><text fill="#666666" font-family="sans-serif" font-size="12" lengthAdjust="spacing" textLength="10" x="190" y="687.0547">in</text><text fill="#666666" font-family="sans-serif" font-size="12" lengthAdjust="spacing" textLength="80" x="119" y="701.1875">authentication</text><!--SRC=[ZP8nJyCm48Lt_ugZCrKN9eIwT612Ggs04RdsaPvmxE2p6_hlEJifq9QAPehaxxrxx-mhyiPbYt2tk9ajRbuNeUs2Hv_cIccJGeJXcomSUJBQmHDZd01eXYn_gjCnaQ5E-oIG2ACm3y6JQCatiAA4aqARbW_X5rp3lKxOwrq5Ubmh9HHCvzKQRc6r2RqezwDTQCX3fnjK5H2myBVm6CEMBBASCVSXMj3U0kTrIudtdk8lwBDsP6Ng41zCH2kXIJkMmYw9o23pMtOEZ6PKfNnHVizQOihHCsoB4QJmZhv2uvG1MabxFCkCxPPeAQ99B0Jed3ObY95i5jfWiyFVcY7z4ZyoiYZMQFbQwYOI4TUwJGovOv1o-ZJrzuOk49Or-519a7tpZjEO_xJ3S4E2basAQV0bktOLHySuEiswLkwOWw4A_HYt_naVAV-m7_DVvbZXOnCjjzr5dE8dSIgljkpYGiCskqJJSQ6m9Um7Ns_LuFrpiIK-nXZY-LTLZy44Y-hSm06HS8VEgapy0W00]--></g></svg>