<?xml version="1.0" encoding="us-ascii" standalone="no"?><svg xmlns="http://www.w3.org/2000/svg" xmlns:xlink="http://www.w3.org/1999/xlink" contentStyleType="text/css" height="578px" preserveAspectRatio="none" style="width:445px;height:578px;background:#FFFFFF;" version="1.1" viewBox="0 0 445 578" width="445px" zoomAndPan="magnify"><defs/><g><line style="stroke:#181818;stroke-width:0.5;stroke-dasharray:5.0,5.0;" x1="50" x2="50" y1="82.4883" y2="495.7461"/><line style="stroke:#181818;stroke-width:0.5;stroke-dasharray:5.0,5.0;" x1="214" x2="214" y1="82.4883" y2="495.7461"/><line style="stroke:#181818;stroke-width:0.5;stroke-dasharray:5.0,5.0;" x1="387.5" x2="387.5" y1="82.4883" y2="495.7461"/><text fill="#000000" font-family="sans-serif" font-size="14" lengthAdjust="spacing" textLength="85" x="5" y="79.5352">Clinical User</text><ellipse cx="50.5" cy="21.5" fill="#E2E2F0" rx="16" ry="16" style="stroke:#181818;stroke-width:0.5;"/><path d="M50.5,41.5 C54.5,41.5 57.5,41.5 61.5,37.5 C69.5,37.5 77.5,45.5 77.5,53.5 L77.5,57.5 C77.5,61.5 73.5,65.5 69.5,65.5 L31.5,65.5 C27.5,65.5 23.5,61.5 23.5,57.5 L23.5,53.5 C23.5,45.5 31.5,37.5 39.5,37.5 C43.5,41.5 46.5,41.5 50.5,41.5 " fill="#E2E2F0" style="stroke:#181818;stroke-width:0.5;"/><text fill="#000000" font-family="sans-serif" font-size="14" lengthAdjust="spacing" textLength="85" x="5" y="508.2813">Clinical User</text><ellipse cx="50.5" cy="527.7344" fill="#E2E2F0" rx="16" ry="16" style="stroke:#181818;stroke-width:0.5;"/><path d="M50.5,547.7344 C54.5,547.7344 57.5,547.7344 61.5,543.7344 C69.5,543.7344 77.5,551.7344 77.5,559.7344 L77.5,563.7344 C77.5,567.7344 73.5,571.7344 69.5,571.7344 L31.5,571.7344 C27.5,571.7344 23.5,567.7344 23.5,563.7344 L23.5,559.7344 C23.5,551.7344 31.5,543.7344 39.5,543.7344 C43.5,547.7344 46.5,547.7344 50.5,547.7344 " fill="#E2E2F0" style="stroke:#181818;stroke-width:0.5;"/><rect fill="#E2E2F0" height="30.4883" rx="2.5" ry="2.5" style="stroke:#181818;stroke-width:0.5;" width="173" x="128" y="51"/><text fill="#000000" font-family="sans-serif" font-size="14" lengthAdjust="spacing" textLength="159" x="135" y="71.5352">Central Monitoring Site</text><rect fill="#E2E2F0" height="30.4883" rx="2.5" ry="2.5" style="stroke:#181818;stroke-width:0.5;" width="173" x="128" y="494.7461"/><text fill="#000000" font-family="sans-serif" font-size="14" lengthAdjust="spacing" textLength="159" x="135" y="515.2813">Central Monitoring Site</text><rect fill="#E2E2F0" height="30.4883" rx="2.5" ry="2.5" style="stroke:#181818;stroke-width:0.5;" width="104" x="335.5" y="51"/><text fill="#000000" font-family="sans-serif" font-size="14" lengthAdjust="spacing" textLength="90" x="342.5" y="71.5352">Web Gateway</text><rect fill="#E2E2F0" height="30.4883" rx="2.5" ry="2.5" style="stroke:#181818;stroke-width:0.5;" width="104" x="335.5" y="494.7461"/><text fill="#000000" font-family="sans-serif" font-size="14" lengthAdjust="spacing" textLength="90" x="342.5" y="515.2813">Web Gateway</text><polygon fill="#666666" points="61.5,108.6211,51.5,112.6211,61.5,116.6211,57.5,112.6211" style="stroke:#666666;stroke-width:1.0;"/><line style="stroke:#666666;stroke-width:1.0;" x1="55.5" x2="213.5" y1="112.6211" y2="112.6211"/><text fill="#666666" font-family="sans-serif" font-size="12" lengthAdjust="spacing" textLength="35" x="70.5" y="108.0898">Shows</text><text fill="#666666" font-family="sans-serif" font-size="12" lengthAdjust="spacing" textLength="4" x="105.5" y="108.0898">&#160;</text><text fill="#666666" font-family="sans-serif" font-size="12" lengthAdjust="spacing" textLength="38" x="109.5" y="108.0898">clinical</text><text fill="#666666" font-family="sans-serif" font-size="12" lengthAdjust="spacing" textLength="4" x="147.5" y="108.0898">&#160;</text><text fill="#666666" font-family="sans-serif" font-size="12" lengthAdjust="spacing" textLength="43" x="151.5" y="108.0898">module</text><polygon fill="#666666" points="202.5,136.7539,212.5,140.7539,202.5,144.7539,206.5,140.7539" style="stroke:#666666;stroke-width:1.0;"/><line style="stroke:#666666;stroke-width:1.0;" x1="50.5" x2="208.5" y1="140.7539" y2="140.7539"/><text fill="#666666" font-family="sans-serif" font-size="12" lengthAdjust="spacing" textLength="33" x="62.5" y="136.2227">Clicks</text><text fill="#666666" font-family="sans-serif" font-size="12" lengthAdjust="spacing" textLength="4" x="95.5" y="136.2227">&#160;</text><text fill="#666666" font-family="sans-serif" font-size="12" lengthAdjust="spacing" textLength="14" x="99.5" y="136.2227">on</text><text fill="#666666" font-family="sans-serif" font-size="12" lengthAdjust="spacing" textLength="4" x="113.5" y="136.2227">&#160;</text><text fill="#666666" font-family="sans-serif" font-size="12" lengthAdjust="spacing" textLength="44" x="117.5" y="136.2227">settings</text><text fill="#666666" font-family="sans-serif" font-size="12" lengthAdjust="spacing" textLength="4" x="161.5" y="136.2227">&#160;</text><text fill="#666666" font-family="sans-serif" font-size="12" lengthAdjust="spacing" textLength="37" x="165.5" y="136.2227">button</text><polygon fill="#666666" points="61.5,164.8867,51.5,168.8867,61.5,172.8867,57.5,168.8867" style="stroke:#666666;stroke-width:1.0;"/><line style="stroke:#666666;stroke-width:1.0;" x1="55.5" x2="213.5" y1="168.8867" y2="168.8867"/><text fill="#666666" font-family="sans-serif" font-size="12" lengthAdjust="spacing" textLength="35" x="67" y="164.3555">Shows</text><text fill="#666666" font-family="sans-serif" font-size="12" lengthAdjust="spacing" textLength="4" x="102" y="164.3555">&#160;</text><text fill="#666666" font-family="sans-serif" font-size="12" lengthAdjust="spacing" textLength="44" x="106" y="164.3555">settings</text><text fill="#666666" font-family="sans-serif" font-size="12" lengthAdjust="spacing" textLength="4" x="150" y="164.3555">&#160;</text><text fill="#666666" font-family="sans-serif" font-size="12" lengthAdjust="spacing" textLength="44" x="154" y="164.3555">sidebar</text><polygon fill="#666666" points="202.5,193.0195,212.5,197.0195,202.5,201.0195,206.5,197.0195" style="stroke:#666666;stroke-width:1.0;"/><line style="stroke:#666666;stroke-width:1.0;" x1="50.5" x2="208.5" y1="197.0195" y2="197.0195"/><text fill="#666666" font-family="sans-serif" font-size="12" lengthAdjust="spacing" textLength="33" x="76" y="192.4883">Clicks</text><text fill="#666666" font-family="sans-serif" font-size="12" lengthAdjust="spacing" textLength="4" x="109" y="192.4883">&#160;</text><text fill="#666666" font-family="sans-serif" font-size="12" lengthAdjust="spacing" textLength="35" x="113" y="192.4883">logout</text><text fill="#666666" font-family="sans-serif" font-size="12" lengthAdjust="spacing" textLength="4" x="148" y="192.4883">&#160;</text><text fill="#666666" font-family="sans-serif" font-size="12" lengthAdjust="spacing" textLength="37" x="152" y="192.4883">button</text><polygon fill="#666666" points="61.5,235.2852,51.5,239.2852,61.5,243.2852,57.5,239.2852" style="stroke:#666666;stroke-width:1.0;"/><line style="stroke:#666666;stroke-width:1.0;" x1="55.5" x2="213.5" y1="239.2852" y2="239.2852"/><text fill="#666666" font-family="sans-serif" font-size="12" lengthAdjust="spacing" textLength="48" x="84" y="220.6211">Prompts</text><text fill="#666666" font-family="sans-serif" font-size="12" lengthAdjust="spacing" textLength="4" x="132" y="220.6211">&#160;</text><text fill="#666666" font-family="sans-serif" font-size="12" lengthAdjust="spacing" textLength="25" x="136" y="220.6211">user</text><text fill="#666666" font-family="sans-serif" font-size="12" lengthAdjust="spacing" textLength="4" x="161" y="220.6211">&#160;</text><text fill="#666666" font-family="sans-serif" font-size="12" lengthAdjust="spacing" textLength="16" x="165" y="220.6211">for</text><text fill="#666666" font-family="sans-serif" font-size="12" lengthAdjust="spacing" textLength="56" x="104.5" y="234.7539">password</text><polygon fill="#666666" points="202.5,277.5508,212.5,281.5508,202.5,285.5508,206.5,281.5508" style="stroke:#666666;stroke-width:1.0;"/><line style="stroke:#666666;stroke-width:1.0;" x1="50.5" x2="208.5" y1="281.5508" y2="281.5508"/><text fill="#666666" font-family="sans-serif" font-size="12" lengthAdjust="spacing" textLength="36" x="71.5" y="262.8867">Enters</text><text fill="#666666" font-family="sans-serif" font-size="12" lengthAdjust="spacing" textLength="4" x="107.5" y="262.8867">&#160;</text><text fill="#666666" font-family="sans-serif" font-size="12" lengthAdjust="spacing" textLength="56" x="111.5" y="262.8867">password</text><text fill="#666666" font-family="sans-serif" font-size="12" lengthAdjust="spacing" textLength="4" x="167.5" y="262.8867">&#160;</text><text fill="#666666" font-family="sans-serif" font-size="12" lengthAdjust="spacing" textLength="22" x="171.5" y="262.8867">and</text><text fill="#666666" font-family="sans-serif" font-size="12" lengthAdjust="spacing" textLength="44" x="110.5" y="277.0195">accepts</text><polygon fill="#666666" points="375.5,319.8164,385.5,323.8164,375.5,327.8164,379.5,323.8164" style="stroke:#666666;stroke-width:1.0;"/><line style="stroke:#666666;stroke-width:1.0;" x1="214.5" x2="381.5" y1="323.8164" y2="323.8164"/><text fill="#666666" font-family="sans-serif" font-size="12" lengthAdjust="spacing" textLength="53" x="244.5" y="305.1523">Requests</text><text fill="#666666" font-family="sans-serif" font-size="12" lengthAdjust="spacing" textLength="4" x="297.5" y="305.1523">&#160;</text><text fill="#666666" font-family="sans-serif" font-size="12" lengthAdjust="spacing" textLength="56" x="301.5" y="305.1523">password</text><text fill="#666666" font-family="sans-serif" font-size="12" lengthAdjust="spacing" textLength="55" x="273.5" y="319.2852">validation</text><polygon fill="#666666" points="225.5,376.2148,215.5,380.2148,225.5,384.2148,221.5,380.2148" style="stroke:#666666;stroke-width:1.0;"/><line style="stroke:#666666;stroke-width:1.0;" x1="219.5" x2="386.5" y1="380.2148" y2="380.2148"/><text fill="#666666" font-family="sans-serif" font-size="12" lengthAdjust="spacing" textLength="44" x="242.5" y="347.418">Returns</text><text fill="#666666" font-family="sans-serif" font-size="12" lengthAdjust="spacing" textLength="4" x="286.5" y="347.418">&#160;</text><text fill="#666666" font-family="sans-serif" font-size="12" lengthAdjust="spacing" textLength="56" x="290.5" y="347.418">password</text><text fill="#666666" font-family="sans-serif" font-size="12" lengthAdjust="spacing" textLength="4" x="346.5" y="347.418">&#160;</text><text fill="#666666" font-family="sans-serif" font-size="12" lengthAdjust="spacing" textLength="9" x="350.5" y="347.418">is</text><text fill="#666666" font-family="sans-serif" font-size="12" lengthAdjust="spacing" textLength="53" x="261.5" y="361.5508">validated</text><text fill="#666666" font-family="sans-serif" font-size="12" lengthAdjust="spacing" textLength="4" x="314.5" y="361.5508">&#160;</text><text fill="#666666" font-family="sans-serif" font-size="12" lengthAdjust="spacing" textLength="22" x="318.5" y="361.5508">and</text><text fill="#666666" font-family="sans-serif" font-size="12" lengthAdjust="spacing" textLength="98" x="226.5" y="375.6836">de-authenticates</text><text fill="#666666" font-family="sans-serif" font-size="12" lengthAdjust="spacing" textLength="4" x="324.5" y="375.6836">&#160;</text><text fill="#666666" font-family="sans-serif" font-size="12" lengthAdjust="spacing" textLength="18" x="328.5" y="375.6836">the</text><text fill="#666666" font-family="sans-serif" font-size="12" lengthAdjust="spacing" textLength="4" x="346.5" y="375.6836">&#160;</text><text fill="#666666" font-family="sans-serif" font-size="12" lengthAdjust="spacing" textLength="25" x="350.5" y="375.6836">user</text><line style="stroke:#666666;stroke-width:1.0;" x1="214.5" x2="256.5" y1="422.4805" y2="422.4805"/><line style="stroke:#666666;stroke-width:1.0;" x1="256.5" x2="256.5" y1="422.4805" y2="435.4805"/><line style="stroke:#666666;stroke-width:1.0;" x1="215.5" x2="256.5" y1="435.4805" y2="435.4805"/><polygon fill="#666666" points="225.5,431.4805,215.5,435.4805,225.5,439.4805,221.5,435.4805" style="stroke:#666666;stroke-width:1.0;"/><text fill="#666666" font-family="sans-serif" font-size="12" lengthAdjust="spacing" textLength="43" x="221.5" y="403.8164">Deletes</text><text fill="#666666" font-family="sans-serif" font-size="12" lengthAdjust="spacing" textLength="4" x="264.5" y="403.8164">&#160;</text><text fill="#666666" font-family="sans-serif" font-size="12" lengthAdjust="spacing" textLength="25" x="268.5" y="403.8164">user</text><text fill="#666666" font-family="sans-serif" font-size="12" lengthAdjust="spacing" textLength="4" x="293.5" y="403.8164">&#160;</text><text fill="#666666" font-family="sans-serif" font-size="12" lengthAdjust="spacing" textLength="42" x="297.5" y="403.8164">session</text><text fill="#666666" font-family="sans-serif" font-size="12" lengthAdjust="spacing" textLength="65" x="248" y="417.9492">information</text><polygon fill="#666666" points="61.5,473.7461,51.5,477.7461,61.5,481.7461,57.5,477.7461" style="stroke:#666666;stroke-width:1.0;"/><line style="stroke:#666666;stroke-width:1.0;" x1="55.5" x2="213.5" y1="477.7461" y2="477.7461"/><text fill="#666666" font-family="sans-serif" font-size="12" lengthAdjust="spacing" textLength="48" x="72" y="459.082">Displays</text><text fill="#666666" font-family="sans-serif" font-size="12" lengthAdjust="spacing" textLength="4" x="120" y="459.082">&#160;</text><text fill="#666666" font-family="sans-serif" font-size="12" lengthAdjust="spacing" textLength="38" x="124" y="459.082">clinical</text><text fill="#666666" font-family="sans-serif" font-size="12" lengthAdjust="spacing" textLength="4" x="162" y="459.082">&#160;</text><text fill="#666666" font-family="sans-serif" font-size="12" lengthAdjust="spacing" textLength="27" x="166" y="459.082">login</text><text fill="#666666" font-family="sans-serif" font-size="12" lengthAdjust="spacing" textLength="29" x="118" y="473.2148">page</text><!--SRC=[RP5DImD138Rl-ojYxyMBfoAzRCMJ82tYKRApiGtEPjP9ngN_tkokBQrqO22G9- -RZpkM44jBy5W_tDSF7tNg-YGajgug39Oop6zHHnOE6E5DAIy0KA5uLFMOZGFtAEQG5sPdNfAmrxBiOST6Yv4EdLx3xzJ0CneDU9o0WPggSWgMwqaQLh0xfC4hJzPTQakaQaewDB8hyCR2bq8IK39pIuMcc2MvgNLcb5jgCDyMYscVYjtMUSs-8fkdXqzVK8-gGyhjFwadCSfwpWAA_n38Qq-AFh63M_ekf7Q1_c3a5etTUqJEabkoakK2P3snD1kqjCHY1p-3Byn8mUFvJd-Miz268etPgMCbLRS25f-ccsslHzwmzX6F5vVm1R5u7tkgVW40]--></g></svg>