<?xml version="1.0" encoding="us-ascii" standalone="no"?><svg xmlns="http://www.w3.org/2000/svg" xmlns:xlink="http://www.w3.org/1999/xlink" contentStyleType="text/css" height="718px" preserveAspectRatio="none" style="width:453px;height:718px;background:#FFFFFF;" version="1.1" viewBox="0 0 453 718" width="453px" zoomAndPan="magnify"><defs/><g><line style="stroke:#181818;stroke-width:0.5;stroke-dasharray:5.0,5.0;" x1="50" x2="50" y1="82.4883" y2="635.543"/><line style="stroke:#181818;stroke-width:0.5;stroke-dasharray:5.0,5.0;" x1="223" x2="223" y1="82.4883" y2="635.543"/><line style="stroke:#181818;stroke-width:0.5;stroke-dasharray:5.0,5.0;" x1="395.5" x2="395.5" y1="82.4883" y2="635.543"/><text fill="#000000" font-family="sans-serif" font-size="14" lengthAdjust="spacing" textLength="85" x="5" y="79.5352">Clinical User</text><ellipse cx="50.5" cy="21.5" fill="#E2E2F0" rx="16" ry="16" style="stroke:#181818;stroke-width:0.5;"/><path d="M50.5,41.5 C54.5,41.5 57.5,41.5 61.5,37.5 C69.5,37.5 77.5,45.5 77.5,53.5 L77.5,57.5 C77.5,61.5 73.5,65.5 69.5,65.5 L31.5,65.5 C27.5,65.5 23.5,61.5 23.5,57.5 L23.5,53.5 C23.5,45.5 31.5,37.5 39.5,37.5 C43.5,41.5 46.5,41.5 50.5,41.5 " fill="#E2E2F0" style="stroke:#181818;stroke-width:0.5;"/><text fill="#000000" font-family="sans-serif" font-size="14" lengthAdjust="spacing" textLength="85" x="5" y="648.0781">Clinical User</text><ellipse cx="50.5" cy="667.5313" fill="#E2E2F0" rx="16" ry="16" style="stroke:#181818;stroke-width:0.5;"/><path d="M50.5,687.5313 C54.5,687.5313 57.5,687.5313 61.5,683.5313 C69.5,683.5313 77.5,691.5313 77.5,699.5313 L77.5,703.5313 C77.5,707.5313 73.5,711.5313 69.5,711.5313 L31.5,711.5313 C27.5,711.5313 23.5,707.5313 23.5,703.5313 L23.5,699.5313 C23.5,691.5313 31.5,683.5313 39.5,683.5313 C43.5,687.5313 46.5,687.5313 50.5,687.5313 " fill="#E2E2F0" style="stroke:#181818;stroke-width:0.5;"/><rect fill="#E2E2F0" height="30.4883" rx="2.5" ry="2.5" style="stroke:#181818;stroke-width:0.5;" width="173" x="137" y="51"/><text fill="#000000" font-family="sans-serif" font-size="14" lengthAdjust="spacing" textLength="159" x="144" y="71.5352">Central Monitoring Site</text><rect fill="#E2E2F0" height="30.4883" rx="2.5" ry="2.5" style="stroke:#181818;stroke-width:0.5;" width="173" x="137" y="634.543"/><text fill="#000000" font-family="sans-serif" font-size="14" lengthAdjust="spacing" textLength="159" x="144" y="655.0781">Central Monitoring Site</text><rect fill="#E2E2F0" height="30.4883" rx="2.5" ry="2.5" style="stroke:#181818;stroke-width:0.5;" width="104" x="343.5" y="51"/><text fill="#000000" font-family="sans-serif" font-size="14" lengthAdjust="spacing" textLength="90" x="350.5" y="71.5352">Web Gateway</text><rect fill="#E2E2F0" height="30.4883" rx="2.5" ry="2.5" style="stroke:#181818;stroke-width:0.5;" width="104" x="343.5" y="634.543"/><text fill="#000000" font-family="sans-serif" font-size="14" lengthAdjust="spacing" textLength="90" x="350.5" y="655.0781">Web Gateway</text><line style="stroke:#666666;stroke-width:1.0;" x1="223.5" x2="265.5" y1="112.6211" y2="112.6211"/><line style="stroke:#666666;stroke-width:1.0;" x1="265.5" x2="265.5" y1="112.6211" y2="125.6211"/><line style="stroke:#666666;stroke-width:1.0;" x1="224.5" x2="265.5" y1="125.6211" y2="125.6211"/><polygon fill="#666666" points="234.5,121.6211,224.5,125.6211,234.5,129.6211,230.5,125.6211" style="stroke:#666666;stroke-width:1.0;"/><text fill="#666666" font-family="sans-serif" font-size="12" lengthAdjust="spacing" textLength="34" x="230.5" y="108.0898">Loads</text><text fill="#666666" font-family="sans-serif" font-size="12" lengthAdjust="spacing" textLength="4" x="264.5" y="108.0898">&#160;</text><text fill="#666666" font-family="sans-serif" font-size="12" lengthAdjust="spacing" textLength="40" x="268.5" y="108.0898">Clinical</text><text fill="#666666" font-family="sans-serif" font-size="12" lengthAdjust="spacing" textLength="4" x="308.5" y="108.0898">&#160;</text><text fill="#666666" font-family="sans-serif" font-size="12" lengthAdjust="spacing" textLength="42" x="312.5" y="108.0898">Module</text><polygon fill="#666666" points="211.5,149.7539,221.5,153.7539,211.5,157.7539,215.5,153.7539" style="stroke:#666666;stroke-width:1.0;"/><line style="stroke:#666666;stroke-width:1.0;" x1="50.5" x2="217.5" y1="153.7539" y2="153.7539"/><text fill="#666666" font-family="sans-serif" font-size="12" lengthAdjust="spacing" textLength="33" x="67" y="149.2227">Clicks</text><text fill="#666666" font-family="sans-serif" font-size="12" lengthAdjust="spacing" textLength="4" x="100" y="149.2227">&#160;</text><text fill="#666666" font-family="sans-serif" font-size="12" lengthAdjust="spacing" textLength="14" x="104" y="149.2227">on</text><text fill="#666666" font-family="sans-serif" font-size="12" lengthAdjust="spacing" textLength="4" x="118" y="149.2227">&#160;</text><text fill="#666666" font-family="sans-serif" font-size="12" lengthAdjust="spacing" textLength="44" x="122" y="149.2227">Settings</text><text fill="#666666" font-family="sans-serif" font-size="12" lengthAdjust="spacing" textLength="4" x="166" y="149.2227">&#160;</text><text fill="#666666" font-family="sans-serif" font-size="12" lengthAdjust="spacing" textLength="37" x="170" y="149.2227">button</text><polygon fill="#666666" points="61.5,177.8867,51.5,181.8867,61.5,185.8867,57.5,181.8867" style="stroke:#666666;stroke-width:1.0;"/><line style="stroke:#666666;stroke-width:1.0;" x1="55.5" x2="222.5" y1="181.8867" y2="181.8867"/><text fill="#666666" font-family="sans-serif" font-size="12" lengthAdjust="spacing" textLength="35" x="71.5" y="177.3555">Shows</text><text fill="#666666" font-family="sans-serif" font-size="12" lengthAdjust="spacing" textLength="4" x="106.5" y="177.3555">&#160;</text><text fill="#666666" font-family="sans-serif" font-size="12" lengthAdjust="spacing" textLength="44" x="110.5" y="177.3555">Settings</text><text fill="#666666" font-family="sans-serif" font-size="12" lengthAdjust="spacing" textLength="4" x="154.5" y="177.3555">&#160;</text><text fill="#666666" font-family="sans-serif" font-size="12" lengthAdjust="spacing" textLength="44" x="158.5" y="177.3555">Sidebar</text><polygon fill="#666666" points="211.5,220.1523,221.5,224.1523,211.5,228.1523,215.5,224.1523" style="stroke:#666666;stroke-width:1.0;"/><line style="stroke:#666666;stroke-width:1.0;" x1="50.5" x2="217.5" y1="224.1523" y2="224.1523"/><text fill="#666666" font-family="sans-serif" font-size="12" lengthAdjust="spacing" textLength="33" x="77.5" y="205.4883">Clicks</text><text fill="#666666" font-family="sans-serif" font-size="12" lengthAdjust="spacing" textLength="4" x="110.5" y="205.4883">&#160;</text><text fill="#666666" font-family="sans-serif" font-size="12" lengthAdjust="spacing" textLength="45" x="114.5" y="205.4883">Manage</text><text fill="#666666" font-family="sans-serif" font-size="12" lengthAdjust="spacing" textLength="4" x="159.5" y="205.4883">&#160;</text><text fill="#666666" font-family="sans-serif" font-size="12" lengthAdjust="spacing" textLength="33" x="163.5" y="205.4883">Audio</text><text fill="#666666" font-family="sans-serif" font-size="12" lengthAdjust="spacing" textLength="34" x="120" y="219.6211">Alarm</text><polygon fill="#666666" points="61.5,262.418,51.5,266.418,61.5,270.418,57.5,266.418" style="stroke:#666666;stroke-width:1.0;"/><line style="stroke:#666666;stroke-width:1.0;" x1="55.5" x2="222.5" y1="266.418" y2="266.418"/><text fill="#666666" font-family="sans-serif" font-size="12" lengthAdjust="spacing" textLength="35" x="76.5" y="247.7539">Shows</text><text fill="#666666" font-family="sans-serif" font-size="12" lengthAdjust="spacing" textLength="4" x="111.5" y="247.7539">&#160;</text><text fill="#666666" font-family="sans-serif" font-size="12" lengthAdjust="spacing" textLength="45" x="115.5" y="247.7539">Manage</text><text fill="#666666" font-family="sans-serif" font-size="12" lengthAdjust="spacing" textLength="4" x="160.5" y="247.7539">&#160;</text><text fill="#666666" font-family="sans-serif" font-size="12" lengthAdjust="spacing" textLength="33" x="164.5" y="247.7539">Audio</text><text fill="#666666" font-family="sans-serif" font-size="12" lengthAdjust="spacing" textLength="34" x="100.5" y="261.8867">Alarm</text><text fill="#666666" font-family="sans-serif" font-size="12" lengthAdjust="spacing" textLength="4" x="134.5" y="261.8867">&#160;</text><text fill="#666666" font-family="sans-serif" font-size="12" lengthAdjust="spacing" textLength="35" x="138.5" y="261.8867">Modal</text><polygon fill="#666666" points="211.5,318.8164,221.5,322.8164,211.5,326.8164,215.5,322.8164" style="stroke:#666666;stroke-width:1.0;"/><line style="stroke:#666666;stroke-width:1.0;" x1="50.5" x2="217.5" y1="322.8164" y2="322.8164"/><text fill="#666666" font-family="sans-serif" font-size="12" lengthAdjust="spacing" textLength="48" x="66" y="290.0195">Updates</text><text fill="#666666" font-family="sans-serif" font-size="12" lengthAdjust="spacing" textLength="4" x="114" y="290.0195">&#160;</text><text fill="#666666" font-family="sans-serif" font-size="12" lengthAdjust="spacing" textLength="32" x="118" y="290.0195">audio</text><text fill="#666666" font-family="sans-serif" font-size="12" lengthAdjust="spacing" textLength="4" x="150" y="290.0195">&#160;</text><text fill="#666666" font-family="sans-serif" font-size="12" lengthAdjust="spacing" textLength="39" x="154" y="290.0195">alarms</text><text fill="#666666" font-family="sans-serif" font-size="12" lengthAdjust="spacing" textLength="4" x="193" y="290.0195">&#160;</text><text fill="#666666" font-family="sans-serif" font-size="12" lengthAdjust="spacing" textLength="11" x="197" y="290.0195">to</text><text fill="#666666" font-family="sans-serif" font-size="12" lengthAdjust="spacing" textLength="44" x="68.5" y="304.1523">desired</text><text fill="#666666" font-family="sans-serif" font-size="12" lengthAdjust="spacing" textLength="4" x="112.5" y="304.1523">&#160;</text><text fill="#666666" font-family="sans-serif" font-size="12" lengthAdjust="spacing" textLength="28" x="116.5" y="304.1523">state</text><text fill="#666666" font-family="sans-serif" font-size="12" lengthAdjust="spacing" textLength="4" x="144.5" y="304.1523">&#160;</text><text fill="#666666" font-family="sans-serif" font-size="12" lengthAdjust="spacing" textLength="22" x="148.5" y="304.1523">and</text><text fill="#666666" font-family="sans-serif" font-size="12" lengthAdjust="spacing" textLength="4" x="170.5" y="304.1523">&#160;</text><text fill="#666666" font-family="sans-serif" font-size="12" lengthAdjust="spacing" textLength="31" x="174.5" y="304.1523">clicks</text><text fill="#666666" font-family="sans-serif" font-size="12" lengthAdjust="spacing" textLength="26" x="124" y="318.2852">save</text><polygon fill="#666666" points="61.5,361.082,51.5,365.082,61.5,369.082,57.5,365.082" style="stroke:#666666;stroke-width:1.0;"/><line style="stroke:#666666;stroke-width:1.0;" x1="55.5" x2="222.5" y1="365.082" y2="365.082"/><text fill="#666666" font-family="sans-serif" font-size="12" lengthAdjust="spacing" textLength="48" x="74" y="346.418">Prompts</text><text fill="#666666" font-family="sans-serif" font-size="12" lengthAdjust="spacing" textLength="4" x="122" y="346.418">&#160;</text><text fill="#666666" font-family="sans-serif" font-size="12" lengthAdjust="spacing" textLength="25" x="126" y="346.418">user</text><text fill="#666666" font-family="sans-serif" font-size="12" lengthAdjust="spacing" textLength="4" x="151" y="346.418">&#160;</text><text fill="#666666" font-family="sans-serif" font-size="12" lengthAdjust="spacing" textLength="11" x="155" y="346.418">to</text><text fill="#666666" font-family="sans-serif" font-size="12" lengthAdjust="spacing" textLength="4" x="166" y="346.418">&#160;</text><text fill="#666666" font-family="sans-serif" font-size="12" lengthAdjust="spacing" textLength="30" x="170" y="346.418">enter</text><text fill="#666666" font-family="sans-serif" font-size="12" lengthAdjust="spacing" textLength="56" x="109" y="360.5508">password</text><polygon fill="#666666" points="211.5,403.3477,221.5,407.3477,211.5,411.3477,215.5,407.3477" style="stroke:#666666;stroke-width:1.0;"/><line style="stroke:#666666;stroke-width:1.0;" x1="50.5" x2="217.5" y1="407.3477" y2="407.3477"/><text fill="#666666" font-family="sans-serif" font-size="12" lengthAdjust="spacing" textLength="36" x="76" y="388.6836">Enters</text><text fill="#666666" font-family="sans-serif" font-size="12" lengthAdjust="spacing" textLength="4" x="112" y="388.6836">&#160;</text><text fill="#666666" font-family="sans-serif" font-size="12" lengthAdjust="spacing" textLength="56" x="116" y="388.6836">password</text><text fill="#666666" font-family="sans-serif" font-size="12" lengthAdjust="spacing" textLength="4" x="172" y="388.6836">&#160;</text><text fill="#666666" font-family="sans-serif" font-size="12" lengthAdjust="spacing" textLength="22" x="176" y="388.6836">and</text><text fill="#666666" font-family="sans-serif" font-size="12" lengthAdjust="spacing" textLength="49" x="112.5" y="402.8164">confirms</text><polygon fill="#666666" points="383.5,445.6133,393.5,449.6133,383.5,453.6133,387.5,449.6133" style="stroke:#666666;stroke-width:1.0;"/><line style="stroke:#666666;stroke-width:1.0;" x1="223.5" x2="389.5" y1="449.6133" y2="449.6133"/><text fill="#666666" font-family="sans-serif" font-size="12" lengthAdjust="spacing" textLength="53" x="253" y="430.9492">Requests</text><text fill="#666666" font-family="sans-serif" font-size="12" lengthAdjust="spacing" textLength="4" x="306" y="430.9492">&#160;</text><text fill="#666666" font-family="sans-serif" font-size="12" lengthAdjust="spacing" textLength="56" x="310" y="430.9492">password</text><text fill="#666666" font-family="sans-serif" font-size="12" lengthAdjust="spacing" textLength="55" x="282" y="445.082">validation</text><polygon fill="#666666" points="234.5,473.7461,224.5,477.7461,234.5,481.7461,230.5,477.7461" style="stroke:#666666;stroke-width:1.0;"/><line style="stroke:#666666;stroke-width:1.0;" x1="228.5" x2="394.5" y1="477.7461" y2="477.7461"/><text fill="#666666" font-family="sans-serif" font-size="12" lengthAdjust="spacing" textLength="44" x="235.5" y="473.2148">Returns</text><text fill="#666666" font-family="sans-serif" font-size="12" lengthAdjust="spacing" textLength="4" x="279.5" y="473.2148">&#160;</text><text fill="#666666" font-family="sans-serif" font-size="12" lengthAdjust="spacing" textLength="56" x="283.5" y="473.2148">password</text><text fill="#666666" font-family="sans-serif" font-size="12" lengthAdjust="spacing" textLength="4" x="339.5" y="473.2148">&#160;</text><text fill="#666666" font-family="sans-serif" font-size="12" lengthAdjust="spacing" textLength="9" x="343.5" y="473.2148">is</text><text fill="#666666" font-family="sans-serif" font-size="12" lengthAdjust="spacing" textLength="4" x="352.5" y="473.2148">&#160;</text><text fill="#666666" font-family="sans-serif" font-size="12" lengthAdjust="spacing" textLength="27" x="356.5" y="473.2148">valid</text><line style="stroke:#666666;stroke-width:1.0;" x1="223.5" x2="265.5" y1="520.0117" y2="520.0117"/><line style="stroke:#666666;stroke-width:1.0;" x1="265.5" x2="265.5" y1="520.0117" y2="533.0117"/><line style="stroke:#666666;stroke-width:1.0;" x1="224.5" x2="265.5" y1="533.0117" y2="533.0117"/><polygon fill="#666666" points="234.5,529.0117,224.5,533.0117,234.5,537.0117,230.5,533.0117" style="stroke:#666666;stroke-width:1.0;"/><text fill="#666666" font-family="sans-serif" font-size="12" lengthAdjust="spacing" textLength="32" x="230.5" y="501.3477">Saves</text><text fill="#666666" font-family="sans-serif" font-size="12" lengthAdjust="spacing" textLength="4" x="262.5" y="501.3477">&#160;</text><text fill="#666666" font-family="sans-serif" font-size="12" lengthAdjust="spacing" textLength="23" x="266.5" y="501.3477">new</text><text fill="#666666" font-family="sans-serif" font-size="12" lengthAdjust="spacing" textLength="4" x="289.5" y="501.3477">&#160;</text><text fill="#666666" font-family="sans-serif" font-size="12" lengthAdjust="spacing" textLength="32" x="293.5" y="501.3477">audio</text><text fill="#666666" font-family="sans-serif" font-size="12" lengthAdjust="spacing" textLength="4" x="325.5" y="501.3477">&#160;</text><text fill="#666666" font-family="sans-serif" font-size="12" lengthAdjust="spacing" textLength="39" x="329.5" y="501.3477">alarms</text><text fill="#666666" font-family="sans-serif" font-size="12" lengthAdjust="spacing" textLength="28" x="285.5" y="515.4805">state</text><polygon fill="#666666" points="61.5,571.2773,51.5,575.2773,61.5,579.2773,57.5,575.2773" style="stroke:#666666;stroke-width:1.0;"/><line style="stroke:#666666;stroke-width:1.0;" x1="55.5" x2="222.5" y1="575.2773" y2="575.2773"/><text fill="#666666" font-family="sans-serif" font-size="12" lengthAdjust="spacing" textLength="35" x="69" y="556.6133">Shows</text><text fill="#666666" font-family="sans-serif" font-size="12" lengthAdjust="spacing" textLength="4" x="104" y="556.6133">&#160;</text><text fill="#666666" font-family="sans-serif" font-size="12" lengthAdjust="spacing" textLength="44" x="108" y="556.6133">settings</text><text fill="#666666" font-family="sans-serif" font-size="12" lengthAdjust="spacing" textLength="4" x="152" y="556.6133">&#160;</text><text fill="#666666" font-family="sans-serif" font-size="12" lengthAdjust="spacing" textLength="49" x="156" y="556.6133">updated</text><text fill="#666666" font-family="sans-serif" font-size="12" lengthAdjust="spacing" textLength="36" x="119" y="570.7461">modal</text><polygon fill="#666666" points="211.5,613.543,221.5,617.543,211.5,621.543,215.5,617.543" style="stroke:#666666;stroke-width:1.0;"/><line style="stroke:#666666;stroke-width:1.0;" x1="50.5" x2="217.5" y1="617.543" y2="617.543"/><text fill="#666666" font-family="sans-serif" font-size="12" lengthAdjust="spacing" textLength="82" x="62.5" y="598.8789">Acknowledges</text><text fill="#666666" font-family="sans-serif" font-size="12" lengthAdjust="spacing" textLength="4" x="144.5" y="598.8789">&#160;</text><text fill="#666666" font-family="sans-serif" font-size="12" lengthAdjust="spacing" textLength="18" x="148.5" y="598.8789">the</text><text fill="#666666" font-family="sans-serif" font-size="12" lengthAdjust="spacing" textLength="4" x="166.5" y="598.8789">&#160;</text><text fill="#666666" font-family="sans-serif" font-size="12" lengthAdjust="spacing" textLength="41" x="170.5" y="598.8789">change</text><text fill="#666666" font-family="sans-serif" font-size="12" lengthAdjust="spacing" textLength="14" x="92.5" y="613.0117">by</text><text fill="#666666" font-family="sans-serif" font-size="12" lengthAdjust="spacing" textLength="4" x="106.5" y="613.0117">&#160;</text><text fill="#666666" font-family="sans-serif" font-size="12" lengthAdjust="spacing" textLength="42" x="110.5" y="613.0117">clicking</text><text fill="#666666" font-family="sans-serif" font-size="12" lengthAdjust="spacing" textLength="4" x="152.5" y="613.0117">&#160;</text><text fill="#666666" font-family="sans-serif" font-size="12" lengthAdjust="spacing" textLength="25" x="156.5" y="613.0117">"OK"</text><!--SRC=[RP9FQyCm3CNl-HHQxcENdieeb31ssCf6GzbnABRMcZfsPjaD_VQJ4_ftoScWdzwJdl9WdB994pnNiwTgzbtvjlEEN5mK1Qhe0unVMLdZZ48B6wPG0Y13abVHOOX6cGvT54WQWp0hxupq6hU5saGgCwrQleM_g85NZDJZSG1wQef2A7XSP1ZcyEvHCvoTLrudIqMslJ1ILNi6xw2c6CMHeKanUdUI6l0vr3lVyuMfZQO6mxJO2Xrk2PP96mzBYw6T5FkFvH7HtebkEYrRCk30OUOOeWTDR09fu2XbGAT1ZVQC1xep_0nobpX6ddibPtbqoDpxeEyCNtAHpzLHshiV8yOdNGbRo3Nz9k9unHxG6XdNI7uPEMkkAQRWha338tjxiLf6Pt3Ktsuxh3YP8PyEaeQKDBGJ2IxLtldUajwAUDmHg1qwIRuvZf7b_wpyU2kBFm00]--></g></svg>