<?xml version="1.0" encoding="us-ascii" standalone="no"?><svg xmlns="http://www.w3.org/2000/svg" xmlns:xlink="http://www.w3.org/1999/xlink" contentStyleType="text/css" height="613px" preserveAspectRatio="none" style="width:740px;height:613px;background:#FFFFFF;" version="1.1" viewBox="0 0 740 613" width="740px" zoomAndPan="magnify"><defs/><g><rect fill="none" height="244.7715" style="stroke:#000000;stroke-width:1.5;" width="624.5" x="109" y="184.0195"/><line style="stroke:#181818;stroke-width:0.5;stroke-dasharray:5.0,5.0;" x1="32" x2="32" y1="82.4883" y2="530.1895"/><line style="stroke:#181818;stroke-width:0.5;stroke-dasharray:5.0,5.0;" x1="205" x2="205" y1="82.4883" y2="530.1895"/><line style="stroke:#181818;stroke-width:0.5;stroke-dasharray:5.0,5.0;" x1="374.5" x2="374.5" y1="82.4883" y2="530.1895"/><line style="stroke:#181818;stroke-width:0.5;stroke-dasharray:5.0,5.0;" x1="484.5" x2="484.5" y1="82.4883" y2="530.1895"/><line style="stroke:#181818;stroke-width:0.5;stroke-dasharray:5.0,5.0;" x1="656.5" x2="656.5" y1="82.4883" y2="530.1895"/><text fill="#000000" font-family="sans-serif" font-size="14" lengthAdjust="spacing" textLength="31" x="14" y="79.5352">User</text><ellipse cx="32.5" cy="21.5" fill="#E2E2F0" rx="16" ry="16" style="stroke:#181818;stroke-width:0.5;"/><path d="M32.5,41.5 C36.5,41.5 39.5,41.5 43.5,37.5 C51.5,37.5 59.5,45.5 59.5,53.5 L59.5,57.5 C59.5,61.5 55.5,65.5 51.5,65.5 L13.5,65.5 C9.5,65.5 5.5,61.5 5.5,57.5 L5.5,53.5 C5.5,45.5 13.5,37.5 21.5,37.5 C25.5,41.5 28.5,41.5 32.5,41.5 " fill="#E2E2F0" style="stroke:#181818;stroke-width:0.5;"/><text fill="#000000" font-family="sans-serif" font-size="14" lengthAdjust="spacing" textLength="31" x="14" y="542.7246">User</text><ellipse cx="32.5" cy="562.1777" fill="#E2E2F0" rx="16" ry="16" style="stroke:#181818;stroke-width:0.5;"/><path d="M32.5,582.1777 C36.5,582.1777 39.5,582.1777 43.5,578.1777 C51.5,578.1777 59.5,586.1777 59.5,594.1777 L59.5,598.1777 C59.5,602.1777 55.5,606.1777 51.5,606.1777 L13.5,606.1777 C9.5,606.1777 5.5,602.1777 5.5,598.1777 L5.5,594.1777 C5.5,586.1777 13.5,578.1777 21.5,578.1777 C25.5,582.1777 28.5,582.1777 32.5,582.1777 " fill="#E2E2F0" style="stroke:#181818;stroke-width:0.5;"/><rect fill="#E2E2F0" height="30.4883" rx="2.5" ry="2.5" style="stroke:#181818;stroke-width:0.5;" width="173" x="119" y="51"/><text fill="#000000" font-family="sans-serif" font-size="14" lengthAdjust="spacing" textLength="159" x="126" y="71.5352">Central Monitoring Site</text><rect fill="#E2E2F0" height="30.4883" rx="2.5" ry="2.5" style="stroke:#181818;stroke-width:0.5;" width="173" x="119" y="529.1895"/><text fill="#000000" font-family="sans-serif" font-size="14" lengthAdjust="spacing" textLength="159" x="126" y="549.7246">Central Monitoring Site</text><rect fill="#E2E2F0" height="30.4883" rx="2.5" ry="2.5" style="stroke:#181818;stroke-width:0.5;" width="104" x="322.5" y="51"/><text fill="#000000" font-family="sans-serif" font-size="14" lengthAdjust="spacing" textLength="90" x="329.5" y="71.5352">Web Gateway</text><rect fill="#E2E2F0" height="30.4883" rx="2.5" ry="2.5" style="stroke:#181818;stroke-width:0.5;" width="104" x="322.5" y="529.1895"/><text fill="#000000" font-family="sans-serif" font-size="14" lengthAdjust="spacing" textLength="90" x="329.5" y="549.7246">Web Gateway</text><rect fill="#E2E2F0" height="30.4883" rx="2.5" ry="2.5" style="stroke:#181818;stroke-width:0.5;" width="96" x="436.5" y="51"/><text fill="#000000" font-family="sans-serif" font-size="14" lengthAdjust="spacing" textLength="82" x="443.5" y="71.5352">Web Worker</text><rect fill="#E2E2F0" height="30.4883" rx="2.5" ry="2.5" style="stroke:#181818;stroke-width:0.5;" width="96" x="436.5" y="529.1895"/><text fill="#000000" font-family="sans-serif" font-size="14" lengthAdjust="spacing" textLength="82" x="443.5" y="549.7246">Web Worker</text><rect fill="#E2E2F0" height="30.4883" rx="2.5" ry="2.5" style="stroke:#181818;stroke-width:0.5;" width="134" x="589.5" y="51"/><text fill="#000000" font-family="sans-serif" font-size="14" lengthAdjust="spacing" textLength="120" x="596.5" y="71.5352">Realtime Gateway</text><rect fill="#E2E2F0" height="30.4883" rx="2.5" ry="2.5" style="stroke:#181818;stroke-width:0.5;" width="134" x="589.5" y="529.1895"/><text fill="#000000" font-family="sans-serif" font-size="14" lengthAdjust="spacing" textLength="120" x="596.5" y="549.7246">Realtime Gateway</text><polygon fill="#666666" points="362.5,122.7539,372.5,126.7539,362.5,130.7539,366.5,126.7539" style="stroke:#666666;stroke-width:1.0;"/><line style="stroke:#666666;stroke-width:1.0;" x1="205.5" x2="368.5" y1="126.7539" y2="126.7539"/><text fill="#666666" font-family="sans-serif" font-size="12" lengthAdjust="spacing" textLength="47" x="222" y="108.0898">Request</text><text fill="#666666" font-family="sans-serif" font-size="12" lengthAdjust="spacing" textLength="4" x="269" y="108.0898">&#160;</text><text fill="#666666" font-family="sans-serif" font-size="12" lengthAdjust="spacing" textLength="41" x="273" y="108.0898">current</text><text fill="#666666" font-family="sans-serif" font-size="12" lengthAdjust="spacing" textLength="4" x="314" y="108.0898">&#160;</text><text fill="#666666" font-family="sans-serif" font-size="12" lengthAdjust="spacing" textLength="40" x="318" y="108.0898">groups</text><text fill="#666666" font-family="sans-serif" font-size="12" lengthAdjust="spacing" textLength="46" x="267" y="122.2227">patients</text><polygon fill="#666666" points="216.5,165.0195,206.5,169.0195,216.5,173.0195,212.5,169.0195" style="stroke:#666666;stroke-width:1.0;"/><line style="stroke:#666666;stroke-width:1.0;" x1="210.5" x2="373.5" y1="169.0195" y2="169.0195"/><text fill="#666666" font-family="sans-serif" font-size="12" lengthAdjust="spacing" textLength="44" x="223.5" y="150.3555">Returns</text><text fill="#666666" font-family="sans-serif" font-size="12" lengthAdjust="spacing" textLength="4" x="267.5" y="150.3555">&#160;</text><text fill="#666666" font-family="sans-serif" font-size="12" lengthAdjust="spacing" textLength="41" x="271.5" y="150.3555">current</text><text fill="#666666" font-family="sans-serif" font-size="12" lengthAdjust="spacing" textLength="4" x="312.5" y="150.3555">&#160;</text><text fill="#666666" font-family="sans-serif" font-size="12" lengthAdjust="spacing" textLength="40" x="316.5" y="150.3555">groups</text><text fill="#666666" font-family="sans-serif" font-size="12" lengthAdjust="spacing" textLength="46" x="267" y="164.4883">patients</text><path d="M109,184.0195 L177,184.0195 L177,191.3301 L167,201.3301 L109,201.3301 L109,184.0195 " fill="#EEEEEE" style="stroke:#000000;stroke-width:1.5;"/><rect fill="none" height="244.7715" style="stroke:#000000;stroke-width:1.5;" width="624.5" x="109" y="184.0195"/><text fill="#000000" font-family="sans-serif" font-size="13" font-weight="bold" lengthAdjust="spacing" textLength="23" x="124" y="197.5879">par</text><polygon fill="#666666" points="472.5,231.5957,482.5,235.5957,472.5,239.5957,476.5,235.5957" style="stroke:#666666;stroke-width:1.0;"/><line style="stroke:#666666;stroke-width:1.0;" x1="205.5" x2="478.5" y1="235.5957" y2="235.5957"/><text fill="#666666" font-family="sans-serif" font-size="12" lengthAdjust="spacing" textLength="32" x="274.5" y="216.9316">Starts</text><text fill="#666666" font-family="sans-serif" font-size="12" lengthAdjust="spacing" textLength="4" x="306.5" y="216.9316">&#160;</text><text fill="#666666" font-family="sans-serif" font-size="12" lengthAdjust="spacing" textLength="40" x="310.5" y="216.9316">worker</text><text fill="#666666" font-family="sans-serif" font-size="12" lengthAdjust="spacing" textLength="4" x="350.5" y="216.9316">&#160;</text><text fill="#666666" font-family="sans-serif" font-size="12" lengthAdjust="spacing" textLength="23" x="354.5" y="216.9316">with</text><text fill="#666666" font-family="sans-serif" font-size="12" lengthAdjust="spacing" textLength="4" x="377.5" y="216.9316">&#160;</text><text fill="#666666" font-family="sans-serif" font-size="12" lengthAdjust="spacing" textLength="34" x="381.5" y="216.9316">group</text><text fill="#666666" font-family="sans-serif" font-size="12" lengthAdjust="spacing" textLength="46" x="322" y="231.0645">patients</text><polygon fill="#666666" points="644.5,273.8613,654.5,277.8613,644.5,281.8613,648.5,277.8613" style="stroke:#666666;stroke-width:1.0;"/><line style="stroke:#666666;stroke-width:1.0;" x1="484.5" x2="650.5" y1="277.8613" y2="277.8613"/><text fill="#666666" font-family="sans-serif" font-size="12" lengthAdjust="spacing" textLength="64" x="513" y="259.1973">Establishes</text><text fill="#666666" font-family="sans-serif" font-size="12" lengthAdjust="spacing" textLength="4" x="577" y="259.1973">&#160;</text><text fill="#666666" font-family="sans-serif" font-size="12" lengthAdjust="spacing" textLength="47" x="581" y="259.1973">realtime</text><text fill="#666666" font-family="sans-serif" font-size="12" lengthAdjust="spacing" textLength="61" x="540" y="273.3301">connection</text><polygon fill="#666666" points="495.5,330.2598,485.5,334.2598,495.5,338.2598,491.5,334.2598" style="stroke:#666666;stroke-width:1.0;"/><line style="stroke:#666666;stroke-width:1.0;" x1="489.5" x2="655.5" y1="334.2598" y2="334.2598"/><text fill="#666666" font-family="sans-serif" font-size="12" lengthAdjust="spacing" textLength="34" x="496.5" y="301.4629">Sends</text><text fill="#666666" font-family="sans-serif" font-size="12" lengthAdjust="spacing" textLength="4" x="530.5" y="301.4629">&#160;</text><text fill="#666666" font-family="sans-serif" font-size="12" lengthAdjust="spacing" textLength="47" x="534.5" y="301.4629">realtime</text><text fill="#666666" font-family="sans-serif" font-size="12" lengthAdjust="spacing" textLength="4" x="581.5" y="301.4629">&#160;</text><text fill="#666666" font-family="sans-serif" font-size="12" lengthAdjust="spacing" textLength="29" x="585.5" y="301.4629">vitals</text><text fill="#666666" font-family="sans-serif" font-size="12" lengthAdjust="spacing" textLength="4" x="614.5" y="301.4629">&#160;</text><text fill="#666666" font-family="sans-serif" font-size="12" lengthAdjust="spacing" textLength="26" x="618.5" y="301.4629">data</text><text fill="#666666" font-family="sans-serif" font-size="12" lengthAdjust="spacing" textLength="16" x="511.5" y="315.5957">for</text><text fill="#666666" font-family="sans-serif" font-size="12" lengthAdjust="spacing" textLength="4" x="527.5" y="315.5957">&#160;</text><text fill="#666666" font-family="sans-serif" font-size="12" lengthAdjust="spacing" textLength="48" x="531.5" y="315.5957">selected</text><text fill="#666666" font-family="sans-serif" font-size="12" lengthAdjust="spacing" textLength="4" x="579.5" y="315.5957">&#160;</text><text fill="#666666" font-family="sans-serif" font-size="12" lengthAdjust="spacing" textLength="46" x="583.5" y="315.5957">patients</text><text fill="#666666" font-family="sans-serif" font-size="12" lengthAdjust="spacing" textLength="55" x="525.5" y="329.7285">(including</text><text fill="#666666" font-family="sans-serif" font-size="12" lengthAdjust="spacing" textLength="4" x="580.5" y="329.7285">&#160;</text><text fill="#666666" font-family="sans-serif" font-size="12" lengthAdjust="spacing" textLength="31" x="584.5" y="329.7285">units)</text><line style="stroke:#000000;stroke-width:1.0;stroke-dasharray:2.0,2.0;" x1="109" x2="733.5" y1="343.2598" y2="343.2598"/><polygon fill="#666666" points="362.5,374.5254,372.5,378.5254,362.5,382.5254,366.5,378.5254" style="stroke:#666666;stroke-width:1.0;"/><line style="stroke:#666666;stroke-width:1.0;" x1="205.5" x2="368.5" y1="378.5254" y2="378.5254"/><text fill="#666666" font-family="sans-serif" font-size="12" lengthAdjust="spacing" textLength="47" x="217.5" y="359.8613">Request</text><text fill="#666666" font-family="sans-serif" font-size="12" lengthAdjust="spacing" textLength="4" x="264.5" y="359.8613">&#160;</text><text fill="#666666" font-family="sans-serif" font-size="12" lengthAdjust="spacing" textLength="40" x="268.5" y="359.8613">patient</text><text fill="#666666" font-family="sans-serif" font-size="12" lengthAdjust="spacing" textLength="4" x="308.5" y="359.8613">&#160;</text><text fill="#666666" font-family="sans-serif" font-size="12" lengthAdjust="spacing" textLength="50" x="312.5" y="359.8613">monitors</text><text fill="#666666" font-family="sans-serif" font-size="12" lengthAdjust="spacing" textLength="26" x="277" y="373.9941">data</text><polygon fill="#666666" points="216.5,416.791,206.5,420.791,216.5,424.791,212.5,420.791" style="stroke:#666666;stroke-width:1.0;"/><line style="stroke:#666666;stroke-width:1.0;" x1="210.5" x2="373.5" y1="420.791" y2="420.791"/><text fill="#666666" font-family="sans-serif" font-size="12" lengthAdjust="spacing" textLength="33" x="224.5" y="402.127">Retun</text><text fill="#666666" font-family="sans-serif" font-size="12" lengthAdjust="spacing" textLength="4" x="257.5" y="402.127">&#160;</text><text fill="#666666" font-family="sans-serif" font-size="12" lengthAdjust="spacing" textLength="40" x="261.5" y="402.127">patient</text><text fill="#666666" font-family="sans-serif" font-size="12" lengthAdjust="spacing" textLength="4" x="301.5" y="402.127">&#160;</text><text fill="#666666" font-family="sans-serif" font-size="12" lengthAdjust="spacing" textLength="50" x="305.5" y="402.127">monitors</text><text fill="#666666" font-family="sans-serif" font-size="12" lengthAdjust="spacing" textLength="26" x="277" y="416.2598">data</text><polygon fill="#666666" points="43.5,451.9238,33.5,455.9238,43.5,459.9238,39.5,455.9238" style="stroke:#666666;stroke-width:1.0;"/><line style="stroke:#666666;stroke-width:1.0;" x1="37.5" x2="204.5" y1="455.9238" y2="455.9238"/><text fill="#666666" font-family="sans-serif" font-size="12" lengthAdjust="spacing" textLength="42" x="55" y="451.3926">Display</text><text fill="#666666" font-family="sans-serif" font-size="12" lengthAdjust="spacing" textLength="4" x="97" y="451.3926">&#160;</text><text fill="#666666" font-family="sans-serif" font-size="12" lengthAdjust="spacing" textLength="40" x="101" y="451.3926">patient</text><text fill="#666666" font-family="sans-serif" font-size="12" lengthAdjust="spacing" textLength="4" x="141" y="451.3926">&#160;</text><text fill="#666666" font-family="sans-serif" font-size="12" lengthAdjust="spacing" textLength="38" x="145" y="451.3926">details</text><polygon fill="#666666" points="193.5,480.0566,203.5,484.0566,193.5,488.0566,197.5,484.0566" style="stroke:#666666;stroke-width:1.0;"/><line style="stroke:#666666;stroke-width:1.0;" x1="32.5" x2="199.5" y1="484.0566" y2="484.0566"/><text fill="#666666" font-family="sans-serif" font-size="12" lengthAdjust="spacing" textLength="43" x="54.5" y="479.5254">Change</text><text fill="#666666" font-family="sans-serif" font-size="12" lengthAdjust="spacing" textLength="4" x="97.5" y="479.5254">&#160;</text><text fill="#666666" font-family="sans-serif" font-size="12" lengthAdjust="spacing" textLength="11" x="101.5" y="479.5254">to</text><text fill="#666666" font-family="sans-serif" font-size="12" lengthAdjust="spacing" textLength="4" x="112.5" y="479.5254">&#160;</text><text fill="#666666" font-family="sans-serif" font-size="12" lengthAdjust="spacing" textLength="33" x="116.5" y="479.5254">alarm</text><text fill="#666666" font-family="sans-serif" font-size="12" lengthAdjust="spacing" textLength="4" x="149.5" y="479.5254">&#160;</text><text fill="#666666" font-family="sans-serif" font-size="12" lengthAdjust="spacing" textLength="30" x="153.5" y="479.5254">limits</text><polygon fill="#666666" points="43.5,508.1895,33.5,512.1895,43.5,516.1895,39.5,512.1895" style="stroke:#666666;stroke-width:1.0;"/><line style="stroke:#666666;stroke-width:1.0;" x1="37.5" x2="204.5" y1="512.1895" y2="512.1895"/><text fill="#666666" font-family="sans-serif" font-size="12" lengthAdjust="spacing" textLength="48" x="44.5" y="507.6582">Displays</text><text fill="#666666" font-family="sans-serif" font-size="12" lengthAdjust="spacing" textLength="4" x="92.5" y="507.6582">&#160;</text><text fill="#666666" font-family="sans-serif" font-size="12" lengthAdjust="spacing" textLength="33" x="96.5" y="507.6582">alarm</text><text fill="#666666" font-family="sans-serif" font-size="12" lengthAdjust="spacing" textLength="4" x="129.5" y="507.6582">&#160;</text><text fill="#666666" font-family="sans-serif" font-size="12" lengthAdjust="spacing" textLength="30" x="133.5" y="507.6582">limits</text><text fill="#666666" font-family="sans-serif" font-size="12" lengthAdjust="spacing" textLength="4" x="163.5" y="507.6582">&#160;</text><text fill="#666666" font-family="sans-serif" font-size="12" lengthAdjust="spacing" textLength="26" x="167.5" y="507.6582">data</text><!--SRC=[TP8_KyCm3CLtVmhH2GQEfHF7TGaS4qjxN4TEJKIhmx639PFhjqVvqvG0pUJOl_VqPFcAG-bpHV1GBE-AvLiHwoO62hfo3akD2HQlGca1A91juHfCoYKt61GMXO49FRp4mCPosCE6bNgwh6KERsa7pwZKuh47Mjhz1ROnVOpbsduvHzQ4NhcccL4QDvspcd2xwfpX7jRqcKaKofoIvOHzYhaHQ53PViLrbC6TfeCrfo0NOKlXmBvJXJwRwJPgyKvPeMKz3DApibEDnoOyPJNfaoZkFCk1pYr06KEWKZc6NZZjpsfIg7v8lbZH2rIe2EysC25l3bHD4U1w678tdco3aXj7NcZMp-p6HY7KmrW7xw6HttSMBi0MSHf7zsuCVsHfF1udGKMAxCNrnvDfSS2m9z08w37LuBcsnFzRoOmP2hjl]--></g></svg>