<?xml version="1.0" encoding="us-ascii" standalone="no"?><svg xmlns="http://www.w3.org/2000/svg" xmlns:xlink="http://www.w3.org/1999/xlink" contentStyleType="text/css" height="382px" preserveAspectRatio="none" style="width:415px;height:382px;background:#FFFFFF;" version="1.1" viewBox="0 0 415 382" width="415px" zoomAndPan="magnify"><defs/><g><line style="stroke:#181818;stroke-width:0.5;stroke-dasharray:5.0,5.0;" x1="32" x2="32" y1="82.4883" y2="299.6836"/><line style="stroke:#181818;stroke-width:0.5;stroke-dasharray:5.0,5.0;" x1="184" x2="184" y1="82.4883" y2="299.6836"/><line style="stroke:#181818;stroke-width:0.5;stroke-dasharray:5.0,5.0;" x1="357.5" x2="357.5" y1="82.4883" y2="299.6836"/><text fill="#000000" font-family="sans-serif" font-size="14" lengthAdjust="spacing" textLength="31" x="14" y="79.5352">User</text><ellipse cx="32.5" cy="21.5" fill="#E2E2F0" rx="16" ry="16" style="stroke:#181818;stroke-width:0.5;"/><path d="M32.5,41.5 C36.5,41.5 39.5,41.5 43.5,37.5 C51.5,37.5 59.5,45.5 59.5,53.5 L59.5,57.5 C59.5,61.5 55.5,65.5 51.5,65.5 L13.5,65.5 C9.5,65.5 5.5,61.5 5.5,57.5 L5.5,53.5 C5.5,45.5 13.5,37.5 21.5,37.5 C25.5,41.5 28.5,41.5 32.5,41.5 " fill="#E2E2F0" style="stroke:#181818;stroke-width:0.5;"/><text fill="#000000" font-family="sans-serif" font-size="14" lengthAdjust="spacing" textLength="31" x="14" y="312.2188">User</text><ellipse cx="32.5" cy="331.6719" fill="#E2E2F0" rx="16" ry="16" style="stroke:#181818;stroke-width:0.5;"/><path d="M32.5,351.6719 C36.5,351.6719 39.5,351.6719 43.5,347.6719 C51.5,347.6719 59.5,355.6719 59.5,363.6719 L59.5,367.6719 C59.5,371.6719 55.5,375.6719 51.5,375.6719 L13.5,375.6719 C9.5,375.6719 5.5,371.6719 5.5,367.6719 L5.5,363.6719 C5.5,355.6719 13.5,347.6719 21.5,347.6719 C25.5,351.6719 28.5,351.6719 32.5,351.6719 " fill="#E2E2F0" style="stroke:#181818;stroke-width:0.5;"/><rect fill="#E2E2F0" height="30.4883" rx="2.5" ry="2.5" style="stroke:#181818;stroke-width:0.5;" width="173" x="98" y="51"/><text fill="#000000" font-family="sans-serif" font-size="14" lengthAdjust="spacing" textLength="159" x="105" y="71.5352">Central Monitoring Site</text><rect fill="#E2E2F0" height="30.4883" rx="2.5" ry="2.5" style="stroke:#181818;stroke-width:0.5;" width="173" x="98" y="298.6836"/><text fill="#000000" font-family="sans-serif" font-size="14" lengthAdjust="spacing" textLength="159" x="105" y="319.2188">Central Monitoring Site</text><rect fill="#E2E2F0" height="30.4883" rx="2.5" ry="2.5" style="stroke:#181818;stroke-width:0.5;" width="104" x="305.5" y="51"/><text fill="#000000" font-family="sans-serif" font-size="14" lengthAdjust="spacing" textLength="90" x="312.5" y="71.5352">Web Gateway</text><rect fill="#E2E2F0" height="30.4883" rx="2.5" ry="2.5" style="stroke:#181818;stroke-width:0.5;" width="104" x="305.5" y="298.6836"/><text fill="#000000" font-family="sans-serif" font-size="14" lengthAdjust="spacing" textLength="90" x="312.5" y="319.2188">Web Gateway</text><polygon fill="#666666" points="345.5,122.7539,355.5,126.7539,345.5,130.7539,349.5,126.7539" style="stroke:#666666;stroke-width:1.0;"/><line style="stroke:#666666;stroke-width:1.0;" x1="184.5" x2="351.5" y1="126.7539" y2="126.7539"/><text fill="#666666" font-family="sans-serif" font-size="12" lengthAdjust="spacing" textLength="47" x="196.5" y="108.0898">Request</text><text fill="#666666" font-family="sans-serif" font-size="12" lengthAdjust="spacing" textLength="4" x="243.5" y="108.0898">&#160;</text><text fill="#666666" font-family="sans-serif" font-size="12" lengthAdjust="spacing" textLength="29" x="247.5" y="108.0898">beds</text><text fill="#666666" font-family="sans-serif" font-size="12" lengthAdjust="spacing" textLength="4" x="276.5" y="108.0898">&#160;</text><text fill="#666666" font-family="sans-serif" font-size="12" lengthAdjust="spacing" textLength="65" x="280.5" y="108.0898">information</text><text fill="#666666" font-family="sans-serif" font-size="12" lengthAdjust="spacing" textLength="55" x="216.5" y="122.2227">(including</text><text fill="#666666" font-family="sans-serif" font-size="12" lengthAdjust="spacing" textLength="4" x="271.5" y="122.2227">&#160;</text><text fill="#666666" font-family="sans-serif" font-size="12" lengthAdjust="spacing" textLength="50" x="275.5" y="122.2227">patients)</text><polygon fill="#666666" points="195.5,165.0195,185.5,169.0195,195.5,173.0195,191.5,169.0195" style="stroke:#666666;stroke-width:1.0;"/><line style="stroke:#666666;stroke-width:1.0;" x1="189.5" x2="356.5" y1="169.0195" y2="169.0195"/><text fill="#666666" font-family="sans-serif" font-size="12" lengthAdjust="spacing" textLength="28" x="209" y="150.3555">Send</text><text fill="#666666" font-family="sans-serif" font-size="12" lengthAdjust="spacing" textLength="4" x="237" y="150.3555">&#160;</text><text fill="#666666" font-family="sans-serif" font-size="12" lengthAdjust="spacing" textLength="23" x="241" y="150.3555">bed</text><text fill="#666666" font-family="sans-serif" font-size="12" lengthAdjust="spacing" textLength="4" x="264" y="150.3555">&#160;</text><text fill="#666666" font-family="sans-serif" font-size="12" lengthAdjust="spacing" textLength="65" x="268" y="150.3555">information</text><text fill="#666666" font-family="sans-serif" font-size="12" lengthAdjust="spacing" textLength="55" x="216.5" y="164.4883">(including</text><text fill="#666666" font-family="sans-serif" font-size="12" lengthAdjust="spacing" textLength="4" x="271.5" y="164.4883">&#160;</text><text fill="#666666" font-family="sans-serif" font-size="12" lengthAdjust="spacing" textLength="50" x="275.5" y="164.4883">patients)</text><polygon fill="#666666" points="43.5,193.1523,33.5,197.1523,43.5,201.1523,39.5,197.1523" style="stroke:#666666;stroke-width:1.0;"/><line style="stroke:#666666;stroke-width:1.0;" x1="37.5" x2="183.5" y1="197.1523" y2="197.1523"/><text fill="#666666" font-family="sans-serif" font-size="12" lengthAdjust="spacing" textLength="42" x="44.5" y="192.6211">Display</text><text fill="#666666" font-family="sans-serif" font-size="12" lengthAdjust="spacing" textLength="4" x="86.5" y="192.6211">&#160;</text><text fill="#666666" font-family="sans-serif" font-size="12" lengthAdjust="spacing" textLength="40" x="90.5" y="192.6211">patient</text><text fill="#666666" font-family="sans-serif" font-size="12" lengthAdjust="spacing" textLength="4" x="130.5" y="192.6211">&#160;</text><text fill="#666666" font-family="sans-serif" font-size="12" lengthAdjust="spacing" textLength="38" x="134.5" y="192.6211">details</text><polygon fill="#666666" points="172.5,235.418,182.5,239.418,172.5,243.418,176.5,239.418" style="stroke:#666666;stroke-width:1.0;"/><line style="stroke:#666666;stroke-width:1.0;" x1="32.5" x2="178.5" y1="239.418" y2="239.418"/><text fill="#666666" font-family="sans-serif" font-size="12" lengthAdjust="spacing" textLength="43" x="45" y="220.7539">Change</text><text fill="#666666" font-family="sans-serif" font-size="12" lengthAdjust="spacing" textLength="4" x="88" y="220.7539">&#160;</text><text fill="#666666" font-family="sans-serif" font-size="12" lengthAdjust="spacing" textLength="11" x="92" y="220.7539">to</text><text fill="#666666" font-family="sans-serif" font-size="12" lengthAdjust="spacing" textLength="4" x="103" y="220.7539">&#160;</text><text fill="#666666" font-family="sans-serif" font-size="12" lengthAdjust="spacing" textLength="40" x="107" y="220.7539">patient</text><text fill="#666666" font-family="sans-serif" font-size="12" lengthAdjust="spacing" textLength="4" x="147" y="220.7539">&#160;</text><text fill="#666666" font-family="sans-serif" font-size="12" lengthAdjust="spacing" textLength="21" x="151" y="220.7539">info</text><text fill="#666666" font-family="sans-serif" font-size="12" lengthAdjust="spacing" textLength="38" x="89.5" y="234.8867">details</text><polygon fill="#666666" points="43.5,277.6836,33.5,281.6836,43.5,285.6836,39.5,281.6836" style="stroke:#666666;stroke-width:1.0;"/><line style="stroke:#666666;stroke-width:1.0;" x1="37.5" x2="183.5" y1="281.6836" y2="281.6836"/><text fill="#666666" font-family="sans-serif" font-size="12" lengthAdjust="spacing" textLength="48" x="50" y="263.0195">Displays</text><text fill="#666666" font-family="sans-serif" font-size="12" lengthAdjust="spacing" textLength="4" x="98" y="263.0195">&#160;</text><text fill="#666666" font-family="sans-serif" font-size="12" lengthAdjust="spacing" textLength="40" x="102" y="263.0195">patient</text><text fill="#666666" font-family="sans-serif" font-size="12" lengthAdjust="spacing" textLength="4" x="142" y="263.0195">&#160;</text><text fill="#666666" font-family="sans-serif" font-size="12" lengthAdjust="spacing" textLength="21" x="146" y="263.0195">info</text><text fill="#666666" font-family="sans-serif" font-size="12" lengthAdjust="spacing" textLength="38" x="89.5" y="277.1523">details</text><!--SRC=[XOyzQmCn38Pt_GhrfdOeNJA5aiM5JbaQIiQWkrDJmPtiMZf2_dtiomS40js4zJplAp-9TiFKCxw7nLjOx48SKrHMNm5Gvp5ZyssS6oJ3gGoGABjqaaWTcr30J0EkeqfXHVUu4UUPxaQxXxVSuYSv7-Wu0mTk0Gg5hwiwunA_-6zYSsovDnJzYNaabwZuVBwovgVoKbhj1QfJr9gmn0rhNxt_jKjZ_KpnFiJIGCVh7djsai5WNj_Imo_fdj7ZZQirLnWVPzf36E04]--></g></svg>