<?xml version="1.0" encoding="us-ascii" standalone="no"?><svg xmlns="http://www.w3.org/2000/svg" xmlns:xlink="http://www.w3.org/1999/xlink" contentStyleType="text/css" height="886px" preserveAspectRatio="none" style="width:506px;height:886px;background:#FFFFFF;" version="1.1" viewBox="0 0 506 886" width="506px" zoomAndPan="magnify"><defs/><g><rect fill="none" height="560.3652" style="stroke:#000000;stroke-width:1.5;" width="489" x="10" y="226.2852"/><rect fill="none" height="204.2402" style="stroke:#000000;stroke-width:1.5;" width="469" x="20" y="420.4805"/><rect fill="none" height="116.6641" style="stroke:#000000;stroke-width:1.5;" width="331.5" x="147.5" y="501.0566"/><line style="stroke:#181818;stroke-width:0.5;stroke-dasharray:5.0,5.0;" x1="83" x2="83" y1="82.4883" y2="803.6504"/><line style="stroke:#181818;stroke-width:0.5;stroke-dasharray:5.0,5.0;" x1="243.5" x2="243.5" y1="82.4883" y2="803.6504"/><line style="stroke:#181818;stroke-width:0.5;stroke-dasharray:5.0,5.0;" x1="417" x2="417" y1="82.4883" y2="803.6504"/><text fill="#000000" font-family="sans-serif" font-size="14" lengthAdjust="spacing" textLength="100" x="30" y="79.5352">Technical User</text><ellipse cx="83" cy="21.5" fill="#E2E2F0" rx="16" ry="16" style="stroke:#181818;stroke-width:0.5;"/><path d="M83,41.5 C87,41.5 90,41.5 94,37.5 C102,37.5 110,45.5 110,53.5 L110,57.5 C110,61.5 106,65.5 102,65.5 L64,65.5 C60,65.5 56,61.5 56,57.5 L56,53.5 C56,45.5 64,37.5 72,37.5 C76,41.5 79,41.5 83,41.5 " fill="#E2E2F0" style="stroke:#181818;stroke-width:0.5;"/><text fill="#000000" font-family="sans-serif" font-size="14" lengthAdjust="spacing" textLength="100" x="30" y="816.1855">Technical User</text><ellipse cx="83" cy="835.6387" fill="#E2E2F0" rx="16" ry="16" style="stroke:#181818;stroke-width:0.5;"/><path d="M83,855.6387 C87,855.6387 90,855.6387 94,851.6387 C102,851.6387 110,859.6387 110,867.6387 L110,871.6387 C110,875.6387 106,879.6387 102,879.6387 L64,879.6387 C60,879.6387 56,875.6387 56,871.6387 L56,867.6387 C56,859.6387 64,851.6387 72,851.6387 C76,855.6387 79,855.6387 83,855.6387 " fill="#E2E2F0" style="stroke:#181818;stroke-width:0.5;"/><rect fill="#E2E2F0" height="30.4883" rx="2.5" ry="2.5" style="stroke:#181818;stroke-width:0.5;" width="173" x="157.5" y="51"/><text fill="#000000" font-family="sans-serif" font-size="14" lengthAdjust="spacing" textLength="159" x="164.5" y="71.5352">Central Monitoring Site</text><rect fill="#E2E2F0" height="30.4883" rx="2.5" ry="2.5" style="stroke:#181818;stroke-width:0.5;" width="173" x="157.5" y="802.6504"/><text fill="#000000" font-family="sans-serif" font-size="14" lengthAdjust="spacing" textLength="159" x="164.5" y="823.1855">Central Monitoring Site</text><rect fill="#E2E2F0" height="30.4883" rx="2.5" ry="2.5" style="stroke:#181818;stroke-width:0.5;" width="104" x="365" y="51"/><text fill="#000000" font-family="sans-serif" font-size="14" lengthAdjust="spacing" textLength="90" x="372" y="71.5352">Web Gateway</text><rect fill="#E2E2F0" height="30.4883" rx="2.5" ry="2.5" style="stroke:#181818;stroke-width:0.5;" width="104" x="365" y="802.6504"/><text fill="#000000" font-family="sans-serif" font-size="14" lengthAdjust="spacing" textLength="90" x="372" y="823.1855">Web Gateway</text><polygon fill="#666666" points="94,122.7539,84,126.7539,94,130.7539,90,126.7539" style="stroke:#666666;stroke-width:1.0;"/><line style="stroke:#666666;stroke-width:1.0;" x1="88" x2="243" y1="126.7539" y2="126.7539"/><text fill="#666666" font-family="sans-serif" font-size="12" lengthAdjust="spacing" textLength="35" x="102" y="108.0898">Shows</text><text fill="#666666" font-family="sans-serif" font-size="12" lengthAdjust="spacing" textLength="4" x="137" y="108.0898">&#160;</text><text fill="#666666" font-family="sans-serif" font-size="12" lengthAdjust="spacing" textLength="19" x="141" y="108.0898">ehr</text><text fill="#666666" font-family="sans-serif" font-size="12" lengthAdjust="spacing" textLength="4" x="160" y="108.0898">&#160;</text><text fill="#666666" font-family="sans-serif" font-size="12" lengthAdjust="spacing" textLength="61" x="164" y="108.0898">integration</text><text fill="#666666" font-family="sans-serif" font-size="12" lengthAdjust="spacing" textLength="27" x="150" y="122.2227">form</text><polygon fill="#666666" points="232,165.0195,242,169.0195,232,173.0195,236,169.0195" style="stroke:#666666;stroke-width:1.0;"/><line style="stroke:#666666;stroke-width:1.0;" x1="83" x2="238" y1="169.0195" y2="169.0195"/><text fill="#666666" font-family="sans-serif" font-size="12" lengthAdjust="spacing" textLength="49" x="95" y="150.3555">Provides</text><text fill="#666666" font-family="sans-serif" font-size="12" lengthAdjust="spacing" textLength="4" x="144" y="150.3555">&#160;</text><text fill="#666666" font-family="sans-serif" font-size="12" lengthAdjust="spacing" textLength="19" x="148" y="150.3555">ehr</text><text fill="#666666" font-family="sans-serif" font-size="12" lengthAdjust="spacing" textLength="4" x="167" y="150.3555">&#160;</text><text fill="#666666" font-family="sans-serif" font-size="12" lengthAdjust="spacing" textLength="61" x="171" y="150.3555">integration</text><text fill="#666666" font-family="sans-serif" font-size="12" lengthAdjust="spacing" textLength="26" x="150.5" y="164.4883">data</text><polygon fill="#666666" points="94,207.2852,84,211.2852,94,215.2852,90,211.2852" style="stroke:#666666;stroke-width:1.0;"/><line style="stroke:#666666;stroke-width:1.0;" x1="88" x2="243" y1="211.2852" y2="211.2852"/><text fill="#666666" font-family="sans-serif" font-size="12" lengthAdjust="spacing" textLength="35" x="107.5" y="192.6211">Shows</text><text fill="#666666" font-family="sans-serif" font-size="12" lengthAdjust="spacing" textLength="4" x="142.5" y="192.6211">&#160;</text><text fill="#666666" font-family="sans-serif" font-size="12" lengthAdjust="spacing" textLength="73" x="146.5" y="192.6211">Confirmation</text><text fill="#666666" font-family="sans-serif" font-size="12" lengthAdjust="spacing" textLength="35" x="146" y="206.7539">Modal</text><path d="M10,226.2852 L72,226.2852 L72,233.5957 L62,243.5957 L10,243.5957 L10,226.2852 " fill="#EEEEEE" style="stroke:#000000;stroke-width:1.5;"/><rect fill="none" height="560.3652" style="stroke:#000000;stroke-width:1.5;" width="489" x="10" y="226.2852"/><text fill="#000000" font-family="sans-serif" font-size="13" font-weight="bold" lengthAdjust="spacing" textLength="17" x="25" y="239.8535">alt</text><text fill="#000000" font-family="sans-serif" font-size="11" font-weight="bold" lengthAdjust="spacing" textLength="142" x="87" y="238.9199">[user cancels integration]</text><polygon fill="#666666" points="232,273.8613,242,277.8613,232,281.8613,236,277.8613" style="stroke:#666666;stroke-width:1.0;"/><line style="stroke:#666666;stroke-width:1.0;" x1="83" x2="238" y1="277.8613" y2="277.8613"/><text fill="#666666" font-family="sans-serif" font-size="12" lengthAdjust="spacing" textLength="44" x="105" y="259.1973">Presses</text><text fill="#666666" font-family="sans-serif" font-size="12" lengthAdjust="spacing" textLength="4" x="149" y="259.1973">&#160;</text><text fill="#666666" font-family="sans-serif" font-size="12" lengthAdjust="spacing" textLength="28" x="153" y="259.1973">back</text><text fill="#666666" font-family="sans-serif" font-size="12" lengthAdjust="spacing" textLength="4" x="181" y="259.1973">&#160;</text><text fill="#666666" font-family="sans-serif" font-size="12" lengthAdjust="spacing" textLength="11" x="185" y="259.1973">to</text><text fill="#666666" font-family="sans-serif" font-size="12" lengthAdjust="spacing" textLength="4" x="196" y="259.1973">&#160;</text><text fill="#666666" font-family="sans-serif" font-size="12" lengthAdjust="spacing" textLength="22" x="200" y="259.1973">edit</text><text fill="#666666" font-family="sans-serif" font-size="12" lengthAdjust="spacing" textLength="37" x="145" y="273.3301">button</text><polygon fill="#666666" points="94,316.127,84,320.127,94,324.127,90,320.127" style="stroke:#666666;stroke-width:1.0;"/><line style="stroke:#666666;stroke-width:1.0;" x1="88" x2="243" y1="320.127" y2="320.127"/><text fill="#666666" font-family="sans-serif" font-size="12" lengthAdjust="spacing" textLength="35" x="102" y="301.4629">Shows</text><text fill="#666666" font-family="sans-serif" font-size="12" lengthAdjust="spacing" textLength="4" x="137" y="301.4629">&#160;</text><text fill="#666666" font-family="sans-serif" font-size="12" lengthAdjust="spacing" textLength="19" x="141" y="301.4629">ehr</text><text fill="#666666" font-family="sans-serif" font-size="12" lengthAdjust="spacing" textLength="4" x="160" y="301.4629">&#160;</text><text fill="#666666" font-family="sans-serif" font-size="12" lengthAdjust="spacing" textLength="61" x="164" y="301.4629">integration</text><text fill="#666666" font-family="sans-serif" font-size="12" lengthAdjust="spacing" textLength="27" x="150" y="315.5957">form</text><line style="stroke:#000000;stroke-width:1.0;stroke-dasharray:2.0,2.0;" x1="10" x2="499" y1="329.127" y2="329.127"/><text fill="#000000" font-family="sans-serif" font-size="11" font-weight="bold" lengthAdjust="spacing" textLength="142" x="15" y="339.7617">[user accepts integration]</text><polygon fill="#666666" points="232,359.2148,242,363.2148,232,367.2148,236,363.2148" style="stroke:#666666;stroke-width:1.0;"/><line style="stroke:#666666;stroke-width:1.0;" x1="83" x2="238" y1="363.2148" y2="363.2148"/><text fill="#666666" font-family="sans-serif" font-size="12" lengthAdjust="spacing" textLength="51" x="123" y="358.6836">Confirms</text><text fill="#666666" font-family="sans-serif" font-size="12" lengthAdjust="spacing" textLength="4" x="174" y="358.6836">&#160;</text><text fill="#666666" font-family="sans-serif" font-size="12" lengthAdjust="spacing" textLength="26" x="178" y="358.6836">data</text><polygon fill="#666666" points="94,401.4805,84,405.4805,94,409.4805,90,405.4805" style="stroke:#666666;stroke-width:1.0;"/><line style="stroke:#666666;stroke-width:1.0;" x1="88" x2="243" y1="405.4805" y2="405.4805"/><text fill="#666666" font-family="sans-serif" font-size="12" lengthAdjust="spacing" textLength="35" x="116" y="386.8164">Shows</text><text fill="#666666" font-family="sans-serif" font-size="12" lengthAdjust="spacing" textLength="4" x="151" y="386.8164">&#160;</text><text fill="#666666" font-family="sans-serif" font-size="12" lengthAdjust="spacing" textLength="56" x="155" y="386.8164">password</text><text fill="#666666" font-family="sans-serif" font-size="12" lengthAdjust="spacing" textLength="55" x="116" y="400.9492">validation</text><text fill="#666666" font-family="sans-serif" font-size="12" lengthAdjust="spacing" textLength="4" x="171" y="400.9492">&#160;</text><text fill="#666666" font-family="sans-serif" font-size="12" lengthAdjust="spacing" textLength="36" x="175" y="400.9492">modal</text><path d="M20,420.4805 L94,420.4805 L94,427.791 L84,437.791 L20,437.791 L20,420.4805 " fill="#EEEEEE" style="stroke:#000000;stroke-width:1.5;"/><rect fill="none" height="204.2402" style="stroke:#000000;stroke-width:1.5;" width="469" x="20" y="420.4805"/><text fill="#000000" font-family="sans-serif" font-size="13" font-weight="bold" lengthAdjust="spacing" textLength="29" x="35" y="434.0488">loop</text><text fill="#000000" font-family="sans-serif" font-size="11" font-weight="bold" lengthAdjust="spacing" textLength="186" x="109" y="433.1152">[while password is not validated]</text><polygon fill="#666666" points="232,453.9238,242,457.9238,232,461.9238,236,457.9238" style="stroke:#666666;stroke-width:1.0;"/><line style="stroke:#666666;stroke-width:1.0;" x1="83" x2="238" y1="457.9238" y2="457.9238"/><text fill="#666666" font-family="sans-serif" font-size="12" lengthAdjust="spacing" textLength="36" x="115.5" y="453.3926">Enters</text><text fill="#666666" font-family="sans-serif" font-size="12" lengthAdjust="spacing" textLength="4" x="151.5" y="453.3926">&#160;</text><text fill="#666666" font-family="sans-serif" font-size="12" lengthAdjust="spacing" textLength="56" x="155.5" y="453.3926">password</text><polygon fill="#666666" points="405,482.0566,415,486.0566,405,490.0566,409,486.0566" style="stroke:#666666;stroke-width:1.0;"/><line style="stroke:#666666;stroke-width:1.0;" x1="244" x2="411" y1="486.0566" y2="486.0566"/><text fill="#666666" font-family="sans-serif" font-size="12" lengthAdjust="spacing" textLength="53" x="256" y="481.5254">Validates</text><text fill="#666666" font-family="sans-serif" font-size="12" lengthAdjust="spacing" textLength="4" x="309" y="481.5254">&#160;</text><text fill="#666666" font-family="sans-serif" font-size="12" lengthAdjust="spacing" textLength="25" x="313" y="481.5254">user</text><text fill="#666666" font-family="sans-serif" font-size="12" lengthAdjust="spacing" textLength="4" x="338" y="481.5254">&#160;</text><text fill="#666666" font-family="sans-serif" font-size="12" lengthAdjust="spacing" textLength="63" x="342" y="481.5254">credentials</text><path d="M147.5,501.0566 L209.5,501.0566 L209.5,508.3672 L199.5,518.3672 L147.5,518.3672 L147.5,501.0566 " fill="#EEEEEE" style="stroke:#000000;stroke-width:1.5;"/><rect fill="none" height="116.6641" style="stroke:#000000;stroke-width:1.5;" width="331.5" x="147.5" y="501.0566"/><text fill="#000000" font-family="sans-serif" font-size="13" font-weight="bold" lengthAdjust="spacing" textLength="17" x="162.5" y="514.625">alt</text><text fill="#000000" font-family="sans-serif" font-size="11" font-weight="bold" lengthAdjust="spacing" textLength="107" x="224.5" y="513.6914">[password is valid]</text><polygon fill="#666666" points="255,534.5,245,538.5,255,542.5,251,538.5" style="stroke:#666666;stroke-width:1.0;"/><line style="stroke:#666666;stroke-width:1.0;" x1="249" x2="416" y1="538.5" y2="538.5"/><text fill="#666666" font-family="sans-serif" font-size="12" lengthAdjust="spacing" textLength="55" x="281" y="533.9688">Password</text><text fill="#666666" font-family="sans-serif" font-size="12" lengthAdjust="spacing" textLength="4" x="336" y="533.9688">&#160;</text><text fill="#666666" font-family="sans-serif" font-size="12" lengthAdjust="spacing" textLength="9" x="340" y="533.9688">is</text><text fill="#666666" font-family="sans-serif" font-size="12" lengthAdjust="spacing" textLength="4" x="349" y="533.9688">&#160;</text><text fill="#666666" font-family="sans-serif" font-size="12" lengthAdjust="spacing" textLength="27" x="353" y="533.9688">valid</text><line style="stroke:#000000;stroke-width:1.0;stroke-dasharray:2.0,2.0;" x1="147.5" x2="479" y1="547.5" y2="547.5"/><text fill="#000000" font-family="sans-serif" font-size="11" font-weight="bold" lengthAdjust="spacing" textLength="118" x="152.5" y="558.1348">[password is invalid]</text><polygon fill="#666666" points="255,577.5879,245,581.5879,255,585.5879,251,581.5879" style="stroke:#666666;stroke-width:1.0;"/><line style="stroke:#666666;stroke-width:1.0;" x1="249" x2="416" y1="581.5879" y2="581.5879"/><text fill="#666666" font-family="sans-serif" font-size="12" lengthAdjust="spacing" textLength="55" x="276" y="577.0566">Password</text><text fill="#666666" font-family="sans-serif" font-size="12" lengthAdjust="spacing" textLength="4" x="331" y="577.0566">&#160;</text><text fill="#666666" font-family="sans-serif" font-size="12" lengthAdjust="spacing" textLength="9" x="335" y="577.0566">is</text><text fill="#666666" font-family="sans-serif" font-size="12" lengthAdjust="spacing" textLength="4" x="344" y="577.0566">&#160;</text><text fill="#666666" font-family="sans-serif" font-size="12" lengthAdjust="spacing" textLength="37" x="348" y="577.0566">invalid</text><polygon fill="#666666" points="405,605.7207,415,609.7207,405,613.7207,409,609.7207" style="stroke:#666666;stroke-width:1.0;"/><line style="stroke:#666666;stroke-width:1.0;" x1="244" x2="411" y1="609.7207" y2="609.7207"/><text fill="#666666" font-family="sans-serif" font-size="12" lengthAdjust="spacing" textLength="35" x="269" y="605.1895">Shows</text><text fill="#666666" font-family="sans-serif" font-size="12" lengthAdjust="spacing" textLength="4" x="304" y="605.1895">&#160;</text><text fill="#666666" font-family="sans-serif" font-size="12" lengthAdjust="spacing" textLength="29" x="308" y="605.1895">error</text><text fill="#666666" font-family="sans-serif" font-size="12" lengthAdjust="spacing" textLength="4" x="337" y="605.1895">&#160;</text><text fill="#666666" font-family="sans-serif" font-size="12" lengthAdjust="spacing" textLength="51" x="341" y="605.1895">message</text><polygon fill="#666666" points="94,661.9863,84,665.9863,94,669.9863,90,665.9863" style="stroke:#666666;stroke-width:1.0;"/><line style="stroke:#666666;stroke-width:1.0;" x1="88" x2="243" y1="665.9863" y2="665.9863"/><text fill="#666666" font-family="sans-serif" font-size="12" lengthAdjust="spacing" textLength="35" x="106.5" y="647.3223">Shows</text><text fill="#666666" font-family="sans-serif" font-size="12" lengthAdjust="spacing" textLength="4" x="141.5" y="647.3223">&#160;</text><text fill="#666666" font-family="sans-serif" font-size="12" lengthAdjust="spacing" textLength="61" x="145.5" y="647.3223">integration</text><text fill="#666666" font-family="sans-serif" font-size="12" lengthAdjust="spacing" textLength="4" x="206.5" y="647.3223">&#160;</text><text fill="#666666" font-family="sans-serif" font-size="12" lengthAdjust="spacing" textLength="10" x="210.5" y="647.3223">in</text><text fill="#666666" font-family="sans-serif" font-size="12" lengthAdjust="spacing" textLength="51" x="110.5" y="661.4551">progress</text><text fill="#666666" font-family="sans-serif" font-size="12" lengthAdjust="spacing" textLength="4" x="161.5" y="661.4551">&#160;</text><text fill="#666666" font-family="sans-serif" font-size="12" lengthAdjust="spacing" textLength="51" x="165.5" y="661.4551">message</text><polygon fill="#666666" points="405,690.1191,415,694.1191,405,698.1191,409,694.1191" style="stroke:#666666;stroke-width:1.0;"/><line style="stroke:#666666;stroke-width:1.0;" x1="244" x2="411" y1="694.1191" y2="694.1191"/><text fill="#666666" font-family="sans-serif" font-size="12" lengthAdjust="spacing" textLength="28" x="269" y="689.5879">Send</text><text fill="#666666" font-family="sans-serif" font-size="12" lengthAdjust="spacing" textLength="4" x="297" y="689.5879">&#160;</text><text fill="#666666" font-family="sans-serif" font-size="12" lengthAdjust="spacing" textLength="61" x="301" y="689.5879">integration</text><text fill="#666666" font-family="sans-serif" font-size="12" lengthAdjust="spacing" textLength="4" x="362" y="689.5879">&#160;</text><text fill="#666666" font-family="sans-serif" font-size="12" lengthAdjust="spacing" textLength="26" x="366" y="689.5879">data</text><polygon fill="#666666" points="255,732.3848,245,736.3848,255,740.3848,251,736.3848" style="stroke:#666666;stroke-width:1.0;"/><line style="stroke:#666666;stroke-width:1.0;" x1="249" x2="416" y1="736.3848" y2="736.3848"/><text fill="#666666" font-family="sans-serif" font-size="12" lengthAdjust="spacing" textLength="44" x="276" y="717.7207">Returns</text><text fill="#666666" font-family="sans-serif" font-size="12" lengthAdjust="spacing" textLength="4" x="320" y="717.7207">&#160;</text><text fill="#666666" font-family="sans-serif" font-size="12" lengthAdjust="spacing" textLength="61" x="324" y="717.7207">integration</text><text fill="#666666" font-family="sans-serif" font-size="12" lengthAdjust="spacing" textLength="58" x="301.5" y="731.8535">successful</text><polygon fill="#666666" points="94,774.6504,84,778.6504,94,782.6504,90,778.6504" style="stroke:#666666;stroke-width:1.0;"/><line style="stroke:#666666;stroke-width:1.0;" x1="88" x2="243" y1="778.6504" y2="778.6504"/><text fill="#666666" font-family="sans-serif" font-size="12" lengthAdjust="spacing" textLength="43" x="97.5" y="759.9863">Notifies</text><text fill="#666666" font-family="sans-serif" font-size="12" lengthAdjust="spacing" textLength="4" x="140.5" y="759.9863">&#160;</text><text fill="#666666" font-family="sans-serif" font-size="12" lengthAdjust="spacing" textLength="61" x="144.5" y="759.9863">integration</text><text fill="#666666" font-family="sans-serif" font-size="12" lengthAdjust="spacing" textLength="4" x="205.5" y="759.9863">&#160;</text><text fill="#666666" font-family="sans-serif" font-size="12" lengthAdjust="spacing" textLength="20" x="209.5" y="759.9863">has</text><text fill="#666666" font-family="sans-serif" font-size="12" lengthAdjust="spacing" textLength="45" x="141" y="774.1191">finished</text><!--SRC=[bPDDRzim38Rl_XLSxiCkFGL5BqRHKuTXNTVZm4XqJ4mM3OckiNzVodQJE4cnJHSRqCFtvPS-SNHXy0ItzSsN-kPNBLqlaQBULHKwbGJpsVmWrqPs6E0vKze0O8R1_geUaxBZ7gF2fhR8PCoZHBPWZdjuOgLDeLsNr_0BxU01bKRyCm4ZxQhAAFXyDqd35fvQ6JDGcu2ZqZwXiaHe97NLH1XP0hRmBSahUxfaFIfU5QqbDfowcNeKZy4g3Zf33gEZa4-LgjA6SrFAsJntw7w32f1dXTsWkj3_N8jPqOoXSzJhtuoNtFDStKTMFUOyIlBmYe7zRDTDXPQ88DB3s7AW8yWPekWxJxvQfdzcVs_9fQF-WLgIi3aQz7CHoKj74tbR3iQG3tnfzwdtv7kuBQT87Tlz8JhrxrI9utzeNODNfIoJIycUGsSZnpqThUCS-FwzDeZJUNE4Fic-RCvAQsreQfTRV574Tz8XnRL-7co3Scw6S9xE5hwASiEq3cZjvJKSERSsxrB56m00]--></g></svg>