<?xml version="1.0" encoding="us-ascii" standalone="no"?><svg xmlns="http://www.w3.org/2000/svg" xmlns:xlink="http://www.w3.org/1999/xlink" contentStyleType="text/css" height="810px" preserveAspectRatio="none" style="width:750px;height:810px;background:#FFFFFF;" version="1.1" viewBox="0 0 750 810" width="750px" zoomAndPan="magnify"><defs/><g><rect fill="none" height="45.4434" style="stroke:#000000;stroke-width:1.5;" width="325" x="10" y="226.1523"/><rect fill="none" height="73.5762" style="stroke:#000000;stroke-width:1.5;" width="390" x="10" y="398.2598"/><line style="stroke:#181818;stroke-width:0.5;stroke-dasharray:5.0,5.0;" x1="65" x2="65" y1="82.4883" y2="727.1641"/><line style="stroke:#181818;stroke-width:0.5;stroke-dasharray:5.0,5.0;" x1="238" x2="238" y1="82.4883" y2="727.1641"/><line style="stroke:#181818;stroke-width:0.5;stroke-dasharray:5.0,5.0;" x1="400.5" x2="400.5" y1="82.4883" y2="727.1641"/><line style="stroke:#181818;stroke-width:0.5;stroke-dasharray:5.0,5.0;" x1="510.5" x2="510.5" y1="82.4883" y2="727.1641"/><line style="stroke:#181818;stroke-width:0.5;stroke-dasharray:5.0,5.0;" x1="677.5" x2="677.5" y1="82.4883" y2="727.1641"/><text fill="#000000" font-family="sans-serif" font-size="14" lengthAdjust="spacing" textLength="85" x="20" y="79.5352">Clinical User</text><ellipse cx="65.5" cy="21.5" fill="#E2E2F0" rx="16" ry="16" style="stroke:#181818;stroke-width:0.5;"/><path d="M65.5,41.5 C69.5,41.5 72.5,41.5 76.5,37.5 C84.5,37.5 92.5,45.5 92.5,53.5 L92.5,57.5 C92.5,61.5 88.5,65.5 84.5,65.5 L46.5,65.5 C42.5,65.5 38.5,61.5 38.5,57.5 L38.5,53.5 C38.5,45.5 46.5,37.5 54.5,37.5 C58.5,41.5 61.5,41.5 65.5,41.5 " fill="#E2E2F0" style="stroke:#181818;stroke-width:0.5;"/><text fill="#000000" font-family="sans-serif" font-size="14" lengthAdjust="spacing" textLength="85" x="20" y="739.6992">Clinical User</text><ellipse cx="65.5" cy="759.1523" fill="#E2E2F0" rx="16" ry="16" style="stroke:#181818;stroke-width:0.5;"/><path d="M65.5,779.1523 C69.5,779.1523 72.5,779.1523 76.5,775.1523 C84.5,775.1523 92.5,783.1523 92.5,791.1523 L92.5,795.1523 C92.5,799.1523 88.5,803.1523 84.5,803.1523 L46.5,803.1523 C42.5,803.1523 38.5,799.1523 38.5,795.1523 L38.5,791.1523 C38.5,783.1523 46.5,775.1523 54.5,775.1523 C58.5,779.1523 61.5,779.1523 65.5,779.1523 " fill="#E2E2F0" style="stroke:#181818;stroke-width:0.5;"/><rect fill="#E2E2F0" height="30.4883" rx="2.5" ry="2.5" style="stroke:#181818;stroke-width:0.5;" width="173" x="152" y="51"/><text fill="#000000" font-family="sans-serif" font-size="14" lengthAdjust="spacing" textLength="159" x="159" y="71.5352">Central Monitoring Site</text><rect fill="#E2E2F0" height="30.4883" rx="2.5" ry="2.5" style="stroke:#181818;stroke-width:0.5;" width="173" x="152" y="726.1641"/><text fill="#000000" font-family="sans-serif" font-size="14" lengthAdjust="spacing" textLength="159" x="159" y="746.6992">Central Monitoring Site</text><rect fill="#E2E2F0" height="30.4883" rx="2.5" ry="2.5" style="stroke:#181818;stroke-width:0.5;" width="104" x="348.5" y="51"/><text fill="#000000" font-family="sans-serif" font-size="14" lengthAdjust="spacing" textLength="90" x="355.5" y="71.5352">Web Gateway</text><rect fill="#E2E2F0" height="30.4883" rx="2.5" ry="2.5" style="stroke:#181818;stroke-width:0.5;" width="104" x="348.5" y="726.1641"/><text fill="#000000" font-family="sans-serif" font-size="14" lengthAdjust="spacing" textLength="90" x="355.5" y="746.6992">Web Gateway</text><rect fill="#E2E2F0" height="30.4883" rx="2.5" ry="2.5" style="stroke:#181818;stroke-width:0.5;" width="96" x="462.5" y="51"/><text fill="#000000" font-family="sans-serif" font-size="14" lengthAdjust="spacing" textLength="82" x="469.5" y="71.5352">Web Worker</text><rect fill="#E2E2F0" height="30.4883" rx="2.5" ry="2.5" style="stroke:#181818;stroke-width:0.5;" width="96" x="462.5" y="726.1641"/><text fill="#000000" font-family="sans-serif" font-size="14" lengthAdjust="spacing" textLength="82" x="469.5" y="746.6992">Web Worker</text><rect fill="#E2E2F0" height="30.4883" rx="2.5" ry="2.5" style="stroke:#181818;stroke-width:0.5;" width="134" x="610.5" y="51"/><text fill="#000000" font-family="sans-serif" font-size="14" lengthAdjust="spacing" textLength="120" x="617.5" y="71.5352">Realtime Gateway</text><rect fill="#E2E2F0" height="30.4883" rx="2.5" ry="2.5" style="stroke:#181818;stroke-width:0.5;" width="134" x="610.5" y="726.1641"/><text fill="#000000" font-family="sans-serif" font-size="14" lengthAdjust="spacing" textLength="120" x="617.5" y="746.6992">Realtime Gateway</text><polygon fill="#666666" points="76.5,122.7539,66.5,126.7539,76.5,130.7539,72.5,126.7539" style="stroke:#666666;stroke-width:1.0;"/><line style="stroke:#666666;stroke-width:1.0;" x1="70.5" x2="237.5" y1="126.7539" y2="126.7539"/><text fill="#666666" font-family="sans-serif" font-size="12" lengthAdjust="spacing" textLength="35" x="82.5" y="108.0898">Shows</text><text fill="#666666" font-family="sans-serif" font-size="12" lengthAdjust="spacing" textLength="4" x="117.5" y="108.0898">&#160;</text><text fill="#666666" font-family="sans-serif" font-size="12" lengthAdjust="spacing" textLength="22" x="121.5" y="108.0898">Bed</text><text fill="#666666" font-family="sans-serif" font-size="12" lengthAdjust="spacing" textLength="4" x="143.5" y="108.0898">&#160;</text><text fill="#666666" font-family="sans-serif" font-size="12" lengthAdjust="spacing" textLength="59" x="147.5" y="108.0898">connected</text><text fill="#666666" font-family="sans-serif" font-size="12" lengthAdjust="spacing" textLength="4" x="206.5" y="108.0898">&#160;</text><text fill="#666666" font-family="sans-serif" font-size="12" lengthAdjust="spacing" textLength="11" x="210.5" y="108.0898">to</text><text fill="#666666" font-family="sans-serif" font-size="12" lengthAdjust="spacing" textLength="17" x="79.5" y="122.2227">PM</text><text fill="#666666" font-family="sans-serif" font-size="12" lengthAdjust="spacing" textLength="4" x="96.5" y="122.2227">&#160;</text><text fill="#666666" font-family="sans-serif" font-size="12" lengthAdjust="spacing" textLength="41" x="100.5" y="122.2227">without</text><text fill="#666666" font-family="sans-serif" font-size="12" lengthAdjust="spacing" textLength="4" x="141.5" y="122.2227">&#160;</text><text fill="#666666" font-family="sans-serif" font-size="12" lengthAdjust="spacing" textLength="33" x="145.5" y="122.2227">active</text><text fill="#666666" font-family="sans-serif" font-size="12" lengthAdjust="spacing" textLength="4" x="178.5" y="122.2227">&#160;</text><text fill="#666666" font-family="sans-serif" font-size="12" lengthAdjust="spacing" textLength="42" x="182.5" y="122.2227">session</text><polygon fill="#666666" points="226.5,150.8867,236.5,154.8867,226.5,158.8867,230.5,154.8867" style="stroke:#666666;stroke-width:1.0;"/><line style="stroke:#666666;stroke-width:1.0;" x1="65.5" x2="232.5" y1="154.8867" y2="154.8867"/><text fill="#666666" font-family="sans-serif" font-size="12" lengthAdjust="spacing" textLength="33" x="78.5" y="150.3555">Select</text><text fill="#666666" font-family="sans-serif" font-size="12" lengthAdjust="spacing" textLength="4" x="111.5" y="150.3555">&#160;</text><text fill="#666666" font-family="sans-serif" font-size="12" lengthAdjust="spacing" textLength="32" x="115.5" y="150.3555">Quick</text><text fill="#666666" font-family="sans-serif" font-size="12" lengthAdjust="spacing" textLength="4" x="147.5" y="150.3555">&#160;</text><text fill="#666666" font-family="sans-serif" font-size="12" lengthAdjust="spacing" textLength="34" x="151.5" y="150.3555">Admit</text><text fill="#666666" font-family="sans-serif" font-size="12" lengthAdjust="spacing" textLength="4" x="185.5" y="150.3555">&#160;</text><text fill="#666666" font-family="sans-serif" font-size="12" lengthAdjust="spacing" textLength="36" x="189.5" y="150.3555">option</text><polygon fill="#666666" points="76.5,179.0195,66.5,183.0195,76.5,187.0195,72.5,183.0195" style="stroke:#666666;stroke-width:1.0;"/><line style="stroke:#666666;stroke-width:1.0;" x1="70.5" x2="237.5" y1="183.0195" y2="183.0195"/><text fill="#666666" font-family="sans-serif" font-size="12" lengthAdjust="spacing" textLength="35" x="83" y="178.4883">Shows</text><text fill="#666666" font-family="sans-serif" font-size="12" lengthAdjust="spacing" textLength="4" x="118" y="178.4883">&#160;</text><text fill="#666666" font-family="sans-serif" font-size="12" lengthAdjust="spacing" textLength="31" x="122" y="178.4883">quick</text><text fill="#666666" font-family="sans-serif" font-size="12" lengthAdjust="spacing" textLength="4" x="153" y="178.4883">&#160;</text><text fill="#666666" font-family="sans-serif" font-size="12" lengthAdjust="spacing" textLength="33" x="157" y="178.4883">admit</text><text fill="#666666" font-family="sans-serif" font-size="12" lengthAdjust="spacing" textLength="4" x="190" y="178.4883">&#160;</text><text fill="#666666" font-family="sans-serif" font-size="12" lengthAdjust="spacing" textLength="27" x="194" y="178.4883">form</text><polygon fill="#666666" points="226.5,207.1523,236.5,211.1523,226.5,215.1523,230.5,211.1523" style="stroke:#666666;stroke-width:1.0;"/><line style="stroke:#666666;stroke-width:1.0;" x1="65.5" x2="232.5" y1="211.1523" y2="211.1523"/><text fill="#666666" font-family="sans-serif" font-size="12" lengthAdjust="spacing" textLength="36" x="78" y="206.6211">Enters</text><text fill="#666666" font-family="sans-serif" font-size="12" lengthAdjust="spacing" textLength="4" x="114" y="206.6211">&#160;</text><text fill="#666666" font-family="sans-serif" font-size="12" lengthAdjust="spacing" textLength="22" x="118" y="206.6211">first</text><text fill="#666666" font-family="sans-serif" font-size="12" lengthAdjust="spacing" textLength="4" x="140" y="206.6211">&#160;</text><text fill="#666666" font-family="sans-serif" font-size="12" lengthAdjust="spacing" textLength="22" x="144" y="206.6211">and</text><text fill="#666666" font-family="sans-serif" font-size="12" lengthAdjust="spacing" textLength="4" x="166" y="206.6211">&#160;</text><text fill="#666666" font-family="sans-serif" font-size="12" lengthAdjust="spacing" textLength="20" x="170" y="206.6211">last</text><text fill="#666666" font-family="sans-serif" font-size="12" lengthAdjust="spacing" textLength="4" x="190" y="206.6211">&#160;</text><text fill="#666666" font-family="sans-serif" font-size="12" lengthAdjust="spacing" textLength="32" x="194" y="206.6211">name</text><path d="M10,226.1523 L72,226.1523 L72,233.4629 L62,243.4629 L10,243.4629 L10,226.1523 " fill="#EEEEEE" style="stroke:#000000;stroke-width:1.5;"/><rect fill="none" height="45.4434" style="stroke:#000000;stroke-width:1.5;" width="325" x="10" y="226.1523"/><text fill="#000000" font-family="sans-serif" font-size="13" font-weight="bold" lengthAdjust="spacing" textLength="17" x="25" y="239.7207">alt</text><text fill="#000000" font-family="sans-serif" font-size="11" font-weight="bold" lengthAdjust="spacing" textLength="223" x="87" y="238.7871">[user wants to add patient date of birth]</text><polygon fill="#666666" points="226.5,259.5957,236.5,263.5957,226.5,267.5957,230.5,263.5957" style="stroke:#666666;stroke-width:1.0;"/><line style="stroke:#666666;stroke-width:1.0;" x1="65.5" x2="232.5" y1="263.5957" y2="263.5957"/><text fill="#666666" font-family="sans-serif" font-size="12" lengthAdjust="spacing" textLength="36" x="98.5" y="259.0645">Enters</text><text fill="#666666" font-family="sans-serif" font-size="12" lengthAdjust="spacing" textLength="4" x="134.5" y="259.0645">&#160;</text><text fill="#666666" font-family="sans-serif" font-size="12" lengthAdjust="spacing" textLength="40" x="138.5" y="259.0645">patient</text><text fill="#666666" font-family="sans-serif" font-size="12" lengthAdjust="spacing" textLength="4" x="178.5" y="259.0645">&#160;</text><text fill="#666666" font-family="sans-serif" font-size="12" lengthAdjust="spacing" textLength="23" x="182.5" y="259.0645">dob</text><polygon fill="#666666" points="226.5,308.8613,236.5,312.8613,226.5,316.8613,230.5,312.8613" style="stroke:#666666;stroke-width:1.0;"/><line style="stroke:#666666;stroke-width:1.0;" x1="65.5" x2="232.5" y1="312.8613" y2="312.8613"/><text fill="#666666" font-family="sans-serif" font-size="12" lengthAdjust="spacing" textLength="34" x="88" y="294.1973">Sends</text><text fill="#666666" font-family="sans-serif" font-size="12" lengthAdjust="spacing" textLength="4" x="122" y="294.1973">&#160;</text><text fill="#666666" font-family="sans-serif" font-size="12" lengthAdjust="spacing" textLength="40" x="126" y="294.1973">patient</text><text fill="#666666" font-family="sans-serif" font-size="12" lengthAdjust="spacing" textLength="4" x="166" y="294.1973">&#160;</text><text fill="#666666" font-family="sans-serif" font-size="12" lengthAdjust="spacing" textLength="26" x="170" y="294.1973">data</text><text fill="#666666" font-family="sans-serif" font-size="12" lengthAdjust="spacing" textLength="4" x="196" y="294.1973">&#160;</text><text fill="#666666" font-family="sans-serif" font-size="12" lengthAdjust="spacing" textLength="16" x="200" y="294.1973">for</text><text fill="#666666" font-family="sans-serif" font-size="12" lengthAdjust="spacing" textLength="31" x="118" y="308.3301">quick</text><text fill="#666666" font-family="sans-serif" font-size="12" lengthAdjust="spacing" textLength="4" x="149" y="308.3301">&#160;</text><text fill="#666666" font-family="sans-serif" font-size="12" lengthAdjust="spacing" textLength="33" x="153" y="308.3301">admit</text><polygon fill="#666666" points="76.5,351.127,66.5,355.127,76.5,359.127,72.5,355.127" style="stroke:#666666;stroke-width:1.0;"/><line style="stroke:#666666;stroke-width:1.0;" x1="70.5" x2="237.5" y1="355.127" y2="355.127"/><text fill="#666666" font-family="sans-serif" font-size="12" lengthAdjust="spacing" textLength="35" x="97" y="336.4629">Shows</text><text fill="#666666" font-family="sans-serif" font-size="12" lengthAdjust="spacing" textLength="4" x="132" y="336.4629">&#160;</text><text fill="#666666" font-family="sans-serif" font-size="12" lengthAdjust="spacing" textLength="71" x="136" y="336.4629">confirmation</text><text fill="#666666" font-family="sans-serif" font-size="12" lengthAdjust="spacing" textLength="51" x="98" y="350.5957">message</text><text fill="#666666" font-family="sans-serif" font-size="12" lengthAdjust="spacing" textLength="4" x="149" y="350.5957">&#160;</text><text fill="#666666" font-family="sans-serif" font-size="12" lengthAdjust="spacing" textLength="23" x="153" y="350.5957">with</text><text fill="#666666" font-family="sans-serif" font-size="12" lengthAdjust="spacing" textLength="4" x="176" y="350.5957">&#160;</text><text fill="#666666" font-family="sans-serif" font-size="12" lengthAdjust="spacing" textLength="26" x="180" y="350.5957">data</text><polygon fill="#666666" points="226.5,379.2598,236.5,383.2598,226.5,387.2598,230.5,383.2598" style="stroke:#666666;stroke-width:1.0;"/><line style="stroke:#666666;stroke-width:1.0;" x1="65.5" x2="232.5" y1="383.2598" y2="383.2598"/><text fill="#666666" font-family="sans-serif" font-size="12" lengthAdjust="spacing" textLength="51" x="102.5" y="378.7285">Confirms</text><text fill="#666666" font-family="sans-serif" font-size="12" lengthAdjust="spacing" textLength="4" x="153.5" y="378.7285">&#160;</text><text fill="#666666" font-family="sans-serif" font-size="12" lengthAdjust="spacing" textLength="44" x="157.5" y="378.7285">request</text><path d="M10,398.2598 L72,398.2598 L72,405.5703 L62,415.5703 L10,415.5703 L10,398.2598 " fill="#EEEEEE" style="stroke:#000000;stroke-width:1.5;"/><rect fill="none" height="73.5762" style="stroke:#000000;stroke-width:1.5;" width="390" x="10" y="398.2598"/><text fill="#000000" font-family="sans-serif" font-size="13" font-weight="bold" lengthAdjust="spacing" textLength="17" x="25" y="411.8281">alt</text><text fill="#000000" font-family="sans-serif" font-size="11" font-weight="bold" lengthAdjust="spacing" textLength="308" x="87" y="410.8945">[dob was entered and patient is less than 12 years Old]</text><polygon fill="#666666" points="76.5,431.7031,66.5,435.7031,76.5,439.7031,72.5,435.7031" style="stroke:#666666;stroke-width:1.0;"/><line style="stroke:#666666;stroke-width:1.0;" x1="70.5" x2="237.5" y1="435.7031" y2="435.7031"/><text fill="#666666" font-family="sans-serif" font-size="12" lengthAdjust="spacing" textLength="35" x="77.5" y="431.1719">Shows</text><text fill="#666666" font-family="sans-serif" font-size="12" lengthAdjust="spacing" textLength="4" x="112.5" y="431.1719">&#160;</text><text fill="#666666" font-family="sans-serif" font-size="12" lengthAdjust="spacing" textLength="21" x="116.5" y="431.1719">age</text><text fill="#666666" font-family="sans-serif" font-size="12" lengthAdjust="spacing" textLength="4" x="137.5" y="431.1719">&#160;</text><text fill="#666666" font-family="sans-serif" font-size="12" lengthAdjust="spacing" textLength="45" x="141.5" y="431.1719">warning</text><text fill="#666666" font-family="sans-serif" font-size="12" lengthAdjust="spacing" textLength="4" x="186.5" y="431.1719">&#160;</text><text fill="#666666" font-family="sans-serif" font-size="12" lengthAdjust="spacing" textLength="36" x="190.5" y="431.1719">modal</text><polygon fill="#666666" points="226.5,459.8359,236.5,463.8359,226.5,467.8359,230.5,463.8359" style="stroke:#666666;stroke-width:1.0;"/><line style="stroke:#666666;stroke-width:1.0;" x1="65.5" x2="232.5" y1="463.8359" y2="463.8359"/><text fill="#666666" font-family="sans-serif" font-size="12" lengthAdjust="spacing" textLength="51" x="104.5" y="459.3047">Confirms</text><text fill="#666666" font-family="sans-serif" font-size="12" lengthAdjust="spacing" textLength="4" x="155.5" y="459.3047">&#160;</text><text fill="#666666" font-family="sans-serif" font-size="12" lengthAdjust="spacing" textLength="40" x="159.5" y="459.3047">patient</text><polygon fill="#666666" points="388.5,509.1016,398.5,513.1016,388.5,517.1016,392.5,513.1016" style="stroke:#666666;stroke-width:1.0;"/><line style="stroke:#666666;stroke-width:1.0;" x1="238.5" x2="394.5" y1="513.1016" y2="513.1016"/><text fill="#666666" font-family="sans-serif" font-size="12" lengthAdjust="spacing" textLength="34" x="260" y="494.4375">Sends</text><text fill="#666666" font-family="sans-serif" font-size="12" lengthAdjust="spacing" textLength="4" x="294" y="494.4375">&#160;</text><text fill="#666666" font-family="sans-serif" font-size="12" lengthAdjust="spacing" textLength="26" x="298" y="494.4375">data</text><text fill="#666666" font-family="sans-serif" font-size="12" lengthAdjust="spacing" textLength="4" x="324" y="494.4375">&#160;</text><text fill="#666666" font-family="sans-serif" font-size="12" lengthAdjust="spacing" textLength="16" x="328" y="494.4375">for</text><text fill="#666666" font-family="sans-serif" font-size="12" lengthAdjust="spacing" textLength="4" x="344" y="494.4375">&#160;</text><text fill="#666666" font-family="sans-serif" font-size="12" lengthAdjust="spacing" textLength="31" x="348" y="494.4375">quick</text><text fill="#666666" font-family="sans-serif" font-size="12" lengthAdjust="spacing" textLength="33" x="303" y="508.5703">admit</text><polygon fill="#666666" points="249.5,537.2344,239.5,541.2344,249.5,545.2344,245.5,541.2344" style="stroke:#666666;stroke-width:1.0;"/><line style="stroke:#666666;stroke-width:1.0;" x1="243.5" x2="399.5" y1="541.2344" y2="541.2344"/><text fill="#666666" font-family="sans-serif" font-size="12" lengthAdjust="spacing" textLength="44" x="273.5" y="536.7031">Returns</text><text fill="#666666" font-family="sans-serif" font-size="12" lengthAdjust="spacing" textLength="4" x="317.5" y="536.7031">&#160;</text><text fill="#666666" font-family="sans-serif" font-size="12" lengthAdjust="spacing" textLength="44" x="321.5" y="536.7031">success</text><line style="stroke:#666666;stroke-width:1.0;" x1="238.5" x2="280.5" y1="569.3672" y2="569.3672"/><line style="stroke:#666666;stroke-width:1.0;" x1="280.5" x2="280.5" y1="569.3672" y2="582.3672"/><line style="stroke:#666666;stroke-width:1.0;" x1="239.5" x2="280.5" y1="582.3672" y2="582.3672"/><polygon fill="#666666" points="249.5,578.3672,239.5,582.3672,249.5,586.3672,245.5,582.3672" style="stroke:#666666;stroke-width:1.0;"/><text fill="#666666" font-family="sans-serif" font-size="12" lengthAdjust="spacing" textLength="61" x="245.5" y="564.8359">Invalidates</text><text fill="#666666" font-family="sans-serif" font-size="12" lengthAdjust="spacing" textLength="4" x="306.5" y="564.8359">&#160;</text><text fill="#666666" font-family="sans-serif" font-size="12" lengthAdjust="spacing" textLength="26" x="310.5" y="564.8359">local</text><text fill="#666666" font-family="sans-serif" font-size="12" lengthAdjust="spacing" textLength="4" x="336.5" y="564.8359">&#160;</text><text fill="#666666" font-family="sans-serif" font-size="12" lengthAdjust="spacing" textLength="23" x="340.5" y="564.8359">bed</text><text fill="#666666" font-family="sans-serif" font-size="12" lengthAdjust="spacing" textLength="4" x="363.5" y="564.8359">&#160;</text><text fill="#666666" font-family="sans-serif" font-size="12" lengthAdjust="spacing" textLength="26" x="367.5" y="564.8359">data</text><polygon fill="#666666" points="521.5,620.6328,511.5,624.6328,521.5,628.6328,517.5,624.6328" style="stroke:#666666;stroke-width:1.0;"/><line style="stroke:#666666;stroke-width:1.0;" x1="515.5" x2="676.5" y1="624.6328" y2="624.6328"/><text fill="#666666" font-family="sans-serif" font-size="12" lengthAdjust="spacing" textLength="34" x="522.5" y="605.9688">Sends</text><text fill="#666666" font-family="sans-serif" font-size="12" lengthAdjust="spacing" textLength="4" x="556.5" y="605.9688">&#160;</text><text fill="#666666" font-family="sans-serif" font-size="12" lengthAdjust="spacing" textLength="31" x="560.5" y="605.9688">event</text><text fill="#666666" font-family="sans-serif" font-size="12" lengthAdjust="spacing" textLength="4" x="591.5" y="605.9688">&#160;</text><text fill="#666666" font-family="sans-serif" font-size="12" lengthAdjust="spacing" textLength="16" x="595.5" y="605.9688">for</text><text fill="#666666" font-family="sans-serif" font-size="12" lengthAdjust="spacing" textLength="4" x="611.5" y="605.9688">&#160;</text><text fill="#666666" font-family="sans-serif" font-size="12" lengthAdjust="spacing" textLength="23" x="615.5" y="605.9688">new</text><text fill="#666666" font-family="sans-serif" font-size="12" lengthAdjust="spacing" textLength="4" x="638.5" y="605.9688">&#160;</text><text fill="#666666" font-family="sans-serif" font-size="12" lengthAdjust="spacing" textLength="23" x="642.5" y="605.9688">bed</text><text fill="#666666" font-family="sans-serif" font-size="12" lengthAdjust="spacing" textLength="65" x="561.5" y="620.1016">information</text><polygon fill="#666666" points="249.5,662.8984,239.5,666.8984,249.5,670.8984,245.5,666.8984" style="stroke:#666666;stroke-width:1.0;"/><line style="stroke:#666666;stroke-width:1.0;" x1="243.5" x2="509.5" y1="666.8984" y2="666.8984"/><text fill="#666666" font-family="sans-serif" font-size="12" lengthAdjust="spacing" textLength="39" x="300.5" y="648.2344">Passes</text><text fill="#666666" font-family="sans-serif" font-size="12" lengthAdjust="spacing" textLength="4" x="339.5" y="648.2344">&#160;</text><text fill="#666666" font-family="sans-serif" font-size="12" lengthAdjust="spacing" textLength="31" x="343.5" y="648.2344">event</text><text fill="#666666" font-family="sans-serif" font-size="12" lengthAdjust="spacing" textLength="4" x="374.5" y="648.2344">&#160;</text><text fill="#666666" font-family="sans-serif" font-size="12" lengthAdjust="spacing" textLength="16" x="378.5" y="648.2344">for</text><text fill="#666666" font-family="sans-serif" font-size="12" lengthAdjust="spacing" textLength="4" x="394.5" y="648.2344">&#160;</text><text fill="#666666" font-family="sans-serif" font-size="12" lengthAdjust="spacing" textLength="23" x="398.5" y="648.2344">new</text><text fill="#666666" font-family="sans-serif" font-size="12" lengthAdjust="spacing" textLength="4" x="421.5" y="648.2344">&#160;</text><text fill="#666666" font-family="sans-serif" font-size="12" lengthAdjust="spacing" textLength="23" x="425.5" y="648.2344">bed</text><text fill="#666666" font-family="sans-serif" font-size="12" lengthAdjust="spacing" textLength="65" x="342" y="662.3672">information</text><polygon fill="#666666" points="76.5,705.1641,66.5,709.1641,76.5,713.1641,72.5,709.1641" style="stroke:#666666;stroke-width:1.0;"/><line style="stroke:#666666;stroke-width:1.0;" x1="70.5" x2="237.5" y1="709.1641" y2="709.1641"/><text fill="#666666" font-family="sans-serif" font-size="12" lengthAdjust="spacing" textLength="35" x="79.5" y="690.5">Shows</text><text fill="#666666" font-family="sans-serif" font-size="12" lengthAdjust="spacing" textLength="4" x="114.5" y="690.5">&#160;</text><text fill="#666666" font-family="sans-serif" font-size="12" lengthAdjust="spacing" textLength="58" x="118.5" y="690.5">submitted</text><text fill="#666666" font-family="sans-serif" font-size="12" lengthAdjust="spacing" textLength="4" x="176.5" y="690.5">&#160;</text><text fill="#666666" font-family="sans-serif" font-size="12" lengthAdjust="spacing" textLength="44" x="180.5" y="690.5">request</text><text fill="#666666" font-family="sans-serif" font-size="12" lengthAdjust="spacing" textLength="51" x="126.5" y="704.6328">message</text><!--SRC=[XLDDQzmm4BthLqptNafBJgK4MbDA3Y5fGicnZAtPx11vv4ZoclpxpcYzPdTZg4_2VlE-DFx0qeNH4tnhhZurLt-Rs0zHICgrSzYLcE3mR9h0mXq6-9CfRG0mmwWdDs0gtF60KXIaWqanjr5OPrcUuP4BRGpTzVaS_4Gj_C924xvLm4JjUy1JJ2-cPz_hyHpoG1WAztH6bEQNpgacVBokHk4hFExYbE47UUYY27L5JoN2_IrCN7PnBA29UK-GAMUEukgSpXkDZbFG6VWzSlS2tttF1U9G3BScyrfXM67RcFeBifzIA6NOSiegAnu2wa5GNQlv0zMa4RCvHEzXmCBQBdWD2d4BBQUoStOr9yGBxuAEhIFnxvA8pwUCQ1PFBQz6qjRKRu-M6Nhj29-fLbSfBZIQ0zXkutMaN6eijQEfCf2vrFOj-D46PmZA2MM70f-_m1kX1haBlePSyrFbCOcjMHyzXiiwJctCChMDcKmNRYbZjGG3B4mFLCOa6VBOTUhpI7BuU2Dx36nteocY_IQjngkr7BUnAjOLNaHfRy5DLMYg4oosAxLXDuCNZNlCkfZ_6LhhAO-jfh5jd-_YU7dE_GC0]--></g></svg>