<?xml version="1.0" encoding="us-ascii" standalone="no"?><svg xmlns="http://www.w3.org/2000/svg" xmlns:xlink="http://www.w3.org/1999/xlink" contentStyleType="text/css" height="877px" preserveAspectRatio="none" style="width:762px;height:877px;background:#FFFFFF;" version="1.1" viewBox="0 0 762 877" width="762px" zoomAndPan="magnify"><defs/><g><rect fill="none" height="73.5762" style="stroke:#000000;stroke-width:1.5;" width="390" x="10" y="465.6133"/><line style="stroke:#181818;stroke-width:0.5;stroke-dasharray:5.0,5.0;" x1="65" x2="65" y1="82.4883" y2="794.5176"/><line style="stroke:#181818;stroke-width:0.5;stroke-dasharray:5.0,5.0;" x1="238" x2="238" y1="82.4883" y2="794.5176"/><line style="stroke:#181818;stroke-width:0.5;stroke-dasharray:5.0,5.0;" x1="412.5" x2="412.5" y1="82.4883" y2="794.5176"/><line style="stroke:#181818;stroke-width:0.5;stroke-dasharray:5.0,5.0;" x1="522.5" x2="522.5" y1="82.4883" y2="794.5176"/><line style="stroke:#181818;stroke-width:0.5;stroke-dasharray:5.0,5.0;" x1="689.5" x2="689.5" y1="82.4883" y2="794.5176"/><text fill="#000000" font-family="sans-serif" font-size="14" lengthAdjust="spacing" textLength="85" x="20" y="79.5352">Clinical User</text><ellipse cx="65.5" cy="21.5" fill="#E2E2F0" rx="16" ry="16" style="stroke:#181818;stroke-width:0.5;"/><path d="M65.5,41.5 C69.5,41.5 72.5,41.5 76.5,37.5 C84.5,37.5 92.5,45.5 92.5,53.5 L92.5,57.5 C92.5,61.5 88.5,65.5 84.5,65.5 L46.5,65.5 C42.5,65.5 38.5,61.5 38.5,57.5 L38.5,53.5 C38.5,45.5 46.5,37.5 54.5,37.5 C58.5,41.5 61.5,41.5 65.5,41.5 " fill="#E2E2F0" style="stroke:#181818;stroke-width:0.5;"/><text fill="#000000" font-family="sans-serif" font-size="14" lengthAdjust="spacing" textLength="85" x="20" y="807.0527">Clinical User</text><ellipse cx="65.5" cy="826.5059" fill="#E2E2F0" rx="16" ry="16" style="stroke:#181818;stroke-width:0.5;"/><path d="M65.5,846.5059 C69.5,846.5059 72.5,846.5059 76.5,842.5059 C84.5,842.5059 92.5,850.5059 92.5,858.5059 L92.5,862.5059 C92.5,866.5059 88.5,870.5059 84.5,870.5059 L46.5,870.5059 C42.5,870.5059 38.5,866.5059 38.5,862.5059 L38.5,858.5059 C38.5,850.5059 46.5,842.5059 54.5,842.5059 C58.5,846.5059 61.5,846.5059 65.5,846.5059 " fill="#E2E2F0" style="stroke:#181818;stroke-width:0.5;"/><rect fill="#E2E2F0" height="30.4883" rx="2.5" ry="2.5" style="stroke:#181818;stroke-width:0.5;" width="173" x="152" y="51"/><text fill="#000000" font-family="sans-serif" font-size="14" lengthAdjust="spacing" textLength="159" x="159" y="71.5352">Central Monitoring Site</text><rect fill="#E2E2F0" height="30.4883" rx="2.5" ry="2.5" style="stroke:#181818;stroke-width:0.5;" width="173" x="152" y="793.5176"/><text fill="#000000" font-family="sans-serif" font-size="14" lengthAdjust="spacing" textLength="159" x="159" y="814.0527">Central Monitoring Site</text><rect fill="#E2E2F0" height="30.4883" rx="2.5" ry="2.5" style="stroke:#181818;stroke-width:0.5;" width="104" x="360.5" y="51"/><text fill="#000000" font-family="sans-serif" font-size="14" lengthAdjust="spacing" textLength="90" x="367.5" y="71.5352">Web Gateway</text><rect fill="#E2E2F0" height="30.4883" rx="2.5" ry="2.5" style="stroke:#181818;stroke-width:0.5;" width="104" x="360.5" y="793.5176"/><text fill="#000000" font-family="sans-serif" font-size="14" lengthAdjust="spacing" textLength="90" x="367.5" y="814.0527">Web Gateway</text><rect fill="#E2E2F0" height="30.4883" rx="2.5" ry="2.5" style="stroke:#181818;stroke-width:0.5;" width="96" x="474.5" y="51"/><text fill="#000000" font-family="sans-serif" font-size="14" lengthAdjust="spacing" textLength="82" x="481.5" y="71.5352">Web Worker</text><rect fill="#E2E2F0" height="30.4883" rx="2.5" ry="2.5" style="stroke:#181818;stroke-width:0.5;" width="96" x="474.5" y="793.5176"/><text fill="#000000" font-family="sans-serif" font-size="14" lengthAdjust="spacing" textLength="82" x="481.5" y="814.0527">Web Worker</text><rect fill="#E2E2F0" height="30.4883" rx="2.5" ry="2.5" style="stroke:#181818;stroke-width:0.5;" width="134" x="622.5" y="51"/><text fill="#000000" font-family="sans-serif" font-size="14" lengthAdjust="spacing" textLength="120" x="629.5" y="71.5352">Realtime Gateway</text><rect fill="#E2E2F0" height="30.4883" rx="2.5" ry="2.5" style="stroke:#181818;stroke-width:0.5;" width="134" x="622.5" y="793.5176"/><text fill="#000000" font-family="sans-serif" font-size="14" lengthAdjust="spacing" textLength="120" x="629.5" y="814.0527">Realtime Gateway</text><polygon fill="#666666" points="76.5,122.7539,66.5,126.7539,76.5,130.7539,72.5,126.7539" style="stroke:#666666;stroke-width:1.0;"/><line style="stroke:#666666;stroke-width:1.0;" x1="70.5" x2="237.5" y1="126.7539" y2="126.7539"/><text fill="#666666" font-family="sans-serif" font-size="12" lengthAdjust="spacing" textLength="35" x="82.5" y="108.0898">Shows</text><text fill="#666666" font-family="sans-serif" font-size="12" lengthAdjust="spacing" textLength="4" x="117.5" y="108.0898">&#160;</text><text fill="#666666" font-family="sans-serif" font-size="12" lengthAdjust="spacing" textLength="22" x="121.5" y="108.0898">Bed</text><text fill="#666666" font-family="sans-serif" font-size="12" lengthAdjust="spacing" textLength="4" x="143.5" y="108.0898">&#160;</text><text fill="#666666" font-family="sans-serif" font-size="12" lengthAdjust="spacing" textLength="59" x="147.5" y="108.0898">connected</text><text fill="#666666" font-family="sans-serif" font-size="12" lengthAdjust="spacing" textLength="4" x="206.5" y="108.0898">&#160;</text><text fill="#666666" font-family="sans-serif" font-size="12" lengthAdjust="spacing" textLength="11" x="210.5" y="108.0898">to</text><text fill="#666666" font-family="sans-serif" font-size="12" lengthAdjust="spacing" textLength="17" x="79.5" y="122.2227">PM</text><text fill="#666666" font-family="sans-serif" font-size="12" lengthAdjust="spacing" textLength="4" x="96.5" y="122.2227">&#160;</text><text fill="#666666" font-family="sans-serif" font-size="12" lengthAdjust="spacing" textLength="41" x="100.5" y="122.2227">without</text><text fill="#666666" font-family="sans-serif" font-size="12" lengthAdjust="spacing" textLength="4" x="141.5" y="122.2227">&#160;</text><text fill="#666666" font-family="sans-serif" font-size="12" lengthAdjust="spacing" textLength="33" x="145.5" y="122.2227">active</text><text fill="#666666" font-family="sans-serif" font-size="12" lengthAdjust="spacing" textLength="4" x="178.5" y="122.2227">&#160;</text><text fill="#666666" font-family="sans-serif" font-size="12" lengthAdjust="spacing" textLength="42" x="182.5" y="122.2227">session</text><polygon fill="#666666" points="226.5,150.8867,236.5,154.8867,226.5,158.8867,230.5,154.8867" style="stroke:#666666;stroke-width:1.0;"/><line style="stroke:#666666;stroke-width:1.0;" x1="65.5" x2="232.5" y1="154.8867" y2="154.8867"/><text fill="#666666" font-family="sans-serif" font-size="12" lengthAdjust="spacing" textLength="33" x="94.5" y="150.3555">Select</text><text fill="#666666" font-family="sans-serif" font-size="12" lengthAdjust="spacing" textLength="4" x="127.5" y="150.3555">&#160;</text><text fill="#666666" font-family="sans-serif" font-size="12" lengthAdjust="spacing" textLength="38" x="131.5" y="150.3555">Search</text><text fill="#666666" font-family="sans-serif" font-size="12" lengthAdjust="spacing" textLength="4" x="169.5" y="150.3555">&#160;</text><text fill="#666666" font-family="sans-serif" font-size="12" lengthAdjust="spacing" textLength="36" x="173.5" y="150.3555">option</text><polygon fill="#666666" points="76.5,179.0195,66.5,183.0195,76.5,187.0195,72.5,183.0195" style="stroke:#666666;stroke-width:1.0;"/><line style="stroke:#666666;stroke-width:1.0;" x1="70.5" x2="237.5" y1="183.0195" y2="183.0195"/><text fill="#666666" font-family="sans-serif" font-size="12" lengthAdjust="spacing" textLength="35" x="98" y="178.4883">Shows</text><text fill="#666666" font-family="sans-serif" font-size="12" lengthAdjust="spacing" textLength="4" x="133" y="178.4883">&#160;</text><text fill="#666666" font-family="sans-serif" font-size="12" lengthAdjust="spacing" textLength="38" x="137" y="178.4883">search</text><text fill="#666666" font-family="sans-serif" font-size="12" lengthAdjust="spacing" textLength="4" x="175" y="178.4883">&#160;</text><text fill="#666666" font-family="sans-serif" font-size="12" lengthAdjust="spacing" textLength="27" x="179" y="178.4883">form</text><polygon fill="#666666" points="226.5,221.2852,236.5,225.2852,226.5,229.2852,230.5,225.2852" style="stroke:#666666;stroke-width:1.0;"/><line style="stroke:#666666;stroke-width:1.0;" x1="65.5" x2="232.5" y1="225.2852" y2="225.2852"/><text fill="#666666" font-family="sans-serif" font-size="12" lengthAdjust="spacing" textLength="36" x="88" y="206.6211">Enters</text><text fill="#666666" font-family="sans-serif" font-size="12" lengthAdjust="spacing" textLength="4" x="124" y="206.6211">&#160;</text><text fill="#666666" font-family="sans-serif" font-size="12" lengthAdjust="spacing" textLength="44" x="128" y="206.6211">desired</text><text fill="#666666" font-family="sans-serif" font-size="12" lengthAdjust="spacing" textLength="4" x="172" y="206.6211">&#160;</text><text fill="#666666" font-family="sans-serif" font-size="12" lengthAdjust="spacing" textLength="40" x="176" y="206.6211">patient</text><text fill="#666666" font-family="sans-serif" font-size="12" lengthAdjust="spacing" textLength="21" x="141.5" y="220.7539">info</text><polygon fill="#666666" points="400.5,263.5508,410.5,267.5508,400.5,271.5508,404.5,267.5508" style="stroke:#666666;stroke-width:1.0;"/><line style="stroke:#666666;stroke-width:1.0;" x1="238.5" x2="406.5" y1="267.5508" y2="267.5508"/><text fill="#666666" font-family="sans-serif" font-size="12" lengthAdjust="spacing" textLength="53" x="274" y="248.8867">Requests</text><text fill="#666666" font-family="sans-serif" font-size="12" lengthAdjust="spacing" textLength="4" x="327" y="248.8867">&#160;</text><text fill="#666666" font-family="sans-serif" font-size="12" lengthAdjust="spacing" textLength="46" x="331" y="248.8867">patients</text><text fill="#666666" font-family="sans-serif" font-size="12" lengthAdjust="spacing" textLength="52" x="262.5" y="263.0195">matching</text><text fill="#666666" font-family="sans-serif" font-size="12" lengthAdjust="spacing" textLength="4" x="314.5" y="263.0195">&#160;</text><text fill="#666666" font-family="sans-serif" font-size="12" lengthAdjust="spacing" textLength="45" x="318.5" y="263.0195">entered</text><text fill="#666666" font-family="sans-serif" font-size="12" lengthAdjust="spacing" textLength="4" x="363.5" y="263.0195">&#160;</text><text fill="#666666" font-family="sans-serif" font-size="12" lengthAdjust="spacing" textLength="21" x="367.5" y="263.0195">info</text><polygon fill="#666666" points="249.5,305.8164,239.5,309.8164,249.5,313.8164,245.5,309.8164" style="stroke:#666666;stroke-width:1.0;"/><line style="stroke:#666666;stroke-width:1.0;" x1="243.5" x2="411.5" y1="309.8164" y2="309.8164"/><text fill="#666666" font-family="sans-serif" font-size="12" lengthAdjust="spacing" textLength="44" x="250.5" y="291.1523">Returns</text><text fill="#666666" font-family="sans-serif" font-size="12" lengthAdjust="spacing" textLength="4" x="294.5" y="291.1523">&#160;</text><text fill="#666666" font-family="sans-serif" font-size="12" lengthAdjust="spacing" textLength="46" x="298.5" y="291.1523">patients</text><text fill="#666666" font-family="sans-serif" font-size="12" lengthAdjust="spacing" textLength="4" x="344.5" y="291.1523">&#160;</text><text fill="#666666" font-family="sans-serif" font-size="12" lengthAdjust="spacing" textLength="52" x="348.5" y="291.1523">matching</text><text fill="#666666" font-family="sans-serif" font-size="12" lengthAdjust="spacing" textLength="45" x="290.5" y="305.2852">entered</text><text fill="#666666" font-family="sans-serif" font-size="12" lengthAdjust="spacing" textLength="4" x="335.5" y="305.2852">&#160;</text><text fill="#666666" font-family="sans-serif" font-size="12" lengthAdjust="spacing" textLength="21" x="339.5" y="305.2852">info</text><polygon fill="#666666" points="76.5,333.9492,66.5,337.9492,76.5,341.9492,72.5,337.9492" style="stroke:#666666;stroke-width:1.0;"/><line style="stroke:#666666;stroke-width:1.0;" x1="70.5" x2="237.5" y1="337.9492" y2="337.9492"/><text fill="#666666" font-family="sans-serif" font-size="12" lengthAdjust="spacing" textLength="35" x="91" y="333.418">Shows</text><text fill="#666666" font-family="sans-serif" font-size="12" lengthAdjust="spacing" textLength="4" x="126" y="333.418">&#160;</text><text fill="#666666" font-family="sans-serif" font-size="12" lengthAdjust="spacing" textLength="33" x="130" y="333.418">found</text><text fill="#666666" font-family="sans-serif" font-size="12" lengthAdjust="spacing" textLength="4" x="163" y="333.418">&#160;</text><text fill="#666666" font-family="sans-serif" font-size="12" lengthAdjust="spacing" textLength="46" x="167" y="333.418">patients</text><polygon fill="#666666" points="226.5,376.2148,236.5,380.2148,226.5,384.2148,230.5,380.2148" style="stroke:#666666;stroke-width:1.0;"/><line style="stroke:#666666;stroke-width:1.0;" x1="65.5" x2="232.5" y1="380.2148" y2="380.2148"/><text fill="#666666" font-family="sans-serif" font-size="12" lengthAdjust="spacing" textLength="46" x="83" y="361.5508">Selectes</text><text fill="#666666" font-family="sans-serif" font-size="12" lengthAdjust="spacing" textLength="4" x="129" y="361.5508">&#160;</text><text fill="#666666" font-family="sans-serif" font-size="12" lengthAdjust="spacing" textLength="44" x="133" y="361.5508">desired</text><text fill="#666666" font-family="sans-serif" font-size="12" lengthAdjust="spacing" textLength="4" x="177" y="361.5508">&#160;</text><text fill="#666666" font-family="sans-serif" font-size="12" lengthAdjust="spacing" textLength="40" x="181" y="361.5508">patient</text><text fill="#666666" font-family="sans-serif" font-size="12" lengthAdjust="spacing" textLength="11" x="126.5" y="375.6836">to</text><text fill="#666666" font-family="sans-serif" font-size="12" lengthAdjust="spacing" textLength="4" x="137.5" y="375.6836">&#160;</text><text fill="#666666" font-family="sans-serif" font-size="12" lengthAdjust="spacing" textLength="36" x="141.5" y="375.6836">assign</text><polygon fill="#666666" points="76.5,418.4805,66.5,422.4805,76.5,426.4805,72.5,422.4805" style="stroke:#666666;stroke-width:1.0;"/><line style="stroke:#666666;stroke-width:1.0;" x1="70.5" x2="237.5" y1="422.4805" y2="422.4805"/><text fill="#666666" font-family="sans-serif" font-size="12" lengthAdjust="spacing" textLength="35" x="97" y="403.8164">Shows</text><text fill="#666666" font-family="sans-serif" font-size="12" lengthAdjust="spacing" textLength="4" x="132" y="403.8164">&#160;</text><text fill="#666666" font-family="sans-serif" font-size="12" lengthAdjust="spacing" textLength="71" x="136" y="403.8164">confirmation</text><text fill="#666666" font-family="sans-serif" font-size="12" lengthAdjust="spacing" textLength="51" x="98" y="417.9492">message</text><text fill="#666666" font-family="sans-serif" font-size="12" lengthAdjust="spacing" textLength="4" x="149" y="417.9492">&#160;</text><text fill="#666666" font-family="sans-serif" font-size="12" lengthAdjust="spacing" textLength="23" x="153" y="417.9492">with</text><text fill="#666666" font-family="sans-serif" font-size="12" lengthAdjust="spacing" textLength="4" x="176" y="417.9492">&#160;</text><text fill="#666666" font-family="sans-serif" font-size="12" lengthAdjust="spacing" textLength="26" x="180" y="417.9492">data</text><polygon fill="#666666" points="226.5,446.6133,236.5,450.6133,226.5,454.6133,230.5,450.6133" style="stroke:#666666;stroke-width:1.0;"/><line style="stroke:#666666;stroke-width:1.0;" x1="65.5" x2="232.5" y1="450.6133" y2="450.6133"/><text fill="#666666" font-family="sans-serif" font-size="12" lengthAdjust="spacing" textLength="51" x="102.5" y="446.082">Confirms</text><text fill="#666666" font-family="sans-serif" font-size="12" lengthAdjust="spacing" textLength="4" x="153.5" y="446.082">&#160;</text><text fill="#666666" font-family="sans-serif" font-size="12" lengthAdjust="spacing" textLength="44" x="157.5" y="446.082">request</text><path d="M10,465.6133 L72,465.6133 L72,472.9238 L62,482.9238 L10,482.9238 L10,465.6133 " fill="#EEEEEE" style="stroke:#000000;stroke-width:1.5;"/><rect fill="none" height="73.5762" style="stroke:#000000;stroke-width:1.5;" width="390" x="10" y="465.6133"/><text fill="#000000" font-family="sans-serif" font-size="13" font-weight="bold" lengthAdjust="spacing" textLength="17" x="25" y="479.1816">alt</text><text fill="#000000" font-family="sans-serif" font-size="11" font-weight="bold" lengthAdjust="spacing" textLength="308" x="87" y="478.248">[dob was entered and patient is less than 12 years Old]</text><polygon fill="#666666" points="76.5,499.0566,66.5,503.0566,76.5,507.0566,72.5,503.0566" style="stroke:#666666;stroke-width:1.0;"/><line style="stroke:#666666;stroke-width:1.0;" x1="70.5" x2="237.5" y1="503.0566" y2="503.0566"/><text fill="#666666" font-family="sans-serif" font-size="12" lengthAdjust="spacing" textLength="35" x="77.5" y="498.5254">Shows</text><text fill="#666666" font-family="sans-serif" font-size="12" lengthAdjust="spacing" textLength="4" x="112.5" y="498.5254">&#160;</text><text fill="#666666" font-family="sans-serif" font-size="12" lengthAdjust="spacing" textLength="21" x="116.5" y="498.5254">age</text><text fill="#666666" font-family="sans-serif" font-size="12" lengthAdjust="spacing" textLength="4" x="137.5" y="498.5254">&#160;</text><text fill="#666666" font-family="sans-serif" font-size="12" lengthAdjust="spacing" textLength="45" x="141.5" y="498.5254">warning</text><text fill="#666666" font-family="sans-serif" font-size="12" lengthAdjust="spacing" textLength="4" x="186.5" y="498.5254">&#160;</text><text fill="#666666" font-family="sans-serif" font-size="12" lengthAdjust="spacing" textLength="36" x="190.5" y="498.5254">modal</text><polygon fill="#666666" points="226.5,527.1895,236.5,531.1895,226.5,535.1895,230.5,531.1895" style="stroke:#666666;stroke-width:1.0;"/><line style="stroke:#666666;stroke-width:1.0;" x1="65.5" x2="232.5" y1="531.1895" y2="531.1895"/><text fill="#666666" font-family="sans-serif" font-size="12" lengthAdjust="spacing" textLength="51" x="104.5" y="526.6582">Confirms</text><text fill="#666666" font-family="sans-serif" font-size="12" lengthAdjust="spacing" textLength="4" x="155.5" y="526.6582">&#160;</text><text fill="#666666" font-family="sans-serif" font-size="12" lengthAdjust="spacing" textLength="40" x="159.5" y="526.6582">patient</text><polygon fill="#666666" points="400.5,576.4551,410.5,580.4551,400.5,584.4551,404.5,580.4551" style="stroke:#666666;stroke-width:1.0;"/><line style="stroke:#666666;stroke-width:1.0;" x1="238.5" x2="406.5" y1="580.4551" y2="580.4551"/><text fill="#666666" font-family="sans-serif" font-size="12" lengthAdjust="spacing" textLength="34" x="261.5" y="561.791">Sends</text><text fill="#666666" font-family="sans-serif" font-size="12" lengthAdjust="spacing" textLength="4" x="295.5" y="561.791">&#160;</text><text fill="#666666" font-family="sans-serif" font-size="12" lengthAdjust="spacing" textLength="26" x="299.5" y="561.791">data</text><text fill="#666666" font-family="sans-serif" font-size="12" lengthAdjust="spacing" textLength="4" x="325.5" y="561.791">&#160;</text><text fill="#666666" font-family="sans-serif" font-size="12" lengthAdjust="spacing" textLength="16" x="329.5" y="561.791">for</text><text fill="#666666" font-family="sans-serif" font-size="12" lengthAdjust="spacing" textLength="4" x="345.5" y="561.791">&#160;</text><text fill="#666666" font-family="sans-serif" font-size="12" lengthAdjust="spacing" textLength="40" x="349.5" y="561.791">patient</text><text fill="#666666" font-family="sans-serif" font-size="12" lengthAdjust="spacing" textLength="64" x="293.5" y="575.9238">assignation</text><polygon fill="#666666" points="249.5,604.5879,239.5,608.5879,249.5,612.5879,245.5,608.5879" style="stroke:#666666;stroke-width:1.0;"/><line style="stroke:#666666;stroke-width:1.0;" x1="243.5" x2="411.5" y1="608.5879" y2="608.5879"/><text fill="#666666" font-family="sans-serif" font-size="12" lengthAdjust="spacing" textLength="44" x="279.5" y="604.0566">Returns</text><text fill="#666666" font-family="sans-serif" font-size="12" lengthAdjust="spacing" textLength="4" x="323.5" y="604.0566">&#160;</text><text fill="#666666" font-family="sans-serif" font-size="12" lengthAdjust="spacing" textLength="44" x="327.5" y="604.0566">success</text><line style="stroke:#666666;stroke-width:1.0;" x1="238.5" x2="280.5" y1="636.7207" y2="636.7207"/><line style="stroke:#666666;stroke-width:1.0;" x1="280.5" x2="280.5" y1="636.7207" y2="649.7207"/><line style="stroke:#666666;stroke-width:1.0;" x1="239.5" x2="280.5" y1="649.7207" y2="649.7207"/><polygon fill="#666666" points="249.5,645.7207,239.5,649.7207,249.5,653.7207,245.5,649.7207" style="stroke:#666666;stroke-width:1.0;"/><text fill="#666666" font-family="sans-serif" font-size="12" lengthAdjust="spacing" textLength="61" x="245.5" y="632.1895">Invalidates</text><text fill="#666666" font-family="sans-serif" font-size="12" lengthAdjust="spacing" textLength="4" x="306.5" y="632.1895">&#160;</text><text fill="#666666" font-family="sans-serif" font-size="12" lengthAdjust="spacing" textLength="26" x="310.5" y="632.1895">local</text><text fill="#666666" font-family="sans-serif" font-size="12" lengthAdjust="spacing" textLength="4" x="336.5" y="632.1895">&#160;</text><text fill="#666666" font-family="sans-serif" font-size="12" lengthAdjust="spacing" textLength="23" x="340.5" y="632.1895">bed</text><text fill="#666666" font-family="sans-serif" font-size="12" lengthAdjust="spacing" textLength="4" x="363.5" y="632.1895">&#160;</text><text fill="#666666" font-family="sans-serif" font-size="12" lengthAdjust="spacing" textLength="26" x="367.5" y="632.1895">data</text><polygon fill="#666666" points="533.5,687.9863,523.5,691.9863,533.5,695.9863,529.5,691.9863" style="stroke:#666666;stroke-width:1.0;"/><line style="stroke:#666666;stroke-width:1.0;" x1="527.5" x2="688.5" y1="691.9863" y2="691.9863"/><text fill="#666666" font-family="sans-serif" font-size="12" lengthAdjust="spacing" textLength="34" x="534.5" y="673.3223">Sends</text><text fill="#666666" font-family="sans-serif" font-size="12" lengthAdjust="spacing" textLength="4" x="568.5" y="673.3223">&#160;</text><text fill="#666666" font-family="sans-serif" font-size="12" lengthAdjust="spacing" textLength="31" x="572.5" y="673.3223">event</text><text fill="#666666" font-family="sans-serif" font-size="12" lengthAdjust="spacing" textLength="4" x="603.5" y="673.3223">&#160;</text><text fill="#666666" font-family="sans-serif" font-size="12" lengthAdjust="spacing" textLength="16" x="607.5" y="673.3223">for</text><text fill="#666666" font-family="sans-serif" font-size="12" lengthAdjust="spacing" textLength="4" x="623.5" y="673.3223">&#160;</text><text fill="#666666" font-family="sans-serif" font-size="12" lengthAdjust="spacing" textLength="23" x="627.5" y="673.3223">new</text><text fill="#666666" font-family="sans-serif" font-size="12" lengthAdjust="spacing" textLength="4" x="650.5" y="673.3223">&#160;</text><text fill="#666666" font-family="sans-serif" font-size="12" lengthAdjust="spacing" textLength="23" x="654.5" y="673.3223">bed</text><text fill="#666666" font-family="sans-serif" font-size="12" lengthAdjust="spacing" textLength="65" x="573.5" y="687.4551">information</text><polygon fill="#666666" points="249.5,730.252,239.5,734.252,249.5,738.252,245.5,734.252" style="stroke:#666666;stroke-width:1.0;"/><line style="stroke:#666666;stroke-width:1.0;" x1="243.5" x2="521.5" y1="734.252" y2="734.252"/><text fill="#666666" font-family="sans-serif" font-size="12" lengthAdjust="spacing" textLength="39" x="306.5" y="715.5879">Passes</text><text fill="#666666" font-family="sans-serif" font-size="12" lengthAdjust="spacing" textLength="4" x="345.5" y="715.5879">&#160;</text><text fill="#666666" font-family="sans-serif" font-size="12" lengthAdjust="spacing" textLength="31" x="349.5" y="715.5879">event</text><text fill="#666666" font-family="sans-serif" font-size="12" lengthAdjust="spacing" textLength="4" x="380.5" y="715.5879">&#160;</text><text fill="#666666" font-family="sans-serif" font-size="12" lengthAdjust="spacing" textLength="16" x="384.5" y="715.5879">for</text><text fill="#666666" font-family="sans-serif" font-size="12" lengthAdjust="spacing" textLength="4" x="400.5" y="715.5879">&#160;</text><text fill="#666666" font-family="sans-serif" font-size="12" lengthAdjust="spacing" textLength="23" x="404.5" y="715.5879">new</text><text fill="#666666" font-family="sans-serif" font-size="12" lengthAdjust="spacing" textLength="4" x="427.5" y="715.5879">&#160;</text><text fill="#666666" font-family="sans-serif" font-size="12" lengthAdjust="spacing" textLength="23" x="431.5" y="715.5879">bed</text><text fill="#666666" font-family="sans-serif" font-size="12" lengthAdjust="spacing" textLength="65" x="348" y="729.7207">information</text><polygon fill="#666666" points="76.5,772.5176,66.5,776.5176,76.5,780.5176,72.5,776.5176" style="stroke:#666666;stroke-width:1.0;"/><line style="stroke:#666666;stroke-width:1.0;" x1="70.5" x2="237.5" y1="776.5176" y2="776.5176"/><text fill="#666666" font-family="sans-serif" font-size="12" lengthAdjust="spacing" textLength="35" x="79.5" y="757.8535">Shows</text><text fill="#666666" font-family="sans-serif" font-size="12" lengthAdjust="spacing" textLength="4" x="114.5" y="757.8535">&#160;</text><text fill="#666666" font-family="sans-serif" font-size="12" lengthAdjust="spacing" textLength="58" x="118.5" y="757.8535">submitted</text><text fill="#666666" font-family="sans-serif" font-size="12" lengthAdjust="spacing" textLength="4" x="176.5" y="757.8535">&#160;</text><text fill="#666666" font-family="sans-serif" font-size="12" lengthAdjust="spacing" textLength="44" x="180.5" y="757.8535">request</text><text fill="#666666" font-family="sans-serif" font-size="12" lengthAdjust="spacing" textLength="51" x="126.5" y="771.9863">message</text><!--SRC=[XLDBQzmm4BxhLqptNafBJY7aK5D23g5Xbv1Z6SkpQn5vv4ZZDVdt7SaFkebBzhB2_bxpZVp5iVL3Gt1JNNshhlvKeUi34ykjCMWbH9X-kyexTXOzF2MAEm1CCEZ9z1Z5MTSZYuAK61Np4DWfr_493avebz6sIvVWPwhX3eL6V2k0aUgFWESGNx9VVb-Ebv0zeHVNqOLGd1yQevxmzRO4XMiuj65Cy9CQi86PhEX90Zm-mEYa3OE0JkpE18bISe5DuIa_ooYTl7Bq3wDj8VII8LiEQK8SG-pUIVnYePYWeUIYclSeJXi3nyUmA6aB2jpJwq19qW99qA7ODXTAMKF9XPJHg_gUP8ZyAMShyZ4ClEP9cuFJnznQ7cfJf-qQjEIZYvf1Uu9EAyKJbQQXGS5t7jK4piihanjT8JIXXb4NkiH7_gUp15urGLfa-Fu3thJq1BzzO_9rtSfJx35oBgGB3Vg2_4-CsSOGDvUREUYJL2R82rxZJ3sKMRUNaWPhDUyYDhsyvpDwfs9QhW_vwwfrp5BFSecBSxdvgpcTisDsPneB8-zrRjhCuDNZKQFHPwJDQppKdPFyaSmxMPPep5y0]--></g></svg>