<?xml version="1.0" encoding="us-ascii" standalone="no"?><svg xmlns="http://www.w3.org/2000/svg" xmlns:xlink="http://www.w3.org/1999/xlink" contentStyleType="text/css" height="635px" preserveAspectRatio="none" style="width:731px;height:635px;background:#FFFFFF;" version="1.1" viewBox="0 0 731 635" width="731px" zoomAndPan="magnify"><defs/><g><line style="stroke:#181818;stroke-width:0.5;stroke-dasharray:5.0,5.0;" x1="50" x2="50" y1="82.4883" y2="552.1445"/><line style="stroke:#181818;stroke-width:0.5;stroke-dasharray:5.0,5.0;" x1="219" x2="219" y1="82.4883" y2="552.1445"/><line style="stroke:#181818;stroke-width:0.5;stroke-dasharray:5.0,5.0;" x1="381.5" x2="381.5" y1="82.4883" y2="552.1445"/><line style="stroke:#181818;stroke-width:0.5;stroke-dasharray:5.0,5.0;" x1="491.5" x2="491.5" y1="82.4883" y2="552.1445"/><line style="stroke:#181818;stroke-width:0.5;stroke-dasharray:5.0,5.0;" x1="658.5" x2="658.5" y1="82.4883" y2="552.1445"/><text fill="#000000" font-family="sans-serif" font-size="14" lengthAdjust="spacing" textLength="85" x="5" y="79.5352">Clinical User</text><ellipse cx="50.5" cy="21.5" fill="#E2E2F0" rx="16" ry="16" style="stroke:#181818;stroke-width:0.5;"/><path d="M50.5,41.5 C54.5,41.5 57.5,41.5 61.5,37.5 C69.5,37.5 77.5,45.5 77.5,53.5 L77.5,57.5 C77.5,61.5 73.5,65.5 69.5,65.5 L31.5,65.5 C27.5,65.5 23.5,61.5 23.5,57.5 L23.5,53.5 C23.5,45.5 31.5,37.5 39.5,37.5 C43.5,41.5 46.5,41.5 50.5,41.5 " fill="#E2E2F0" style="stroke:#181818;stroke-width:0.5;"/><text fill="#000000" font-family="sans-serif" font-size="14" lengthAdjust="spacing" textLength="85" x="5" y="564.6797">Clinical User</text><ellipse cx="50.5" cy="584.1328" fill="#E2E2F0" rx="16" ry="16" style="stroke:#181818;stroke-width:0.5;"/><path d="M50.5,604.1328 C54.5,604.1328 57.5,604.1328 61.5,600.1328 C69.5,600.1328 77.5,608.1328 77.5,616.1328 L77.5,620.1328 C77.5,624.1328 73.5,628.1328 69.5,628.1328 L31.5,628.1328 C27.5,628.1328 23.5,624.1328 23.5,620.1328 L23.5,616.1328 C23.5,608.1328 31.5,600.1328 39.5,600.1328 C43.5,604.1328 46.5,604.1328 50.5,604.1328 " fill="#E2E2F0" style="stroke:#181818;stroke-width:0.5;"/><rect fill="#E2E2F0" height="30.4883" rx="2.5" ry="2.5" style="stroke:#181818;stroke-width:0.5;" width="173" x="133" y="51"/><text fill="#000000" font-family="sans-serif" font-size="14" lengthAdjust="spacing" textLength="159" x="140" y="71.5352">Central Monitoring Site</text><rect fill="#E2E2F0" height="30.4883" rx="2.5" ry="2.5" style="stroke:#181818;stroke-width:0.5;" width="173" x="133" y="551.1445"/><text fill="#000000" font-family="sans-serif" font-size="14" lengthAdjust="spacing" textLength="159" x="140" y="571.6797">Central Monitoring Site</text><rect fill="#E2E2F0" height="30.4883" rx="2.5" ry="2.5" style="stroke:#181818;stroke-width:0.5;" width="104" x="329.5" y="51"/><text fill="#000000" font-family="sans-serif" font-size="14" lengthAdjust="spacing" textLength="90" x="336.5" y="71.5352">Web Gateway</text><rect fill="#E2E2F0" height="30.4883" rx="2.5" ry="2.5" style="stroke:#181818;stroke-width:0.5;" width="104" x="329.5" y="551.1445"/><text fill="#000000" font-family="sans-serif" font-size="14" lengthAdjust="spacing" textLength="90" x="336.5" y="571.6797">Web Gateway</text><rect fill="#E2E2F0" height="30.4883" rx="2.5" ry="2.5" style="stroke:#181818;stroke-width:0.5;" width="96" x="443.5" y="51"/><text fill="#000000" font-family="sans-serif" font-size="14" lengthAdjust="spacing" textLength="82" x="450.5" y="71.5352">Web Worker</text><rect fill="#E2E2F0" height="30.4883" rx="2.5" ry="2.5" style="stroke:#181818;stroke-width:0.5;" width="96" x="443.5" y="551.1445"/><text fill="#000000" font-family="sans-serif" font-size="14" lengthAdjust="spacing" textLength="82" x="450.5" y="571.6797">Web Worker</text><rect fill="#E2E2F0" height="30.4883" rx="2.5" ry="2.5" style="stroke:#181818;stroke-width:0.5;" width="134" x="591.5" y="51"/><text fill="#000000" font-family="sans-serif" font-size="14" lengthAdjust="spacing" textLength="120" x="598.5" y="71.5352">Realtime Gateway</text><rect fill="#E2E2F0" height="30.4883" rx="2.5" ry="2.5" style="stroke:#181818;stroke-width:0.5;" width="134" x="591.5" y="551.1445"/><text fill="#000000" font-family="sans-serif" font-size="14" lengthAdjust="spacing" textLength="120" x="598.5" y="571.6797">Realtime Gateway</text><polygon fill="#666666" points="369.5,108.6211,379.5,112.6211,369.5,116.6211,373.5,112.6211" style="stroke:#666666;stroke-width:1.0;"/><line style="stroke:#666666;stroke-width:1.0;" x1="219.5" x2="375.5" y1="112.6211" y2="112.6211"/><text fill="#666666" font-family="sans-serif" font-size="12" lengthAdjust="spacing" textLength="53" x="242.5" y="108.0898">Requests</text><text fill="#666666" font-family="sans-serif" font-size="12" lengthAdjust="spacing" textLength="4" x="295.5" y="108.0898">&#160;</text><text fill="#666666" font-family="sans-serif" font-size="12" lengthAdjust="spacing" textLength="29" x="299.5" y="108.0898">beds</text><text fill="#666666" font-family="sans-serif" font-size="12" lengthAdjust="spacing" textLength="4" x="328.5" y="108.0898">&#160;</text><text fill="#666666" font-family="sans-serif" font-size="12" lengthAdjust="spacing" textLength="26" x="332.5" y="108.0898">data</text><polygon fill="#666666" points="230.5,165.0195,220.5,169.0195,230.5,173.0195,226.5,169.0195" style="stroke:#666666;stroke-width:1.0;"/><line style="stroke:#666666;stroke-width:1.0;" x1="224.5" x2="380.5" y1="169.0195" y2="169.0195"/><text fill="#666666" font-family="sans-serif" font-size="12" lengthAdjust="spacing" textLength="44" x="233.5" y="136.2227">Returns</text><text fill="#666666" font-family="sans-serif" font-size="12" lengthAdjust="spacing" textLength="4" x="277.5" y="136.2227">&#160;</text><text fill="#666666" font-family="sans-serif" font-size="12" lengthAdjust="spacing" textLength="29" x="281.5" y="136.2227">beds</text><text fill="#666666" font-family="sans-serif" font-size="12" lengthAdjust="spacing" textLength="4" x="310.5" y="136.2227">&#160;</text><text fill="#666666" font-family="sans-serif" font-size="12" lengthAdjust="spacing" textLength="26" x="314.5" y="136.2227">data</text><text fill="#666666" font-family="sans-serif" font-size="12" lengthAdjust="spacing" textLength="4" x="340.5" y="136.2227">&#160;</text><text fill="#666666" font-family="sans-serif" font-size="12" lengthAdjust="spacing" textLength="23" x="344.5" y="136.2227">with</text><text fill="#666666" font-family="sans-serif" font-size="12" lengthAdjust="spacing" textLength="48" x="245.5" y="150.3555">rejected</text><text fill="#666666" font-family="sans-serif" font-size="12" lengthAdjust="spacing" textLength="4" x="293.5" y="150.3555">&#160;</text><text fill="#666666" font-family="sans-serif" font-size="12" lengthAdjust="spacing" textLength="58" x="297.5" y="150.3555">admission</text><text fill="#666666" font-family="sans-serif" font-size="12" lengthAdjust="spacing" textLength="65" x="268" y="164.4883">information</text><polygon fill="#666666" points="207.5,221.418,217.5,225.418,207.5,229.418,211.5,225.418" style="stroke:#666666;stroke-width:1.0;"/><line style="stroke:#666666;stroke-width:1.0;" x1="50.5" x2="213.5" y1="225.418" y2="225.418"/><text fill="#666666" font-family="sans-serif" font-size="12" lengthAdjust="spacing" textLength="39" x="62.5" y="192.6211">Selects</text><text fill="#666666" font-family="sans-serif" font-size="12" lengthAdjust="spacing" textLength="4" x="101.5" y="192.6211">&#160;</text><text fill="#666666" font-family="sans-serif" font-size="12" lengthAdjust="spacing" textLength="23" x="105.5" y="192.6211">bed</text><text fill="#666666" font-family="sans-serif" font-size="12" lengthAdjust="spacing" textLength="4" x="128.5" y="192.6211">&#160;</text><text fill="#666666" font-family="sans-serif" font-size="12" lengthAdjust="spacing" textLength="23" x="132.5" y="192.6211">with</text><text fill="#666666" font-family="sans-serif" font-size="12" lengthAdjust="spacing" textLength="4" x="155.5" y="192.6211">&#160;</text><text fill="#666666" font-family="sans-serif" font-size="12" lengthAdjust="spacing" textLength="48" x="159.5" y="192.6211">rejected</text><text fill="#666666" font-family="sans-serif" font-size="12" lengthAdjust="spacing" textLength="58" x="70.5" y="206.7539">admission</text><text fill="#666666" font-family="sans-serif" font-size="12" lengthAdjust="spacing" textLength="4" x="128.5" y="206.7539">&#160;</text><text fill="#666666" font-family="sans-serif" font-size="12" lengthAdjust="spacing" textLength="16" x="132.5" y="206.7539">for</text><text fill="#666666" font-family="sans-serif" font-size="12" lengthAdjust="spacing" textLength="4" x="148.5" y="206.7539">&#160;</text><text fill="#666666" font-family="sans-serif" font-size="12" lengthAdjust="spacing" textLength="47" x="152.5" y="206.7539">detailed</text><text fill="#666666" font-family="sans-serif" font-size="12" lengthAdjust="spacing" textLength="25" x="122.5" y="220.8867">view</text><polygon fill="#666666" points="61.5,263.6836,51.5,267.6836,61.5,271.6836,57.5,267.6836" style="stroke:#666666;stroke-width:1.0;"/><line style="stroke:#666666;stroke-width:1.0;" x1="55.5" x2="218.5" y1="267.6836" y2="267.6836"/><text fill="#666666" font-family="sans-serif" font-size="12" lengthAdjust="spacing" textLength="35" x="62.5" y="249.0195">Shows</text><text fill="#666666" font-family="sans-serif" font-size="12" lengthAdjust="spacing" textLength="4" x="97.5" y="249.0195">&#160;</text><text fill="#666666" font-family="sans-serif" font-size="12" lengthAdjust="spacing" textLength="58" x="101.5" y="249.0195">admission</text><text fill="#666666" font-family="sans-serif" font-size="12" lengthAdjust="spacing" textLength="4" x="159.5" y="249.0195">&#160;</text><text fill="#666666" font-family="sans-serif" font-size="12" lengthAdjust="spacing" textLength="44" x="163.5" y="249.0195">request</text><text fill="#666666" font-family="sans-serif" font-size="12" lengthAdjust="spacing" textLength="48" x="91" y="263.1523">rejected</text><text fill="#666666" font-family="sans-serif" font-size="12" lengthAdjust="spacing" textLength="4" x="139" y="263.1523">&#160;</text><text fill="#666666" font-family="sans-serif" font-size="12" lengthAdjust="spacing" textLength="36" x="143" y="263.1523">modal</text><polygon fill="#666666" points="207.5,291.8164,217.5,295.8164,207.5,299.8164,211.5,295.8164" style="stroke:#666666;stroke-width:1.0;"/><line style="stroke:#666666;stroke-width:1.0;" x1="50.5" x2="213.5" y1="295.8164" y2="295.8164"/><text fill="#666666" font-family="sans-serif" font-size="12" lengthAdjust="spacing" textLength="39" x="73.5" y="291.2852">Selects</text><text fill="#666666" font-family="sans-serif" font-size="12" lengthAdjust="spacing" textLength="4" x="112.5" y="291.2852">&#160;</text><text fill="#666666" font-family="sans-serif" font-size="12" lengthAdjust="spacing" textLength="28" x="116.5" y="291.2852">back</text><text fill="#666666" font-family="sans-serif" font-size="12" lengthAdjust="spacing" textLength="4" x="144.5" y="291.2852">&#160;</text><text fill="#666666" font-family="sans-serif" font-size="12" lengthAdjust="spacing" textLength="11" x="148.5" y="291.2852">to</text><text fill="#666666" font-family="sans-serif" font-size="12" lengthAdjust="spacing" textLength="4" x="159.5" y="291.2852">&#160;</text><text fill="#666666" font-family="sans-serif" font-size="12" lengthAdjust="spacing" textLength="33" x="163.5" y="291.2852">admit</text><polygon fill="#666666" points="369.5,334.082,379.5,338.082,369.5,342.082,373.5,338.082" style="stroke:#666666;stroke-width:1.0;"/><line style="stroke:#666666;stroke-width:1.0;" x1="219.5" x2="375.5" y1="338.082" y2="338.082"/><text fill="#666666" font-family="sans-serif" font-size="12" lengthAdjust="spacing" textLength="34" x="231.5" y="319.418">Sends</text><text fill="#666666" font-family="sans-serif" font-size="12" lengthAdjust="spacing" textLength="4" x="265.5" y="319.418">&#160;</text><text fill="#666666" font-family="sans-serif" font-size="12" lengthAdjust="spacing" textLength="26" x="269.5" y="319.418">data</text><text fill="#666666" font-family="sans-serif" font-size="12" lengthAdjust="spacing" textLength="4" x="295.5" y="319.418">&#160;</text><text fill="#666666" font-family="sans-serif" font-size="12" lengthAdjust="spacing" textLength="16" x="299.5" y="319.418">for</text><text fill="#666666" font-family="sans-serif" font-size="12" lengthAdjust="spacing" textLength="4" x="315.5" y="319.418">&#160;</text><text fill="#666666" font-family="sans-serif" font-size="12" lengthAdjust="spacing" textLength="50" x="319.5" y="319.418">rejection</text><text fill="#666666" font-family="sans-serif" font-size="12" lengthAdjust="spacing" textLength="83" x="259" y="333.5508">acknowledged</text><polygon fill="#666666" points="230.5,362.2148,220.5,366.2148,230.5,370.2148,226.5,366.2148" style="stroke:#666666;stroke-width:1.0;"/><line style="stroke:#666666;stroke-width:1.0;" x1="224.5" x2="380.5" y1="366.2148" y2="366.2148"/><text fill="#666666" font-family="sans-serif" font-size="12" lengthAdjust="spacing" textLength="44" x="254.5" y="361.6836">Returns</text><text fill="#666666" font-family="sans-serif" font-size="12" lengthAdjust="spacing" textLength="4" x="298.5" y="361.6836">&#160;</text><text fill="#666666" font-family="sans-serif" font-size="12" lengthAdjust="spacing" textLength="44" x="302.5" y="361.6836">success</text><line style="stroke:#666666;stroke-width:1.0;" x1="219.5" x2="261.5" y1="394.3477" y2="394.3477"/><line style="stroke:#666666;stroke-width:1.0;" x1="261.5" x2="261.5" y1="394.3477" y2="407.3477"/><line style="stroke:#666666;stroke-width:1.0;" x1="220.5" x2="261.5" y1="407.3477" y2="407.3477"/><polygon fill="#666666" points="230.5,403.3477,220.5,407.3477,230.5,411.3477,226.5,407.3477" style="stroke:#666666;stroke-width:1.0;"/><text fill="#666666" font-family="sans-serif" font-size="12" lengthAdjust="spacing" textLength="61" x="226.5" y="389.8164">Invalidates</text><text fill="#666666" font-family="sans-serif" font-size="12" lengthAdjust="spacing" textLength="4" x="287.5" y="389.8164">&#160;</text><text fill="#666666" font-family="sans-serif" font-size="12" lengthAdjust="spacing" textLength="26" x="291.5" y="389.8164">local</text><text fill="#666666" font-family="sans-serif" font-size="12" lengthAdjust="spacing" textLength="4" x="317.5" y="389.8164">&#160;</text><text fill="#666666" font-family="sans-serif" font-size="12" lengthAdjust="spacing" textLength="23" x="321.5" y="389.8164">bed</text><text fill="#666666" font-family="sans-serif" font-size="12" lengthAdjust="spacing" textLength="4" x="344.5" y="389.8164">&#160;</text><text fill="#666666" font-family="sans-serif" font-size="12" lengthAdjust="spacing" textLength="26" x="348.5" y="389.8164">data</text><polygon fill="#666666" points="502.5,445.6133,492.5,449.6133,502.5,453.6133,498.5,449.6133" style="stroke:#666666;stroke-width:1.0;"/><line style="stroke:#666666;stroke-width:1.0;" x1="496.5" x2="657.5" y1="449.6133" y2="449.6133"/><text fill="#666666" font-family="sans-serif" font-size="12" lengthAdjust="spacing" textLength="34" x="503.5" y="430.9492">Sends</text><text fill="#666666" font-family="sans-serif" font-size="12" lengthAdjust="spacing" textLength="4" x="537.5" y="430.9492">&#160;</text><text fill="#666666" font-family="sans-serif" font-size="12" lengthAdjust="spacing" textLength="31" x="541.5" y="430.9492">event</text><text fill="#666666" font-family="sans-serif" font-size="12" lengthAdjust="spacing" textLength="4" x="572.5" y="430.9492">&#160;</text><text fill="#666666" font-family="sans-serif" font-size="12" lengthAdjust="spacing" textLength="16" x="576.5" y="430.9492">for</text><text fill="#666666" font-family="sans-serif" font-size="12" lengthAdjust="spacing" textLength="4" x="592.5" y="430.9492">&#160;</text><text fill="#666666" font-family="sans-serif" font-size="12" lengthAdjust="spacing" textLength="23" x="596.5" y="430.9492">new</text><text fill="#666666" font-family="sans-serif" font-size="12" lengthAdjust="spacing" textLength="4" x="619.5" y="430.9492">&#160;</text><text fill="#666666" font-family="sans-serif" font-size="12" lengthAdjust="spacing" textLength="23" x="623.5" y="430.9492">bed</text><text fill="#666666" font-family="sans-serif" font-size="12" lengthAdjust="spacing" textLength="65" x="542.5" y="445.082">information</text><polygon fill="#666666" points="230.5,487.8789,220.5,491.8789,230.5,495.8789,226.5,491.8789" style="stroke:#666666;stroke-width:1.0;"/><line style="stroke:#666666;stroke-width:1.0;" x1="224.5" x2="490.5" y1="491.8789" y2="491.8789"/><text fill="#666666" font-family="sans-serif" font-size="12" lengthAdjust="spacing" textLength="39" x="281.5" y="473.2148">Passes</text><text fill="#666666" font-family="sans-serif" font-size="12" lengthAdjust="spacing" textLength="4" x="320.5" y="473.2148">&#160;</text><text fill="#666666" font-family="sans-serif" font-size="12" lengthAdjust="spacing" textLength="31" x="324.5" y="473.2148">event</text><text fill="#666666" font-family="sans-serif" font-size="12" lengthAdjust="spacing" textLength="4" x="355.5" y="473.2148">&#160;</text><text fill="#666666" font-family="sans-serif" font-size="12" lengthAdjust="spacing" textLength="16" x="359.5" y="473.2148">for</text><text fill="#666666" font-family="sans-serif" font-size="12" lengthAdjust="spacing" textLength="4" x="375.5" y="473.2148">&#160;</text><text fill="#666666" font-family="sans-serif" font-size="12" lengthAdjust="spacing" textLength="23" x="379.5" y="473.2148">new</text><text fill="#666666" font-family="sans-serif" font-size="12" lengthAdjust="spacing" textLength="4" x="402.5" y="473.2148">&#160;</text><text fill="#666666" font-family="sans-serif" font-size="12" lengthAdjust="spacing" textLength="23" x="406.5" y="473.2148">bed</text><text fill="#666666" font-family="sans-serif" font-size="12" lengthAdjust="spacing" textLength="65" x="323" y="487.3477">information</text><polygon fill="#666666" points="61.5,530.1445,51.5,534.1445,61.5,538.1445,57.5,534.1445" style="stroke:#666666;stroke-width:1.0;"/><line style="stroke:#666666;stroke-width:1.0;" x1="55.5" x2="218.5" y1="534.1445" y2="534.1445"/><text fill="#666666" font-family="sans-serif" font-size="12" lengthAdjust="spacing" textLength="35" x="62.5" y="515.4805">Shows</text><text fill="#666666" font-family="sans-serif" font-size="12" lengthAdjust="spacing" textLength="4" x="97.5" y="515.4805">&#160;</text><text fill="#666666" font-family="sans-serif" font-size="12" lengthAdjust="spacing" textLength="58" x="101.5" y="515.4805">submitted</text><text fill="#666666" font-family="sans-serif" font-size="12" lengthAdjust="spacing" textLength="4" x="159.5" y="515.4805">&#160;</text><text fill="#666666" font-family="sans-serif" font-size="12" lengthAdjust="spacing" textLength="44" x="163.5" y="515.4805">request</text><text fill="#666666" font-family="sans-serif" font-size="12" lengthAdjust="spacing" textLength="51" x="109.5" y="529.6133">message</text><!--SRC=[XL8zJmCn3DtlLvZkYAKJGbrkG0n8g1NgY7o9QKrpIKbyFV7lSNAzjYTQaScAtuVzaZlsndMMuAcUFzJpZpgq- -39owAgq4Y8C9nPxTYpGGVlYU8C01DqMbLxZCA6z-X5GKgCYdaDdfNBVWCh5ffbj6dJ5Boc1fvHgCUV0kYf-GjOXxZBVhbVoYbaIUY4Mve8nUDbLQadt2-oCZp2ahuxIfAW8Pl0ec2L6zhFiDoNBlgBDlGiMrNx8YDa0MtBAN7mmFupn1P5wog7SDPOaLDmqRZ9LYvO4cIdrmUcVXopIAd6DlJf0X-7kSzIRR3eRXcZsO64GfVf_Ylous9vX44k6oZ5XrwdsP2z7adgZA6KHhsX-U8Fw5ZrA84B-MlahKkkumiKy_9i9tyww1yf0tZg2-CopIFuvF66AT5_f6lnfQxH079QOtojBe0R_HI_]--></g></svg>