<?xml version="1.0" encoding="us-ascii" standalone="no"?><svg xmlns="http://www.w3.org/2000/svg" xmlns:xlink="http://www.w3.org/1999/xlink" contentStyleType="text/css" height="606px" preserveAspectRatio="none" style="width:401px;height:606px;background:#FFFFFF;" version="1.1" viewBox="0 0 401 606" width="401px" zoomAndPan="magnify"><defs/><g><rect fill="none" height="115.6641" style="stroke:#000000;stroke-width:1.5;" width="361.5" x="10" y="307.418"/><line style="stroke:#181818;stroke-width:0.5;stroke-dasharray:5.0,5.0;" x1="65" x2="65" y1="82.4883" y2="523.4805"/><line style="stroke:#181818;stroke-width:0.5;stroke-dasharray:5.0,5.0;" x1="238" x2="238" y1="82.4883" y2="523.4805"/><text fill="#000000" font-family="sans-serif" font-size="14" lengthAdjust="spacing" textLength="85" x="20" y="79.5352">Clinical User</text><ellipse cx="65.5" cy="21.5" fill="#E2E2F0" rx="16" ry="16" style="stroke:#181818;stroke-width:0.5;"/><path d="M65.5,41.5 C69.5,41.5 72.5,41.5 76.5,37.5 C84.5,37.5 92.5,45.5 92.5,53.5 L92.5,57.5 C92.5,61.5 88.5,65.5 84.5,65.5 L46.5,65.5 C42.5,65.5 38.5,61.5 38.5,57.5 L38.5,53.5 C38.5,45.5 46.5,37.5 54.5,37.5 C58.5,41.5 61.5,41.5 65.5,41.5 " fill="#E2E2F0" style="stroke:#181818;stroke-width:0.5;"/><text fill="#000000" font-family="sans-serif" font-size="14" lengthAdjust="spacing" textLength="85" x="20" y="536.0156">Clinical User</text><ellipse cx="65.5" cy="555.4688" fill="#E2E2F0" rx="16" ry="16" style="stroke:#181818;stroke-width:0.5;"/><path d="M65.5,575.4688 C69.5,575.4688 72.5,575.4688 76.5,571.4688 C84.5,571.4688 92.5,579.4688 92.5,587.4688 L92.5,591.4688 C92.5,595.4688 88.5,599.4688 84.5,599.4688 L46.5,599.4688 C42.5,599.4688 38.5,595.4688 38.5,591.4688 L38.5,587.4688 C38.5,579.4688 46.5,571.4688 54.5,571.4688 C58.5,575.4688 61.5,575.4688 65.5,575.4688 " fill="#E2E2F0" style="stroke:#181818;stroke-width:0.5;"/><rect fill="#E2E2F0" height="30.4883" rx="2.5" ry="2.5" style="stroke:#181818;stroke-width:0.5;" width="173" x="152" y="51"/><text fill="#000000" font-family="sans-serif" font-size="14" lengthAdjust="spacing" textLength="159" x="159" y="71.5352">Central Monitoring Site</text><rect fill="#E2E2F0" height="30.4883" rx="2.5" ry="2.5" style="stroke:#181818;stroke-width:0.5;" width="173" x="152" y="522.4805"/><text fill="#000000" font-family="sans-serif" font-size="14" lengthAdjust="spacing" textLength="159" x="159" y="543.0156">Central Monitoring Site</text><line style="stroke:#666666;stroke-width:1.0;" x1="238.5" x2="280.5" y1="112.6211" y2="112.6211"/><line style="stroke:#666666;stroke-width:1.0;" x1="280.5" x2="280.5" y1="112.6211" y2="125.6211"/><line style="stroke:#666666;stroke-width:1.0;" x1="239.5" x2="280.5" y1="125.6211" y2="125.6211"/><polygon fill="#666666" points="249.5,121.6211,239.5,125.6211,249.5,129.6211,245.5,125.6211" style="stroke:#666666;stroke-width:1.0;"/><text fill="#666666" font-family="sans-serif" font-size="12" lengthAdjust="spacing" textLength="34" x="245.5" y="108.0898">Loads</text><text fill="#666666" font-family="sans-serif" font-size="12" lengthAdjust="spacing" textLength="4" x="279.5" y="108.0898">&#160;</text><text fill="#666666" font-family="sans-serif" font-size="12" lengthAdjust="spacing" textLength="40" x="283.5" y="108.0898">Clinical</text><text fill="#666666" font-family="sans-serif" font-size="12" lengthAdjust="spacing" textLength="4" x="323.5" y="108.0898">&#160;</text><text fill="#666666" font-family="sans-serif" font-size="12" lengthAdjust="spacing" textLength="42" x="327.5" y="108.0898">Module</text><polygon fill="#666666" points="76.5,163.8867,66.5,167.8867,76.5,171.8867,72.5,167.8867" style="stroke:#666666;stroke-width:1.0;"/><line style="stroke:#666666;stroke-width:1.0;" x1="70.5" x2="237.5" y1="167.8867" y2="167.8867"/><text fill="#666666" font-family="sans-serif" font-size="12" lengthAdjust="spacing" textLength="42" x="93.5" y="149.2227">Display</text><text fill="#666666" font-family="sans-serif" font-size="12" lengthAdjust="spacing" textLength="4" x="135.5" y="149.2227">&#160;</text><text fill="#666666" font-family="sans-serif" font-size="12" lengthAdjust="spacing" textLength="35" x="139.5" y="149.2227">pause</text><text fill="#666666" font-family="sans-serif" font-size="12" lengthAdjust="spacing" textLength="4" x="174.5" y="149.2227">&#160;</text><text fill="#666666" font-family="sans-serif" font-size="12" lengthAdjust="spacing" textLength="32" x="178.5" y="149.2227">audio</text><text fill="#666666" font-family="sans-serif" font-size="12" lengthAdjust="spacing" textLength="37" x="133.5" y="163.3555">button</text><polygon fill="#666666" points="226.5,192.0195,236.5,196.0195,226.5,200.0195,230.5,196.0195" style="stroke:#666666;stroke-width:1.0;"/><line style="stroke:#666666;stroke-width:1.0;" x1="65.5" x2="232.5" y1="196.0195" y2="196.0195"/><text fill="#666666" font-family="sans-serif" font-size="12" lengthAdjust="spacing" textLength="33" x="77.5" y="191.4883">Clicks</text><text fill="#666666" font-family="sans-serif" font-size="12" lengthAdjust="spacing" textLength="4" x="110.5" y="191.4883">&#160;</text><text fill="#666666" font-family="sans-serif" font-size="12" lengthAdjust="spacing" textLength="35" x="114.5" y="191.4883">pause</text><text fill="#666666" font-family="sans-serif" font-size="12" lengthAdjust="spacing" textLength="4" x="149.5" y="191.4883">&#160;</text><text fill="#666666" font-family="sans-serif" font-size="12" lengthAdjust="spacing" textLength="32" x="153.5" y="191.4883">audio</text><text fill="#666666" font-family="sans-serif" font-size="12" lengthAdjust="spacing" textLength="4" x="185.5" y="191.4883">&#160;</text><text fill="#666666" font-family="sans-serif" font-size="12" lengthAdjust="spacing" textLength="37" x="189.5" y="191.4883">button</text><line style="stroke:#666666;stroke-width:1.0;" x1="238.5" x2="280.5" y1="224.1523" y2="224.1523"/><line style="stroke:#666666;stroke-width:1.0;" x1="280.5" x2="280.5" y1="224.1523" y2="237.1523"/><line style="stroke:#666666;stroke-width:1.0;" x1="239.5" x2="280.5" y1="237.1523" y2="237.1523"/><polygon fill="#666666" points="249.5,233.1523,239.5,237.1523,249.5,241.1523,245.5,237.1523" style="stroke:#666666;stroke-width:1.0;"/><text fill="#666666" font-family="sans-serif" font-size="12" lengthAdjust="spacing" textLength="66" x="245.5" y="219.6211">Deactivates</text><text fill="#666666" font-family="sans-serif" font-size="12" lengthAdjust="spacing" textLength="4" x="311.5" y="219.6211">&#160;</text><text fill="#666666" font-family="sans-serif" font-size="12" lengthAdjust="spacing" textLength="32" x="315.5" y="219.6211">audio</text><text fill="#666666" font-family="sans-serif" font-size="12" lengthAdjust="spacing" textLength="4" x="347.5" y="219.6211">&#160;</text><text fill="#666666" font-family="sans-serif" font-size="12" lengthAdjust="spacing" textLength="32" x="351.5" y="219.6211">alerts</text><line style="stroke:#666666;stroke-width:1.0;" x1="238.5" x2="280.5" y1="279.418" y2="279.418"/><line style="stroke:#666666;stroke-width:1.0;" x1="280.5" x2="280.5" y1="279.418" y2="292.418"/><line style="stroke:#666666;stroke-width:1.0;" x1="239.5" x2="280.5" y1="292.418" y2="292.418"/><polygon fill="#666666" points="249.5,288.418,239.5,292.418,249.5,296.418,245.5,292.418" style="stroke:#666666;stroke-width:1.0;"/><text fill="#666666" font-family="sans-serif" font-size="12" lengthAdjust="spacing" textLength="32" x="245.5" y="260.7539">Starts</text><text fill="#666666" font-family="sans-serif" font-size="12" lengthAdjust="spacing" textLength="4" x="277.5" y="260.7539">&#160;</text><text fill="#666666" font-family="sans-serif" font-size="12" lengthAdjust="spacing" textLength="43" x="281.5" y="260.7539">paused</text><text fill="#666666" font-family="sans-serif" font-size="12" lengthAdjust="spacing" textLength="4" x="324.5" y="260.7539">&#160;</text><text fill="#666666" font-family="sans-serif" font-size="12" lengthAdjust="spacing" textLength="32" x="328.5" y="260.7539">audio</text><text fill="#666666" font-family="sans-serif" font-size="12" lengthAdjust="spacing" textLength="4" x="360.5" y="260.7539">&#160;</text><text fill="#666666" font-family="sans-serif" font-size="12" lengthAdjust="spacing" textLength="30" x="364.5" y="260.7539">timer</text><text fill="#666666" font-family="sans-serif" font-size="12" lengthAdjust="spacing" textLength="22" x="249" y="274.8867">and</text><text fill="#666666" font-family="sans-serif" font-size="12" lengthAdjust="spacing" textLength="4" x="271" y="274.8867">&#160;</text><text fill="#666666" font-family="sans-serif" font-size="12" lengthAdjust="spacing" textLength="35" x="275" y="274.8867">shows</text><text fill="#666666" font-family="sans-serif" font-size="12" lengthAdjust="spacing" textLength="4" x="310" y="274.8867">&#160;</text><text fill="#666666" font-family="sans-serif" font-size="12" lengthAdjust="spacing" textLength="36" x="314" y="274.8867">cancel</text><text fill="#666666" font-family="sans-serif" font-size="12" lengthAdjust="spacing" textLength="4" x="350" y="274.8867">&#160;</text><text fill="#666666" font-family="sans-serif" font-size="12" lengthAdjust="spacing" textLength="37" x="354" y="274.8867">button</text><path d="M10,307.418 L72,307.418 L72,314.7285 L62,324.7285 L10,324.7285 L10,307.418 " fill="#EEEEEE" style="stroke:#000000;stroke-width:1.5;"/><rect fill="none" height="115.6641" style="stroke:#000000;stroke-width:1.5;" width="361.5" x="10" y="307.418"/><text fill="#000000" font-family="sans-serif" font-size="13" font-weight="bold" lengthAdjust="spacing" textLength="17" x="25" y="320.9863">alt</text><text fill="#000000" font-family="sans-serif" font-size="11" font-weight="bold" lengthAdjust="spacing" textLength="193" x="87" y="320.0527">[user wants to cancel audio pause]</text><polygon fill="#666666" points="226.5,340.8613,236.5,344.8613,226.5,348.8613,230.5,344.8613" style="stroke:#666666;stroke-width:1.0;"/><line style="stroke:#666666;stroke-width:1.0;" x1="65.5" x2="232.5" y1="344.8613" y2="344.8613"/><text fill="#666666" font-family="sans-serif" font-size="12" lengthAdjust="spacing" textLength="33" x="95" y="340.3301">Clicks</text><text fill="#666666" font-family="sans-serif" font-size="12" lengthAdjust="spacing" textLength="4" x="128" y="340.3301">&#160;</text><text fill="#666666" font-family="sans-serif" font-size="12" lengthAdjust="spacing" textLength="36" x="132" y="340.3301">cancel</text><text fill="#666666" font-family="sans-serif" font-size="12" lengthAdjust="spacing" textLength="4" x="168" y="340.3301">&#160;</text><text fill="#666666" font-family="sans-serif" font-size="12" lengthAdjust="spacing" textLength="37" x="172" y="340.3301">button</text><line style="stroke:#000000;stroke-width:1.0;stroke-dasharray:2.0,2.0;" x1="10" x2="371.5" y1="353.8613" y2="353.8613"/><text fill="#000000" font-family="sans-serif" font-size="11" font-weight="bold" lengthAdjust="spacing" textLength="132" x="15" y="364.4961">[full timer time passes]</text><line style="stroke:#666666;stroke-width:1.0;" x1="238.5" x2="280.5" y1="402.082" y2="402.082"/><line style="stroke:#666666;stroke-width:1.0;" x1="280.5" x2="280.5" y1="402.082" y2="415.082"/><line style="stroke:#666666;stroke-width:1.0;" x1="239.5" x2="280.5" y1="415.082" y2="415.082"/><polygon fill="#666666" points="249.5,411.082,239.5,415.082,249.5,419.082,245.5,415.082" style="stroke:#666666;stroke-width:1.0;"/><text fill="#666666" font-family="sans-serif" font-size="12" lengthAdjust="spacing" textLength="33" x="245.5" y="383.418">Audio</text><text fill="#666666" font-family="sans-serif" font-size="12" lengthAdjust="spacing" textLength="4" x="278.5" y="383.418">&#160;</text><text fill="#666666" font-family="sans-serif" font-size="12" lengthAdjust="spacing" textLength="43" x="282.5" y="383.418">paused</text><text fill="#666666" font-family="sans-serif" font-size="12" lengthAdjust="spacing" textLength="4" x="325.5" y="383.418">&#160;</text><text fill="#666666" font-family="sans-serif" font-size="12" lengthAdjust="spacing" textLength="30" x="329.5" y="383.418">timer</text><text fill="#666666" font-family="sans-serif" font-size="12" lengthAdjust="spacing" textLength="45" x="265" y="397.5508">reaches</text><text fill="#666666" font-family="sans-serif" font-size="12" lengthAdjust="spacing" textLength="4" x="310" y="397.5508">&#160;</text><text fill="#666666" font-family="sans-serif" font-size="12" lengthAdjust="spacing" textLength="26" x="314" y="397.5508">zero</text><line style="stroke:#666666;stroke-width:1.0;" x1="238.5" x2="280.5" y1="450.2148" y2="450.2148"/><line style="stroke:#666666;stroke-width:1.0;" x1="280.5" x2="280.5" y1="450.2148" y2="463.2148"/><line style="stroke:#666666;stroke-width:1.0;" x1="239.5" x2="280.5" y1="463.2148" y2="463.2148"/><polygon fill="#666666" points="249.5,459.2148,239.5,463.2148,249.5,467.2148,245.5,463.2148" style="stroke:#666666;stroke-width:1.0;"/><text fill="#666666" font-family="sans-serif" font-size="12" lengthAdjust="spacing" textLength="65" x="245.5" y="445.6836">Reactivates</text><text fill="#666666" font-family="sans-serif" font-size="12" lengthAdjust="spacing" textLength="4" x="310.5" y="445.6836">&#160;</text><text fill="#666666" font-family="sans-serif" font-size="12" lengthAdjust="spacing" textLength="32" x="314.5" y="445.6836">audio</text><text fill="#666666" font-family="sans-serif" font-size="12" lengthAdjust="spacing" textLength="4" x="346.5" y="445.6836">&#160;</text><text fill="#666666" font-family="sans-serif" font-size="12" lengthAdjust="spacing" textLength="32" x="350.5" y="445.6836">alerts</text><polygon fill="#666666" points="76.5,501.4805,66.5,505.4805,76.5,509.4805,72.5,505.4805" style="stroke:#666666;stroke-width:1.0;"/><line style="stroke:#666666;stroke-width:1.0;" x1="70.5" x2="237.5" y1="505.4805" y2="505.4805"/><text fill="#666666" font-family="sans-serif" font-size="12" lengthAdjust="spacing" textLength="42" x="93.5" y="486.8164">Display</text><text fill="#666666" font-family="sans-serif" font-size="12" lengthAdjust="spacing" textLength="4" x="135.5" y="486.8164">&#160;</text><text fill="#666666" font-family="sans-serif" font-size="12" lengthAdjust="spacing" textLength="35" x="139.5" y="486.8164">pause</text><text fill="#666666" font-family="sans-serif" font-size="12" lengthAdjust="spacing" textLength="4" x="174.5" y="486.8164">&#160;</text><text fill="#666666" font-family="sans-serif" font-size="12" lengthAdjust="spacing" textLength="32" x="178.5" y="486.8164">audio</text><text fill="#666666" font-family="sans-serif" font-size="12" lengthAdjust="spacing" textLength="37" x="116" y="500.9492">button</text><text fill="#666666" font-family="sans-serif" font-size="12" lengthAdjust="spacing" textLength="4" x="153" y="500.9492">&#160;</text><text fill="#666666" font-family="sans-serif" font-size="12" lengthAdjust="spacing" textLength="31" x="157" y="500.9492">again</text><!--SRC=[XP0zJmCn38Rt_0fpEsBfX50bT1tfGiMCJ69QYpGvnGuL_7fydt0IKc-8ejpZntvzmyd76WWUsirTktbjyxdBYP9kdKElkS3uDMtan1uZl0YL1W05gjrSXqNPSuT93RB2Oim-9xPQJaSui5BJq_uipja1jzl-3lVmb348BE9z3ZNIZFHoOtOiNSGlwD0U06lW36zLDISt48lCDFv3_kDMFNTagVWJbMIYC59HMLC7jLIJB4oSyjdwOGeWftonF9WynRa9HXr7ljWY13JF_yVYmUJwHVwPUXbwhQ9e2TvhZ5FB_ZI12CbWM4tw-AiF4ryiuidYVLF9Zb9OHtk-ie2hUmSy8YVt0m00]--></g></svg>