<?xml version="1.0" encoding="us-ascii" standalone="no"?><svg xmlns="http://www.w3.org/2000/svg" xmlns:xlink="http://www.w3.org/1999/xlink" contentStyleType="text/css" height="522px" preserveAspectRatio="none" style="width:449px;height:522px;background:#FFFFFF;" version="1.1" viewBox="0 0 449 522" width="449px" zoomAndPan="magnify"><defs/><g><line style="stroke:#181818;stroke-width:0.5;stroke-dasharray:5.0,5.0;" x1="58" x2="58" y1="82.4883" y2="439.4805"/><line style="stroke:#181818;stroke-width:0.5;stroke-dasharray:5.0,5.0;" x1="217.5" x2="217.5" y1="82.4883" y2="439.4805"/><line style="stroke:#181818;stroke-width:0.5;stroke-dasharray:5.0,5.0;" x1="391" x2="391" y1="82.4883" y2="439.4805"/><text fill="#000000" font-family="sans-serif" font-size="14" lengthAdjust="spacing" textLength="100" x="5" y="79.5352">Technical User</text><ellipse cx="58" cy="21.5" fill="#E2E2F0" rx="16" ry="16" style="stroke:#181818;stroke-width:0.5;"/><path d="M58,41.5 C62,41.5 65,41.5 69,37.5 C77,37.5 85,45.5 85,53.5 L85,57.5 C85,61.5 81,65.5 77,65.5 L39,65.5 C35,65.5 31,61.5 31,57.5 L31,53.5 C31,45.5 39,37.5 47,37.5 C51,41.5 54,41.5 58,41.5 " fill="#E2E2F0" style="stroke:#181818;stroke-width:0.5;"/><text fill="#000000" font-family="sans-serif" font-size="14" lengthAdjust="spacing" textLength="100" x="5" y="452.0156">Technical User</text><ellipse cx="58" cy="471.4688" fill="#E2E2F0" rx="16" ry="16" style="stroke:#181818;stroke-width:0.5;"/><path d="M58,491.4688 C62,491.4688 65,491.4688 69,487.4688 C77,487.4688 85,495.4688 85,503.4688 L85,507.4688 C85,511.4688 81,515.4688 77,515.4688 L39,515.4688 C35,515.4688 31,511.4688 31,507.4688 L31,503.4688 C31,495.4688 39,487.4688 47,487.4688 C51,491.4688 54,491.4688 58,491.4688 " fill="#E2E2F0" style="stroke:#181818;stroke-width:0.5;"/><rect fill="#E2E2F0" height="30.4883" rx="2.5" ry="2.5" style="stroke:#181818;stroke-width:0.5;" width="173" x="131.5" y="51"/><text fill="#000000" font-family="sans-serif" font-size="14" lengthAdjust="spacing" textLength="159" x="138.5" y="71.5352">Central Monitoring Site</text><rect fill="#E2E2F0" height="30.4883" rx="2.5" ry="2.5" style="stroke:#181818;stroke-width:0.5;" width="173" x="131.5" y="438.4805"/><text fill="#000000" font-family="sans-serif" font-size="14" lengthAdjust="spacing" textLength="159" x="138.5" y="459.0156">Central Monitoring Site</text><rect fill="#E2E2F0" height="30.4883" rx="2.5" ry="2.5" style="stroke:#181818;stroke-width:0.5;" width="104" x="339" y="51"/><text fill="#000000" font-family="sans-serif" font-size="14" lengthAdjust="spacing" textLength="90" x="346" y="71.5352">Web Gateway</text><rect fill="#E2E2F0" height="30.4883" rx="2.5" ry="2.5" style="stroke:#181818;stroke-width:0.5;" width="104" x="339" y="438.4805"/><text fill="#000000" font-family="sans-serif" font-size="14" lengthAdjust="spacing" textLength="90" x="346" y="459.0156">Web Gateway</text><polygon fill="#666666" points="69,108.6211,59,112.6211,69,116.6211,65,112.6211" style="stroke:#666666;stroke-width:1.0;"/><line style="stroke:#666666;stroke-width:1.0;" x1="63" x2="217" y1="112.6211" y2="112.6211"/><text fill="#666666" font-family="sans-serif" font-size="12" lengthAdjust="spacing" textLength="35" x="70" y="108.0898">Shows</text><text fill="#666666" font-family="sans-serif" font-size="12" lengthAdjust="spacing" textLength="4" x="105" y="108.0898">&#160;</text><text fill="#666666" font-family="sans-serif" font-size="12" lengthAdjust="spacing" textLength="50" x="109" y="108.0898">technical</text><text fill="#666666" font-family="sans-serif" font-size="12" lengthAdjust="spacing" textLength="4" x="159" y="108.0898">&#160;</text><text fill="#666666" font-family="sans-serif" font-size="12" lengthAdjust="spacing" textLength="43" x="163" y="108.0898">module</text><polygon fill="#666666" points="206,136.7539,216,140.7539,206,144.7539,210,140.7539" style="stroke:#666666;stroke-width:1.0;"/><line style="stroke:#666666;stroke-width:1.0;" x1="58" x2="212" y1="140.7539" y2="140.7539"/><text fill="#666666" font-family="sans-serif" font-size="12" lengthAdjust="spacing" textLength="33" x="72.5" y="136.2227">Clicks</text><text fill="#666666" font-family="sans-serif" font-size="12" lengthAdjust="spacing" textLength="4" x="105.5" y="136.2227">&#160;</text><text fill="#666666" font-family="sans-serif" font-size="12" lengthAdjust="spacing" textLength="14" x="109.5" y="136.2227">on</text><text fill="#666666" font-family="sans-serif" font-size="12" lengthAdjust="spacing" textLength="4" x="123.5" y="136.2227">&#160;</text><text fill="#666666" font-family="sans-serif" font-size="12" lengthAdjust="spacing" textLength="35" x="127.5" y="136.2227">logout</text><text fill="#666666" font-family="sans-serif" font-size="12" lengthAdjust="spacing" textLength="4" x="162.5" y="136.2227">&#160;</text><text fill="#666666" font-family="sans-serif" font-size="12" lengthAdjust="spacing" textLength="37" x="166.5" y="136.2227">button</text><polygon fill="#666666" points="69,179.0195,59,183.0195,69,187.0195,65,183.0195" style="stroke:#666666;stroke-width:1.0;"/><line style="stroke:#666666;stroke-width:1.0;" x1="63" x2="217" y1="183.0195" y2="183.0195"/><text fill="#666666" font-family="sans-serif" font-size="12" lengthAdjust="spacing" textLength="48" x="89.5" y="164.3555">Prompts</text><text fill="#666666" font-family="sans-serif" font-size="12" lengthAdjust="spacing" textLength="4" x="137.5" y="164.3555">&#160;</text><text fill="#666666" font-family="sans-serif" font-size="12" lengthAdjust="spacing" textLength="25" x="141.5" y="164.3555">user</text><text fill="#666666" font-family="sans-serif" font-size="12" lengthAdjust="spacing" textLength="4" x="166.5" y="164.3555">&#160;</text><text fill="#666666" font-family="sans-serif" font-size="12" lengthAdjust="spacing" textLength="16" x="170.5" y="164.3555">for</text><text fill="#666666" font-family="sans-serif" font-size="12" lengthAdjust="spacing" textLength="56" x="110" y="178.4883">password</text><polygon fill="#666666" points="206,221.2852,216,225.2852,206,229.2852,210,225.2852" style="stroke:#666666;stroke-width:1.0;"/><line style="stroke:#666666;stroke-width:1.0;" x1="58" x2="212" y1="225.2852" y2="225.2852"/><text fill="#666666" font-family="sans-serif" font-size="12" lengthAdjust="spacing" textLength="36" x="77" y="206.6211">Enters</text><text fill="#666666" font-family="sans-serif" font-size="12" lengthAdjust="spacing" textLength="4" x="113" y="206.6211">&#160;</text><text fill="#666666" font-family="sans-serif" font-size="12" lengthAdjust="spacing" textLength="56" x="117" y="206.6211">password</text><text fill="#666666" font-family="sans-serif" font-size="12" lengthAdjust="spacing" textLength="4" x="173" y="206.6211">&#160;</text><text fill="#666666" font-family="sans-serif" font-size="12" lengthAdjust="spacing" textLength="22" x="177" y="206.6211">and</text><text fill="#666666" font-family="sans-serif" font-size="12" lengthAdjust="spacing" textLength="44" x="116" y="220.7539">accepts</text><polygon fill="#666666" points="379,263.5508,389,267.5508,379,271.5508,383,267.5508" style="stroke:#666666;stroke-width:1.0;"/><line style="stroke:#666666;stroke-width:1.0;" x1="218" x2="385" y1="267.5508" y2="267.5508"/><text fill="#666666" font-family="sans-serif" font-size="12" lengthAdjust="spacing" textLength="53" x="248" y="248.8867">Requests</text><text fill="#666666" font-family="sans-serif" font-size="12" lengthAdjust="spacing" textLength="4" x="301" y="248.8867">&#160;</text><text fill="#666666" font-family="sans-serif" font-size="12" lengthAdjust="spacing" textLength="56" x="305" y="248.8867">password</text><text fill="#666666" font-family="sans-serif" font-size="12" lengthAdjust="spacing" textLength="55" x="277" y="263.0195">validation</text><polygon fill="#666666" points="229,319.9492,219,323.9492,229,327.9492,225,323.9492" style="stroke:#666666;stroke-width:1.0;"/><line style="stroke:#666666;stroke-width:1.0;" x1="223" x2="390" y1="323.9492" y2="323.9492"/><text fill="#666666" font-family="sans-serif" font-size="12" lengthAdjust="spacing" textLength="44" x="246" y="291.1523">Returns</text><text fill="#666666" font-family="sans-serif" font-size="12" lengthAdjust="spacing" textLength="4" x="290" y="291.1523">&#160;</text><text fill="#666666" font-family="sans-serif" font-size="12" lengthAdjust="spacing" textLength="56" x="294" y="291.1523">password</text><text fill="#666666" font-family="sans-serif" font-size="12" lengthAdjust="spacing" textLength="4" x="350" y="291.1523">&#160;</text><text fill="#666666" font-family="sans-serif" font-size="12" lengthAdjust="spacing" textLength="9" x="354" y="291.1523">is</text><text fill="#666666" font-family="sans-serif" font-size="12" lengthAdjust="spacing" textLength="53" x="265" y="305.2852">validated</text><text fill="#666666" font-family="sans-serif" font-size="12" lengthAdjust="spacing" textLength="4" x="318" y="305.2852">&#160;</text><text fill="#666666" font-family="sans-serif" font-size="12" lengthAdjust="spacing" textLength="22" x="322" y="305.2852">and</text><text fill="#666666" font-family="sans-serif" font-size="12" lengthAdjust="spacing" textLength="98" x="230" y="319.418">de-authenticates</text><text fill="#666666" font-family="sans-serif" font-size="12" lengthAdjust="spacing" textLength="4" x="328" y="319.418">&#160;</text><text fill="#666666" font-family="sans-serif" font-size="12" lengthAdjust="spacing" textLength="18" x="332" y="319.418">the</text><text fill="#666666" font-family="sans-serif" font-size="12" lengthAdjust="spacing" textLength="4" x="350" y="319.418">&#160;</text><text fill="#666666" font-family="sans-serif" font-size="12" lengthAdjust="spacing" textLength="25" x="354" y="319.418">user</text><line style="stroke:#666666;stroke-width:1.0;" x1="218" x2="260" y1="366.2148" y2="366.2148"/><line style="stroke:#666666;stroke-width:1.0;" x1="260" x2="260" y1="366.2148" y2="379.2148"/><line style="stroke:#666666;stroke-width:1.0;" x1="219" x2="260" y1="379.2148" y2="379.2148"/><polygon fill="#666666" points="229,375.2148,219,379.2148,229,383.2148,225,379.2148" style="stroke:#666666;stroke-width:1.0;"/><text fill="#666666" font-family="sans-serif" font-size="12" lengthAdjust="spacing" textLength="43" x="225" y="347.5508">Deletes</text><text fill="#666666" font-family="sans-serif" font-size="12" lengthAdjust="spacing" textLength="4" x="268" y="347.5508">&#160;</text><text fill="#666666" font-family="sans-serif" font-size="12" lengthAdjust="spacing" textLength="25" x="272" y="347.5508">user</text><text fill="#666666" font-family="sans-serif" font-size="12" lengthAdjust="spacing" textLength="4" x="297" y="347.5508">&#160;</text><text fill="#666666" font-family="sans-serif" font-size="12" lengthAdjust="spacing" textLength="42" x="301" y="347.5508">session</text><text fill="#666666" font-family="sans-serif" font-size="12" lengthAdjust="spacing" textLength="65" x="251.5" y="361.6836">information</text><polygon fill="#666666" points="69,417.4805,59,421.4805,69,425.4805,65,421.4805" style="stroke:#666666;stroke-width:1.0;"/><line style="stroke:#666666;stroke-width:1.0;" x1="63" x2="217" y1="421.4805" y2="421.4805"/><text fill="#666666" font-family="sans-serif" font-size="12" lengthAdjust="spacing" textLength="48" x="71.5" y="402.8164">Displays</text><text fill="#666666" font-family="sans-serif" font-size="12" lengthAdjust="spacing" textLength="4" x="119.5" y="402.8164">&#160;</text><text fill="#666666" font-family="sans-serif" font-size="12" lengthAdjust="spacing" textLength="50" x="123.5" y="402.8164">technical</text><text fill="#666666" font-family="sans-serif" font-size="12" lengthAdjust="spacing" textLength="4" x="173.5" y="402.8164">&#160;</text><text fill="#666666" font-family="sans-serif" font-size="12" lengthAdjust="spacing" textLength="27" x="177.5" y="402.8164">login</text><text fill="#666666" font-family="sans-serif" font-size="12" lengthAdjust="spacing" textLength="29" x="123.5" y="416.9492">page</text><!--SRC=[NP1DQyCm38Rl_XLQxcMNdihe9Hqx3KQxiUDm7QqHTUJCaXVwxwSaQsaRC0JqwFtG0t68fK5ugfUFzVAhJbsV65dNplcWASFyLUyOMgRW8tm8vWh02nJxSxtFIe5wpmfLRPlPcDV4PCl41zYHOZNIePDR-1FtyE8L1t-QW07tpXa5Y_Ka3IlOjMaGq8jtbveIqKrJeqPu1NMaS1H8334TKb7O5zN4Tr9lsQhf71g-hLZlHOQKcpkrPrRCSfc2PtiXeEsU5IseWLlyAIXwXVxwI8rNCkyHkKXkKKlcAv3apE9iqE325stjUbPJqIgtE9_ttt8Msc34SJeb5XGnAo2sDjriUrjvGz97Vxe-e5s8s88SqFq1]--></g></svg>