<?xml version="1.0" encoding="us-ascii" standalone="no"?><svg xmlns="http://www.w3.org/2000/svg" xmlns:xlink="http://www.w3.org/1999/xlink" contentStyleType="text/css" height="526px" preserveAspectRatio="none" style="width:474px;height:526px;background:#FFFFFF;" version="1.1" viewBox="0 0 474 526" width="474px" zoomAndPan="magnify"><defs/><g><rect fill="none" height="214.1953" style="stroke:#000000;stroke-width:1.5;" width="457" x="10" y="212.1523"/><line style="stroke:#181818;stroke-width:0.5;stroke-dasharray:5.0,5.0;" x1="73" x2="73" y1="82.4883" y2="443.3477"/><line style="stroke:#181818;stroke-width:0.5;stroke-dasharray:5.0,5.0;" x1="231.5" x2="231.5" y1="82.4883" y2="443.3477"/><line style="stroke:#181818;stroke-width:0.5;stroke-dasharray:5.0,5.0;" x1="405" x2="405" y1="82.4883" y2="443.3477"/><text fill="#000000" font-family="sans-serif" font-size="14" lengthAdjust="spacing" textLength="100" x="20" y="79.5352">Technical User</text><ellipse cx="73" cy="21.5" fill="#E2E2F0" rx="16" ry="16" style="stroke:#181818;stroke-width:0.5;"/><path d="M73,41.5 C77,41.5 80,41.5 84,37.5 C92,37.5 100,45.5 100,53.5 L100,57.5 C100,61.5 96,65.5 92,65.5 L54,65.5 C50,65.5 46,61.5 46,57.5 L46,53.5 C46,45.5 54,37.5 62,37.5 C66,41.5 69,41.5 73,41.5 " fill="#E2E2F0" style="stroke:#181818;stroke-width:0.5;"/><text fill="#000000" font-family="sans-serif" font-size="14" lengthAdjust="spacing" textLength="100" x="20" y="455.8828">Technical User</text><ellipse cx="73" cy="475.3359" fill="#E2E2F0" rx="16" ry="16" style="stroke:#181818;stroke-width:0.5;"/><path d="M73,495.3359 C77,495.3359 80,495.3359 84,491.3359 C92,491.3359 100,499.3359 100,507.3359 L100,511.3359 C100,515.3359 96,519.3359 92,519.3359 L54,519.3359 C50,519.3359 46,515.3359 46,511.3359 L46,507.3359 C46,499.3359 54,491.3359 62,491.3359 C66,495.3359 69,495.3359 73,495.3359 " fill="#E2E2F0" style="stroke:#181818;stroke-width:0.5;"/><rect fill="#E2E2F0" height="30.4883" rx="2.5" ry="2.5" style="stroke:#181818;stroke-width:0.5;" width="173" x="145.5" y="51"/><text fill="#000000" font-family="sans-serif" font-size="14" lengthAdjust="spacing" textLength="159" x="152.5" y="71.5352">Central Monitoring Site</text><rect fill="#E2E2F0" height="30.4883" rx="2.5" ry="2.5" style="stroke:#181818;stroke-width:0.5;" width="173" x="145.5" y="442.3477"/><text fill="#000000" font-family="sans-serif" font-size="14" lengthAdjust="spacing" textLength="159" x="152.5" y="462.8828">Central Monitoring Site</text><rect fill="#E2E2F0" height="30.4883" rx="2.5" ry="2.5" style="stroke:#181818;stroke-width:0.5;" width="104" x="353" y="51"/><text fill="#000000" font-family="sans-serif" font-size="14" lengthAdjust="spacing" textLength="90" x="360" y="71.5352">Web Gateway</text><rect fill="#E2E2F0" height="30.4883" rx="2.5" ry="2.5" style="stroke:#181818;stroke-width:0.5;" width="104" x="353" y="442.3477"/><text fill="#000000" font-family="sans-serif" font-size="14" lengthAdjust="spacing" textLength="90" x="360" y="462.8828">Web Gateway</text><polygon fill="#666666" points="84,122.7539,74,126.7539,84,130.7539,80,126.7539" style="stroke:#666666;stroke-width:1.0;"/><line style="stroke:#666666;stroke-width:1.0;" x1="78" x2="231" y1="126.7539" y2="126.7539"/><text fill="#666666" font-family="sans-serif" font-size="12" lengthAdjust="spacing" textLength="35" x="92.5" y="108.0898">Shows</text><text fill="#666666" font-family="sans-serif" font-size="12" lengthAdjust="spacing" textLength="4" x="127.5" y="108.0898">&#160;</text><text fill="#666666" font-family="sans-serif" font-size="12" lengthAdjust="spacing" textLength="50" x="131.5" y="108.0898">technical</text><text fill="#666666" font-family="sans-serif" font-size="12" lengthAdjust="spacing" textLength="4" x="181.5" y="108.0898">&#160;</text><text fill="#666666" font-family="sans-serif" font-size="12" lengthAdjust="spacing" textLength="27" x="185.5" y="108.0898">login</text><text fill="#666666" font-family="sans-serif" font-size="12" lengthAdjust="spacing" textLength="29" x="138" y="122.2227">page</text><polygon fill="#666666" points="220,165.0195,230,169.0195,220,173.0195,224,169.0195" style="stroke:#666666;stroke-width:1.0;"/><line style="stroke:#666666;stroke-width:1.0;" x1="73" x2="226" y1="169.0195" y2="169.0195"/><text fill="#666666" font-family="sans-serif" font-size="12" lengthAdjust="spacing" textLength="49" x="85" y="150.3555">Provides</text><text fill="#666666" font-family="sans-serif" font-size="12" lengthAdjust="spacing" textLength="4" x="134" y="150.3555">&#160;</text><text fill="#666666" font-family="sans-serif" font-size="12" lengthAdjust="spacing" textLength="56" x="138" y="150.3555">password</text><text fill="#666666" font-family="sans-serif" font-size="12" lengthAdjust="spacing" textLength="4" x="194" y="150.3555">&#160;</text><text fill="#666666" font-family="sans-serif" font-size="12" lengthAdjust="spacing" textLength="22" x="198" y="150.3555">and</text><text fill="#666666" font-family="sans-serif" font-size="12" lengthAdjust="spacing" textLength="45" x="130" y="164.4883">submits</text><polygon fill="#666666" points="393,193.1523,403,197.1523,393,201.1523,397,197.1523" style="stroke:#666666;stroke-width:1.0;"/><line style="stroke:#666666;stroke-width:1.0;" x1="232" x2="399" y1="197.1523" y2="197.1523"/><text fill="#666666" font-family="sans-serif" font-size="12" lengthAdjust="spacing" textLength="53" x="244" y="192.6211">Validates</text><text fill="#666666" font-family="sans-serif" font-size="12" lengthAdjust="spacing" textLength="4" x="297" y="192.6211">&#160;</text><text fill="#666666" font-family="sans-serif" font-size="12" lengthAdjust="spacing" textLength="25" x="301" y="192.6211">user</text><text fill="#666666" font-family="sans-serif" font-size="12" lengthAdjust="spacing" textLength="4" x="326" y="192.6211">&#160;</text><text fill="#666666" font-family="sans-serif" font-size="12" lengthAdjust="spacing" textLength="63" x="330" y="192.6211">credentials</text><path d="M10,212.1523 L72,212.1523 L72,219.4629 L62,229.4629 L10,229.4629 L10,212.1523 " fill="#EEEEEE" style="stroke:#000000;stroke-width:1.5;"/><rect fill="none" height="214.1953" style="stroke:#000000;stroke-width:1.5;" width="457" x="10" y="212.1523"/><text fill="#000000" font-family="sans-serif" font-size="13" font-weight="bold" lengthAdjust="spacing" textLength="17" x="25" y="225.7207">alt</text><text fill="#000000" font-family="sans-serif" font-size="11" font-weight="bold" lengthAdjust="spacing" textLength="93" x="87" y="224.7871">[sucessfull case]</text><polygon fill="#666666" points="243,245.5957,233,249.5957,243,253.5957,239,249.5957" style="stroke:#666666;stroke-width:1.0;"/><line style="stroke:#666666;stroke-width:1.0;" x1="237" x2="404" y1="249.5957" y2="249.5957"/><text fill="#666666" font-family="sans-serif" font-size="12" lengthAdjust="spacing" textLength="44" x="263" y="245.0645">Returns</text><text fill="#666666" font-family="sans-serif" font-size="12" lengthAdjust="spacing" textLength="4" x="307" y="245.0645">&#160;</text><text fill="#666666" font-family="sans-serif" font-size="12" lengthAdjust="spacing" textLength="27" x="311" y="245.0645">valid</text><text fill="#666666" font-family="sans-serif" font-size="12" lengthAdjust="spacing" textLength="4" x="338" y="245.0645">&#160;</text><text fill="#666666" font-family="sans-serif" font-size="12" lengthAdjust="spacing" textLength="32" x="342" y="245.0645">token</text><line style="stroke:#666666;stroke-width:1.0;" x1="232" x2="274" y1="277.7285" y2="277.7285"/><line style="stroke:#666666;stroke-width:1.0;" x1="274" x2="274" y1="277.7285" y2="290.7285"/><line style="stroke:#666666;stroke-width:1.0;" x1="233" x2="274" y1="290.7285" y2="290.7285"/><polygon fill="#666666" points="243,286.7285,233,290.7285,243,294.7285,239,290.7285" style="stroke:#666666;stroke-width:1.0;"/><text fill="#666666" font-family="sans-serif" font-size="12" lengthAdjust="spacing" textLength="35" x="239" y="273.1973">Stores</text><text fill="#666666" font-family="sans-serif" font-size="12" lengthAdjust="spacing" textLength="4" x="274" y="273.1973">&#160;</text><text fill="#666666" font-family="sans-serif" font-size="12" lengthAdjust="spacing" textLength="27" x="278" y="273.1973">valid</text><text fill="#666666" font-family="sans-serif" font-size="12" lengthAdjust="spacing" textLength="4" x="305" y="273.1973">&#160;</text><text fill="#666666" font-family="sans-serif" font-size="12" lengthAdjust="spacing" textLength="32" x="309" y="273.1973">token</text><polygon fill="#666666" points="84,328.9941,74,332.9941,84,336.9941,80,332.9941" style="stroke:#666666;stroke-width:1.0;"/><line style="stroke:#666666;stroke-width:1.0;" x1="78" x2="231" y1="332.9941" y2="332.9941"/><text fill="#666666" font-family="sans-serif" font-size="12" lengthAdjust="spacing" textLength="54" x="118" y="314.3301">Redirects</text><text fill="#666666" font-family="sans-serif" font-size="12" lengthAdjust="spacing" textLength="4" x="172" y="314.3301">&#160;</text><text fill="#666666" font-family="sans-serif" font-size="12" lengthAdjust="spacing" textLength="11" x="176" y="314.3301">to</text><text fill="#666666" font-family="sans-serif" font-size="12" lengthAdjust="spacing" textLength="78" x="90" y="328.4629">authenticated</text><text fill="#666666" font-family="sans-serif" font-size="12" lengthAdjust="spacing" textLength="4" x="168" y="328.4629">&#160;</text><text fill="#666666" font-family="sans-serif" font-size="12" lengthAdjust="spacing" textLength="43" x="172" y="328.4629">module</text><line style="stroke:#000000;stroke-width:1.0;stroke-dasharray:2.0,2.0;" x1="10" x2="467" y1="341.9941" y2="341.9941"/><text fill="#000000" font-family="sans-serif" font-size="11" font-weight="bold" lengthAdjust="spacing" textLength="119" x="15" y="352.6289">[authentication error]</text><polygon fill="#666666" points="243,372.082,233,376.082,243,380.082,239,376.082" style="stroke:#666666;stroke-width:1.0;"/><line style="stroke:#666666;stroke-width:1.0;" x1="237" x2="404" y1="376.082" y2="376.082"/><text fill="#666666" font-family="sans-serif" font-size="12" lengthAdjust="spacing" textLength="44" x="264" y="371.5508">Returns</text><text fill="#666666" font-family="sans-serif" font-size="12" lengthAdjust="spacing" textLength="4" x="308" y="371.5508">&#160;</text><text fill="#666666" font-family="sans-serif" font-size="12" lengthAdjust="spacing" textLength="29" x="312" y="371.5508">error</text><text fill="#666666" font-family="sans-serif" font-size="12" lengthAdjust="spacing" textLength="4" x="341" y="371.5508">&#160;</text><text fill="#666666" font-family="sans-serif" font-size="12" lengthAdjust="spacing" textLength="28" x="345" y="371.5508">code</text><polygon fill="#666666" points="84,414.3477,74,418.3477,84,422.3477,80,418.3477" style="stroke:#666666;stroke-width:1.0;"/><line style="stroke:#666666;stroke-width:1.0;" x1="78" x2="231" y1="418.3477" y2="418.3477"/><text fill="#666666" font-family="sans-serif" font-size="12" lengthAdjust="spacing" textLength="35" x="111.5" y="399.6836">Shows</text><text fill="#666666" font-family="sans-serif" font-size="12" lengthAdjust="spacing" textLength="4" x="146.5" y="399.6836">&#160;</text><text fill="#666666" font-family="sans-serif" font-size="12" lengthAdjust="spacing" textLength="29" x="150.5" y="399.6836">error</text><text fill="#666666" font-family="sans-serif" font-size="12" lengthAdjust="spacing" textLength="4" x="179.5" y="399.6836">&#160;</text><text fill="#666666" font-family="sans-serif" font-size="12" lengthAdjust="spacing" textLength="10" x="183.5" y="399.6836">in</text><text fill="#666666" font-family="sans-serif" font-size="12" lengthAdjust="spacing" textLength="80" x="112.5" y="413.8164">authentication</text><!--SRC=[TP0nJmCn38Nt_0fpEsBfLA4kDp0XeLw14QM9QIrozYbEUkBVuxih5PLefaZ-djzxlYCEgKQ4ntRrqAu-Mka7OUIoSSw78XcMr-mm79c2J_2gc1i0hr3jvmQV2mKQF1TeMbDcOvw5oSJ41-YeO3FHeTTh-1ttyEGBZlvx1aRSEsSKt6_crR26xYYZGhbu9paGm-0Fw6R2o4cmXfSi9ugeDbCT9KVm747hlgUYlqlDmD0tdoYQxP8VGiPegSadjSgfc2YWwcTD2O9NT5FzINdnscAfcHLEqo8eyeKyGsUN1UgiFjvaplMs62bZA5PHmDTod884onQXbrWJEaoAVoSa39YpvDknvZ44YVYFutBG1R5BNczsoD7z0000]--></g></svg>