<?xml version="1.0" encoding="us-ascii" standalone="no"?><svg xmlns="http://www.w3.org/2000/svg" xmlns:xlink="http://www.w3.org/1999/xlink" contentStyleType="text/css" height="767px" preserveAspectRatio="none" style="width:479px;height:767px;background:#FFFFFF;" version="1.1" viewBox="0 0 479 767" width="479px" zoomAndPan="magnify"><defs/><g><rect fill="none" height="314.5938" style="stroke:#000000;stroke-width:1.5;" width="403.5" x="10" y="141.7539"/><rect fill="none" height="241.0176" style="stroke:#000000;stroke-width:1.5;" width="383.5" x="20" y="208.3301"/><line style="stroke:#181818;stroke-width:0.5;stroke-dasharray:5.0,5.0;" x1="75" x2="75" y1="82.4883" y2="684.543"/><line style="stroke:#181818;stroke-width:0.5;stroke-dasharray:5.0,5.0;" x1="248" x2="248" y1="82.4883" y2="684.543"/><line style="stroke:#181818;stroke-width:0.5;stroke-dasharray:5.0,5.0;" x1="421.5" x2="421.5" y1="82.4883" y2="684.543"/><text fill="#000000" font-family="sans-serif" font-size="14" lengthAdjust="spacing" textLength="85" x="30" y="79.5352">Clinical User</text><ellipse cx="75.5" cy="21.5" fill="#E2E2F0" rx="16" ry="16" style="stroke:#181818;stroke-width:0.5;"/><path d="M75.5,41.5 C79.5,41.5 82.5,41.5 86.5,37.5 C94.5,37.5 102.5,45.5 102.5,53.5 L102.5,57.5 C102.5,61.5 98.5,65.5 94.5,65.5 L56.5,65.5 C52.5,65.5 48.5,61.5 48.5,57.5 L48.5,53.5 C48.5,45.5 56.5,37.5 64.5,37.5 C68.5,41.5 71.5,41.5 75.5,41.5 " fill="#E2E2F0" style="stroke:#181818;stroke-width:0.5;"/><text fill="#000000" font-family="sans-serif" font-size="14" lengthAdjust="spacing" textLength="85" x="30" y="697.0781">Clinical User</text><ellipse cx="75.5" cy="716.5313" fill="#E2E2F0" rx="16" ry="16" style="stroke:#181818;stroke-width:0.5;"/><path d="M75.5,736.5313 C79.5,736.5313 82.5,736.5313 86.5,732.5313 C94.5,732.5313 102.5,740.5313 102.5,748.5313 L102.5,752.5313 C102.5,756.5313 98.5,760.5313 94.5,760.5313 L56.5,760.5313 C52.5,760.5313 48.5,756.5313 48.5,752.5313 L48.5,748.5313 C48.5,740.5313 56.5,732.5313 64.5,732.5313 C68.5,736.5313 71.5,736.5313 75.5,736.5313 " fill="#E2E2F0" style="stroke:#181818;stroke-width:0.5;"/><rect fill="#E2E2F0" height="30.4883" rx="2.5" ry="2.5" style="stroke:#181818;stroke-width:0.5;" width="173" x="162" y="51"/><text fill="#000000" font-family="sans-serif" font-size="14" lengthAdjust="spacing" textLength="159" x="169" y="71.5352">Central Monitoring Site</text><rect fill="#E2E2F0" height="30.4883" rx="2.5" ry="2.5" style="stroke:#181818;stroke-width:0.5;" width="173" x="162" y="683.543"/><text fill="#000000" font-family="sans-serif" font-size="14" lengthAdjust="spacing" textLength="159" x="169" y="704.0781">Central Monitoring Site</text><rect fill="#E2E2F0" height="30.4883" rx="2.5" ry="2.5" style="stroke:#181818;stroke-width:0.5;" width="104" x="369.5" y="51"/><text fill="#000000" font-family="sans-serif" font-size="14" lengthAdjust="spacing" textLength="90" x="376.5" y="71.5352">Web Gateway</text><rect fill="#E2E2F0" height="30.4883" rx="2.5" ry="2.5" style="stroke:#181818;stroke-width:0.5;" width="104" x="369.5" y="683.543"/><text fill="#000000" font-family="sans-serif" font-size="14" lengthAdjust="spacing" textLength="90" x="376.5" y="704.0781">Web Gateway</text><polygon fill="#666666" points="86.5,122.7539,76.5,126.7539,86.5,130.7539,82.5,126.7539" style="stroke:#666666;stroke-width:1.0;"/><line style="stroke:#666666;stroke-width:1.0;" x1="80.5" x2="247.5" y1="126.7539" y2="126.7539"/><text fill="#666666" font-family="sans-serif" font-size="12" lengthAdjust="spacing" textLength="35" x="92.5" y="108.0898">Shows</text><text fill="#666666" font-family="sans-serif" font-size="12" lengthAdjust="spacing" textLength="4" x="127.5" y="108.0898">&#160;</text><text fill="#666666" font-family="sans-serif" font-size="12" lengthAdjust="spacing" textLength="22" x="131.5" y="108.0898">Bed</text><text fill="#666666" font-family="sans-serif" font-size="12" lengthAdjust="spacing" textLength="4" x="153.5" y="108.0898">&#160;</text><text fill="#666666" font-family="sans-serif" font-size="12" lengthAdjust="spacing" textLength="74" x="157.5" y="108.0898">Management</text><text fill="#666666" font-family="sans-serif" font-size="12" lengthAdjust="spacing" textLength="35" x="120" y="122.2227">Modal</text><text fill="#666666" font-family="sans-serif" font-size="12" lengthAdjust="spacing" textLength="4" x="155" y="122.2227">&#160;</text><text fill="#666666" font-family="sans-serif" font-size="12" lengthAdjust="spacing" textLength="29" x="159" y="122.2227">(Step</text><text fill="#666666" font-family="sans-serif" font-size="12" lengthAdjust="spacing" textLength="4" x="188" y="122.2227">&#160;</text><text fill="#666666" font-family="sans-serif" font-size="12" lengthAdjust="spacing" textLength="12" x="192" y="122.2227">1)</text><path d="M10,141.7539 L84,141.7539 L84,149.0645 L74,159.0645 L10,159.0645 L10,141.7539 " fill="#EEEEEE" style="stroke:#000000;stroke-width:1.5;"/><rect fill="none" height="314.5938" style="stroke:#000000;stroke-width:1.5;" width="403.5" x="10" y="141.7539"/><text fill="#000000" font-family="sans-serif" font-size="13" font-weight="bold" lengthAdjust="spacing" textLength="29" x="25" y="155.3223">loop</text><text fill="#000000" font-family="sans-serif" font-size="11" font-weight="bold" lengthAdjust="spacing" textLength="166" x="99" y="154.3887">[while more edits are needed]</text><polygon fill="#666666" points="236.5,189.3301,246.5,193.3301,236.5,197.3301,240.5,193.3301" style="stroke:#666666;stroke-width:1.0;"/><line style="stroke:#666666;stroke-width:1.0;" x1="75.5" x2="242.5" y1="193.3301" y2="193.3301"/><text fill="#666666" font-family="sans-serif" font-size="12" lengthAdjust="spacing" textLength="122" x="95.5" y="174.666">Adds/Removes/Edits</text><text fill="#666666" font-family="sans-serif" font-size="12" lengthAdjust="spacing" textLength="4" x="217.5" y="174.666">&#160;</text><text fill="#666666" font-family="sans-serif" font-size="12" lengthAdjust="spacing" textLength="7" x="221.5" y="174.666">a</text><text fill="#666666" font-family="sans-serif" font-size="12" lengthAdjust="spacing" textLength="23" x="150.5" y="188.7988">bed</text><path d="M20,208.3301 L82,208.3301 L82,215.6406 L72,225.6406 L20,225.6406 L20,208.3301 " fill="#EEEEEE" style="stroke:#000000;stroke-width:1.5;"/><rect fill="none" height="241.0176" style="stroke:#000000;stroke-width:1.5;" width="383.5" x="20" y="208.3301"/><text fill="#000000" font-family="sans-serif" font-size="13" font-weight="bold" lengthAdjust="spacing" textLength="17" x="35" y="221.8984">alt</text><text fill="#000000" font-family="sans-serif" font-size="11" font-weight="bold" lengthAdjust="spacing" textLength="157" x="97" y="220.9648">[two beds have the same id]</text><polygon fill="#666666" points="86.5,241.7734,76.5,245.7734,86.5,249.7734,82.5,245.7734" style="stroke:#666666;stroke-width:1.0;"/><line style="stroke:#666666;stroke-width:1.0;" x1="80.5" x2="247.5" y1="245.7734" y2="245.7734"/><text fill="#666666" font-family="sans-serif" font-size="12" lengthAdjust="spacing" textLength="35" x="87.5" y="241.2422">shows</text><text fill="#666666" font-family="sans-serif" font-size="12" lengthAdjust="spacing" textLength="4" x="122.5" y="241.2422">&#160;</text><text fill="#666666" font-family="sans-serif" font-size="12" lengthAdjust="spacing" textLength="29" x="126.5" y="241.2422">error</text><text fill="#666666" font-family="sans-serif" font-size="12" lengthAdjust="spacing" textLength="4" x="155.5" y="241.2422">&#160;</text><text fill="#666666" font-family="sans-serif" font-size="12" lengthAdjust="spacing" textLength="14" x="159.5" y="241.2422">on</text><text fill="#666666" font-family="sans-serif" font-size="12" lengthAdjust="spacing" textLength="4" x="173.5" y="241.2422">&#160;</text><text fill="#666666" font-family="sans-serif" font-size="12" lengthAdjust="spacing" textLength="26" x="177.5" y="241.2422">both</text><text fill="#666666" font-family="sans-serif" font-size="12" lengthAdjust="spacing" textLength="4" x="203.5" y="241.2422">&#160;</text><text fill="#666666" font-family="sans-serif" font-size="12" lengthAdjust="spacing" textLength="29" x="207.5" y="241.2422">beds</text><line style="stroke:#666666;stroke-width:1.0;" x1="248.5" x2="290.5" y1="273.9063" y2="273.9063"/><line style="stroke:#666666;stroke-width:1.0;" x1="290.5" x2="290.5" y1="273.9063" y2="286.9063"/><line style="stroke:#666666;stroke-width:1.0;" x1="249.5" x2="290.5" y1="286.9063" y2="286.9063"/><polygon fill="#666666" points="259.5,282.9063,249.5,286.9063,259.5,290.9063,255.5,286.9063" style="stroke:#666666;stroke-width:1.0;"/><text fill="#666666" font-family="sans-serif" font-size="12" lengthAdjust="spacing" textLength="65" x="255.5" y="269.375">deactivates</text><text fill="#666666" font-family="sans-serif" font-size="12" lengthAdjust="spacing" textLength="4" x="320.5" y="269.375">&#160;</text><text fill="#666666" font-family="sans-serif" font-size="12" lengthAdjust="spacing" textLength="26" x="324.5" y="269.375">save</text><text fill="#666666" font-family="sans-serif" font-size="12" lengthAdjust="spacing" textLength="4" x="350.5" y="269.375">&#160;</text><text fill="#666666" font-family="sans-serif" font-size="12" lengthAdjust="spacing" textLength="37" x="354.5" y="269.375">button</text><line style="stroke:#000000;stroke-width:1.0;stroke-dasharray:2.0,2.0;" x1="20" x2="403.5" y1="295.9063" y2="295.9063"/><text fill="#000000" font-family="sans-serif" font-size="11" font-weight="bold" lengthAdjust="spacing" textLength="121" x="25" y="306.541">[bed has an empty id]</text><polygon fill="#666666" points="86.5,340.127,76.5,344.127,86.5,348.127,82.5,344.127" style="stroke:#666666;stroke-width:1.0;"/><line style="stroke:#666666;stroke-width:1.0;" x1="80.5" x2="247.5" y1="344.127" y2="344.127"/><text fill="#666666" font-family="sans-serif" font-size="12" lengthAdjust="spacing" textLength="35" x="91.5" y="325.4629">shows</text><text fill="#666666" font-family="sans-serif" font-size="12" lengthAdjust="spacing" textLength="4" x="126.5" y="325.4629">&#160;</text><text fill="#666666" font-family="sans-serif" font-size="12" lengthAdjust="spacing" textLength="29" x="130.5" y="325.4629">error</text><text fill="#666666" font-family="sans-serif" font-size="12" lengthAdjust="spacing" textLength="4" x="159.5" y="325.4629">&#160;</text><text fill="#666666" font-family="sans-serif" font-size="12" lengthAdjust="spacing" textLength="14" x="163.5" y="325.4629">on</text><text fill="#666666" font-family="sans-serif" font-size="12" lengthAdjust="spacing" textLength="4" x="177.5" y="325.4629">&#160;</text><text fill="#666666" font-family="sans-serif" font-size="12" lengthAdjust="spacing" textLength="36" x="181.5" y="325.4629">empty</text><text fill="#666666" font-family="sans-serif" font-size="12" lengthAdjust="spacing" textLength="4" x="217.5" y="325.4629">&#160;</text><text fill="#666666" font-family="sans-serif" font-size="12" lengthAdjust="spacing" textLength="11" x="221.5" y="325.4629">id</text><text fill="#666666" font-family="sans-serif" font-size="12" lengthAdjust="spacing" textLength="23" x="150.5" y="339.5957">bed</text><line style="stroke:#666666;stroke-width:1.0;" x1="248.5" x2="290.5" y1="372.2598" y2="372.2598"/><line style="stroke:#666666;stroke-width:1.0;" x1="290.5" x2="290.5" y1="372.2598" y2="385.2598"/><line style="stroke:#666666;stroke-width:1.0;" x1="249.5" x2="290.5" y1="385.2598" y2="385.2598"/><polygon fill="#666666" points="259.5,381.2598,249.5,385.2598,259.5,389.2598,255.5,385.2598" style="stroke:#666666;stroke-width:1.0;"/><text fill="#666666" font-family="sans-serif" font-size="12" lengthAdjust="spacing" textLength="65" x="255.5" y="367.7285">deactivates</text><text fill="#666666" font-family="sans-serif" font-size="12" lengthAdjust="spacing" textLength="4" x="320.5" y="367.7285">&#160;</text><text fill="#666666" font-family="sans-serif" font-size="12" lengthAdjust="spacing" textLength="26" x="324.5" y="367.7285">save</text><text fill="#666666" font-family="sans-serif" font-size="12" lengthAdjust="spacing" textLength="4" x="350.5" y="367.7285">&#160;</text><text fill="#666666" font-family="sans-serif" font-size="12" lengthAdjust="spacing" textLength="37" x="354.5" y="367.7285">button</text><line style="stroke:#000000;stroke-width:1.0;stroke-dasharray:2.0,2.0;" x1="20" x2="403.5" y1="394.2598" y2="394.2598"/><text fill="#000000" font-family="sans-serif" font-size="11" font-weight="bold" lengthAdjust="spacing" textLength="97" x="25" y="404.8945">[no errors found]</text><line style="stroke:#666666;stroke-width:1.0;" x1="248.5" x2="290.5" y1="428.3477" y2="428.3477"/><line style="stroke:#666666;stroke-width:1.0;" x1="290.5" x2="290.5" y1="428.3477" y2="441.3477"/><line style="stroke:#666666;stroke-width:1.0;" x1="249.5" x2="290.5" y1="441.3477" y2="441.3477"/><polygon fill="#666666" points="259.5,437.3477,249.5,441.3477,259.5,445.3477,255.5,441.3477" style="stroke:#666666;stroke-width:1.0;"/><text fill="#666666" font-family="sans-serif" font-size="12" lengthAdjust="spacing" textLength="50" x="255.5" y="423.8164">activates</text><text fill="#666666" font-family="sans-serif" font-size="12" lengthAdjust="spacing" textLength="4" x="305.5" y="423.8164">&#160;</text><text fill="#666666" font-family="sans-serif" font-size="12" lengthAdjust="spacing" textLength="26" x="309.5" y="423.8164">save</text><text fill="#666666" font-family="sans-serif" font-size="12" lengthAdjust="spacing" textLength="4" x="335.5" y="423.8164">&#160;</text><text fill="#666666" font-family="sans-serif" font-size="12" lengthAdjust="spacing" textLength="37" x="339.5" y="423.8164">button</text><polygon fill="#666666" points="236.5,479.4805,246.5,483.4805,236.5,487.4805,240.5,483.4805" style="stroke:#666666;stroke-width:1.0;"/><line style="stroke:#666666;stroke-width:1.0;" x1="75.5" x2="242.5" y1="483.4805" y2="483.4805"/><text fill="#666666" font-family="sans-serif" font-size="12" lengthAdjust="spacing" textLength="44" x="104.5" y="478.9492">Presses</text><text fill="#666666" font-family="sans-serif" font-size="12" lengthAdjust="spacing" textLength="4" x="148.5" y="478.9492">&#160;</text><text fill="#666666" font-family="sans-serif" font-size="12" lengthAdjust="spacing" textLength="26" x="152.5" y="478.9492">save</text><text fill="#666666" font-family="sans-serif" font-size="12" lengthAdjust="spacing" textLength="4" x="178.5" y="478.9492">&#160;</text><text fill="#666666" font-family="sans-serif" font-size="12" lengthAdjust="spacing" textLength="37" x="182.5" y="478.9492">button</text><polygon fill="#666666" points="409.5,521.7461,419.5,525.7461,409.5,529.7461,413.5,525.7461" style="stroke:#666666;stroke-width:1.0;"/><line style="stroke:#666666;stroke-width:1.0;" x1="248.5" x2="415.5" y1="525.7461" y2="525.7461"/><text fill="#666666" font-family="sans-serif" font-size="12" lengthAdjust="spacing" textLength="30" x="277" y="507.082">Adds</text><text fill="#666666" font-family="sans-serif" font-size="12" lengthAdjust="spacing" textLength="4" x="307" y="507.082">&#160;</text><text fill="#666666" font-family="sans-serif" font-size="12" lengthAdjust="spacing" textLength="23" x="311" y="507.082">new</text><text fill="#666666" font-family="sans-serif" font-size="12" lengthAdjust="spacing" textLength="4" x="334" y="507.082">&#160;</text><text fill="#666666" font-family="sans-serif" font-size="12" lengthAdjust="spacing" textLength="29" x="338" y="507.082">beds</text><text fill="#666666" font-family="sans-serif" font-size="12" lengthAdjust="spacing" textLength="4" x="367" y="507.082">&#160;</text><text fill="#666666" font-family="sans-serif" font-size="12" lengthAdjust="spacing" textLength="22" x="371" y="507.082">and</text><text fill="#666666" font-family="sans-serif" font-size="12" lengthAdjust="spacing" textLength="47" x="284" y="521.2148">updates</text><text fill="#666666" font-family="sans-serif" font-size="12" lengthAdjust="spacing" textLength="4" x="331" y="521.2148">&#160;</text><text fill="#666666" font-family="sans-serif" font-size="12" lengthAdjust="spacing" textLength="18" x="335" y="521.2148">old</text><text fill="#666666" font-family="sans-serif" font-size="12" lengthAdjust="spacing" textLength="4" x="353" y="521.2148">&#160;</text><text fill="#666666" font-family="sans-serif" font-size="12" lengthAdjust="spacing" textLength="29" x="357" y="521.2148">beds</text><polygon fill="#666666" points="259.5,549.8789,249.5,553.8789,259.5,557.8789,255.5,553.8789" style="stroke:#666666;stroke-width:1.0;"/><line style="stroke:#666666;stroke-width:1.0;" x1="253.5" x2="420.5" y1="553.8789" y2="553.8789"/><text fill="#666666" font-family="sans-serif" font-size="12" lengthAdjust="spacing" textLength="44" x="264.5" y="549.3477">Returns</text><text fill="#666666" font-family="sans-serif" font-size="12" lengthAdjust="spacing" textLength="4" x="308.5" y="549.3477">&#160;</text><text fill="#666666" font-family="sans-serif" font-size="12" lengthAdjust="spacing" textLength="38" x="312.5" y="549.3477">sucess</text><text fill="#666666" font-family="sans-serif" font-size="12" lengthAdjust="spacing" textLength="4" x="350.5" y="549.3477">&#160;</text><text fill="#666666" font-family="sans-serif" font-size="12" lengthAdjust="spacing" textLength="51" x="354.5" y="549.3477">message</text><polygon fill="#666666" points="409.5,592.1445,419.5,596.1445,409.5,600.1445,413.5,596.1445" style="stroke:#666666;stroke-width:1.0;"/><line style="stroke:#666666;stroke-width:1.0;" x1="248.5" x2="415.5" y1="596.1445" y2="596.1445"/><text fill="#666666" font-family="sans-serif" font-size="12" lengthAdjust="spacing" textLength="43" x="260.5" y="577.4805">Deletes</text><text fill="#666666" font-family="sans-serif" font-size="12" lengthAdjust="spacing" textLength="4" x="303.5" y="577.4805">&#160;</text><text fill="#666666" font-family="sans-serif" font-size="12" lengthAdjust="spacing" textLength="29" x="307.5" y="577.4805">beds</text><text fill="#666666" font-family="sans-serif" font-size="12" lengthAdjust="spacing" textLength="4" x="336.5" y="577.4805">&#160;</text><text fill="#666666" font-family="sans-serif" font-size="12" lengthAdjust="spacing" textLength="51" x="340.5" y="577.4805">removed</text><text fill="#666666" font-family="sans-serif" font-size="12" lengthAdjust="spacing" textLength="4" x="391.5" y="577.4805">&#160;</text><text fill="#666666" font-family="sans-serif" font-size="12" lengthAdjust="spacing" textLength="14" x="395.5" y="577.4805">by</text><text fill="#666666" font-family="sans-serif" font-size="12" lengthAdjust="spacing" textLength="25" x="322.5" y="591.6133">user</text><polygon fill="#666666" points="259.5,620.2773,249.5,624.2773,259.5,628.2773,255.5,624.2773" style="stroke:#666666;stroke-width:1.0;"/><line style="stroke:#666666;stroke-width:1.0;" x1="253.5" x2="420.5" y1="624.2773" y2="624.2773"/><text fill="#666666" font-family="sans-serif" font-size="12" lengthAdjust="spacing" textLength="38" x="267.5" y="619.7461">Return</text><text fill="#666666" font-family="sans-serif" font-size="12" lengthAdjust="spacing" textLength="4" x="305.5" y="619.7461">&#160;</text><text fill="#666666" font-family="sans-serif" font-size="12" lengthAdjust="spacing" textLength="38" x="309.5" y="619.7461">sucess</text><text fill="#666666" font-family="sans-serif" font-size="12" lengthAdjust="spacing" textLength="4" x="347.5" y="619.7461">&#160;</text><text fill="#666666" font-family="sans-serif" font-size="12" lengthAdjust="spacing" textLength="51" x="351.5" y="619.7461">message</text><polygon fill="#666666" points="86.5,662.543,76.5,666.543,86.5,670.543,82.5,666.543" style="stroke:#666666;stroke-width:1.0;"/><line style="stroke:#666666;stroke-width:1.0;" x1="80.5" x2="247.5" y1="666.543" y2="666.543"/><text fill="#666666" font-family="sans-serif" font-size="12" lengthAdjust="spacing" textLength="35" x="92.5" y="647.8789">Shows</text><text fill="#666666" font-family="sans-serif" font-size="12" lengthAdjust="spacing" textLength="4" x="127.5" y="647.8789">&#160;</text><text fill="#666666" font-family="sans-serif" font-size="12" lengthAdjust="spacing" textLength="22" x="131.5" y="647.8789">Bed</text><text fill="#666666" font-family="sans-serif" font-size="12" lengthAdjust="spacing" textLength="4" x="153.5" y="647.8789">&#160;</text><text fill="#666666" font-family="sans-serif" font-size="12" lengthAdjust="spacing" textLength="74" x="157.5" y="647.8789">Management</text><text fill="#666666" font-family="sans-serif" font-size="12" lengthAdjust="spacing" textLength="35" x="120" y="662.0117">Modal</text><text fill="#666666" font-family="sans-serif" font-size="12" lengthAdjust="spacing" textLength="4" x="155" y="662.0117">&#160;</text><text fill="#666666" font-family="sans-serif" font-size="12" lengthAdjust="spacing" textLength="29" x="159" y="662.0117">(Step</text><text fill="#666666" font-family="sans-serif" font-size="12" lengthAdjust="spacing" textLength="4" x="188" y="662.0117">&#160;</text><text fill="#666666" font-family="sans-serif" font-size="12" lengthAdjust="spacing" textLength="12" x="192" y="662.0117">2)</text><!--SRC=[bPB1IWCn443l-Ogn9tkGelHKfA2hU2f8YtYKx6Ri1fB9ainswTyxoTP2YnKDx9B0cpUJcLnPQbnl4Ewh-QoQVrJ1Tu6GUAcKRZX46DUaSfPiensy9OmJ09sWbvtgT6JRs4uJ2oI1KPXL82knbhQmiOoJJ3S-dSBlMCEBPXpqlW03rae91JVBeeO5RDem97X40ojDUejU_28tak9wmzZ1xLIv43eOMkiGV8W8Q2mdqB8ZH8D6vVABJxnPlu07Oz9iZJxiCCsUHnxg0weT0myXdnEqUeV0BKBI7i6EH5wdTQPI9yOe_Ge4TU2sn9_ZOtg3qbcxawidyKg2kcSEL61q2NEeP9QY2D1tlFzpuc_wU9d_vwOmwX9yXfukM7vnI4Z-JXl-6Z6bC_eWbAaV9YBp6iQkQpBGTwOa2CwChSpWKRX6xYE9i6_435v-yZnEdK_eC1kACfPfYse_FjiVR1TaVtsATrDGwWi0]--></g></svg>