<?xml version="1.0" encoding="us-ascii" standalone="no"?><svg xmlns="http://www.w3.org/2000/svg" xmlns:xlink="http://www.w3.org/1999/xlink" contentStyleType="text/css" height="823px" preserveAspectRatio="none" style="width:471px;height:823px;background:#FFFFFF;" version="1.1" viewBox="0 0 471 823" width="471px" zoomAndPan="magnify"><defs/><g><rect fill="none" height="300.5938" style="stroke:#000000;stroke-width:1.5;" width="402.5" x="10" y="141.7539"/><rect fill="none" height="212.8848" style="stroke:#000000;stroke-width:1.5;" width="382.5" x="20" y="222.4629"/><line style="stroke:#181818;stroke-width:0.5;stroke-dasharray:5.0,5.0;" x1="75" x2="75" y1="82.4883" y2="740.9414"/><line style="stroke:#181818;stroke-width:0.5;stroke-dasharray:5.0,5.0;" x1="247" x2="247" y1="82.4883" y2="740.9414"/><line style="stroke:#181818;stroke-width:0.5;stroke-dasharray:5.0,5.0;" x1="413.5" x2="413.5" y1="82.4883" y2="740.9414"/><text fill="#000000" font-family="sans-serif" font-size="14" lengthAdjust="spacing" textLength="85" x="30" y="79.5352">Clinical User</text><ellipse cx="75.5" cy="21.5" fill="#E2E2F0" rx="16" ry="16" style="stroke:#181818;stroke-width:0.5;"/><path d="M75.5,41.5 C79.5,41.5 82.5,41.5 86.5,37.5 C94.5,37.5 102.5,45.5 102.5,53.5 L102.5,57.5 C102.5,61.5 98.5,65.5 94.5,65.5 L56.5,65.5 C52.5,65.5 48.5,61.5 48.5,57.5 L48.5,53.5 C48.5,45.5 56.5,37.5 64.5,37.5 C68.5,41.5 71.5,41.5 75.5,41.5 " fill="#E2E2F0" style="stroke:#181818;stroke-width:0.5;"/><text fill="#000000" font-family="sans-serif" font-size="14" lengthAdjust="spacing" textLength="85" x="30" y="753.4766">Clinical User</text><ellipse cx="75.5" cy="772.9297" fill="#E2E2F0" rx="16" ry="16" style="stroke:#181818;stroke-width:0.5;"/><path d="M75.5,792.9297 C79.5,792.9297 82.5,792.9297 86.5,788.9297 C94.5,788.9297 102.5,796.9297 102.5,804.9297 L102.5,808.9297 C102.5,812.9297 98.5,816.9297 94.5,816.9297 L56.5,816.9297 C52.5,816.9297 48.5,812.9297 48.5,808.9297 L48.5,804.9297 C48.5,796.9297 56.5,788.9297 64.5,788.9297 C68.5,792.9297 71.5,792.9297 75.5,792.9297 " fill="#E2E2F0" style="stroke:#181818;stroke-width:0.5;"/><rect fill="#E2E2F0" height="30.4883" rx="2.5" ry="2.5" style="stroke:#181818;stroke-width:0.5;" width="173" x="161" y="51"/><text fill="#000000" font-family="sans-serif" font-size="14" lengthAdjust="spacing" textLength="159" x="168" y="71.5352">Central Monitoring Site</text><rect fill="#E2E2F0" height="30.4883" rx="2.5" ry="2.5" style="stroke:#181818;stroke-width:0.5;" width="173" x="161" y="739.9414"/><text fill="#000000" font-family="sans-serif" font-size="14" lengthAdjust="spacing" textLength="159" x="168" y="760.4766">Central Monitoring Site</text><rect fill="#E2E2F0" height="30.4883" rx="2.5" ry="2.5" style="stroke:#181818;stroke-width:0.5;" width="104" x="361.5" y="51"/><text fill="#000000" font-family="sans-serif" font-size="14" lengthAdjust="spacing" textLength="90" x="368.5" y="71.5352">Web Gateway</text><rect fill="#E2E2F0" height="30.4883" rx="2.5" ry="2.5" style="stroke:#181818;stroke-width:0.5;" width="104" x="361.5" y="739.9414"/><text fill="#000000" font-family="sans-serif" font-size="14" lengthAdjust="spacing" textLength="90" x="368.5" y="760.4766">Web Gateway</text><polygon fill="#666666" points="86.5,122.7539,76.5,126.7539,86.5,130.7539,82.5,126.7539" style="stroke:#666666;stroke-width:1.0;"/><line style="stroke:#666666;stroke-width:1.0;" x1="80.5" x2="246.5" y1="126.7539" y2="126.7539"/><text fill="#666666" font-family="sans-serif" font-size="12" lengthAdjust="spacing" textLength="35" x="124" y="108.0898">Shows</text><text fill="#666666" font-family="sans-serif" font-size="12" lengthAdjust="spacing" textLength="4" x="159" y="108.0898">&#160;</text><text fill="#666666" font-family="sans-serif" font-size="12" lengthAdjust="spacing" textLength="36" x="163" y="108.0898">Group</text><text fill="#666666" font-family="sans-serif" font-size="12" lengthAdjust="spacing" textLength="74" x="105" y="122.2227">Management</text><text fill="#666666" font-family="sans-serif" font-size="12" lengthAdjust="spacing" textLength="4" x="179" y="122.2227">&#160;</text><text fill="#666666" font-family="sans-serif" font-size="12" lengthAdjust="spacing" textLength="35" x="183" y="122.2227">Modal</text><path d="M10,141.7539 L84,141.7539 L84,149.0645 L74,159.0645 L10,159.0645 L10,141.7539 " fill="#EEEEEE" style="stroke:#000000;stroke-width:1.5;"/><rect fill="none" height="300.5938" style="stroke:#000000;stroke-width:1.5;" width="402.5" x="10" y="141.7539"/><text fill="#000000" font-family="sans-serif" font-size="13" font-weight="bold" lengthAdjust="spacing" textLength="29" x="25" y="155.3223">loop</text><text fill="#000000" font-family="sans-serif" font-size="11" font-weight="bold" lengthAdjust="spacing" textLength="166" x="99" y="154.3887">[while more edits are needed]</text><polygon fill="#666666" points="235.5,203.4629,245.5,207.4629,235.5,211.4629,239.5,207.4629" style="stroke:#666666;stroke-width:1.0;"/><line style="stroke:#666666;stroke-width:1.0;" x1="75.5" x2="241.5" y1="207.4629" y2="207.4629"/><text fill="#666666" font-family="sans-serif" font-size="12" lengthAdjust="spacing" textLength="122" x="100.5" y="174.666">Adds/Removes/Edits</text><text fill="#666666" font-family="sans-serif" font-size="12" lengthAdjust="spacing" textLength="40" x="87.5" y="188.7988">groups</text><text fill="#666666" font-family="sans-serif" font-size="12" lengthAdjust="spacing" textLength="4" x="127.5" y="188.7988">&#160;</text><text fill="#666666" font-family="sans-serif" font-size="12" lengthAdjust="spacing" textLength="12" x="131.5" y="188.7988">or</text><text fill="#666666" font-family="sans-serif" font-size="12" lengthAdjust="spacing" textLength="4" x="143.5" y="188.7988">&#160;</text><text fill="#666666" font-family="sans-serif" font-size="12" lengthAdjust="spacing" textLength="88" x="147.5" y="188.7988">Adds/Removes</text><text fill="#666666" font-family="sans-serif" font-size="12" lengthAdjust="spacing" textLength="64" x="92" y="202.9316">bed-group</text><text fill="#666666" font-family="sans-serif" font-size="12" lengthAdjust="spacing" textLength="4" x="156" y="202.9316">&#160;</text><text fill="#666666" font-family="sans-serif" font-size="12" lengthAdjust="spacing" textLength="71" x="160" y="202.9316">assignments</text><path d="M20,222.4629 L82,222.4629 L82,229.7734 L72,239.7734 L20,239.7734 L20,222.4629 " fill="#EEEEEE" style="stroke:#000000;stroke-width:1.5;"/><rect fill="none" height="212.8848" style="stroke:#000000;stroke-width:1.5;" width="382.5" x="20" y="222.4629"/><text fill="#000000" font-family="sans-serif" font-size="13" font-weight="bold" lengthAdjust="spacing" textLength="17" x="35" y="236.0313">alt</text><text fill="#000000" font-family="sans-serif" font-size="11" font-weight="bold" lengthAdjust="spacing" textLength="189" x="97" y="235.0977">[two groups have the same name]</text><polygon fill="#666666" points="86.5,270.0391,76.5,274.0391,86.5,278.0391,82.5,274.0391" style="stroke:#666666;stroke-width:1.0;"/><line style="stroke:#666666;stroke-width:1.0;" x1="80.5" x2="246.5" y1="274.0391" y2="274.0391"/><text fill="#666666" font-family="sans-serif" font-size="12" lengthAdjust="spacing" textLength="35" x="118.5" y="255.375">shows</text><text fill="#666666" font-family="sans-serif" font-size="12" lengthAdjust="spacing" textLength="4" x="153.5" y="255.375">&#160;</text><text fill="#666666" font-family="sans-serif" font-size="12" lengthAdjust="spacing" textLength="29" x="157.5" y="255.375">error</text><text fill="#666666" font-family="sans-serif" font-size="12" lengthAdjust="spacing" textLength="4" x="186.5" y="255.375">&#160;</text><text fill="#666666" font-family="sans-serif" font-size="12" lengthAdjust="spacing" textLength="14" x="190.5" y="255.375">on</text><text fill="#666666" font-family="sans-serif" font-size="12" lengthAdjust="spacing" textLength="85" x="100" y="269.5078">editted/added</text><text fill="#666666" font-family="sans-serif" font-size="12" lengthAdjust="spacing" textLength="4" x="185" y="269.5078">&#160;</text><text fill="#666666" font-family="sans-serif" font-size="12" lengthAdjust="spacing" textLength="34" x="189" y="269.5078">group</text><line style="stroke:#666666;stroke-width:1.0;" x1="247.5" x2="289.5" y1="302.1719" y2="302.1719"/><line style="stroke:#666666;stroke-width:1.0;" x1="289.5" x2="289.5" y1="302.1719" y2="315.1719"/><line style="stroke:#666666;stroke-width:1.0;" x1="248.5" x2="289.5" y1="315.1719" y2="315.1719"/><polygon fill="#666666" points="258.5,311.1719,248.5,315.1719,258.5,319.1719,254.5,315.1719" style="stroke:#666666;stroke-width:1.0;"/><text fill="#666666" font-family="sans-serif" font-size="12" lengthAdjust="spacing" textLength="65" x="254.5" y="297.6406">deactivates</text><text fill="#666666" font-family="sans-serif" font-size="12" lengthAdjust="spacing" textLength="4" x="319.5" y="297.6406">&#160;</text><text fill="#666666" font-family="sans-serif" font-size="12" lengthAdjust="spacing" textLength="26" x="323.5" y="297.6406">save</text><text fill="#666666" font-family="sans-serif" font-size="12" lengthAdjust="spacing" textLength="4" x="349.5" y="297.6406">&#160;</text><text fill="#666666" font-family="sans-serif" font-size="12" lengthAdjust="spacing" textLength="37" x="353.5" y="297.6406">button</text><line style="stroke:#000000;stroke-width:1.0;stroke-dasharray:2.0,2.0;" x1="20" x2="402.5" y1="324.1719" y2="324.1719"/><text fill="#000000" font-family="sans-serif" font-size="11" font-weight="bold" lengthAdjust="spacing" textLength="165" x="25" y="334.8066">[group has no beds assigned]</text><line style="stroke:#666666;stroke-width:1.0;" x1="247.5" x2="289.5" y1="358.2598" y2="358.2598"/><line style="stroke:#666666;stroke-width:1.0;" x1="289.5" x2="289.5" y1="358.2598" y2="371.2598"/><line style="stroke:#666666;stroke-width:1.0;" x1="248.5" x2="289.5" y1="371.2598" y2="371.2598"/><polygon fill="#666666" points="258.5,367.2598,248.5,371.2598,258.5,375.2598,254.5,371.2598" style="stroke:#666666;stroke-width:1.0;"/><text fill="#666666" font-family="sans-serif" font-size="12" lengthAdjust="spacing" textLength="65" x="254.5" y="353.7285">deactivates</text><text fill="#666666" font-family="sans-serif" font-size="12" lengthAdjust="spacing" textLength="4" x="319.5" y="353.7285">&#160;</text><text fill="#666666" font-family="sans-serif" font-size="12" lengthAdjust="spacing" textLength="26" x="323.5" y="353.7285">save</text><text fill="#666666" font-family="sans-serif" font-size="12" lengthAdjust="spacing" textLength="4" x="349.5" y="353.7285">&#160;</text><text fill="#666666" font-family="sans-serif" font-size="12" lengthAdjust="spacing" textLength="37" x="353.5" y="353.7285">button</text><line style="stroke:#000000;stroke-width:1.0;stroke-dasharray:2.0,2.0;" x1="20" x2="402.5" y1="380.2598" y2="380.2598"/><text fill="#000000" font-family="sans-serif" font-size="11" font-weight="bold" lengthAdjust="spacing" textLength="97" x="25" y="390.8945">[no errors found]</text><line style="stroke:#666666;stroke-width:1.0;" x1="247.5" x2="289.5" y1="414.3477" y2="414.3477"/><line style="stroke:#666666;stroke-width:1.0;" x1="289.5" x2="289.5" y1="414.3477" y2="427.3477"/><line style="stroke:#666666;stroke-width:1.0;" x1="248.5" x2="289.5" y1="427.3477" y2="427.3477"/><polygon fill="#666666" points="258.5,423.3477,248.5,427.3477,258.5,431.3477,254.5,427.3477" style="stroke:#666666;stroke-width:1.0;"/><text fill="#666666" font-family="sans-serif" font-size="12" lengthAdjust="spacing" textLength="50" x="254.5" y="409.8164">activates</text><text fill="#666666" font-family="sans-serif" font-size="12" lengthAdjust="spacing" textLength="4" x="304.5" y="409.8164">&#160;</text><text fill="#666666" font-family="sans-serif" font-size="12" lengthAdjust="spacing" textLength="26" x="308.5" y="409.8164">save</text><text fill="#666666" font-family="sans-serif" font-size="12" lengthAdjust="spacing" textLength="4" x="334.5" y="409.8164">&#160;</text><text fill="#666666" font-family="sans-serif" font-size="12" lengthAdjust="spacing" textLength="37" x="338.5" y="409.8164">button</text><polygon fill="#666666" points="235.5,465.4805,245.5,469.4805,235.5,473.4805,239.5,469.4805" style="stroke:#666666;stroke-width:1.0;"/><line style="stroke:#666666;stroke-width:1.0;" x1="75.5" x2="241.5" y1="469.4805" y2="469.4805"/><text fill="#666666" font-family="sans-serif" font-size="12" lengthAdjust="spacing" textLength="44" x="104" y="464.9492">Presses</text><text fill="#666666" font-family="sans-serif" font-size="12" lengthAdjust="spacing" textLength="4" x="148" y="464.9492">&#160;</text><text fill="#666666" font-family="sans-serif" font-size="12" lengthAdjust="spacing" textLength="26" x="152" y="464.9492">save</text><text fill="#666666" font-family="sans-serif" font-size="12" lengthAdjust="spacing" textLength="4" x="178" y="464.9492">&#160;</text><text fill="#666666" font-family="sans-serif" font-size="12" lengthAdjust="spacing" textLength="37" x="182" y="464.9492">button</text><polygon fill="#666666" points="401.5,507.7461,411.5,511.7461,401.5,515.7461,405.5,511.7461" style="stroke:#666666;stroke-width:1.0;"/><line style="stroke:#666666;stroke-width:1.0;" x1="247.5" x2="407.5" y1="511.7461" y2="511.7461"/><text fill="#666666" font-family="sans-serif" font-size="12" lengthAdjust="spacing" textLength="43" x="259.5" y="493.082">Deletes</text><text fill="#666666" font-family="sans-serif" font-size="12" lengthAdjust="spacing" textLength="4" x="302.5" y="493.082">&#160;</text><text fill="#666666" font-family="sans-serif" font-size="12" lengthAdjust="spacing" textLength="40" x="306.5" y="493.082">groups</text><text fill="#666666" font-family="sans-serif" font-size="12" lengthAdjust="spacing" textLength="4" x="346.5" y="493.082">&#160;</text><text fill="#666666" font-family="sans-serif" font-size="12" lengthAdjust="spacing" textLength="51" x="350.5" y="493.082">removed</text><text fill="#666666" font-family="sans-serif" font-size="12" lengthAdjust="spacing" textLength="14" x="309" y="507.2148">by</text><text fill="#666666" font-family="sans-serif" font-size="12" lengthAdjust="spacing" textLength="4" x="323" y="507.2148">&#160;</text><text fill="#666666" font-family="sans-serif" font-size="12" lengthAdjust="spacing" textLength="25" x="327" y="507.2148">user</text><polygon fill="#666666" points="258.5,535.8789,248.5,539.8789,258.5,543.8789,254.5,539.8789" style="stroke:#666666;stroke-width:1.0;"/><line style="stroke:#666666;stroke-width:1.0;" x1="252.5" x2="412.5" y1="539.8789" y2="539.8789"/><text fill="#666666" font-family="sans-serif" font-size="12" lengthAdjust="spacing" textLength="38" x="263" y="535.3477">Return</text><text fill="#666666" font-family="sans-serif" font-size="12" lengthAdjust="spacing" textLength="4" x="301" y="535.3477">&#160;</text><text fill="#666666" font-family="sans-serif" font-size="12" lengthAdjust="spacing" textLength="38" x="305" y="535.3477">sucess</text><text fill="#666666" font-family="sans-serif" font-size="12" lengthAdjust="spacing" textLength="4" x="343" y="535.3477">&#160;</text><text fill="#666666" font-family="sans-serif" font-size="12" lengthAdjust="spacing" textLength="51" x="347" y="535.3477">message</text><polygon fill="#666666" points="401.5,578.1445,411.5,582.1445,401.5,586.1445,405.5,582.1445" style="stroke:#666666;stroke-width:1.0;"/><line style="stroke:#666666;stroke-width:1.0;" x1="247.5" x2="407.5" y1="582.1445" y2="582.1445"/><text fill="#666666" font-family="sans-serif" font-size="12" lengthAdjust="spacing" textLength="64" x="276.5" y="563.4805">Adds/edits</text><text fill="#666666" font-family="sans-serif" font-size="12" lengthAdjust="spacing" textLength="4" x="340.5" y="563.4805">&#160;</text><text fill="#666666" font-family="sans-serif" font-size="12" lengthAdjust="spacing" textLength="40" x="344.5" y="563.4805">groups</text><text fill="#666666" font-family="sans-serif" font-size="12" lengthAdjust="spacing" textLength="51" x="281.5" y="577.6133">modified</text><text fill="#666666" font-family="sans-serif" font-size="12" lengthAdjust="spacing" textLength="4" x="332.5" y="577.6133">&#160;</text><text fill="#666666" font-family="sans-serif" font-size="12" lengthAdjust="spacing" textLength="14" x="336.5" y="577.6133">by</text><text fill="#666666" font-family="sans-serif" font-size="12" lengthAdjust="spacing" textLength="4" x="350.5" y="577.6133">&#160;</text><text fill="#666666" font-family="sans-serif" font-size="12" lengthAdjust="spacing" textLength="25" x="354.5" y="577.6133">user</text><polygon fill="#666666" points="258.5,606.2773,248.5,610.2773,258.5,614.2773,254.5,610.2773" style="stroke:#666666;stroke-width:1.0;"/><line style="stroke:#666666;stroke-width:1.0;" x1="252.5" x2="412.5" y1="610.2773" y2="610.2773"/><text fill="#666666" font-family="sans-serif" font-size="12" lengthAdjust="spacing" textLength="44" x="260" y="605.7461">Returns</text><text fill="#666666" font-family="sans-serif" font-size="12" lengthAdjust="spacing" textLength="4" x="304" y="605.7461">&#160;</text><text fill="#666666" font-family="sans-serif" font-size="12" lengthAdjust="spacing" textLength="38" x="308" y="605.7461">sucess</text><text fill="#666666" font-family="sans-serif" font-size="12" lengthAdjust="spacing" textLength="4" x="346" y="605.7461">&#160;</text><text fill="#666666" font-family="sans-serif" font-size="12" lengthAdjust="spacing" textLength="51" x="350" y="605.7461">message</text><polygon fill="#666666" points="401.5,648.543,411.5,652.543,401.5,656.543,405.5,652.543" style="stroke:#666666;stroke-width:1.0;"/><line style="stroke:#666666;stroke-width:1.0;" x1="247.5" x2="407.5" y1="652.543" y2="652.543"/><text fill="#666666" font-family="sans-serif" font-size="12" lengthAdjust="spacing" textLength="48" x="274" y="633.8789">Modifies</text><text fill="#666666" font-family="sans-serif" font-size="12" lengthAdjust="spacing" textLength="4" x="322" y="633.8789">&#160;</text><text fill="#666666" font-family="sans-serif" font-size="12" lengthAdjust="spacing" textLength="23" x="326" y="633.8789">bed</text><text fill="#666666" font-family="sans-serif" font-size="12" lengthAdjust="spacing" textLength="4" x="349" y="633.8789">&#160;</text><text fill="#666666" font-family="sans-serif" font-size="12" lengthAdjust="spacing" textLength="34" x="353" y="633.8789">group</text><text fill="#666666" font-family="sans-serif" font-size="12" lengthAdjust="spacing" textLength="71" x="295" y="648.0117">assignments</text><polygon fill="#666666" points="258.5,676.6758,248.5,680.6758,258.5,684.6758,254.5,680.6758" style="stroke:#666666;stroke-width:1.0;"/><line style="stroke:#666666;stroke-width:1.0;" x1="252.5" x2="412.5" y1="680.6758" y2="680.6758"/><text fill="#666666" font-family="sans-serif" font-size="12" lengthAdjust="spacing" textLength="44" x="260" y="676.1445">Returns</text><text fill="#666666" font-family="sans-serif" font-size="12" lengthAdjust="spacing" textLength="4" x="304" y="676.1445">&#160;</text><text fill="#666666" font-family="sans-serif" font-size="12" lengthAdjust="spacing" textLength="38" x="308" y="676.1445">sucess</text><text fill="#666666" font-family="sans-serif" font-size="12" lengthAdjust="spacing" textLength="4" x="346" y="676.1445">&#160;</text><text fill="#666666" font-family="sans-serif" font-size="12" lengthAdjust="spacing" textLength="51" x="350" y="676.1445">message</text><polygon fill="#666666" points="86.5,718.9414,76.5,722.9414,86.5,726.9414,82.5,722.9414" style="stroke:#666666;stroke-width:1.0;"/><line style="stroke:#666666;stroke-width:1.0;" x1="80.5" x2="246.5" y1="722.9414" y2="722.9414"/><text fill="#666666" font-family="sans-serif" font-size="12" lengthAdjust="spacing" textLength="44" x="95.5" y="704.2773">Returns</text><text fill="#666666" font-family="sans-serif" font-size="12" lengthAdjust="spacing" textLength="4" x="139.5" y="704.2773">&#160;</text><text fill="#666666" font-family="sans-serif" font-size="12" lengthAdjust="spacing" textLength="25" x="143.5" y="704.2773">user</text><text fill="#666666" font-family="sans-serif" font-size="12" lengthAdjust="spacing" textLength="4" x="168.5" y="704.2773">&#160;</text><text fill="#666666" font-family="sans-serif" font-size="12" lengthAdjust="spacing" textLength="11" x="172.5" y="704.2773">to</text><text fill="#666666" font-family="sans-serif" font-size="12" lengthAdjust="spacing" textLength="4" x="183.5" y="704.2773">&#160;</text><text fill="#666666" font-family="sans-serif" font-size="12" lengthAdjust="spacing" textLength="40" x="187.5" y="704.2773">Clinical</text><text fill="#666666" font-family="sans-serif" font-size="12" lengthAdjust="spacing" textLength="42" x="119.5" y="718.4102">Module</text><text fill="#666666" font-family="sans-serif" font-size="12" lengthAdjust="spacing" textLength="4" x="161.5" y="718.4102">&#160;</text><text fill="#666666" font-family="sans-serif" font-size="12" lengthAdjust="spacing" textLength="38" x="165.5" y="718.4102">Screen</text><!--SRC=[bPF1QiCm38RlVWgjzv9BJsKKHZPwAeoMiUDmOhKrE5Qmd8Q-_MGdBKt72Wt4EFZNfz-Iyc9zxJg3y5ekYdBnKrBJaaSVLqhfEbA0uPcLpdfRQmTVZ646e1awsQbMXsXhsseVHII1GJGRybPYhJ_0paQS9NNTy5JyZHMiTSHUdxEWnqefKS5ybT6mXDsHUePreAw5ZVRwW8ra4BpHJZcY5lgZTGWD1GGqDZ9esNb4WqObtnaamCHTmfinN6oneHDoyP7rXmHda8lU7aA5PfwFn1dRWqzvEHErYn1xkWGUzGaX7X5ODv9P5ZMM3APtuNmN345IaSzk8vf26x4wmEu31yy6fG_s98LYoI79gYv6ybcCZd685HyCdf9l7YsF5NWUA9Xias5FdV-7ye0X8UcTblup8FETUWHAuqNmZWuJRgnho8qmK9s7EKkYAsoBiGiUkAi52eqiCXfJNEucthQu8MFtzZ6I7p8t0o5F1_oTZYTuuqnSHFap4bn_CidKoLplwe3ebVe5]--></g></svg>