<?xml version="1.0" encoding="us-ascii" standalone="no"?><svg xmlns="http://www.w3.org/2000/svg" xmlns:xlink="http://www.w3.org/1999/xlink" contentStyleType="text/css" height="450px" preserveAspectRatio="none" style="width:441px;height:450px;background:#FFFFFF;" version="1.1" viewBox="0 0 441 450" width="441px" zoomAndPan="magnify"><defs/><g><line style="stroke:#181818;stroke-width:0.5;stroke-dasharray:5.0,5.0;" x1="50" x2="50" y1="82.4883" y2="367.8164"/><line style="stroke:#181818;stroke-width:0.5;stroke-dasharray:5.0,5.0;" x1="220" x2="220" y1="82.4883" y2="367.8164"/><line style="stroke:#181818;stroke-width:0.5;stroke-dasharray:5.0,5.0;" x1="383.5" x2="383.5" y1="82.4883" y2="367.8164"/><text fill="#000000" font-family="sans-serif" font-size="14" lengthAdjust="spacing" textLength="85" x="5" y="79.5352">Clinical User</text><ellipse cx="50.5" cy="21.5" fill="#E2E2F0" rx="16" ry="16" style="stroke:#181818;stroke-width:0.5;"/><path d="M50.5,41.5 C54.5,41.5 57.5,41.5 61.5,37.5 C69.5,37.5 77.5,45.5 77.5,53.5 L77.5,57.5 C77.5,61.5 73.5,65.5 69.5,65.5 L31.5,65.5 C27.5,65.5 23.5,61.5 23.5,57.5 L23.5,53.5 C23.5,45.5 31.5,37.5 39.5,37.5 C43.5,41.5 46.5,41.5 50.5,41.5 " fill="#E2E2F0" style="stroke:#181818;stroke-width:0.5;"/><text fill="#000000" font-family="sans-serif" font-size="14" lengthAdjust="spacing" textLength="85" x="5" y="380.3516">Clinical User</text><ellipse cx="50.5" cy="399.8047" fill="#E2E2F0" rx="16" ry="16" style="stroke:#181818;stroke-width:0.5;"/><path d="M50.5,419.8047 C54.5,419.8047 57.5,419.8047 61.5,415.8047 C69.5,415.8047 77.5,423.8047 77.5,431.8047 L77.5,435.8047 C77.5,439.8047 73.5,443.8047 69.5,443.8047 L31.5,443.8047 C27.5,443.8047 23.5,439.8047 23.5,435.8047 L23.5,431.8047 C23.5,423.8047 31.5,415.8047 39.5,415.8047 C43.5,419.8047 46.5,419.8047 50.5,419.8047 " fill="#E2E2F0" style="stroke:#181818;stroke-width:0.5;"/><rect fill="#E2E2F0" height="30.4883" rx="2.5" ry="2.5" style="stroke:#181818;stroke-width:0.5;" width="173" x="134" y="51"/><text fill="#000000" font-family="sans-serif" font-size="14" lengthAdjust="spacing" textLength="159" x="141" y="71.5352">Central Monitoring Site</text><rect fill="#E2E2F0" height="30.4883" rx="2.5" ry="2.5" style="stroke:#181818;stroke-width:0.5;" width="173" x="134" y="366.8164"/><text fill="#000000" font-family="sans-serif" font-size="14" lengthAdjust="spacing" textLength="159" x="141" y="387.3516">Central Monitoring Site</text><rect fill="#E2E2F0" height="30.4883" rx="2.5" ry="2.5" style="stroke:#181818;stroke-width:0.5;" width="104" x="331.5" y="51"/><text fill="#000000" font-family="sans-serif" font-size="14" lengthAdjust="spacing" textLength="90" x="338.5" y="71.5352">Web Gateway</text><rect fill="#E2E2F0" height="30.4883" rx="2.5" ry="2.5" style="stroke:#181818;stroke-width:0.5;" width="104" x="331.5" y="366.8164"/><text fill="#000000" font-family="sans-serif" font-size="14" lengthAdjust="spacing" textLength="90" x="338.5" y="387.3516">Web Gateway</text><line style="stroke:#666666;stroke-width:1.0;" x1="220.5" x2="262.5" y1="112.6211" y2="112.6211"/><line style="stroke:#666666;stroke-width:1.0;" x1="262.5" x2="262.5" y1="112.6211" y2="125.6211"/><line style="stroke:#666666;stroke-width:1.0;" x1="221.5" x2="262.5" y1="125.6211" y2="125.6211"/><polygon fill="#666666" points="231.5,121.6211,221.5,125.6211,231.5,129.6211,227.5,125.6211" style="stroke:#666666;stroke-width:1.0;"/><text fill="#666666" font-family="sans-serif" font-size="12" lengthAdjust="spacing" textLength="34" x="227.5" y="108.0898">Loads</text><text fill="#666666" font-family="sans-serif" font-size="12" lengthAdjust="spacing" textLength="4" x="261.5" y="108.0898">&#160;</text><text fill="#666666" font-family="sans-serif" font-size="12" lengthAdjust="spacing" textLength="40" x="265.5" y="108.0898">Clinical</text><text fill="#666666" font-family="sans-serif" font-size="12" lengthAdjust="spacing" textLength="4" x="305.5" y="108.0898">&#160;</text><text fill="#666666" font-family="sans-serif" font-size="12" lengthAdjust="spacing" textLength="42" x="309.5" y="108.0898">Module</text><polygon fill="#666666" points="371.5,149.7539,381.5,153.7539,371.5,157.7539,375.5,153.7539" style="stroke:#666666;stroke-width:1.0;"/><line style="stroke:#666666;stroke-width:1.0;" x1="220.5" x2="377.5" y1="153.7539" y2="153.7539"/><text fill="#666666" font-family="sans-serif" font-size="12" lengthAdjust="spacing" textLength="53" x="238.5" y="149.2227">Requests</text><text fill="#666666" font-family="sans-serif" font-size="12" lengthAdjust="spacing" textLength="4" x="291.5" y="149.2227">&#160;</text><text fill="#666666" font-family="sans-serif" font-size="12" lengthAdjust="spacing" textLength="40" x="295.5" y="149.2227">groups</text><text fill="#666666" font-family="sans-serif" font-size="12" lengthAdjust="spacing" textLength="4" x="335.5" y="149.2227">&#160;</text><text fill="#666666" font-family="sans-serif" font-size="12" lengthAdjust="spacing" textLength="26" x="339.5" y="149.2227">data</text><polygon fill="#666666" points="231.5,177.8867,221.5,181.8867,231.5,185.8867,227.5,181.8867" style="stroke:#666666;stroke-width:1.0;"/><line style="stroke:#666666;stroke-width:1.0;" x1="225.5" x2="382.5" y1="181.8867" y2="181.8867"/><text fill="#666666" font-family="sans-serif" font-size="12" lengthAdjust="spacing" textLength="44" x="243" y="177.3555">Returns</text><text fill="#666666" font-family="sans-serif" font-size="12" lengthAdjust="spacing" textLength="4" x="287" y="177.3555">&#160;</text><text fill="#666666" font-family="sans-serif" font-size="12" lengthAdjust="spacing" textLength="40" x="291" y="177.3555">groups</text><text fill="#666666" font-family="sans-serif" font-size="12" lengthAdjust="spacing" textLength="4" x="331" y="177.3555">&#160;</text><text fill="#666666" font-family="sans-serif" font-size="12" lengthAdjust="spacing" textLength="26" x="335" y="177.3555">data</text><polygon fill="#666666" points="61.5,220.1523,51.5,224.1523,61.5,228.1523,57.5,224.1523" style="stroke:#666666;stroke-width:1.0;"/><line style="stroke:#666666;stroke-width:1.0;" x1="55.5" x2="219.5" y1="224.1523" y2="224.1523"/><text fill="#666666" font-family="sans-serif" font-size="12" lengthAdjust="spacing" textLength="42" x="62.5" y="205.4883">Display</text><text fill="#666666" font-family="sans-serif" font-size="12" lengthAdjust="spacing" textLength="4" x="104.5" y="205.4883">&#160;</text><text fill="#666666" font-family="sans-serif" font-size="12" lengthAdjust="spacing" textLength="40" x="108.5" y="205.4883">groups</text><text fill="#666666" font-family="sans-serif" font-size="12" lengthAdjust="spacing" textLength="4" x="148.5" y="205.4883">&#160;</text><text fill="#666666" font-family="sans-serif" font-size="12" lengthAdjust="spacing" textLength="16" x="152.5" y="205.4883">list</text><text fill="#666666" font-family="sans-serif" font-size="12" lengthAdjust="spacing" textLength="4" x="168.5" y="205.4883">&#160;</text><text fill="#666666" font-family="sans-serif" font-size="12" lengthAdjust="spacing" textLength="14" x="172.5" y="205.4883">on</text><text fill="#666666" font-family="sans-serif" font-size="12" lengthAdjust="spacing" textLength="4" x="186.5" y="205.4883">&#160;</text><text fill="#666666" font-family="sans-serif" font-size="12" lengthAdjust="spacing" textLength="18" x="190.5" y="205.4883">the</text><text fill="#666666" font-family="sans-serif" font-size="12" lengthAdjust="spacing" textLength="40" x="92.5" y="219.6211">Clinical</text><text fill="#666666" font-family="sans-serif" font-size="12" lengthAdjust="spacing" textLength="4" x="132.5" y="219.6211">&#160;</text><text fill="#666666" font-family="sans-serif" font-size="12" lengthAdjust="spacing" textLength="42" x="136.5" y="219.6211">Module</text><polygon fill="#666666" points="208.5,262.418,218.5,266.418,208.5,270.418,212.5,266.418" style="stroke:#666666;stroke-width:1.0;"/><line style="stroke:#666666;stroke-width:1.0;" x1="50.5" x2="214.5" y1="266.418" y2="266.418"/><text fill="#666666" font-family="sans-serif" font-size="12" lengthAdjust="spacing" textLength="33" x="74" y="247.7539">Clicks</text><text fill="#666666" font-family="sans-serif" font-size="12" lengthAdjust="spacing" textLength="4" x="107" y="247.7539">&#160;</text><text fill="#666666" font-family="sans-serif" font-size="12" lengthAdjust="spacing" textLength="20" x="111" y="247.7539">any</text><text fill="#666666" font-family="sans-serif" font-size="12" lengthAdjust="spacing" textLength="4" x="131" y="247.7539">&#160;</text><text fill="#666666" font-family="sans-serif" font-size="12" lengthAdjust="spacing" textLength="62" x="135" y="247.7539">unselected</text><text fill="#666666" font-family="sans-serif" font-size="12" lengthAdjust="spacing" textLength="34" x="118.5" y="261.8867">group</text><line style="stroke:#666666;stroke-width:1.0;" x1="220.5" x2="262.5" y1="294.5508" y2="294.5508"/><line style="stroke:#666666;stroke-width:1.0;" x1="262.5" x2="262.5" y1="294.5508" y2="307.5508"/><line style="stroke:#666666;stroke-width:1.0;" x1="221.5" x2="262.5" y1="307.5508" y2="307.5508"/><polygon fill="#666666" points="231.5,303.5508,221.5,307.5508,231.5,311.5508,227.5,307.5508" style="stroke:#666666;stroke-width:1.0;"/><text fill="#666666" font-family="sans-serif" font-size="12" lengthAdjust="spacing" textLength="32" x="227.5" y="290.0195">Saves</text><text fill="#666666" font-family="sans-serif" font-size="12" lengthAdjust="spacing" textLength="4" x="259.5" y="290.0195">&#160;</text><text fill="#666666" font-family="sans-serif" font-size="12" lengthAdjust="spacing" textLength="23" x="263.5" y="290.0195">new</text><text fill="#666666" font-family="sans-serif" font-size="12" lengthAdjust="spacing" textLength="4" x="286.5" y="290.0195">&#160;</text><text fill="#666666" font-family="sans-serif" font-size="12" lengthAdjust="spacing" textLength="48" x="290.5" y="290.0195">selected</text><text fill="#666666" font-family="sans-serif" font-size="12" lengthAdjust="spacing" textLength="4" x="338.5" y="290.0195">&#160;</text><text fill="#666666" font-family="sans-serif" font-size="12" lengthAdjust="spacing" textLength="34" x="342.5" y="290.0195">group</text><polygon fill="#666666" points="61.5,345.8164,51.5,349.8164,61.5,353.8164,57.5,349.8164" style="stroke:#666666;stroke-width:1.0;"/><line style="stroke:#666666;stroke-width:1.0;" x1="55.5" x2="219.5" y1="349.8164" y2="349.8164"/><text fill="#666666" font-family="sans-serif" font-size="12" lengthAdjust="spacing" textLength="35" x="65.5" y="331.1523">Shows</text><text fill="#666666" font-family="sans-serif" font-size="12" lengthAdjust="spacing" textLength="4" x="100.5" y="331.1523">&#160;</text><text fill="#666666" font-family="sans-serif" font-size="12" lengthAdjust="spacing" textLength="29" x="104.5" y="331.1523">beds</text><text fill="#666666" font-family="sans-serif" font-size="12" lengthAdjust="spacing" textLength="4" x="133.5" y="331.1523">&#160;</text><text fill="#666666" font-family="sans-serif" font-size="12" lengthAdjust="spacing" textLength="10" x="137.5" y="331.1523">in</text><text fill="#666666" font-family="sans-serif" font-size="12" lengthAdjust="spacing" textLength="4" x="147.5" y="331.1523">&#160;</text><text fill="#666666" font-family="sans-serif" font-size="12" lengthAdjust="spacing" textLength="18" x="151.5" y="331.1523">the</text><text fill="#666666" font-family="sans-serif" font-size="12" lengthAdjust="spacing" textLength="4" x="169.5" y="331.1523">&#160;</text><text fill="#666666" font-family="sans-serif" font-size="12" lengthAdjust="spacing" textLength="32" x="173.5" y="331.1523">newly</text><text fill="#666666" font-family="sans-serif" font-size="12" lengthAdjust="spacing" textLength="48" x="92.5" y="345.2852">selected</text><text fill="#666666" font-family="sans-serif" font-size="12" lengthAdjust="spacing" textLength="4" x="140.5" y="345.2852">&#160;</text><text fill="#666666" font-family="sans-serif" font-size="12" lengthAdjust="spacing" textLength="34" x="144.5" y="345.2852">group</text><!--SRC=[RS_1JiCm30RWUvx2z8wux8IcNOh4XLrM8Ox8JQqj8dDAxApgs-EkMwK2EKNAz_-E7mBxM3g2RRrvgZUVTJhtYObrvnnwJHdcKzKnSF0OuLqeLm0eKEpcUimQVEYHrP05ivbzuc3Pm4TeWb8rQN-MDVwW5bvHQS3n2WPgdJC5Zxi9mpEy9Um4bidxr9L8TsBSo86-2uaA77CglK27YcvwMaeEf2Np6jmgfWLCl0Jf8uvt4OCe90OzqP_PryHIRQ_-Im1vXC92aRnIDzUi5sdmGW9C0_olRXzfJcaGQCcM3lDyYyJnT-W7]--></g></svg>