<?xml version="1.0" encoding="us-ascii" standalone="no"?><svg xmlns="http://www.w3.org/2000/svg" xmlns:xlink="http://www.w3.org/1999/xlink" contentStyleType="text/css" height="319px" preserveAspectRatio="none" style="width:540px;height:319px;background:#FFFFFF;" version="1.1" viewBox="0 0 540 319" width="540px" zoomAndPan="magnify"><defs/><g><ellipse cx="353.875" cy="20" fill="#222222" rx="10" ry="10" style="stroke:#222222;stroke-width:1.0;"/><polygon fill="#F1F1F1" points="276.875,50,430.875,50,442.875,62,430.875,74,276.875,74,264.875,62,276.875,50" style="stroke:#181818;stroke-width:0.5;"/><text fill="#000000" font-family="sans-serif" font-size="11" lengthAdjust="spacing" textLength="154" x="276.875" y="66.1572">User has enaught privileges?</text><text fill="#000000" font-family="sans-serif" font-size="11" lengthAdjust="spacing" textLength="18" x="246.875" y="59.6797">yes</text><text fill="#000000" font-family="sans-serif" font-size="11" lengthAdjust="spacing" textLength="14" x="442.875" y="59.6797">no</text><polygon fill="#F1F1F1" points="189.25,84,277.25,84,289.25,96,277.25,108,189.25,108,177.25,96,189.25,84" style="stroke:#181818;stroke-width:0.5;"/><text fill="#000000" font-family="sans-serif" font-size="11" lengthAdjust="spacing" textLength="88" x="189.25" y="100.1572">Action is create?</text><text fill="#000000" font-family="sans-serif" font-size="11" lengthAdjust="spacing" textLength="18" x="159.25" y="93.6797">yes</text><text fill="#000000" font-family="sans-serif" font-size="11" lengthAdjust="spacing" textLength="14" x="289.25" y="93.6797">no</text><rect fill="#F1F1F1" height="34.1328" rx="12.5" ry="12.5" style="stroke:#181818;stroke-width:0.5;" width="115" x="76" y="118"/><text fill="#000000" font-family="sans-serif" font-size="12" lengthAdjust="spacing" textLength="95" x="86" y="139.6016">Save app setting</text><rect fill="#F1F1F1" height="34.1328" rx="12.5" ry="12.5" style="stroke:#181818;stroke-width:0.5;" width="245" x="11" y="172.1328"/><text fill="#000000" font-family="sans-serif" font-size="12" lengthAdjust="spacing" textLength="225" x="21" y="193.7344">Notify app setting created to event bus</text><rect fill="#F1F1F1" height="34.1328" rx="12.5" ry="12.5" style="stroke:#181818;stroke-width:0.5;" width="88" x="289" y="118"/><text fill="#000000" font-family="sans-serif" font-size="12" lengthAdjust="spacing" textLength="68" x="299" y="139.6016">Action is list</text><rect fill="#F1F1F1" height="34.1328" rx="12.5" ry="12.5" style="stroke:#181818;stroke-width:0.5;" width="114" x="276" y="172.1328"/><text fill="#000000" font-family="sans-serif" font-size="12" lengthAdjust="spacing" textLength="94" x="286" y="193.7344">List app settings</text><polygon fill="#F1F1F1" points="233.25,212.2656,245.25,224.2656,233.25,236.2656,221.25,224.2656,233.25,212.2656" style="stroke:#181818;stroke-width:0.5;"/><rect fill="#F1F1F1" height="34.1328" rx="12.5" ry="12.5" style="stroke:#181818;stroke-width:0.5;" width="109" x="420" y="84"/><text fill="#000000" font-family="sans-serif" font-size="12" lengthAdjust="spacing" textLength="89" x="430" y="105.6016">Return an error</text><polygon fill="#F1F1F1" points="353.875,242.2656,365.875,254.2656,353.875,266.2656,341.875,254.2656,353.875,242.2656" style="stroke:#181818;stroke-width:0.5;"/><ellipse cx="353.875" cy="297.2656" fill="none" rx="11" ry="11" style="stroke:#222222;stroke-width:1.0;"/><ellipse cx="353.875" cy="297.2656" fill="#222222" rx="6" ry="6" style="stroke:#222222;stroke-width:1.0;"/><line style="stroke:#181818;stroke-width:1.0;" x1="133.5" x2="133.5" y1="152.1328" y2="172.1328"/><polygon fill="#181818" points="129.5,162.1328,133.5,172.1328,137.5,162.1328,133.5,166.1328" style="stroke:#181818;stroke-width:1.0;"/><line style="stroke:#181818;stroke-width:1.0;" x1="333" x2="333" y1="152.1328" y2="172.1328"/><polygon fill="#181818" points="329,162.1328,333,172.1328,337,162.1328,333,166.1328" style="stroke:#181818;stroke-width:1.0;"/><line style="stroke:#181818;stroke-width:1.0;" x1="177.25" x2="133.5" y1="96" y2="96"/><line style="stroke:#181818;stroke-width:1.0;" x1="133.5" x2="133.5" y1="96" y2="118"/><polygon fill="#181818" points="129.5,108,133.5,118,137.5,108,133.5,112" style="stroke:#181818;stroke-width:1.0;"/><line style="stroke:#181818;stroke-width:1.0;" x1="289.25" x2="333" y1="96" y2="96"/><line style="stroke:#181818;stroke-width:1.0;" x1="333" x2="333" y1="96" y2="118"/><polygon fill="#181818" points="329,108,333,118,337,108,333,112" style="stroke:#181818;stroke-width:1.0;"/><line style="stroke:#181818;stroke-width:1.0;" x1="133.5" x2="133.5" y1="206.2656" y2="224.2656"/><line style="stroke:#181818;stroke-width:1.0;" x1="133.5" x2="221.25" y1="224.2656" y2="224.2656"/><polygon fill="#181818" points="211.25,220.2656,221.25,224.2656,211.25,228.2656,215.25,224.2656" style="stroke:#181818;stroke-width:1.0;"/><line style="stroke:#181818;stroke-width:1.0;" x1="333" x2="333" y1="206.2656" y2="224.2656"/><line style="stroke:#181818;stroke-width:1.0;" x1="333" x2="245.25" y1="224.2656" y2="224.2656"/><polygon fill="#181818" points="255.25,220.2656,245.25,224.2656,255.25,228.2656,251.25,224.2656" style="stroke:#181818;stroke-width:1.0;"/><line style="stroke:#181818;stroke-width:1.0;" x1="264.875" x2="233.25" y1="62" y2="62"/><line style="stroke:#181818;stroke-width:1.0;" x1="233.25" x2="233.25" y1="62" y2="84"/><polygon fill="#181818" points="229.25,74,233.25,84,237.25,74,233.25,78" style="stroke:#181818;stroke-width:1.0;"/><line style="stroke:#181818;stroke-width:1.0;" x1="442.875" x2="474.5" y1="62" y2="62"/><line style="stroke:#181818;stroke-width:1.0;" x1="474.5" x2="474.5" y1="62" y2="84"/><polygon fill="#181818" points="470.5,74,474.5,84,478.5,74,474.5,78" style="stroke:#181818;stroke-width:1.0;"/><line style="stroke:#181818;stroke-width:1.0;" x1="233.25" x2="233.25" y1="236.2656" y2="254.2656"/><line style="stroke:#181818;stroke-width:1.0;" x1="233.25" x2="341.875" y1="254.2656" y2="254.2656"/><polygon fill="#181818" points="331.875,250.2656,341.875,254.2656,331.875,258.2656,335.875,254.2656" style="stroke:#181818;stroke-width:1.0;"/><line style="stroke:#181818;stroke-width:1.0;" x1="474.5" x2="474.5" y1="118.1328" y2="254.2656"/><line style="stroke:#181818;stroke-width:1.0;" x1="474.5" x2="365.875" y1="254.2656" y2="254.2656"/><polygon fill="#181818" points="375.875,250.2656,365.875,254.2656,375.875,258.2656,371.875,254.2656" style="stroke:#181818;stroke-width:1.0;"/><line style="stroke:#181818;stroke-width:1.0;" x1="353.875" x2="353.875" y1="30" y2="50"/><polygon fill="#181818" points="349.875,40,353.875,50,357.875,40,353.875,44" style="stroke:#181818;stroke-width:1.0;"/><line style="stroke:#181818;stroke-width:1.0;" x1="353.875" x2="353.875" y1="266.2656" y2="286.2656"/><polygon fill="#181818" points="349.875,276.2656,353.875,286.2656,357.875,276.2656,353.875,280.2656" style="stroke:#181818;stroke-width:1.0;"/><!--SRC=[POv13e9G34Jt_nIpX2l8mhWtBZGUu0i5cf1-qXOIRY-81eYpx9jvgNbK3u5hP4yZHHiD975eMaUlF7973TavXxSao2QoF63EChYKpad0Xb8fElstbfmUSIJ4leUHEqjJREYMdEjf3x-g2fv08udZDTYweCu8cQHD_N5iNtHiNXpXTJxjzJ-LL5o7e_1q9nzK40MachG8QokOf_uD]--></g></svg>