<?xml version="1.0" encoding="us-ascii" standalone="no"?><svg xmlns="http://www.w3.org/2000/svg" xmlns:xlink="http://www.w3.org/1999/xlink" contentStyleType="text/css" height="491px" preserveAspectRatio="none" style="width:837px;height:491px;background:#FFFFFF;" version="1.1" viewBox="0 0 837 491" width="837px" zoomAndPan="magnify"><defs/><g><ellipse cx="284.75" cy="20" fill="#222222" rx="10" ry="10" style="stroke:#222222;stroke-width:1.0;"/><polygon fill="#F1F1F1" points="207.75,50,361.75,50,373.75,62,361.75,74,207.75,74,195.75,62,207.75,50" style="stroke:#181818;stroke-width:0.5;"/><text fill="#000000" font-family="sans-serif" font-size="11" lengthAdjust="spacing" textLength="154" x="207.75" y="66.1572">Is the user's account locked?</text><text fill="#000000" font-family="sans-serif" font-size="11" lengthAdjust="spacing" textLength="18" x="177.75" y="59.6797">yes</text><text fill="#000000" font-family="sans-serif" font-size="11" lengthAdjust="spacing" textLength="14" x="373.75" y="59.6797">no</text><rect fill="#F1F1F1" height="34.1328" rx="12.5" ry="12.5" style="stroke:#181818;stroke-width:0.5;" width="109" x="11" y="84"/><text fill="#000000" font-family="sans-serif" font-size="12" lengthAdjust="spacing" textLength="89" x="21" y="105.6016">Return an error</text><polygon fill="#F1F1F1" points="429,84,639,84,651,96,639,108,429,108,417,96,429,84" style="stroke:#181818;stroke-width:0.5;"/><text fill="#000000" font-family="sans-serif" font-size="11" lengthAdjust="spacing" textLength="210" x="429" y="100.1572">Is the user's current password correct?</text><text fill="#000000" font-family="sans-serif" font-size="11" lengthAdjust="spacing" textLength="14" x="403" y="93.6797">no</text><text fill="#000000" font-family="sans-serif" font-size="11" lengthAdjust="spacing" textLength="18" x="651" y="93.6797">yes</text><rect fill="#F1F1F1" height="34.1328" rx="12.5" ry="12.5" style="stroke:#181818;stroke-width:0.5;" width="221" x="237.5" y="118"/><text fill="#000000" font-family="sans-serif" font-size="12" lengthAdjust="spacing" textLength="201" x="247.5" y="139.6016">Increment the user's auth attempts</text><polygon fill="#F1F1F1" points="273,172.1328,423,172.1328,435,184.1328,423,196.1328,273,196.1328,261,184.1328,273,172.1328" style="stroke:#181818;stroke-width:0.5;"/><text fill="#000000" font-family="sans-serif" font-size="11" lengthAdjust="spacing" textLength="150" x="273" y="188.29">Max auth attempts reached?</text><text fill="#000000" font-family="sans-serif" font-size="11" lengthAdjust="spacing" textLength="18" x="243" y="181.8125">yes</text><text fill="#000000" font-family="sans-serif" font-size="11" lengthAdjust="spacing" textLength="14" x="435" y="181.8125">no</text><rect fill="#F1F1F1" height="34.1328" rx="12.5" ry="12.5" style="stroke:#181818;stroke-width:0.5;" width="194" x="132.5" y="206.1328"/><text fill="#000000" font-family="sans-serif" font-size="12" lengthAdjust="spacing" textLength="174" x="142.5" y="227.7344">Temporarily lock user account</text><rect fill="#F1F1F1" height="34.1328" rx="12.5" ry="12.5" style="stroke:#181818;stroke-width:0.5;" width="199" x="130" y="260.2656"/><text fill="#000000" font-family="sans-serif" font-size="12" lengthAdjust="spacing" textLength="179" x="140" y="281.8672">Notify user locked to event bus</text><rect fill="#F1F1F1" height="34.1328" rx="12.5" ry="12.5" style="stroke:#181818;stroke-width:0.5;" width="235" x="349" y="206.1328"/><text fill="#000000" font-family="sans-serif" font-size="12" lengthAdjust="spacing" textLength="215" x="359" y="227.7344">Notify user auth attempt to event bus</text><polygon fill="#F1F1F1" points="348,300.3984,360,312.3984,348,324.3984,336,312.3984,348,300.3984" style="stroke:#181818;stroke-width:0.5;"/><rect fill="#F1F1F1" height="34.1328" rx="12.5" ry="12.5" style="stroke:#181818;stroke-width:0.5;" width="109" x="293.5" y="344.3984"/><text fill="#000000" font-family="sans-serif" font-size="12" lengthAdjust="spacing" textLength="89" x="303.5" y="366">Return an error</text><rect fill="#F1F1F1" height="34.1328" rx="12.5" ry="12.5" style="stroke:#181818;stroke-width:0.5;" width="151" x="644.5" y="118"/><text fill="#000000" font-family="sans-serif" font-size="12" lengthAdjust="spacing" textLength="131" x="654.5" y="139.6016">Update user password</text><rect fill="#F1F1F1" height="34.1328" rx="12.5" ry="12.5" style="stroke:#181818;stroke-width:0.5;" width="212" x="614" y="172.1328"/><text fill="#000000" font-family="sans-serif" font-size="12" lengthAdjust="spacing" textLength="192" x="624" y="193.7344">Notify user modified to event bus</text><polygon fill="#F1F1F1" points="534,384.5313,546,396.5313,534,408.5313,522,396.5313,534,384.5313" style="stroke:#181818;stroke-width:0.5;"/><polygon fill="#F1F1F1" points="284.75,414.5313,296.75,426.5313,284.75,438.5313,272.75,426.5313,284.75,414.5313" style="stroke:#181818;stroke-width:0.5;"/><ellipse cx="284.75" cy="469.5313" fill="none" rx="11" ry="11" style="stroke:#222222;stroke-width:1.0;"/><ellipse cx="284.75" cy="469.5313" fill="#222222" rx="6" ry="6" style="stroke:#222222;stroke-width:1.0;"/><line style="stroke:#181818;stroke-width:1.0;" x1="229.5" x2="229.5" y1="240.2656" y2="260.2656"/><polygon fill="#181818" points="225.5,250.2656,229.5,260.2656,233.5,250.2656,229.5,254.2656" style="stroke:#181818;stroke-width:1.0;"/><line style="stroke:#181818;stroke-width:1.0;" x1="261" x2="229.5" y1="184.1328" y2="184.1328"/><line style="stroke:#181818;stroke-width:1.0;" x1="229.5" x2="229.5" y1="184.1328" y2="206.1328"/><polygon fill="#181818" points="225.5,196.1328,229.5,206.1328,233.5,196.1328,229.5,200.1328" style="stroke:#181818;stroke-width:1.0;"/><line style="stroke:#181818;stroke-width:1.0;" x1="435" x2="466.5" y1="184.1328" y2="184.1328"/><line style="stroke:#181818;stroke-width:1.0;" x1="466.5" x2="466.5" y1="184.1328" y2="206.1328"/><polygon fill="#181818" points="462.5,196.1328,466.5,206.1328,470.5,196.1328,466.5,200.1328" style="stroke:#181818;stroke-width:1.0;"/><line style="stroke:#181818;stroke-width:1.0;" x1="229.5" x2="229.5" y1="294.3984" y2="312.3984"/><line style="stroke:#181818;stroke-width:1.0;" x1="229.5" x2="336" y1="312.3984" y2="312.3984"/><polygon fill="#181818" points="326,308.3984,336,312.3984,326,316.3984,330,312.3984" style="stroke:#181818;stroke-width:1.0;"/><line style="stroke:#181818;stroke-width:1.0;" x1="466.5" x2="466.5" y1="240.2656" y2="312.3984"/><line style="stroke:#181818;stroke-width:1.0;" x1="466.5" x2="360" y1="312.3984" y2="312.3984"/><polygon fill="#181818" points="370,308.3984,360,312.3984,370,316.3984,366,312.3984" style="stroke:#181818;stroke-width:1.0;"/><line style="stroke:#181818;stroke-width:1.0;" x1="348" x2="348" y1="152.1328" y2="172.1328"/><polygon fill="#181818" points="344,162.1328,348,172.1328,352,162.1328,348,166.1328" style="stroke:#181818;stroke-width:1.0;"/><line style="stroke:#181818;stroke-width:1.0;" x1="348" x2="348" y1="324.3984" y2="344.3984"/><polygon fill="#181818" points="344,334.3984,348,344.3984,352,334.3984,348,338.3984" style="stroke:#181818;stroke-width:1.0;"/><line style="stroke:#181818;stroke-width:1.0;" x1="720" x2="720" y1="152.1328" y2="172.1328"/><polygon fill="#181818" points="716,162.1328,720,172.1328,724,162.1328,720,166.1328" style="stroke:#181818;stroke-width:1.0;"/><line style="stroke:#181818;stroke-width:1.0;" x1="417" x2="348" y1="96" y2="96"/><line style="stroke:#181818;stroke-width:1.0;" x1="348" x2="348" y1="96" y2="118"/><polygon fill="#181818" points="344,108,348,118,352,108,348,112" style="stroke:#181818;stroke-width:1.0;"/><line style="stroke:#181818;stroke-width:1.0;" x1="651" x2="720" y1="96" y2="96"/><line style="stroke:#181818;stroke-width:1.0;" x1="720" x2="720" y1="96" y2="118"/><polygon fill="#181818" points="716,108,720,118,724,108,720,112" style="stroke:#181818;stroke-width:1.0;"/><line style="stroke:#181818;stroke-width:1.0;" x1="348" x2="348" y1="378.5313" y2="396.5313"/><line style="stroke:#181818;stroke-width:1.0;" x1="348" x2="522" y1="396.5313" y2="396.5313"/><polygon fill="#181818" points="512,392.5313,522,396.5313,512,400.5313,516,396.5313" style="stroke:#181818;stroke-width:1.0;"/><line style="stroke:#181818;stroke-width:1.0;" x1="720" x2="720" y1="206.2656" y2="396.5313"/><line style="stroke:#181818;stroke-width:1.0;" x1="720" x2="546" y1="396.5313" y2="396.5313"/><polygon fill="#181818" points="556,392.5313,546,396.5313,556,400.5313,552,396.5313" style="stroke:#181818;stroke-width:1.0;"/><line style="stroke:#181818;stroke-width:1.0;" x1="195.75" x2="65.5" y1="62" y2="62"/><line style="stroke:#181818;stroke-width:1.0;" x1="65.5" x2="65.5" y1="62" y2="84"/><polygon fill="#181818" points="61.5,74,65.5,84,69.5,74,65.5,78" style="stroke:#181818;stroke-width:1.0;"/><line style="stroke:#181818;stroke-width:1.0;" x1="373.75" x2="534" y1="62" y2="62"/><line style="stroke:#181818;stroke-width:1.0;" x1="534" x2="534" y1="62" y2="84"/><polygon fill="#181818" points="530,74,534,84,538,74,534,78" style="stroke:#181818;stroke-width:1.0;"/><line style="stroke:#181818;stroke-width:1.0;" x1="65.5" x2="65.5" y1="118.1328" y2="426.5313"/><line style="stroke:#181818;stroke-width:1.0;" x1="65.5" x2="272.75" y1="426.5313" y2="426.5313"/><polygon fill="#181818" points="262.75,422.5313,272.75,426.5313,262.75,430.5313,266.75,426.5313" style="stroke:#181818;stroke-width:1.0;"/><line style="stroke:#181818;stroke-width:1.0;" x1="534" x2="534" y1="408.5313" y2="426.5313"/><line style="stroke:#181818;stroke-width:1.0;" x1="534" x2="296.75" y1="426.5313" y2="426.5313"/><polygon fill="#181818" points="306.75,422.5313,296.75,426.5313,306.75,430.5313,302.75,426.5313" style="stroke:#181818;stroke-width:1.0;"/><line style="stroke:#181818;stroke-width:1.0;" x1="284.75" x2="284.75" y1="30" y2="50"/><polygon fill="#181818" points="280.75,40,284.75,50,288.75,40,284.75,44" style="stroke:#181818;stroke-width:1.0;"/><line style="stroke:#181818;stroke-width:1.0;" x1="284.75" x2="284.75" y1="438.5313" y2="458.5313"/><polygon fill="#181818" points="280.75,448.5313,284.75,458.5313,288.75,448.5313,284.75,452.5313" style="stroke:#181818;stroke-width:1.0;"/><!--SRC=[TL1BSeCm3Dtx5DeLhX0MNMUHBZhf0LmZ1a_0OYIvBRUl3Is6IUALndfwFr7BQdm7rLb0UuGeo2y2rZcAGM4WTyFsjGOlKCqeTGO50-cTtb4Z1x01a9cuCJW8GXMeNlRtf2uoOoAThCWtSGkEqeVJF_fqMDWNXNDmZ6C-sLkBseDLnN5IQJPmbhlOd-CQ6AthdmJOPAu9IspP3_CIU57whw0vOjz8VJUlYBKSK0ByoYO_uyxFiOo7ztkhprX2wxjIo5tbHIbdAy2FgRMwLhRLNLWFBaPA4lvXZg9krj68qlGB]--></g></svg>