<?xml version="1.0" encoding="us-ascii" standalone="no"?><svg xmlns="http://www.w3.org/2000/svg" xmlns:xlink="http://www.w3.org/1999/xlink" contentStyleType="text/css" height="452px" preserveAspectRatio="none" style="width:838px;height:452px;background:#FFFFFF;" version="1.1" viewBox="0 0 838 452" width="838px" zoomAndPan="magnify"><defs/><g><ellipse cx="551.4375" cy="20" fill="#222222" rx="10" ry="10" style="stroke:#222222;stroke-width:1.0;"/><polygon fill="#F1F1F1" points="474.4375,50,628.4375,50,640.4375,62,628.4375,74,474.4375,74,462.4375,62,474.4375,50" style="stroke:#181818;stroke-width:0.5;"/><text fill="#000000" font-family="sans-serif" font-size="11" lengthAdjust="spacing" textLength="154" x="474.4375" y="66.1572">User has enaught privileges?</text><text fill="#000000" font-family="sans-serif" font-size="11" lengthAdjust="spacing" textLength="18" x="444.4375" y="59.6797">yes</text><text fill="#000000" font-family="sans-serif" font-size="11" lengthAdjust="spacing" textLength="14" x="640.4375" y="59.6797">no</text><polygon fill="#F1F1F1" points="256.375,84,344.375,84,356.375,96,344.375,108,256.375,108,244.375,96,256.375,84" style="stroke:#181818;stroke-width:0.5;"/><text fill="#000000" font-family="sans-serif" font-size="11" lengthAdjust="spacing" textLength="88" x="256.375" y="100.1572">Action is create?</text><text fill="#000000" font-family="sans-serif" font-size="11" lengthAdjust="spacing" textLength="18" x="226.375" y="93.6797">yes</text><text fill="#000000" font-family="sans-serif" font-size="11" lengthAdjust="spacing" textLength="14" x="356.375" y="93.6797">no</text><rect fill="#F1F1F1" height="34.1328" rx="12.5" ry="12.5" style="stroke:#181818;stroke-width:0.5;" width="84" x="76" y="118"/><text fill="#000000" font-family="sans-serif" font-size="12" lengthAdjust="spacing" textLength="64" x="86" y="139.6016">Save group</text><rect fill="#F1F1F1" height="34.1328" rx="12.5" ry="12.5" style="stroke:#181818;stroke-width:0.5;" width="214" x="11" y="187.1328"/><text fill="#000000" font-family="sans-serif" font-size="12" lengthAdjust="spacing" textLength="194" x="21" y="208.7344">Notify group created to event bus</text><polygon fill="#F1F1F1" points="436.75,118,528.75,118,540.75,130,528.75,142,436.75,142,424.75,130,436.75,118" style="stroke:#181818;stroke-width:0.5;"/><text fill="#000000" font-family="sans-serif" font-size="11" lengthAdjust="spacing" textLength="92" x="436.75" y="134.1572">Action is update?</text><text fill="#000000" font-family="sans-serif" font-size="11" lengthAdjust="spacing" textLength="18" x="406.75" y="127.6797">yes</text><text fill="#000000" font-family="sans-serif" font-size="11" lengthAdjust="spacing" textLength="14" x="540.75" y="127.6797">no</text><rect fill="#F1F1F1" height="34.1328" rx="12.5" ry="12.5" style="stroke:#181818;stroke-width:0.5;" width="100" x="314.5" y="152"/><text fill="#000000" font-family="sans-serif" font-size="12" lengthAdjust="spacing" textLength="80" x="324.5" y="173.6016">Update group</text><rect fill="#F1F1F1" height="34.1328" rx="12.5" ry="12.5" style="stroke:#181818;stroke-width:0.5;" width="219" x="255" y="221.1328"/><text fill="#000000" font-family="sans-serif" font-size="12" lengthAdjust="spacing" textLength="199" x="265" y="242.7344">Notify group updated to event bus</text><rect fill="#F1F1F1" height="34.1328" rx="12.5" ry="12.5" style="stroke:#181818;stroke-width:0.5;" width="108" x="547" y="152"/><text fill="#000000" font-family="sans-serif" font-size="12" lengthAdjust="spacing" textLength="88" x="557" y="173.6016">Action is delete</text><rect fill="#F1F1F1" height="34.1328" rx="12.5" ry="12.5" style="stroke:#181818;stroke-width:0.5;" width="95" x="553.5" y="221.1328"/><text fill="#000000" font-family="sans-serif" font-size="12" lengthAdjust="spacing" textLength="75" x="563.5" y="242.7344">Delete group</text><rect fill="#F1F1F1" height="34.1328" rx="12.5" ry="12.5" style="stroke:#181818;stroke-width:0.5;" width="214" x="494" y="275.2656"/><text fill="#000000" font-family="sans-serif" font-size="12" lengthAdjust="spacing" textLength="194" x="504" y="296.8672">Notify group deleted to event bus</text><polygon fill="#F1F1F1" points="482.75,315.3984,494.75,327.3984,482.75,339.3984,470.75,327.3984,482.75,315.3984" style="stroke:#181818;stroke-width:0.5;"/><polygon fill="#F1F1F1" points="300.375,345.3984,312.375,357.3984,300.375,369.3984,288.375,357.3984,300.375,345.3984" style="stroke:#181818;stroke-width:0.5;"/><rect fill="#F1F1F1" height="34.1328" rx="12.5" ry="12.5" style="stroke:#181818;stroke-width:0.5;" width="109" x="718" y="84"/><text fill="#000000" font-family="sans-serif" font-size="12" lengthAdjust="spacing" textLength="89" x="728" y="105.6016">Return an error</text><polygon fill="#F1F1F1" points="551.4375,375.3984,563.4375,387.3984,551.4375,399.3984,539.4375,387.3984,551.4375,375.3984" style="stroke:#181818;stroke-width:0.5;"/><ellipse cx="551.4375" cy="430.3984" fill="none" rx="11" ry="11" style="stroke:#222222;stroke-width:1.0;"/><ellipse cx="551.4375" cy="430.3984" fill="#222222" rx="6" ry="6" style="stroke:#222222;stroke-width:1.0;"/><line style="stroke:#181818;stroke-width:1.0;" x1="118" x2="118" y1="152.1328" y2="187.1328"/><polygon fill="#181818" points="114,177.1328,118,187.1328,122,177.1328,118,181.1328" style="stroke:#181818;stroke-width:1.0;"/><line style="stroke:#181818;stroke-width:1.0;" x1="364.5" x2="364.5" y1="186.1328" y2="221.1328"/><polygon fill="#181818" points="360.5,211.1328,364.5,221.1328,368.5,211.1328,364.5,215.1328" style="stroke:#181818;stroke-width:1.0;"/><line style="stroke:#181818;stroke-width:1.0;" x1="601" x2="601" y1="186.1328" y2="221.1328"/><polygon fill="#181818" points="597,211.1328,601,221.1328,605,211.1328,601,215.1328" style="stroke:#181818;stroke-width:1.0;"/><line style="stroke:#181818;stroke-width:1.0;" x1="601" x2="601" y1="255.2656" y2="275.2656"/><polygon fill="#181818" points="597,265.2656,601,275.2656,605,265.2656,601,269.2656" style="stroke:#181818;stroke-width:1.0;"/><line style="stroke:#181818;stroke-width:1.0;" x1="424.75" x2="364.5" y1="130" y2="130"/><line style="stroke:#181818;stroke-width:1.0;" x1="364.5" x2="364.5" y1="130" y2="152"/><polygon fill="#181818" points="360.5,142,364.5,152,368.5,142,364.5,146" style="stroke:#181818;stroke-width:1.0;"/><line style="stroke:#181818;stroke-width:1.0;" x1="540.75" x2="601" y1="130" y2="130"/><line style="stroke:#181818;stroke-width:1.0;" x1="601" x2="601" y1="130" y2="152"/><polygon fill="#181818" points="597,142,601,152,605,142,601,146" style="stroke:#181818;stroke-width:1.0;"/><line style="stroke:#181818;stroke-width:1.0;" x1="364.5" x2="364.5" y1="255.2656" y2="327.3984"/><line style="stroke:#181818;stroke-width:1.0;" x1="364.5" x2="470.75" y1="327.3984" y2="327.3984"/><polygon fill="#181818" points="460.75,323.3984,470.75,327.3984,460.75,331.3984,464.75,327.3984" style="stroke:#181818;stroke-width:1.0;"/><line style="stroke:#181818;stroke-width:1.0;" x1="601" x2="601" y1="309.3984" y2="327.3984"/><line style="stroke:#181818;stroke-width:1.0;" x1="601" x2="494.75" y1="327.3984" y2="327.3984"/><polygon fill="#181818" points="504.75,323.3984,494.75,327.3984,504.75,331.3984,500.75,327.3984" style="stroke:#181818;stroke-width:1.0;"/><line style="stroke:#181818;stroke-width:1.0;" x1="244.375" x2="118" y1="96" y2="96"/><line style="stroke:#181818;stroke-width:1.0;" x1="118" x2="118" y1="96" y2="118"/><polygon fill="#181818" points="114,108,118,118,122,108,118,112" style="stroke:#181818;stroke-width:1.0;"/><line style="stroke:#181818;stroke-width:1.0;" x1="356.375" x2="482.75" y1="96" y2="96"/><line style="stroke:#181818;stroke-width:1.0;" x1="482.75" x2="482.75" y1="96" y2="118"/><polygon fill="#181818" points="478.75,108,482.75,118,486.75,108,482.75,112" style="stroke:#181818;stroke-width:1.0;"/><line style="stroke:#181818;stroke-width:1.0;" x1="118" x2="118" y1="221.2656" y2="357.3984"/><line style="stroke:#181818;stroke-width:1.0;" x1="118" x2="288.375" y1="357.3984" y2="357.3984"/><polygon fill="#181818" points="278.375,353.3984,288.375,357.3984,278.375,361.3984,282.375,357.3984" style="stroke:#181818;stroke-width:1.0;"/><line style="stroke:#181818;stroke-width:1.0;" x1="482.75" x2="482.75" y1="339.3984" y2="357.3984"/><line style="stroke:#181818;stroke-width:1.0;" x1="482.75" x2="312.375" y1="357.3984" y2="357.3984"/><polygon fill="#181818" points="322.375,353.3984,312.375,357.3984,322.375,361.3984,318.375,357.3984" style="stroke:#181818;stroke-width:1.0;"/><line style="stroke:#181818;stroke-width:1.0;" x1="462.4375" x2="300.375" y1="62" y2="62"/><line style="stroke:#181818;stroke-width:1.0;" x1="300.375" x2="300.375" y1="62" y2="84"/><polygon fill="#181818" points="296.375,74,300.375,84,304.375,74,300.375,78" style="stroke:#181818;stroke-width:1.0;"/><line style="stroke:#181818;stroke-width:1.0;" x1="640.4375" x2="772.5" y1="62" y2="62"/><line style="stroke:#181818;stroke-width:1.0;" x1="772.5" x2="772.5" y1="62" y2="84"/><polygon fill="#181818" points="768.5,74,772.5,84,776.5,74,772.5,78" style="stroke:#181818;stroke-width:1.0;"/><line style="stroke:#181818;stroke-width:1.0;" x1="300.375" x2="300.375" y1="369.3984" y2="387.3984"/><line style="stroke:#181818;stroke-width:1.0;" x1="300.375" x2="539.4375" y1="387.3984" y2="387.3984"/><polygon fill="#181818" points="529.4375,383.3984,539.4375,387.3984,529.4375,391.3984,533.4375,387.3984" style="stroke:#181818;stroke-width:1.0;"/><line style="stroke:#181818;stroke-width:1.0;" x1="772.5" x2="772.5" y1="118.1328" y2="387.3984"/><line style="stroke:#181818;stroke-width:1.0;" x1="772.5" x2="563.4375" y1="387.3984" y2="387.3984"/><polygon fill="#181818" points="573.4375,383.3984,563.4375,387.3984,573.4375,391.3984,569.4375,387.3984" style="stroke:#181818;stroke-width:1.0;"/><line style="stroke:#181818;stroke-width:1.0;" x1="551.4375" x2="551.4375" y1="30" y2="50"/><polygon fill="#181818" points="547.4375,40,551.4375,50,555.4375,40,551.4375,44" style="stroke:#181818;stroke-width:1.0;"/><line style="stroke:#181818;stroke-width:1.0;" x1="551.4375" x2="551.4375" y1="399.3984" y2="419.3984"/><polygon fill="#181818" points="547.4375,409.3984,551.4375,419.3984,555.4375,409.3984,551.4375,413.3984" style="stroke:#181818;stroke-width:1.0;"/><!--SRC=[XOx13e8m44Jl_OezmY_8mPXuzg3X0oeTe0bfoUwMXBzNg0aHDUvfCvcPDwAMrHZVKb4Bc7ehX61JrokDx2S_e8CSIz8UWOePKXfwtX8uDUfZ82_KCApYqxNSuMOdKCSnZTKcNgBwTixoA-v88s52KBedoLuC0Yf2tEhUmMbqFy4hfruDU_pdX5pqRSBt6Ml3jiDXW687EA_YVtOE_sG7vrkpVUzR3bTeua0s49WZLoQxZ6WS7m00]--></g></svg>