<?xml version="1.0" encoding="us-ascii" standalone="no"?><svg xmlns="http://www.w3.org/2000/svg" xmlns:xlink="http://www.w3.org/1999/xlink" contentStyleType="text/css" height="491px" preserveAspectRatio="none" style="width:839px;height:491px;background:#FFFFFF;" version="1.1" viewBox="0 0 839 491" width="839px" zoomAndPan="magnify"><defs/><g><ellipse cx="285" cy="20" fill="#222222" rx="10" ry="10" style="stroke:#222222;stroke-width:1.0;"/><polygon fill="#F1F1F1" points="208,50,362,50,374,62,362,74,208,74,196,62,208,50" style="stroke:#181818;stroke-width:0.5;"/><text fill="#000000" font-family="sans-serif" font-size="11" lengthAdjust="spacing" textLength="154" x="208" y="66.1572">Is the user's account locked?</text><text fill="#000000" font-family="sans-serif" font-size="11" lengthAdjust="spacing" textLength="18" x="178" y="59.6797">yes</text><text fill="#000000" font-family="sans-serif" font-size="11" lengthAdjust="spacing" textLength="14" x="374" y="59.6797">no</text><rect fill="#F1F1F1" height="34.1328" rx="12.5" ry="12.5" style="stroke:#181818;stroke-width:0.5;" width="109" x="11" y="84"/><text fill="#000000" font-family="sans-serif" font-size="12" lengthAdjust="spacing" textLength="89" x="21" y="105.6016">Return an error</text><polygon fill="#F1F1F1" points="442.5,84,626.5,84,638.5,96,626.5,108,442.5,108,430.5,96,442.5,84" style="stroke:#181818;stroke-width:0.5;"/><text fill="#000000" font-family="sans-serif" font-size="11" lengthAdjust="spacing" textLength="184" x="442.5" y="100.1572">Are the user's credentials correct?</text><text fill="#000000" font-family="sans-serif" font-size="11" lengthAdjust="spacing" textLength="14" x="416.5" y="93.6797">no</text><text fill="#000000" font-family="sans-serif" font-size="11" lengthAdjust="spacing" textLength="18" x="638.5" y="93.6797">yes</text><rect fill="#F1F1F1" height="34.1328" rx="12.5" ry="12.5" style="stroke:#181818;stroke-width:0.5;" width="221" x="237.5" y="118"/><text fill="#000000" font-family="sans-serif" font-size="12" lengthAdjust="spacing" textLength="201" x="247.5" y="139.6016">Increment the user's auth attempts</text><polygon fill="#F1F1F1" points="273,172.1328,423,172.1328,435,184.1328,423,196.1328,273,196.1328,261,184.1328,273,172.1328" style="stroke:#181818;stroke-width:0.5;"/><text fill="#000000" font-family="sans-serif" font-size="11" lengthAdjust="spacing" textLength="150" x="273" y="188.29">Max auth attempts reached?</text><text fill="#000000" font-family="sans-serif" font-size="11" lengthAdjust="spacing" textLength="18" x="243" y="181.8125">yes</text><text fill="#000000" font-family="sans-serif" font-size="11" lengthAdjust="spacing" textLength="14" x="435" y="181.8125">no</text><rect fill="#F1F1F1" height="34.1328" rx="12.5" ry="12.5" style="stroke:#181818;stroke-width:0.5;" width="194" x="132.5" y="206.1328"/><text fill="#000000" font-family="sans-serif" font-size="12" lengthAdjust="spacing" textLength="174" x="142.5" y="227.7344">Temporarily lock user account</text><rect fill="#F1F1F1" height="34.1328" rx="12.5" ry="12.5" style="stroke:#181818;stroke-width:0.5;" width="199" x="130" y="260.2656"/><text fill="#000000" font-family="sans-serif" font-size="12" lengthAdjust="spacing" textLength="179" x="140" y="281.8672">Notify user locked to event bus</text><rect fill="#F1F1F1" height="34.1328" rx="12.5" ry="12.5" style="stroke:#181818;stroke-width:0.5;" width="235" x="349" y="206.1328"/><text fill="#000000" font-family="sans-serif" font-size="12" lengthAdjust="spacing" textLength="215" x="359" y="227.7344">Notify user auth attempt to event bus</text><polygon fill="#F1F1F1" points="348,300.3984,360,312.3984,348,324.3984,336,312.3984,348,300.3984" style="stroke:#181818;stroke-width:0.5;"/><rect fill="#F1F1F1" height="34.1328" rx="12.5" ry="12.5" style="stroke:#181818;stroke-width:0.5;" width="109" x="293.5" y="344.3984"/><text fill="#000000" font-family="sans-serif" font-size="12" lengthAdjust="spacing" textLength="89" x="303.5" y="366">Return an error</text><rect fill="#F1F1F1" height="34.1328" rx="12.5" ry="12.5" style="stroke:#181818;stroke-width:0.5;" width="205" x="618.5" y="118"/><text fill="#000000" font-family="sans-serif" font-size="12" lengthAdjust="spacing" textLength="185" x="628.5" y="139.6016">Return a JWT and Refresh token</text><rect fill="#F1F1F1" height="34.1328" rx="12.5" ry="12.5" style="stroke:#181818;stroke-width:0.5;" width="214" x="614" y="172.1328"/><text fill="#000000" font-family="sans-serif" font-size="12" lengthAdjust="spacing" textLength="194" x="624" y="193.7344">Notify user logged in to event bus</text><polygon fill="#F1F1F1" points="534.5,384.5313,546.5,396.5313,534.5,408.5313,522.5,396.5313,534.5,384.5313" style="stroke:#181818;stroke-width:0.5;"/><polygon fill="#F1F1F1" points="285,414.5313,297,426.5313,285,438.5313,273,426.5313,285,414.5313" style="stroke:#181818;stroke-width:0.5;"/><ellipse cx="285" cy="469.5313" fill="none" rx="11" ry="11" style="stroke:#222222;stroke-width:1.0;"/><ellipse cx="285" cy="469.5313" fill="#222222" rx="6" ry="6" style="stroke:#222222;stroke-width:1.0;"/><line style="stroke:#181818;stroke-width:1.0;" x1="229.5" x2="229.5" y1="240.2656" y2="260.2656"/><polygon fill="#181818" points="225.5,250.2656,229.5,260.2656,233.5,250.2656,229.5,254.2656" style="stroke:#181818;stroke-width:1.0;"/><line style="stroke:#181818;stroke-width:1.0;" x1="261" x2="229.5" y1="184.1328" y2="184.1328"/><line style="stroke:#181818;stroke-width:1.0;" x1="229.5" x2="229.5" y1="184.1328" y2="206.1328"/><polygon fill="#181818" points="225.5,196.1328,229.5,206.1328,233.5,196.1328,229.5,200.1328" style="stroke:#181818;stroke-width:1.0;"/><line style="stroke:#181818;stroke-width:1.0;" x1="435" x2="466.5" y1="184.1328" y2="184.1328"/><line style="stroke:#181818;stroke-width:1.0;" x1="466.5" x2="466.5" y1="184.1328" y2="206.1328"/><polygon fill="#181818" points="462.5,196.1328,466.5,206.1328,470.5,196.1328,466.5,200.1328" style="stroke:#181818;stroke-width:1.0;"/><line style="stroke:#181818;stroke-width:1.0;" x1="229.5" x2="229.5" y1="294.3984" y2="312.3984"/><line style="stroke:#181818;stroke-width:1.0;" x1="229.5" x2="336" y1="312.3984" y2="312.3984"/><polygon fill="#181818" points="326,308.3984,336,312.3984,326,316.3984,330,312.3984" style="stroke:#181818;stroke-width:1.0;"/><line style="stroke:#181818;stroke-width:1.0;" x1="466.5" x2="466.5" y1="240.2656" y2="312.3984"/><line style="stroke:#181818;stroke-width:1.0;" x1="466.5" x2="360" y1="312.3984" y2="312.3984"/><polygon fill="#181818" points="370,308.3984,360,312.3984,370,316.3984,366,312.3984" style="stroke:#181818;stroke-width:1.0;"/><line style="stroke:#181818;stroke-width:1.0;" x1="348" x2="348" y1="152.1328" y2="172.1328"/><polygon fill="#181818" points="344,162.1328,348,172.1328,352,162.1328,348,166.1328" style="stroke:#181818;stroke-width:1.0;"/><line style="stroke:#181818;stroke-width:1.0;" x1="348" x2="348" y1="324.3984" y2="344.3984"/><polygon fill="#181818" points="344,334.3984,348,344.3984,352,334.3984,348,338.3984" style="stroke:#181818;stroke-width:1.0;"/><line style="stroke:#181818;stroke-width:1.0;" x1="721" x2="721" y1="152.1328" y2="172.1328"/><polygon fill="#181818" points="717,162.1328,721,172.1328,725,162.1328,721,166.1328" style="stroke:#181818;stroke-width:1.0;"/><line style="stroke:#181818;stroke-width:1.0;" x1="430.5" x2="348" y1="96" y2="96"/><line style="stroke:#181818;stroke-width:1.0;" x1="348" x2="348" y1="96" y2="118"/><polygon fill="#181818" points="344,108,348,118,352,108,348,112" style="stroke:#181818;stroke-width:1.0;"/><line style="stroke:#181818;stroke-width:1.0;" x1="638.5" x2="721" y1="96" y2="96"/><line style="stroke:#181818;stroke-width:1.0;" x1="721" x2="721" y1="96" y2="118"/><polygon fill="#181818" points="717,108,721,118,725,108,721,112" style="stroke:#181818;stroke-width:1.0;"/><line style="stroke:#181818;stroke-width:1.0;" x1="348" x2="348" y1="378.5313" y2="396.5313"/><line style="stroke:#181818;stroke-width:1.0;" x1="348" x2="522.5" y1="396.5313" y2="396.5313"/><polygon fill="#181818" points="512.5,392.5313,522.5,396.5313,512.5,400.5313,516.5,396.5313" style="stroke:#181818;stroke-width:1.0;"/><line style="stroke:#181818;stroke-width:1.0;" x1="721" x2="721" y1="206.2656" y2="396.5313"/><line style="stroke:#181818;stroke-width:1.0;" x1="721" x2="546.5" y1="396.5313" y2="396.5313"/><polygon fill="#181818" points="556.5,392.5313,546.5,396.5313,556.5,400.5313,552.5,396.5313" style="stroke:#181818;stroke-width:1.0;"/><line style="stroke:#181818;stroke-width:1.0;" x1="196" x2="65.5" y1="62" y2="62"/><line style="stroke:#181818;stroke-width:1.0;" x1="65.5" x2="65.5" y1="62" y2="84"/><polygon fill="#181818" points="61.5,74,65.5,84,69.5,74,65.5,78" style="stroke:#181818;stroke-width:1.0;"/><line style="stroke:#181818;stroke-width:1.0;" x1="374" x2="534.5" y1="62" y2="62"/><line style="stroke:#181818;stroke-width:1.0;" x1="534.5" x2="534.5" y1="62" y2="84"/><polygon fill="#181818" points="530.5,74,534.5,84,538.5,74,534.5,78" style="stroke:#181818;stroke-width:1.0;"/><line style="stroke:#181818;stroke-width:1.0;" x1="65.5" x2="65.5" y1="118.1328" y2="426.5313"/><line style="stroke:#181818;stroke-width:1.0;" x1="65.5" x2="273" y1="426.5313" y2="426.5313"/><polygon fill="#181818" points="263,422.5313,273,426.5313,263,430.5313,267,426.5313" style="stroke:#181818;stroke-width:1.0;"/><line style="stroke:#181818;stroke-width:1.0;" x1="534.5" x2="534.5" y1="408.5313" y2="426.5313"/><line style="stroke:#181818;stroke-width:1.0;" x1="534.5" x2="297" y1="426.5313" y2="426.5313"/><polygon fill="#181818" points="307,422.5313,297,426.5313,307,430.5313,303,426.5313" style="stroke:#181818;stroke-width:1.0;"/><line style="stroke:#181818;stroke-width:1.0;" x1="285" x2="285" y1="30" y2="50"/><polygon fill="#181818" points="281,40,285,50,289,40,285,44" style="stroke:#181818;stroke-width:1.0;"/><line style="stroke:#181818;stroke-width:1.0;" x1="285" x2="285" y1="438.5313" y2="458.5313"/><polygon fill="#181818" points="281,448.5313,285,458.5313,289,448.5313,285,452.5313" style="stroke:#181818;stroke-width:1.0;"/><!--SRC=[TP3DRi8m3CVlUGhVrhx2UfXsPD9sG4YSG-hIYE8WsvdesozfDz8EoCbIVlv_MDIo6jz1jH7G7Y4Ayek0TIv4KXY2Es7xLeCNg4QKEaDa8BtNBMfa0ak0p84RWuCWL1JgwJ-BlZCkLHrZYwJU3caEpEZqLpej5UL9VKE9FYTw5Ijg3rOLpnULvWPdgqzxNNy3etNza_0tcrrY0rlsmpYLdPp-wZThzYkexyQPc0y36W2_SyX3NEHP7-BX_ZBgCnLgVLSESdVkufIxtOFmiTybl8KjTepI9viJKj7_r-TuJ7qyFGXJWfXvDABXyWC0]--></g></svg>