<?xml version="1.0" encoding="us-ascii" standalone="no"?><svg xmlns="http://www.w3.org/2000/svg" xmlns:xlink="http://www.w3.org/1999/xlink" contentStyleType="text/css" height="491px" preserveAspectRatio="none" style="width:821px;height:491px;background:#FFFFFF;" version="1.1" viewBox="0 0 821 491" width="821px" zoomAndPan="magnify"><defs/><g><ellipse cx="282.75" cy="20" fill="#222222" rx="10" ry="10" style="stroke:#222222;stroke-width:1.0;"/><polygon fill="#F1F1F1" points="205.75,50,359.75,50,371.75,62,359.75,74,205.75,74,193.75,62,205.75,50" style="stroke:#181818;stroke-width:0.5;"/><text fill="#000000" font-family="sans-serif" font-size="11" lengthAdjust="spacing" textLength="154" x="205.75" y="66.1572">Is the user's account locked?</text><text fill="#000000" font-family="sans-serif" font-size="11" lengthAdjust="spacing" textLength="18" x="175.75" y="59.6797">yes</text><text fill="#000000" font-family="sans-serif" font-size="11" lengthAdjust="spacing" textLength="14" x="371.75" y="59.6797">no</text><rect fill="#F1F1F1" height="34.1328" rx="12.5" ry="12.5" style="stroke:#181818;stroke-width:0.5;" width="109" x="11" y="84"/><text fill="#000000" font-family="sans-serif" font-size="12" lengthAdjust="spacing" textLength="89" x="21" y="105.6016">Return an error</text><polygon fill="#F1F1F1" points="446.5,84,613.5,84,625.5,96,613.5,108,446.5,108,434.5,96,446.5,84" style="stroke:#181818;stroke-width:0.5;"/><text fill="#000000" font-family="sans-serif" font-size="11" lengthAdjust="spacing" textLength="167" x="446.5" y="100.1572">Is the user's password correct?</text><text fill="#000000" font-family="sans-serif" font-size="11" lengthAdjust="spacing" textLength="14" x="420.5" y="93.6797">no</text><text fill="#000000" font-family="sans-serif" font-size="11" lengthAdjust="spacing" textLength="18" x="625.5" y="93.6797">yes</text><rect fill="#F1F1F1" height="34.1328" rx="12.5" ry="12.5" style="stroke:#181818;stroke-width:0.5;" width="221" x="237.5" y="118"/><text fill="#000000" font-family="sans-serif" font-size="12" lengthAdjust="spacing" textLength="201" x="247.5" y="139.6016">Increment the user's auth attempts</text><polygon fill="#F1F1F1" points="273,172.1328,423,172.1328,435,184.1328,423,196.1328,273,196.1328,261,184.1328,273,172.1328" style="stroke:#181818;stroke-width:0.5;"/><text fill="#000000" font-family="sans-serif" font-size="11" lengthAdjust="spacing" textLength="150" x="273" y="188.29">Max auth attempts reached?</text><text fill="#000000" font-family="sans-serif" font-size="11" lengthAdjust="spacing" textLength="18" x="243" y="181.8125">yes</text><text fill="#000000" font-family="sans-serif" font-size="11" lengthAdjust="spacing" textLength="14" x="435" y="181.8125">no</text><rect fill="#F1F1F1" height="34.1328" rx="12.5" ry="12.5" style="stroke:#181818;stroke-width:0.5;" width="194" x="132.5" y="206.1328"/><text fill="#000000" font-family="sans-serif" font-size="12" lengthAdjust="spacing" textLength="174" x="142.5" y="227.7344">Temporarily lock user account</text><rect fill="#F1F1F1" height="34.1328" rx="12.5" ry="12.5" style="stroke:#181818;stroke-width:0.5;" width="199" x="130" y="260.2656"/><text fill="#000000" font-family="sans-serif" font-size="12" lengthAdjust="spacing" textLength="179" x="140" y="281.8672">Notify user locked to event bus</text><rect fill="#F1F1F1" height="34.1328" rx="12.5" ry="12.5" style="stroke:#181818;stroke-width:0.5;" width="235" x="349" y="206.1328"/><text fill="#000000" font-family="sans-serif" font-size="12" lengthAdjust="spacing" textLength="215" x="359" y="227.7344">Notify user auth attempt to event bus</text><polygon fill="#F1F1F1" points="348,300.3984,360,312.3984,348,324.3984,336,312.3984,348,300.3984" style="stroke:#181818;stroke-width:0.5;"/><rect fill="#F1F1F1" height="34.1328" rx="12.5" ry="12.5" style="stroke:#181818;stroke-width:0.5;" width="109" x="293.5" y="344.3984"/><text fill="#000000" font-family="sans-serif" font-size="12" lengthAdjust="spacing" textLength="89" x="303.5" y="366">Return an error</text><rect fill="#F1F1F1" height="34.1328" rx="12.5" ry="12.5" style="stroke:#181818;stroke-width:0.5;" width="188" x="618" y="118"/><text fill="#000000" font-family="sans-serif" font-size="12" lengthAdjust="spacing" textLength="168" x="628" y="139.6016">Log out user from the system</text><rect fill="#F1F1F1" height="34.1328" rx="12.5" ry="12.5" style="stroke:#181818;stroke-width:0.5;" width="196" x="614" y="172.1328"/><text fill="#000000" font-family="sans-serif" font-size="12" lengthAdjust="spacing" textLength="176" x="624" y="193.7344">Notify user logout to event bus</text><polygon fill="#F1F1F1" points="530,384.5313,542,396.5313,530,408.5313,518,396.5313,530,384.5313" style="stroke:#181818;stroke-width:0.5;"/><polygon fill="#F1F1F1" points="282.75,414.5313,294.75,426.5313,282.75,438.5313,270.75,426.5313,282.75,414.5313" style="stroke:#181818;stroke-width:0.5;"/><ellipse cx="282.75" cy="469.5313" fill="none" rx="11" ry="11" style="stroke:#222222;stroke-width:1.0;"/><ellipse cx="282.75" cy="469.5313" fill="#222222" rx="6" ry="6" style="stroke:#222222;stroke-width:1.0;"/><line style="stroke:#181818;stroke-width:1.0;" x1="229.5" x2="229.5" y1="240.2656" y2="260.2656"/><polygon fill="#181818" points="225.5,250.2656,229.5,260.2656,233.5,250.2656,229.5,254.2656" style="stroke:#181818;stroke-width:1.0;"/><line style="stroke:#181818;stroke-width:1.0;" x1="261" x2="229.5" y1="184.1328" y2="184.1328"/><line style="stroke:#181818;stroke-width:1.0;" x1="229.5" x2="229.5" y1="184.1328" y2="206.1328"/><polygon fill="#181818" points="225.5,196.1328,229.5,206.1328,233.5,196.1328,229.5,200.1328" style="stroke:#181818;stroke-width:1.0;"/><line style="stroke:#181818;stroke-width:1.0;" x1="435" x2="466.5" y1="184.1328" y2="184.1328"/><line style="stroke:#181818;stroke-width:1.0;" x1="466.5" x2="466.5" y1="184.1328" y2="206.1328"/><polygon fill="#181818" points="462.5,196.1328,466.5,206.1328,470.5,196.1328,466.5,200.1328" style="stroke:#181818;stroke-width:1.0;"/><line style="stroke:#181818;stroke-width:1.0;" x1="229.5" x2="229.5" y1="294.3984" y2="312.3984"/><line style="stroke:#181818;stroke-width:1.0;" x1="229.5" x2="336" y1="312.3984" y2="312.3984"/><polygon fill="#181818" points="326,308.3984,336,312.3984,326,316.3984,330,312.3984" style="stroke:#181818;stroke-width:1.0;"/><line style="stroke:#181818;stroke-width:1.0;" x1="466.5" x2="466.5" y1="240.2656" y2="312.3984"/><line style="stroke:#181818;stroke-width:1.0;" x1="466.5" x2="360" y1="312.3984" y2="312.3984"/><polygon fill="#181818" points="370,308.3984,360,312.3984,370,316.3984,366,312.3984" style="stroke:#181818;stroke-width:1.0;"/><line style="stroke:#181818;stroke-width:1.0;" x1="348" x2="348" y1="152.1328" y2="172.1328"/><polygon fill="#181818" points="344,162.1328,348,172.1328,352,162.1328,348,166.1328" style="stroke:#181818;stroke-width:1.0;"/><line style="stroke:#181818;stroke-width:1.0;" x1="348" x2="348" y1="324.3984" y2="344.3984"/><polygon fill="#181818" points="344,334.3984,348,344.3984,352,334.3984,348,338.3984" style="stroke:#181818;stroke-width:1.0;"/><line style="stroke:#181818;stroke-width:1.0;" x1="712" x2="712" y1="152.1328" y2="172.1328"/><polygon fill="#181818" points="708,162.1328,712,172.1328,716,162.1328,712,166.1328" style="stroke:#181818;stroke-width:1.0;"/><line style="stroke:#181818;stroke-width:1.0;" x1="434.5" x2="348" y1="96" y2="96"/><line style="stroke:#181818;stroke-width:1.0;" x1="348" x2="348" y1="96" y2="118"/><polygon fill="#181818" points="344,108,348,118,352,108,348,112" style="stroke:#181818;stroke-width:1.0;"/><line style="stroke:#181818;stroke-width:1.0;" x1="625.5" x2="712" y1="96" y2="96"/><line style="stroke:#181818;stroke-width:1.0;" x1="712" x2="712" y1="96" y2="118"/><polygon fill="#181818" points="708,108,712,118,716,108,712,112" style="stroke:#181818;stroke-width:1.0;"/><line style="stroke:#181818;stroke-width:1.0;" x1="348" x2="348" y1="378.5313" y2="396.5313"/><line style="stroke:#181818;stroke-width:1.0;" x1="348" x2="518" y1="396.5313" y2="396.5313"/><polygon fill="#181818" points="508,392.5313,518,396.5313,508,400.5313,512,396.5313" style="stroke:#181818;stroke-width:1.0;"/><line style="stroke:#181818;stroke-width:1.0;" x1="712" x2="712" y1="206.2656" y2="396.5313"/><line style="stroke:#181818;stroke-width:1.0;" x1="712" x2="542" y1="396.5313" y2="396.5313"/><polygon fill="#181818" points="552,392.5313,542,396.5313,552,400.5313,548,396.5313" style="stroke:#181818;stroke-width:1.0;"/><line style="stroke:#181818;stroke-width:1.0;" x1="193.75" x2="65.5" y1="62" y2="62"/><line style="stroke:#181818;stroke-width:1.0;" x1="65.5" x2="65.5" y1="62" y2="84"/><polygon fill="#181818" points="61.5,74,65.5,84,69.5,74,65.5,78" style="stroke:#181818;stroke-width:1.0;"/><line style="stroke:#181818;stroke-width:1.0;" x1="371.75" x2="530" y1="62" y2="62"/><line style="stroke:#181818;stroke-width:1.0;" x1="530" x2="530" y1="62" y2="84"/><polygon fill="#181818" points="526,74,530,84,534,74,530,78" style="stroke:#181818;stroke-width:1.0;"/><line style="stroke:#181818;stroke-width:1.0;" x1="65.5" x2="65.5" y1="118.1328" y2="426.5313"/><line style="stroke:#181818;stroke-width:1.0;" x1="65.5" x2="270.75" y1="426.5313" y2="426.5313"/><polygon fill="#181818" points="260.75,422.5313,270.75,426.5313,260.75,430.5313,264.75,426.5313" style="stroke:#181818;stroke-width:1.0;"/><line style="stroke:#181818;stroke-width:1.0;" x1="530" x2="530" y1="408.5313" y2="426.5313"/><line style="stroke:#181818;stroke-width:1.0;" x1="530" x2="294.75" y1="426.5313" y2="426.5313"/><polygon fill="#181818" points="304.75,422.5313,294.75,426.5313,304.75,430.5313,300.75,426.5313" style="stroke:#181818;stroke-width:1.0;"/><line style="stroke:#181818;stroke-width:1.0;" x1="282.75" x2="282.75" y1="30" y2="50"/><polygon fill="#181818" points="278.75,40,282.75,50,286.75,40,282.75,44" style="stroke:#181818;stroke-width:1.0;"/><line style="stroke:#181818;stroke-width:1.0;" x1="282.75" x2="282.75" y1="438.5313" y2="458.5313"/><polygon fill="#181818" points="278.75,448.5313,282.75,458.5313,286.75,448.5313,282.75,452.5313" style="stroke:#181818;stroke-width:1.0;"/><!--SRC=[TL3DJeGm4BxtAUOcl88SF6-Y7emlKCkmD4A7p4nrUVijHRSWRazDvliNjQp6Tr2T1BH7Y8By862TenWK1dAVs3xLu0Mg6QLUGC50Uezlg943s038JDmO70IX2bJd-r5qiYBVn2quOaQdFxA9K5IpyYaunX6J_pPIr1wiAewJIdC3BpOlzh8_0wDr_PtWDvltX2Msx8Sv5yrElzMRFVQLr7VpYbX70IN0hoNaHzpasO_mBtyRzPvAQ7rN1ZbCNPoMRWNuJ6UWgAjFnpJc1MMMP5RK_xGvBunZZfB1h5yZIjCL]--></g></svg>