<?xml version="1.0" encoding="us-ascii" standalone="no"?><svg xmlns="http://www.w3.org/2000/svg" xmlns:xlink="http://www.w3.org/1999/xlink" contentStyleType="text/css" height="452px" preserveAspectRatio="none" style="width:883px;height:452px;background:#FFFFFF;" version="1.1" viewBox="0 0 883 452" width="883px" zoomAndPan="magnify"><defs/><g><ellipse cx="583.3125" cy="20" fill="#222222" rx="10" ry="10" style="stroke:#222222;stroke-width:1.0;"/><polygon fill="#F1F1F1" points="506.3125,50,660.3125,50,672.3125,62,660.3125,74,506.3125,74,494.3125,62,506.3125,50" style="stroke:#181818;stroke-width:0.5;"/><text fill="#000000" font-family="sans-serif" font-size="11" lengthAdjust="spacing" textLength="154" x="506.3125" y="66.1572">User has enaught privileges?</text><text fill="#000000" font-family="sans-serif" font-size="11" lengthAdjust="spacing" textLength="18" x="476.3125" y="59.6797">yes</text><text fill="#000000" font-family="sans-serif" font-size="11" lengthAdjust="spacing" textLength="14" x="672.3125" y="59.6797">no</text><polygon fill="#F1F1F1" points="275.125,84,363.125,84,375.125,96,363.125,108,275.125,108,263.125,96,275.125,84" style="stroke:#181818;stroke-width:0.5;"/><text fill="#000000" font-family="sans-serif" font-size="11" lengthAdjust="spacing" textLength="88" x="275.125" y="100.1572">Action is create?</text><text fill="#000000" font-family="sans-serif" font-size="11" lengthAdjust="spacing" textLength="18" x="245.125" y="93.6797">yes</text><text fill="#000000" font-family="sans-serif" font-size="11" lengthAdjust="spacing" textLength="14" x="375.125" y="93.6797">no</text><rect fill="#F1F1F1" height="34.1328" rx="12.5" ry="12.5" style="stroke:#181818;stroke-width:0.5;" width="99" x="76" y="118"/><text fill="#000000" font-family="sans-serif" font-size="12" lengthAdjust="spacing" textLength="79" x="86" y="139.6016">Save privilege</text><rect fill="#F1F1F1" height="34.1328" rx="12.5" ry="12.5" style="stroke:#181818;stroke-width:0.5;" width="229" x="11" y="187.1328"/><text fill="#000000" font-family="sans-serif" font-size="12" lengthAdjust="spacing" textLength="209" x="21" y="208.7344">Notify privilege created to event bus</text><polygon fill="#F1F1F1" points="466.75,118,558.75,118,570.75,130,558.75,142,466.75,142,454.75,130,466.75,118" style="stroke:#181818;stroke-width:0.5;"/><text fill="#000000" font-family="sans-serif" font-size="11" lengthAdjust="spacing" textLength="92" x="466.75" y="134.1572">Action is update?</text><text fill="#000000" font-family="sans-serif" font-size="11" lengthAdjust="spacing" textLength="18" x="436.75" y="127.6797">yes</text><text fill="#000000" font-family="sans-serif" font-size="11" lengthAdjust="spacing" textLength="14" x="570.75" y="127.6797">no</text><rect fill="#F1F1F1" height="34.1328" rx="12.5" ry="12.5" style="stroke:#181818;stroke-width:0.5;" width="115" x="329.5" y="152"/><text fill="#000000" font-family="sans-serif" font-size="12" lengthAdjust="spacing" textLength="95" x="339.5" y="173.6016">Update privilege</text><rect fill="#F1F1F1" height="34.1328" rx="12.5" ry="12.5" style="stroke:#181818;stroke-width:0.5;" width="234" x="270" y="221.1328"/><text fill="#000000" font-family="sans-serif" font-size="12" lengthAdjust="spacing" textLength="214" x="280" y="242.7344">Notify privilege updated to event bus</text><rect fill="#F1F1F1" height="34.1328" rx="12.5" ry="12.5" style="stroke:#181818;stroke-width:0.5;" width="108" x="584.5" y="152"/><text fill="#000000" font-family="sans-serif" font-size="12" lengthAdjust="spacing" textLength="88" x="594.5" y="173.6016">Action is delete</text><rect fill="#F1F1F1" height="34.1328" rx="12.5" ry="12.5" style="stroke:#181818;stroke-width:0.5;" width="110" x="583.5" y="221.1328"/><text fill="#000000" font-family="sans-serif" font-size="12" lengthAdjust="spacing" textLength="90" x="593.5" y="242.7344">Delete privilege</text><rect fill="#F1F1F1" height="34.1328" rx="12.5" ry="12.5" style="stroke:#181818;stroke-width:0.5;" width="229" x="524" y="275.2656"/><text fill="#000000" font-family="sans-serif" font-size="12" lengthAdjust="spacing" textLength="209" x="534" y="296.8672">Notify privilege deleted to event bus</text><polygon fill="#F1F1F1" points="512.75,315.3984,524.75,327.3984,512.75,339.3984,500.75,327.3984,512.75,315.3984" style="stroke:#181818;stroke-width:0.5;"/><polygon fill="#F1F1F1" points="319.125,345.3984,331.125,357.3984,319.125,369.3984,307.125,357.3984,319.125,345.3984" style="stroke:#181818;stroke-width:0.5;"/><rect fill="#F1F1F1" height="34.1328" rx="12.5" ry="12.5" style="stroke:#181818;stroke-width:0.5;" width="109" x="763" y="84"/><text fill="#000000" font-family="sans-serif" font-size="12" lengthAdjust="spacing" textLength="89" x="773" y="105.6016">Return an error</text><polygon fill="#F1F1F1" points="583.3125,375.3984,595.3125,387.3984,583.3125,399.3984,571.3125,387.3984,583.3125,375.3984" style="stroke:#181818;stroke-width:0.5;"/><ellipse cx="583.3125" cy="430.3984" fill="none" rx="11" ry="11" style="stroke:#222222;stroke-width:1.0;"/><ellipse cx="583.3125" cy="430.3984" fill="#222222" rx="6" ry="6" style="stroke:#222222;stroke-width:1.0;"/><line style="stroke:#181818;stroke-width:1.0;" x1="125.5" x2="125.5" y1="152.1328" y2="187.1328"/><polygon fill="#181818" points="121.5,177.1328,125.5,187.1328,129.5,177.1328,125.5,181.1328" style="stroke:#181818;stroke-width:1.0;"/><line style="stroke:#181818;stroke-width:1.0;" x1="387" x2="387" y1="186.1328" y2="221.1328"/><polygon fill="#181818" points="383,211.1328,387,221.1328,391,211.1328,387,215.1328" style="stroke:#181818;stroke-width:1.0;"/><line style="stroke:#181818;stroke-width:1.0;" x1="638.5" x2="638.5" y1="186.1328" y2="221.1328"/><polygon fill="#181818" points="634.5,211.1328,638.5,221.1328,642.5,211.1328,638.5,215.1328" style="stroke:#181818;stroke-width:1.0;"/><line style="stroke:#181818;stroke-width:1.0;" x1="638.5" x2="638.5" y1="255.2656" y2="275.2656"/><polygon fill="#181818" points="634.5,265.2656,638.5,275.2656,642.5,265.2656,638.5,269.2656" style="stroke:#181818;stroke-width:1.0;"/><line style="stroke:#181818;stroke-width:1.0;" x1="454.75" x2="387" y1="130" y2="130"/><line style="stroke:#181818;stroke-width:1.0;" x1="387" x2="387" y1="130" y2="152"/><polygon fill="#181818" points="383,142,387,152,391,142,387,146" style="stroke:#181818;stroke-width:1.0;"/><line style="stroke:#181818;stroke-width:1.0;" x1="570.75" x2="638.5" y1="130" y2="130"/><line style="stroke:#181818;stroke-width:1.0;" x1="638.5" x2="638.5" y1="130" y2="152"/><polygon fill="#181818" points="634.5,142,638.5,152,642.5,142,638.5,146" style="stroke:#181818;stroke-width:1.0;"/><line style="stroke:#181818;stroke-width:1.0;" x1="387" x2="387" y1="255.2656" y2="327.3984"/><line style="stroke:#181818;stroke-width:1.0;" x1="387" x2="500.75" y1="327.3984" y2="327.3984"/><polygon fill="#181818" points="490.75,323.3984,500.75,327.3984,490.75,331.3984,494.75,327.3984" style="stroke:#181818;stroke-width:1.0;"/><line style="stroke:#181818;stroke-width:1.0;" x1="638.5" x2="638.5" y1="309.3984" y2="327.3984"/><line style="stroke:#181818;stroke-width:1.0;" x1="638.5" x2="524.75" y1="327.3984" y2="327.3984"/><polygon fill="#181818" points="534.75,323.3984,524.75,327.3984,534.75,331.3984,530.75,327.3984" style="stroke:#181818;stroke-width:1.0;"/><line style="stroke:#181818;stroke-width:1.0;" x1="263.125" x2="125.5" y1="96" y2="96"/><line style="stroke:#181818;stroke-width:1.0;" x1="125.5" x2="125.5" y1="96" y2="118"/><polygon fill="#181818" points="121.5,108,125.5,118,129.5,108,125.5,112" style="stroke:#181818;stroke-width:1.0;"/><line style="stroke:#181818;stroke-width:1.0;" x1="375.125" x2="512.75" y1="96" y2="96"/><line style="stroke:#181818;stroke-width:1.0;" x1="512.75" x2="512.75" y1="96" y2="118"/><polygon fill="#181818" points="508.75,108,512.75,118,516.75,108,512.75,112" style="stroke:#181818;stroke-width:1.0;"/><line style="stroke:#181818;stroke-width:1.0;" x1="125.5" x2="125.5" y1="221.2656" y2="357.3984"/><line style="stroke:#181818;stroke-width:1.0;" x1="125.5" x2="307.125" y1="357.3984" y2="357.3984"/><polygon fill="#181818" points="297.125,353.3984,307.125,357.3984,297.125,361.3984,301.125,357.3984" style="stroke:#181818;stroke-width:1.0;"/><line style="stroke:#181818;stroke-width:1.0;" x1="512.75" x2="512.75" y1="339.3984" y2="357.3984"/><line style="stroke:#181818;stroke-width:1.0;" x1="512.75" x2="331.125" y1="357.3984" y2="357.3984"/><polygon fill="#181818" points="341.125,353.3984,331.125,357.3984,341.125,361.3984,337.125,357.3984" style="stroke:#181818;stroke-width:1.0;"/><line style="stroke:#181818;stroke-width:1.0;" x1="494.3125" x2="319.125" y1="62" y2="62"/><line style="stroke:#181818;stroke-width:1.0;" x1="319.125" x2="319.125" y1="62" y2="84"/><polygon fill="#181818" points="315.125,74,319.125,84,323.125,74,319.125,78" style="stroke:#181818;stroke-width:1.0;"/><line style="stroke:#181818;stroke-width:1.0;" x1="672.3125" x2="817.5" y1="62" y2="62"/><line style="stroke:#181818;stroke-width:1.0;" x1="817.5" x2="817.5" y1="62" y2="84"/><polygon fill="#181818" points="813.5,74,817.5,84,821.5,74,817.5,78" style="stroke:#181818;stroke-width:1.0;"/><line style="stroke:#181818;stroke-width:1.0;" x1="319.125" x2="319.125" y1="369.3984" y2="387.3984"/><line style="stroke:#181818;stroke-width:1.0;" x1="319.125" x2="571.3125" y1="387.3984" y2="387.3984"/><polygon fill="#181818" points="561.3125,383.3984,571.3125,387.3984,561.3125,391.3984,565.3125,387.3984" style="stroke:#181818;stroke-width:1.0;"/><line style="stroke:#181818;stroke-width:1.0;" x1="817.5" x2="817.5" y1="118.1328" y2="387.3984"/><line style="stroke:#181818;stroke-width:1.0;" x1="817.5" x2="595.3125" y1="387.3984" y2="387.3984"/><polygon fill="#181818" points="605.3125,383.3984,595.3125,387.3984,605.3125,391.3984,601.3125,387.3984" style="stroke:#181818;stroke-width:1.0;"/><line style="stroke:#181818;stroke-width:1.0;" x1="583.3125" x2="583.3125" y1="30" y2="50"/><polygon fill="#181818" points="579.3125,40,583.3125,50,587.3125,40,583.3125,44" style="stroke:#181818;stroke-width:1.0;"/><line style="stroke:#181818;stroke-width:1.0;" x1="583.3125" x2="583.3125" y1="399.3984" y2="419.3984"/><polygon fill="#181818" points="579.3125,409.3984,583.3125,419.3984,587.3125,409.3984,583.3125,413.3984" style="stroke:#181818;stroke-width:1.0;"/><!--SRC=[ZOx12eCm38RlVOeSzHNqC0Oxxx2n1-ZqLmlIIfCAllrc7HIt2iif97- -V2pQYrAce-B1y3He9bWT-a5eycOs8thmgIGPOAbOmAMYTwq7vqQCisIO6Wyj-4sjLTtrZCIgq-Bgn7HBMdqmBOaZpB12py1R7YE32kiITYyGflPG8Fvwn41E8w-o0NCgUPr8IJujHiZtaqiS_k-mGGuTR6iwbRgzKtM316z9MuBtpjTgIoaMDxq0]--></g></svg>