<?xml version="1.0" encoding="us-ascii" standalone="no"?><svg xmlns="http://www.w3.org/2000/svg" xmlns:xlink="http://www.w3.org/1999/xlink" contentStyleType="text/css" height="452px" preserveAspectRatio="none" style="width:811px;height:452px;background:#FFFFFF;" version="1.1" viewBox="0 0 811 452" width="811px" zoomAndPan="magnify"><defs/><g><ellipse cx="532.3125" cy="20" fill="#222222" rx="10" ry="10" style="stroke:#222222;stroke-width:1.0;"/><polygon fill="#F1F1F1" points="455.3125,50,609.3125,50,621.3125,62,609.3125,74,455.3125,74,443.3125,62,455.3125,50" style="stroke:#181818;stroke-width:0.5;"/><text fill="#000000" font-family="sans-serif" font-size="11" lengthAdjust="spacing" textLength="154" x="455.3125" y="66.1572">User has enaught privileges?</text><text fill="#000000" font-family="sans-serif" font-size="11" lengthAdjust="spacing" textLength="18" x="425.3125" y="59.6797">yes</text><text fill="#000000" font-family="sans-serif" font-size="11" lengthAdjust="spacing" textLength="14" x="621.3125" y="59.6797">no</text><polygon fill="#F1F1F1" points="245.125,84,333.125,84,345.125,96,333.125,108,245.125,108,233.125,96,245.125,84" style="stroke:#181818;stroke-width:0.5;"/><text fill="#000000" font-family="sans-serif" font-size="11" lengthAdjust="spacing" textLength="88" x="245.125" y="100.1572">Action is create?</text><text fill="#000000" font-family="sans-serif" font-size="11" lengthAdjust="spacing" textLength="18" x="215.125" y="93.6797">yes</text><text fill="#000000" font-family="sans-serif" font-size="11" lengthAdjust="spacing" textLength="14" x="345.125" y="93.6797">no</text><rect fill="#F1F1F1" height="34.1328" rx="12.5" ry="12.5" style="stroke:#181818;stroke-width:0.5;" width="75" x="76" y="118"/><text fill="#000000" font-family="sans-serif" font-size="12" lengthAdjust="spacing" textLength="55" x="86" y="139.6016">Save user</text><rect fill="#F1F1F1" height="34.1328" rx="12.5" ry="12.5" style="stroke:#181818;stroke-width:0.5;" width="205" x="11" y="187.1328"/><text fill="#000000" font-family="sans-serif" font-size="12" lengthAdjust="spacing" textLength="185" x="21" y="208.7344">Notify user created to event bus</text><polygon fill="#F1F1F1" points="418.75,118,510.75,118,522.75,130,510.75,142,418.75,142,406.75,130,418.75,118" style="stroke:#181818;stroke-width:0.5;"/><text fill="#000000" font-family="sans-serif" font-size="11" lengthAdjust="spacing" textLength="92" x="418.75" y="134.1572">Action is update?</text><text fill="#000000" font-family="sans-serif" font-size="11" lengthAdjust="spacing" textLength="18" x="388.75" y="127.6797">yes</text><text fill="#000000" font-family="sans-serif" font-size="11" lengthAdjust="spacing" textLength="14" x="522.75" y="127.6797">no</text><rect fill="#F1F1F1" height="34.1328" rx="12.5" ry="12.5" style="stroke:#181818;stroke-width:0.5;" width="91" x="305.5" y="152"/><text fill="#000000" font-family="sans-serif" font-size="12" lengthAdjust="spacing" textLength="71" x="315.5" y="173.6016">Update user</text><rect fill="#F1F1F1" height="34.1328" rx="12.5" ry="12.5" style="stroke:#181818;stroke-width:0.5;" width="210" x="246" y="221.1328"/><text fill="#000000" font-family="sans-serif" font-size="12" lengthAdjust="spacing" textLength="190" x="256" y="242.7344">Notify user updated to event bus</text><rect fill="#F1F1F1" height="34.1328" rx="12.5" ry="12.5" style="stroke:#181818;stroke-width:0.5;" width="108" x="524.5" y="152"/><text fill="#000000" font-family="sans-serif" font-size="12" lengthAdjust="spacing" textLength="88" x="534.5" y="173.6016">Action is delete</text><rect fill="#F1F1F1" height="34.1328" rx="12.5" ry="12.5" style="stroke:#181818;stroke-width:0.5;" width="86" x="535.5" y="221.1328"/><text fill="#000000" font-family="sans-serif" font-size="12" lengthAdjust="spacing" textLength="66" x="545.5" y="242.7344">Delete user</text><rect fill="#F1F1F1" height="34.1328" rx="12.5" ry="12.5" style="stroke:#181818;stroke-width:0.5;" width="205" x="476" y="275.2656"/><text fill="#000000" font-family="sans-serif" font-size="12" lengthAdjust="spacing" textLength="185" x="486" y="296.8672">Notify user deleted to event bus</text><polygon fill="#F1F1F1" points="464.75,315.3984,476.75,327.3984,464.75,339.3984,452.75,327.3984,464.75,315.3984" style="stroke:#181818;stroke-width:0.5;"/><polygon fill="#F1F1F1" points="289.125,345.3984,301.125,357.3984,289.125,369.3984,277.125,357.3984,289.125,345.3984" style="stroke:#181818;stroke-width:0.5;"/><rect fill="#F1F1F1" height="34.1328" rx="12.5" ry="12.5" style="stroke:#181818;stroke-width:0.5;" width="109" x="691" y="84"/><text fill="#000000" font-family="sans-serif" font-size="12" lengthAdjust="spacing" textLength="89" x="701" y="105.6016">Return an error</text><polygon fill="#F1F1F1" points="532.3125,375.3984,544.3125,387.3984,532.3125,399.3984,520.3125,387.3984,532.3125,375.3984" style="stroke:#181818;stroke-width:0.5;"/><ellipse cx="532.3125" cy="430.3984" fill="none" rx="11" ry="11" style="stroke:#222222;stroke-width:1.0;"/><ellipse cx="532.3125" cy="430.3984" fill="#222222" rx="6" ry="6" style="stroke:#222222;stroke-width:1.0;"/><line style="stroke:#181818;stroke-width:1.0;" x1="113.5" x2="113.5" y1="152.1328" y2="187.1328"/><polygon fill="#181818" points="109.5,177.1328,113.5,187.1328,117.5,177.1328,113.5,181.1328" style="stroke:#181818;stroke-width:1.0;"/><line style="stroke:#181818;stroke-width:1.0;" x1="351" x2="351" y1="186.1328" y2="221.1328"/><polygon fill="#181818" points="347,211.1328,351,221.1328,355,211.1328,351,215.1328" style="stroke:#181818;stroke-width:1.0;"/><line style="stroke:#181818;stroke-width:1.0;" x1="578.5" x2="578.5" y1="186.1328" y2="221.1328"/><polygon fill="#181818" points="574.5,211.1328,578.5,221.1328,582.5,211.1328,578.5,215.1328" style="stroke:#181818;stroke-width:1.0;"/><line style="stroke:#181818;stroke-width:1.0;" x1="578.5" x2="578.5" y1="255.2656" y2="275.2656"/><polygon fill="#181818" points="574.5,265.2656,578.5,275.2656,582.5,265.2656,578.5,269.2656" style="stroke:#181818;stroke-width:1.0;"/><line style="stroke:#181818;stroke-width:1.0;" x1="406.75" x2="351" y1="130" y2="130"/><line style="stroke:#181818;stroke-width:1.0;" x1="351" x2="351" y1="130" y2="152"/><polygon fill="#181818" points="347,142,351,152,355,142,351,146" style="stroke:#181818;stroke-width:1.0;"/><line style="stroke:#181818;stroke-width:1.0;" x1="522.75" x2="578.5" y1="130" y2="130"/><line style="stroke:#181818;stroke-width:1.0;" x1="578.5" x2="578.5" y1="130" y2="152"/><polygon fill="#181818" points="574.5,142,578.5,152,582.5,142,578.5,146" style="stroke:#181818;stroke-width:1.0;"/><line style="stroke:#181818;stroke-width:1.0;" x1="351" x2="351" y1="255.2656" y2="327.3984"/><line style="stroke:#181818;stroke-width:1.0;" x1="351" x2="452.75" y1="327.3984" y2="327.3984"/><polygon fill="#181818" points="442.75,323.3984,452.75,327.3984,442.75,331.3984,446.75,327.3984" style="stroke:#181818;stroke-width:1.0;"/><line style="stroke:#181818;stroke-width:1.0;" x1="578.5" x2="578.5" y1="309.3984" y2="327.3984"/><line style="stroke:#181818;stroke-width:1.0;" x1="578.5" x2="476.75" y1="327.3984" y2="327.3984"/><polygon fill="#181818" points="486.75,323.3984,476.75,327.3984,486.75,331.3984,482.75,327.3984" style="stroke:#181818;stroke-width:1.0;"/><line style="stroke:#181818;stroke-width:1.0;" x1="233.125" x2="113.5" y1="96" y2="96"/><line style="stroke:#181818;stroke-width:1.0;" x1="113.5" x2="113.5" y1="96" y2="118"/><polygon fill="#181818" points="109.5,108,113.5,118,117.5,108,113.5,112" style="stroke:#181818;stroke-width:1.0;"/><line style="stroke:#181818;stroke-width:1.0;" x1="345.125" x2="464.75" y1="96" y2="96"/><line style="stroke:#181818;stroke-width:1.0;" x1="464.75" x2="464.75" y1="96" y2="118"/><polygon fill="#181818" points="460.75,108,464.75,118,468.75,108,464.75,112" style="stroke:#181818;stroke-width:1.0;"/><line style="stroke:#181818;stroke-width:1.0;" x1="113.5" x2="113.5" y1="221.2656" y2="357.3984"/><line style="stroke:#181818;stroke-width:1.0;" x1="113.5" x2="277.125" y1="357.3984" y2="357.3984"/><polygon fill="#181818" points="267.125,353.3984,277.125,357.3984,267.125,361.3984,271.125,357.3984" style="stroke:#181818;stroke-width:1.0;"/><line style="stroke:#181818;stroke-width:1.0;" x1="464.75" x2="464.75" y1="339.3984" y2="357.3984"/><line style="stroke:#181818;stroke-width:1.0;" x1="464.75" x2="301.125" y1="357.3984" y2="357.3984"/><polygon fill="#181818" points="311.125,353.3984,301.125,357.3984,311.125,361.3984,307.125,357.3984" style="stroke:#181818;stroke-width:1.0;"/><line style="stroke:#181818;stroke-width:1.0;" x1="443.3125" x2="289.125" y1="62" y2="62"/><line style="stroke:#181818;stroke-width:1.0;" x1="289.125" x2="289.125" y1="62" y2="84"/><polygon fill="#181818" points="285.125,74,289.125,84,293.125,74,289.125,78" style="stroke:#181818;stroke-width:1.0;"/><line style="stroke:#181818;stroke-width:1.0;" x1="621.3125" x2="745.5" y1="62" y2="62"/><line style="stroke:#181818;stroke-width:1.0;" x1="745.5" x2="745.5" y1="62" y2="84"/><polygon fill="#181818" points="741.5,74,745.5,84,749.5,74,745.5,78" style="stroke:#181818;stroke-width:1.0;"/><line style="stroke:#181818;stroke-width:1.0;" x1="289.125" x2="289.125" y1="369.3984" y2="387.3984"/><line style="stroke:#181818;stroke-width:1.0;" x1="289.125" x2="520.3125" y1="387.3984" y2="387.3984"/><polygon fill="#181818" points="510.3125,383.3984,520.3125,387.3984,510.3125,391.3984,514.3125,387.3984" style="stroke:#181818;stroke-width:1.0;"/><line style="stroke:#181818;stroke-width:1.0;" x1="745.5" x2="745.5" y1="118.1328" y2="387.3984"/><line style="stroke:#181818;stroke-width:1.0;" x1="745.5" x2="544.3125" y1="387.3984" y2="387.3984"/><polygon fill="#181818" points="554.3125,383.3984,544.3125,387.3984,554.3125,391.3984,550.3125,387.3984" style="stroke:#181818;stroke-width:1.0;"/><line style="stroke:#181818;stroke-width:1.0;" x1="532.3125" x2="532.3125" y1="30" y2="50"/><polygon fill="#181818" points="528.3125,40,532.3125,50,536.3125,40,532.3125,44" style="stroke:#181818;stroke-width:1.0;"/><line style="stroke:#181818;stroke-width:1.0;" x1="532.3125" x2="532.3125" y1="399.3984" y2="419.3984"/><polygon fill="#181818" points="528.3125,409.3984,532.3125,419.3984,536.3125,409.3984,532.3125,413.3984" style="stroke:#181818;stroke-width:1.0;"/><!--SRC=[XOxD2eCm48JlUOezwYlOGodqt4EB3v3gg0599BiHVFjgKf3wG_Uq33Fp3OlsefHfA2iPdZhD1Aj3smaDteocHmk-vYGTB6KJE5SqtnAuLMAS9SDKUMZ1thLSyT8ZACpbbrLxE37D5DLlk2PnX15Mw1quMT4pABDkBVl5Xg4-nKPC6GqR-6v0gZaQS3mY5gmhQlGGRFhlKVn7Jj5JigrDezRlTqdnX0HlILk2zsx699TYSSC7]--></g></svg>