<svg xmlns="http://www.w3.org/2000/svg" xmlns:xlink="http://www.w3.org/1999/xlink" contentStyleType="text/css" data-diagram-type="ACTIVITY" height="254px" preserveAspectRatio="none" style="width:409px;height:254px;background:#FFFFFF;" version="1.1" viewBox="0 0 409 254" width="409px" zoomAndPan="magnify"><defs/><g><ellipse cx="178.3569" cy="20" fill="#222222" rx="10" ry="10" style="stroke:#222222;stroke-width:1;"/><polygon fill="#F1F1F1" points="89.3418,50,267.3721,50,279.3721,62,267.3721,74,89.3418,74,77.3418,62,89.3418,50" style="stroke:#181818;stroke-width:0.5;"/><text fill="#000000" font-family="sans-serif" font-size="11" lengthAdjust="spacing" textLength="178.0303" x="89.3418" y="65.8081">Bed group has 16 beds already?</text><text fill="#000000" font-family="sans-serif" font-size="11" lengthAdjust="spacing" textLength="19.0083" x="58.3335" y="59.4058">yes</text><text fill="#000000" font-family="sans-serif" font-size="11" lengthAdjust="spacing" textLength="13.7017" x="279.3721" y="59.4058">no</text><rect fill="#F1F1F1" height="33.9688" rx="12.5" ry="12.5" style="stroke:#181818;stroke-width:0.5;" width="112.6836" x="11" y="84"/><text fill="#000000" font-family="sans-serif" font-size="12" lengthAdjust="spacing" textLength="92.6836" x="21" y="105.1387">Return an error</text><rect fill="#F1F1F1" height="33.9688" rx="12.5" ry="12.5" style="stroke:#181818;stroke-width:0.5;" width="187.5078" x="195.6182" y="84"/><text fill="#000000" font-family="sans-serif" font-size="12" lengthAdjust="spacing" textLength="167.5078" x="205.6182" y="105.1387">Assign the bed to the group</text><rect fill="#F1F1F1" height="33.9688" rx="12.5" ry="12.5" style="stroke:#181818;stroke-width:0.5;" width="218.4863" x="180.1289" y="137.9688"/><text fill="#000000" font-family="sans-serif" font-size="12" lengthAdjust="spacing" textLength="198.4863" x="190.1289" y="159.1074">Notify bed assigned to event bus</text><polygon fill="#F1F1F1" points="178.3569,177.9375,190.3569,189.9375,178.3569,201.9375,166.3569,189.9375,178.3569,177.9375" style="stroke:#181818;stroke-width:0.5;"/><ellipse cx="178.3569" cy="232.9375" fill="none" rx="11" ry="11" style="stroke:#222222;stroke-width:1;"/><ellipse cx="178.3569" cy="232.9375" fill="#222222" rx="6" ry="6" style="stroke:#222222;stroke-width:1;"/><line style="stroke:#181818;stroke-width:1;" x1="289.3721" x2="289.3721" y1="117.9688" y2="137.9688"/><polygon fill="#181818" points="285.3721,127.9688,289.3721,137.9688,293.3721,127.9688,289.3721,131.9688" style="stroke:#181818;stroke-width:1;"/><line style="stroke:#181818;stroke-width:1;" x1="77.3418" x2="67.3418" y1="62" y2="62"/><line style="stroke:#181818;stroke-width:1;" x1="67.3418" x2="67.3418" y1="62" y2="84"/><polygon fill="#181818" points="63.3418,74,67.3418,84,71.3418,74,67.3418,78" style="stroke:#181818;stroke-width:1;"/><line style="stroke:#181818;stroke-width:1;" x1="279.3721" x2="289.3721" y1="62" y2="62"/><line style="stroke:#181818;stroke-width:1;" x1="289.3721" x2="289.3721" y1="62" y2="84"/><polygon fill="#181818" points="285.3721,74,289.3721,84,293.3721,74,289.3721,78" style="stroke:#181818;stroke-width:1;"/><line style="stroke:#181818;stroke-width:1;" x1="67.3418" x2="67.3418" y1="117.9688" y2="189.9375"/><line style="stroke:#181818;stroke-width:1;" x1="67.3418" x2="166.3569" y1="189.9375" y2="189.9375"/><polygon fill="#181818" points="156.3569,185.9375,166.3569,189.9375,156.3569,193.9375,160.3569,189.9375" style="stroke:#181818;stroke-width:1;"/><line style="stroke:#181818;stroke-width:1;" x1="289.3721" x2="289.3721" y1="171.9375" y2="189.9375"/><line style="stroke:#181818;stroke-width:1;" x1="289.3721" x2="190.3569" y1="189.9375" y2="189.9375"/><polygon fill="#181818" points="200.3569,185.9375,190.3569,189.9375,200.3569,193.9375,196.3569,189.9375" style="stroke:#181818;stroke-width:1;"/><line style="stroke:#181818;stroke-width:1;" x1="178.3569" x2="178.3569" y1="30" y2="50"/><polygon fill="#181818" points="174.3569,40,178.3569,50,182.3569,40,178.3569,44" style="stroke:#181818;stroke-width:1;"/><line style="stroke:#181818;stroke-width:1;" x1="178.3569" x2="178.3569" y1="201.9375" y2="221.9375"/><polygon fill="#181818" points="174.3569,211.9375,178.3569,221.9375,182.3569,211.9375,178.3569,215.9375" style="stroke:#181818;stroke-width:1;"/><!--SRC=[9Osn3iCW44Dtli8ZZ5qwD4FLVa27_W4HHu8K7T7TKIb_tmGyMVAphHR5NCdmRqfOfBOTQrJSxfWfAU8c5DFn32WAVv06s4hiSEhn9Ml2Y0mIgJ8vsfJWkOQHlrJBmbVX6eFLRll9D8XFjPAFdiOE3un-n8QvwJd9gMIdLlS_]--></g></svg>