<svg xmlns="http://www.w3.org/2000/svg" xmlns:xlink="http://www.w3.org/1999/xlink" contentStyleType="text/css" data-diagram-type="ACTIVITY" height="241px" preserveAspectRatio="none" style="width:320px;height:241px;background:#FFFFFF;" version="1.1" viewBox="0 0 320 241" width="320px" zoomAndPan="magnify"><defs/><g><ellipse cx="164.6426" cy="20" fill="#222222" rx="10" ry="10" style="stroke:#222222;stroke-width:1;"/><rect fill="#F1F1F1" height="33.9688" rx="12.5" ry="12.5" style="stroke:#181818;stroke-width:0.5;" width="144.793" x="92.2461" y="110.8047"/><text fill="#000000" font-family="sans-serif" font-size="12" lengthAdjust="spacing" textLength="124.793" x="102.2461" y="131.9434">Assign device to bed</text><rect fill="#F1F1F1" height="33.9688" rx="12.5" ry="12.5" style="stroke:#181818;stroke-width:0.5;" width="235.2852" x="47" y="173.8711"/><text fill="#000000" font-family="sans-serif" font-size="12" lengthAdjust="spacing" textLength="215.2852" x="57" y="195.0098">Notify device assigned to event bus</text><polygon fill="#F1F1F1" points="64.7563,50,264.5288,50,276.5288,62,264.5288,74,64.7563,74,52.7563,62,64.7563,50" style="stroke:#181818;stroke-width:0.5;"/><text fill="#000000" font-family="sans-serif" font-size="11" lengthAdjust="spacing" textLength="19.0083" x="168.6426" y="84.2104">yes</text><text fill="#000000" font-family="sans-serif" font-size="11" lengthAdjust="spacing" textLength="199.7725" x="64.7563" y="65.8081">Is there a device to assign to a bed?</text><text fill="#000000" font-family="sans-serif" font-size="11" lengthAdjust="spacing" textLength="13.7017" x="39.0547" y="59.4058">no</text><ellipse cx="24" cy="109" fill="none" rx="11" ry="11" style="stroke:#222222;stroke-width:1;"/><ellipse cx="24" cy="109" fill="#222222" rx="6" ry="6" style="stroke:#222222;stroke-width:1;"/><line style="stroke:#181818;stroke-width:1;" x1="164.6426" x2="164.6426" y1="144.7734" y2="173.8711"/><polygon fill="#181818" points="160.6426,163.8711,164.6426,173.8711,168.6426,163.8711,164.6426,167.8711" style="stroke:#181818;stroke-width:1;"/><line style="stroke:#181818;stroke-width:1;" x1="164.6426" x2="164.6426" y1="74" y2="110.8047"/><polygon fill="#181818" points="160.6426,100.8047,164.6426,110.8047,168.6426,100.8047,164.6426,104.8047" style="stroke:#181818;stroke-width:1;"/><line style="stroke:#181818;stroke-width:1;" x1="164.6426" x2="164.6426" y1="207.8398" y2="217.8398"/><line style="stroke:#181818;stroke-width:1;" x1="164.6426" x2="294.2852" y1="217.8398" y2="217.8398"/><polygon fill="#181818" points="290.2852,153.8711,294.2852,143.8711,298.2852,153.8711,294.2852,149.8711" style="stroke:#181818;stroke-width:1;"/><line style="stroke:#181818;stroke-width:1;" x1="294.2852" x2="294.2852" y1="62" y2="217.8398"/><line style="stroke:#181818;stroke-width:1;" x1="294.2852" x2="276.5288" y1="62" y2="62"/><polygon fill="#181818" points="286.5288,58,276.5288,62,286.5288,66,282.5288,62" style="stroke:#181818;stroke-width:1;"/><line style="stroke:#181818;stroke-width:1;" x1="52.7563" x2="24" y1="62" y2="62"/><line style="stroke:#181818;stroke-width:1;" x1="24" x2="24" y1="62" y2="98"/><polygon fill="#181818" points="20,88,24,98,28,88,24,92" style="stroke:#181818;stroke-width:1;"/><line style="stroke:#181818;stroke-width:1;" x1="164.6426" x2="164.6426" y1="30" y2="50"/><polygon fill="#181818" points="160.6426,40,164.6426,50,168.6426,40,164.6426,44" style="stroke:#181818;stroke-width:1;"/><!--SRC=[HOqx3eCm44Hxds9AV8LGH9GqtC7W0LQAx8ZTWBXz20vYgf7UVDJ2OcwRvKLKhS9cBaH0v2e3OHb1LQPqElICJmzHL3lLEnnwD8NVXIDK5zHbat6_K1bY_6MuCXdwZzQEAVxlK_PEBR-_]--></g></svg>