<svg xmlns="http://www.w3.org/2000/svg" xmlns:xlink="http://www.w3.org/1999/xlink" contentStyleType="text/css" data-diagram-type="ACTIVITY" height="346px" preserveAspectRatio="none" style="width:608px;height:346px;background:#FFFFFF;" version="1.1" viewBox="0 0 608 346" width="608px" zoomAndPan="magnify"><defs/><g><ellipse cx="266.126" cy="20" fill="#222222" rx="10" ry="10" style="stroke:#222222;stroke-width:1;"/><polygon fill="#F1F1F1" points="89.3418,50,442.9102,50,454.9102,62,442.9102,74,89.3418,74,77.3418,62,89.3418,50" style="stroke:#181818;stroke-width:0.5;"/><text fill="#000000" font-family="sans-serif" font-size="11" lengthAdjust="spacing" textLength="353.5684" x="89.3418" y="65.8081">Including the beds being created, are there more than 64 beds?</text><text fill="#000000" font-family="sans-serif" font-size="11" lengthAdjust="spacing" textLength="19.0083" x="58.3335" y="59.4058">yes</text><text fill="#000000" font-family="sans-serif" font-size="11" lengthAdjust="spacing" textLength="13.7017" x="454.9102" y="59.4058">no</text><rect fill="#F1F1F1" height="33.9688" rx="12.5" ry="12.5" style="stroke:#181818;stroke-width:0.5;" width="112.6836" x="11" y="84"/><text fill="#000000" font-family="sans-serif" font-size="12" lengthAdjust="spacing" textLength="92.6836" x="21" y="105.1387">Return an error</text><rect fill="#F1F1F1" height="33.9688" rx="12.5" ry="12.5" style="stroke:#181818;stroke-width:0.5;" width="86.5684" x="421.626" y="139.7104"/><text fill="#000000" font-family="sans-serif" font-size="12" lengthAdjust="spacing" textLength="66.5684" x="431.626" y="160.8491">Create bed</text><rect fill="#F1F1F1" height="33.9688" rx="12.5" ry="12.5" style="stroke:#181818;stroke-width:0.5;" width="211.0449" x="359.3877" y="207.7769"/><text fill="#000000" font-family="sans-serif" font-size="12" lengthAdjust="spacing" textLength="191.0449" x="369.3877" y="228.9155">Notify bed created to event bus</text><polygon fill="#F1F1F1" points="385.1387,84,544.6816,84,556.6816,96,544.6816,108,385.1387,108,373.1387,96,385.1387,84" style="stroke:#181818;stroke-width:0.5;"/><text fill="#000000" font-family="sans-serif" font-size="11" lengthAdjust="spacing" textLength="19.0083" x="468.9102" y="118.2104">yes</text><text fill="#000000" font-family="sans-serif" font-size="11" lengthAdjust="spacing" textLength="159.543" x="385.1387" y="99.8081">Is there a bed to be created?</text><text fill="#000000" font-family="sans-serif" font-size="11" lengthAdjust="spacing" textLength="13.7017" x="359.437" y="93.4058">no</text><polygon fill="#F1F1F1" points="266.126,269.7456,278.126,281.7456,266.126,293.7456,254.126,281.7456,266.126,269.7456" style="stroke:#181818;stroke-width:0.5;"/><ellipse cx="266.126" cy="324.7456" fill="none" rx="11" ry="11" style="stroke:#222222;stroke-width:1;"/><ellipse cx="266.126" cy="324.7456" fill="#222222" rx="6" ry="6" style="stroke:#222222;stroke-width:1;"/><line style="stroke:#181818;stroke-width:1;" x1="464.9102" x2="464.9102" y1="173.6792" y2="207.7769"/><polygon fill="#181818" points="460.9102,197.7769,464.9102,207.7769,468.9102,197.7769,464.9102,201.7769" style="stroke:#181818;stroke-width:1;"/><line style="stroke:#181818;stroke-width:1;" x1="464.9102" x2="464.9102" y1="108" y2="139.7104"/><polygon fill="#181818" points="460.9102,129.7104,464.9102,139.7104,468.9102,129.7104,464.9102,133.7104" style="stroke:#181818;stroke-width:1;"/><line style="stroke:#181818;stroke-width:1;" x1="464.9102" x2="464.9102" y1="241.7456" y2="251.7456"/><line style="stroke:#181818;stroke-width:1;" x1="464.9102" x2="582.4326" y1="251.7456" y2="251.7456"/><polygon fill="#181818" points="578.4326,182.7769,582.4326,172.7769,586.4326,182.7769,582.4326,178.7769" style="stroke:#181818;stroke-width:1;"/><line style="stroke:#181818;stroke-width:1;" x1="582.4326" x2="582.4326" y1="96" y2="251.7456"/><line style="stroke:#181818;stroke-width:1;" x1="582.4326" x2="556.6816" y1="96" y2="96"/><polygon fill="#181818" points="566.6816,92,556.6816,96,566.6816,100,562.6816,96" style="stroke:#181818;stroke-width:1;"/><line style="stroke:#181818;stroke-width:1;" x1="373.1387" x2="347.3877" y1="96" y2="96"/><polygon fill="#181818" points="343.3877,177.7769,347.3877,187.7769,351.3877,177.7769,347.3877,181.7769" style="stroke:#181818;stroke-width:1;"/><line style="stroke:#181818;stroke-width:1;" x1="347.3877" x2="347.3877" y1="96" y2="281.7456"/><line style="stroke:#181818;stroke-width:1;" x1="347.3877" x2="278.126" y1="281.7456" y2="281.7456"/><polygon fill="#181818" points="288.126,277.7456,278.126,281.7456,288.126,285.7456,284.126,281.7456" style="stroke:#181818;stroke-width:1;"/><line style="stroke:#181818;stroke-width:1;" x1="77.3418" x2="67.3418" y1="62" y2="62"/><line style="stroke:#181818;stroke-width:1;" x1="67.3418" x2="67.3418" y1="62" y2="84"/><polygon fill="#181818" points="63.3418,74,67.3418,84,71.3418,74,67.3418,78" style="stroke:#181818;stroke-width:1;"/><line style="stroke:#181818;stroke-width:1;" x1="454.9102" x2="464.9102" y1="62" y2="62"/><line style="stroke:#181818;stroke-width:1;" x1="464.9102" x2="464.9102" y1="62" y2="84"/><polygon fill="#181818" points="460.9102,74,464.9102,84,468.9102,74,464.9102,78" style="stroke:#181818;stroke-width:1;"/><line style="stroke:#181818;stroke-width:1;" x1="67.3418" x2="67.3418" y1="117.9688" y2="281.7456"/><line style="stroke:#181818;stroke-width:1;" x1="67.3418" x2="254.126" y1="281.7456" y2="281.7456"/><polygon fill="#181818" points="244.126,277.7456,254.126,281.7456,244.126,285.7456,248.126,281.7456" style="stroke:#181818;stroke-width:1;"/><line style="stroke:#181818;stroke-width:1;" x1="266.126" x2="266.126" y1="30" y2="50"/><polygon fill="#181818" points="262.126,40,266.126,50,270.126,40,266.126,44" style="stroke:#181818;stroke-width:1;"/><line style="stroke:#181818;stroke-width:1;" x1="266.126" x2="266.126" y1="293.7456" y2="313.7456"/><polygon fill="#181818" points="262.126,303.7456,266.126,313.7456,270.126,303.7456,266.126,307.7456" style="stroke:#181818;stroke-width:1;"/><!--SRC=[JOun3i8m34NtdC9ZAp4Y1ZemC7LXu0Pfuz98nK6n0-hjYKqHP73yyx-Vm-Apk3X1qzEub13f1Z8Z31Yu5fLZHYyOTk0pgbVhFLdh2GvxYvvQY0pDYjngX1pKSxoYb4nGOvXpoft3XH4QIgtvhpakLVQyKRsYG5Azlal_k3PYsBDv6kv-ZvSaSLgDiCqg2Pz80aFXJn8fR4lr3rN5oR6anni0]--></g></svg>