<svg xmlns="http://www.w3.org/2000/svg" xmlns:xlink="http://www.w3.org/1999/xlink" contentStyleType="text/css" data-diagram-type="ACTIVITY" height="534px" preserveAspectRatio="none" style="width:458px;height:534px;background:#FFFFFF;" version="1.1" viewBox="0 0 458 534" width="458px" zoomAndPan="magnify"><defs/><g><ellipse cx="181.8777" cy="20" fill="#222222" rx="10" ry="10" style="stroke:#222222;stroke-width:1;"/><polygon fill="#F1F1F1" points="89.3418,50,274.4136,50,286.4136,62,274.4136,74,89.3418,74,77.3418,62,89.3418,50" style="stroke:#181818;stroke-width:0.5;"/><text fill="#000000" font-family="sans-serif" font-size="11" lengthAdjust="spacing" textLength="185.0718" x="89.3418" y="65.8081">Beds assigned are more than 16?</text><text fill="#000000" font-family="sans-serif" font-size="11" lengthAdjust="spacing" textLength="19.0083" x="58.3335" y="59.4058">yes</text><text fill="#000000" font-family="sans-serif" font-size="11" lengthAdjust="spacing" textLength="13.7017" x="286.4136" y="59.4058">no</text><rect fill="#F1F1F1" height="33.9688" rx="12.5" ry="12.5" style="stroke:#181818;stroke-width:0.5;" width="112.6836" x="11" y="84"/><text fill="#000000" font-family="sans-serif" font-size="12" lengthAdjust="spacing" textLength="92.6836" x="21" y="105.1387">Return an error</text><rect fill="#F1F1F1" height="33.9688" rx="12.5" ry="12.5" style="stroke:#181818;stroke-width:0.5;" width="172.168" x="210.3296" y="139.7104"/><text fill="#000000" font-family="sans-serif" font-size="12" lengthAdjust="spacing" textLength="152.168" x="220.3296" y="160.8491">Unassign bed from group</text><rect fill="#F1F1F1" height="33.9688" rx="12.5" ry="12.5" style="stroke:#181818;stroke-width:0.5;" width="233.6973" x="179.5649" y="202.7769"/><text fill="#000000" font-family="sans-serif" font-size="12" lengthAdjust="spacing" textLength="213.6973" x="189.5649" y="223.9155">Notify bed unassigned to event bus</text><polygon fill="#F1F1F1" points="184.6868,84,408.1404,84,420.1404,96,408.1404,108,184.6868,108,172.6868,96,184.6868,84" style="stroke:#181818;stroke-width:0.5;"/><text fill="#000000" font-family="sans-serif" font-size="11" lengthAdjust="spacing" textLength="19.0083" x="300.4136" y="118.2104">yes</text><text fill="#000000" font-family="sans-serif" font-size="11" lengthAdjust="spacing" textLength="223.4536" x="184.6868" y="99.8081">Bed group has a previous bed assigned?</text><text fill="#000000" font-family="sans-serif" font-size="11" lengthAdjust="spacing" textLength="13.7017" x="158.9851" y="93.4058">no</text><rect fill="#F1F1F1" height="33.9688" rx="12.5" ry="12.5" style="stroke:#181818;stroke-width:0.5;" width="140.4922" x="226.1675" y="334.4561"/><text fill="#000000" font-family="sans-serif" font-size="12" lengthAdjust="spacing" textLength="120.4922" x="236.1675" y="355.5947">Assign bed to group</text><rect fill="#F1F1F1" height="33.9688" rx="12.5" ry="12.5" style="stroke:#181818;stroke-width:0.5;" width="218.4863" x="187.1704" y="397.5225"/><text fill="#000000" font-family="sans-serif" font-size="12" lengthAdjust="spacing" textLength="198.4863" x="197.1704" y="418.6611">Notify bed assigned to event bus</text><polygon fill="#F1F1F1" points="228.7297,278.7456,364.0974,278.7456,376.0974,290.7456,364.0974,302.7456,228.7297,302.7456,216.7297,290.7456,228.7297,278.7456" style="stroke:#181818;stroke-width:0.5;"/><text fill="#000000" font-family="sans-serif" font-size="11" lengthAdjust="spacing" textLength="19.0083" x="300.4136" y="312.9561">yes</text><text fill="#000000" font-family="sans-serif" font-size="11" lengthAdjust="spacing" textLength="135.3677" x="228.7297" y="294.5537">Is there a bed to assign?</text><text fill="#000000" font-family="sans-serif" font-size="11" lengthAdjust="spacing" textLength="13.7017" x="203.0281" y="288.1514">no</text><polygon fill="#F1F1F1" points="181.8777,459.4912,193.8777,471.4912,181.8777,483.4912,169.8777,471.4912,181.8777,459.4912" style="stroke:#181818;stroke-width:0.5;"/><ellipse cx="181.8777" cy="513.4912" fill="none" rx="10" ry="10" style="stroke:#222222;stroke-width:1.5;"/><line style="stroke:#222222;stroke-width:2.5;" x1="175.6905" x2="188.0649" y1="507.304" y2="519.6784"/><line style="stroke:#222222;stroke-width:2.5;" x1="188.0649" x2="175.6905" y1="507.304" y2="519.6784"/><line style="stroke:#181818;stroke-width:1;" x1="296.4136" x2="296.4136" y1="173.6792" y2="202.7769"/><polygon fill="#181818" points="292.4136,192.7769,296.4136,202.7769,300.4136,192.7769,296.4136,196.7769" style="stroke:#181818;stroke-width:1;"/><line style="stroke:#181818;stroke-width:1;" x1="296.4136" x2="296.4136" y1="108" y2="139.7104"/><polygon fill="#181818" points="292.4136,129.7104,296.4136,139.7104,300.4136,129.7104,296.4136,133.7104" style="stroke:#181818;stroke-width:1;"/><line style="stroke:#181818;stroke-width:1;" x1="296.4136" x2="296.4136" y1="236.7456" y2="246.7456"/><line style="stroke:#181818;stroke-width:1;" x1="296.4136" x2="432.1404" y1="246.7456" y2="246.7456"/><polygon fill="#181818" points="428.1404,182.7769,432.1404,172.7769,436.1404,182.7769,432.1404,178.7769" style="stroke:#181818;stroke-width:1;"/><line style="stroke:#181818;stroke-width:1;" x1="432.1404" x2="432.1404" y1="96" y2="246.7456"/><line style="stroke:#181818;stroke-width:1;" x1="432.1404" x2="420.1404" y1="96" y2="96"/><polygon fill="#181818" points="430.1404,92,420.1404,96,430.1404,100,426.1404,96" style="stroke:#181818;stroke-width:1;"/><line style="stroke:#181818;stroke-width:1;" x1="172.6868" x2="160.6868" y1="96" y2="96"/><polygon fill="#181818" points="156.6868,168.7769,160.6868,178.7769,164.6868,168.7769,160.6868,172.7769" style="stroke:#181818;stroke-width:1;"/><line style="stroke:#181818;stroke-width:1;" x1="160.6868" x2="160.6868" y1="96" y2="258.7456"/><line style="stroke:#181818;stroke-width:1;" x1="160.6868" x2="296.4136" y1="258.7456" y2="258.7456"/><line style="stroke:#181818;stroke-width:1;" x1="296.4136" x2="296.4136" y1="258.7456" y2="278.7456"/><polygon fill="#181818" points="292.4136,268.7456,296.4136,278.7456,300.4136,268.7456,296.4136,272.7456" style="stroke:#181818;stroke-width:1;"/><line style="stroke:#181818;stroke-width:1;" x1="296.4136" x2="296.4136" y1="368.4248" y2="397.5225"/><polygon fill="#181818" points="292.4136,387.5225,296.4136,397.5225,300.4136,387.5225,296.4136,391.5225" style="stroke:#181818;stroke-width:1;"/><line style="stroke:#181818;stroke-width:1;" x1="296.4136" x2="296.4136" y1="302.7456" y2="334.4561"/><polygon fill="#181818" points="292.4136,324.4561,296.4136,334.4561,300.4136,324.4561,296.4136,328.4561" style="stroke:#181818;stroke-width:1;"/><line style="stroke:#181818;stroke-width:1;" x1="296.4136" x2="296.4136" y1="431.4912" y2="441.4912"/><line style="stroke:#181818;stroke-width:1;" x1="296.4136" x2="417.6567" y1="441.4912" y2="441.4912"/><polygon fill="#181818" points="413.6567,377.5225,417.6567,367.5225,421.6567,377.5225,417.6567,373.5225" style="stroke:#181818;stroke-width:1;"/><line style="stroke:#181818;stroke-width:1;" x1="417.6567" x2="417.6567" y1="290.7456" y2="441.4912"/><line style="stroke:#181818;stroke-width:1;" x1="417.6567" x2="376.0974" y1="290.7456" y2="290.7456"/><polygon fill="#181818" points="386.0974,286.7456,376.0974,290.7456,386.0974,294.7456,382.0974,290.7456" style="stroke:#181818;stroke-width:1;"/><line style="stroke:#181818;stroke-width:1;" x1="216.7297" x2="175.1704" y1="290.7456" y2="290.7456"/><polygon fill="#181818" points="171.1704,363.5225,175.1704,373.5225,179.1704,363.5225,175.1704,367.5225" style="stroke:#181818;stroke-width:1;"/><line style="stroke:#181818;stroke-width:1;" x1="175.1704" x2="175.1704" y1="290.7456" y2="453.4912"/><line style="stroke:#181818;stroke-width:1;" x1="175.1704" x2="296.4136" y1="453.4912" y2="453.4912"/><line style="stroke:#181818;stroke-width:1;" x1="296.4136" x2="296.4136" y1="453.4912" y2="471.4912"/><line style="stroke:#181818;stroke-width:1;" x1="296.4136" x2="193.8777" y1="471.4912" y2="471.4912"/><polygon fill="#181818" points="203.8777,467.4912,193.8777,471.4912,203.8777,475.4912,199.8777,471.4912" style="stroke:#181818;stroke-width:1;"/><line style="stroke:#181818;stroke-width:1;" x1="77.3418" x2="67.3418" y1="62" y2="62"/><line style="stroke:#181818;stroke-width:1;" x1="67.3418" x2="67.3418" y1="62" y2="84"/><polygon fill="#181818" points="63.3418,74,67.3418,84,71.3418,74,67.3418,78" style="stroke:#181818;stroke-width:1;"/><line style="stroke:#181818;stroke-width:1;" x1="286.4136" x2="296.4136" y1="62" y2="62"/><line style="stroke:#181818;stroke-width:1;" x1="296.4136" x2="296.4136" y1="62" y2="84"/><polygon fill="#181818" points="292.4136,74,296.4136,84,300.4136,74,296.4136,78" style="stroke:#181818;stroke-width:1;"/><line style="stroke:#181818;stroke-width:1;" x1="67.3418" x2="67.3418" y1="117.9688" y2="471.4912"/><line style="stroke:#181818;stroke-width:1;" x1="67.3418" x2="169.8777" y1="471.4912" y2="471.4912"/><polygon fill="#181818" points="159.8777,467.4912,169.8777,471.4912,159.8777,475.4912,163.8777,471.4912" style="stroke:#181818;stroke-width:1;"/><line style="stroke:#181818;stroke-width:1;" x1="181.8777" x2="181.8777" y1="30" y2="50"/><polygon fill="#181818" points="177.8777,40,181.8777,50,185.8777,40,181.8777,44" style="stroke:#181818;stroke-width:1;"/><line style="stroke:#181818;stroke-width:1;" x1="181.8777" x2="181.8777" y1="483.4912" y2="503.4912"/><polygon fill="#181818" points="177.8777,493.4912,181.8777,503.4912,185.8777,493.4912,181.8777,497.4912" style="stroke:#181818;stroke-width:1;"/><!--SRC=[ZO-n3e9038Ptdg8ZZ2uECXZTN1nCV80Z5BW4UgIzm_3sbZiYnXZZ3Ksk_Vl_NyKRzfbj83zZBM14R4jOWs64mMdndI7OxOy5M85yHYcqXPI1liCDVM02LI2pupB3NX1oSaMSFphROtI6bbqOeJCQ0IFZP5qGg9QWDV4j8Ev6_pkbSLGsx8RaKswAg_EscUCyq8lUEy09oKCL98cHwfNc0-uYoprwg8ackfbSllASDXeL_c3vcqH_jbdg4m00]--></g></svg>