<svg xmlns="http://www.w3.org/2000/svg" xmlns:xlink="http://www.w3.org/1999/xlink" contentStyleType="text/css" data-diagram-type="ACTIVITY" height="241px" preserveAspectRatio="none" style="width:336px;height:241px;background:#FFFFFF;" version="1.1" viewBox="0 0 336 241" width="336px" zoomAndPan="magnify"><defs/><g><ellipse cx="172.248" cy="20" fill="#222222" rx="10" ry="10" style="stroke:#222222;stroke-width:1;"/><rect fill="#F1F1F1" height="33.9688" rx="12.5" ry="12.5" style="stroke:#181818;stroke-width:0.5;" width="176.4688" x="84.0137" y="110.8047"/><text fill="#000000" font-family="sans-serif" font-size="12" lengthAdjust="spacing" textLength="156.4688" x="94.0137" y="131.9434">Unassign device from bed</text><rect fill="#F1F1F1" height="33.9688" rx="12.5" ry="12.5" style="stroke:#181818;stroke-width:0.5;" width="250.4961" x="47" y="173.8711"/><text fill="#000000" font-family="sans-serif" font-size="12" lengthAdjust="spacing" textLength="230.4961" x="57" y="195.0098">Notify device unassigned to event bus</text><polygon fill="#F1F1F1" points="57.9915,50,286.5046,50,298.5046,62,286.5046,74,57.9915,74,45.9915,62,57.9915,50" style="stroke:#181818;stroke-width:0.5;"/><text fill="#000000" font-family="sans-serif" font-size="11" lengthAdjust="spacing" textLength="19.0083" x="176.248" y="84.2104">yes</text><text fill="#000000" font-family="sans-serif" font-size="11" lengthAdjust="spacing" textLength="228.5132" x="57.9915" y="65.8081">Is there a device to unassign from a bed?</text><text fill="#000000" font-family="sans-serif" font-size="11" lengthAdjust="spacing" textLength="13.7017" x="32.2898" y="59.4058">no</text><ellipse cx="24" cy="109" fill="none" rx="11" ry="11" style="stroke:#222222;stroke-width:1;"/><ellipse cx="24" cy="109" fill="#222222" rx="6" ry="6" style="stroke:#222222;stroke-width:1;"/><line style="stroke:#181818;stroke-width:1;" x1="172.248" x2="172.248" y1="144.7734" y2="173.8711"/><polygon fill="#181818" points="168.248,163.8711,172.248,173.8711,176.248,163.8711,172.248,167.8711" style="stroke:#181818;stroke-width:1;"/><line style="stroke:#181818;stroke-width:1;" x1="172.248" x2="172.248" y1="74" y2="110.8047"/><polygon fill="#181818" points="168.248,100.8047,172.248,110.8047,176.248,100.8047,172.248,104.8047" style="stroke:#181818;stroke-width:1;"/><line style="stroke:#181818;stroke-width:1;" x1="172.248" x2="172.248" y1="207.8398" y2="217.8398"/><line style="stroke:#181818;stroke-width:1;" x1="172.248" x2="310.5046" y1="217.8398" y2="217.8398"/><polygon fill="#181818" points="306.5046,153.8711,310.5046,143.8711,314.5046,153.8711,310.5046,149.8711" style="stroke:#181818;stroke-width:1;"/><line style="stroke:#181818;stroke-width:1;" x1="310.5046" x2="310.5046" y1="62" y2="217.8398"/><line style="stroke:#181818;stroke-width:1;" x1="310.5046" x2="298.5046" y1="62" y2="62"/><polygon fill="#181818" points="308.5046,58,298.5046,62,308.5046,66,304.5046,62" style="stroke:#181818;stroke-width:1;"/><line style="stroke:#181818;stroke-width:1;" x1="45.9915" x2="24" y1="62" y2="62"/><line style="stroke:#181818;stroke-width:1;" x1="24" x2="24" y1="62" y2="98"/><polygon fill="#181818" points="20,88,24,98,28,88,24,92" style="stroke:#181818;stroke-width:1;"/><line style="stroke:#181818;stroke-width:1;" x1="172.248" x2="172.248" y1="30" y2="50"/><polygon fill="#181818" points="168.248,40,172.248,50,176.248,40,172.248,44" style="stroke:#181818;stroke-width:1;"/><!--SRC=[DOun4e8m54Jxd69BSWKfh6teF40mY_mPJPpy3mwt9mhPzhtTMRLGp7rdUH7TJM4p2n4GkSg3i8mb1LLv9ambloiP6QyUekWsgdUekToRSzR-QXNx0m_PPDeQR8ECltckJ8PnqTunnVD8ojwfvSyE]--></g></svg>