<svg xmlns="http://www.w3.org/2000/svg" xmlns:xlink="http://www.w3.org/1999/xlink" contentStyleType="text/css" data-diagram-type="ACTIVITY" height="241px" preserveAspectRatio="none" style="width:293px;height:241px;background:#FFFFFF;" version="1.1" viewBox="0 0 293 241" width="293px" zoomAndPan="magnify"><defs/><g><ellipse cx="150.2471" cy="20" fill="#222222" rx="10" ry="10" style="stroke:#222222;stroke-width:1;"/><rect fill="#F1F1F1" height="33.9688" rx="12.5" ry="12.5" style="stroke:#181818;stroke-width:0.5;" width="85.8594" x="107.3174" y="110.8047"/><text fill="#000000" font-family="sans-serif" font-size="12" lengthAdjust="spacing" textLength="65.8594" x="117.3174" y="131.9434">Delete bed</text><rect fill="#F1F1F1" height="33.9688" rx="12.5" ry="12.5" style="stroke:#181818;stroke-width:0.5;" width="210.4941" x="45" y="173.8711"/><text fill="#000000" font-family="sans-serif" font-size="12" lengthAdjust="spacing" textLength="190.4941" x="55" y="195.0098">Notify bed deleted to event bus</text><polygon fill="#F1F1F1" points="70.728,50,229.7661,50,241.7661,62,229.7661,74,70.728,74,58.728,62,70.728,50" style="stroke:#181818;stroke-width:0.5;"/><text fill="#000000" font-family="sans-serif" font-size="11" lengthAdjust="spacing" textLength="19.0083" x="154.2471" y="84.2104">yes</text><text fill="#000000" font-family="sans-serif" font-size="11" lengthAdjust="spacing" textLength="159.0381" x="70.728" y="65.8081">Is there a bed to be deleted?</text><text fill="#000000" font-family="sans-serif" font-size="11" lengthAdjust="spacing" textLength="13.7017" x="45.0264" y="59.4058">no</text><ellipse cx="24" cy="109" fill="none" rx="11" ry="11" style="stroke:#222222;stroke-width:1;"/><ellipse cx="24" cy="109" fill="#222222" rx="6" ry="6" style="stroke:#222222;stroke-width:1;"/><line style="stroke:#181818;stroke-width:1;" x1="150.2471" x2="150.2471" y1="144.7734" y2="173.8711"/><polygon fill="#181818" points="146.2471,163.8711,150.2471,173.8711,154.2471,163.8711,150.2471,167.8711" style="stroke:#181818;stroke-width:1;"/><line style="stroke:#181818;stroke-width:1;" x1="150.2471" x2="150.2471" y1="74" y2="110.8047"/><polygon fill="#181818" points="146.2471,100.8047,150.2471,110.8047,154.2471,100.8047,150.2471,104.8047" style="stroke:#181818;stroke-width:1;"/><line style="stroke:#181818;stroke-width:1;" x1="150.2471" x2="150.2471" y1="207.8398" y2="217.8398"/><line style="stroke:#181818;stroke-width:1;" x1="150.2471" x2="267.4941" y1="217.8398" y2="217.8398"/><polygon fill="#181818" points="263.4941,153.8711,267.4941,143.8711,271.4941,153.8711,267.4941,149.8711" style="stroke:#181818;stroke-width:1;"/><line style="stroke:#181818;stroke-width:1;" x1="267.4941" x2="267.4941" y1="62" y2="217.8398"/><line style="stroke:#181818;stroke-width:1;" x1="267.4941" x2="241.7661" y1="62" y2="62"/><polygon fill="#181818" points="251.7661,58,241.7661,62,251.7661,66,247.7661,62" style="stroke:#181818;stroke-width:1;"/><line style="stroke:#181818;stroke-width:1;" x1="58.728" x2="24" y1="62" y2="62"/><line style="stroke:#181818;stroke-width:1;" x1="24" x2="24" y1="62" y2="98"/><polygon fill="#181818" points="20,88,24,98,28,88,24,92" style="stroke:#181818;stroke-width:1;"/><line style="stroke:#181818;stroke-width:1;" x1="150.2471" x2="150.2471" y1="30" y2="50"/><polygon fill="#181818" points="146.2471,40,150.2471,50,154.2471,40,150.2471,44" style="stroke:#181818;stroke-width:1;"/><!--SRC=[BOqn2e0m54FtdY9ZUmKxkBYuU0UbaHQa5VzNyVPgDKiWv2MYuwRcZ6aXR2_Go8qOCJ50osC8NAWChKCIs8lY31urNStVel-2eMYQhqh-pBl0WranxU8DS_YFSd56jAmt]--></g></svg>