<svg xmlns="http://www.w3.org/2000/svg" xmlns:xlink="http://www.w3.org/1999/xlink" contentStyleType="text/css" data-diagram-type="ACTIVITY" height="241px" preserveAspectRatio="none" style="width:332px;height:241px;background:#FFFFFF;" version="1.1" viewBox="0 0 332 241" width="332px" zoomAndPan="magnify"><defs/><g><ellipse cx="169.9873" cy="20" fill="#222222" rx="10" ry="10" style="stroke:#222222;stroke-width:1;"/><rect fill="#F1F1F1" height="33.9688" rx="12.5" ry="12.5" style="stroke:#181818;stroke-width:0.5;" width="125.498" x="107.2383" y="110.8047"/><text fill="#000000" font-family="sans-serif" font-size="12" lengthAdjust="spacing" textLength="105.498" x="117.2383" y="131.9434">Create bed group</text><rect fill="#F1F1F1" height="33.9688" rx="12.5" ry="12.5" style="stroke:#181818;stroke-width:0.5;" width="249.9746" x="45" y="173.8711"/><text fill="#000000" font-family="sans-serif" font-size="12" lengthAdjust="spacing" textLength="229.9746" x="55" y="195.0098">Notify bed group created to event bus</text><polygon fill="#F1F1F1" points="72.373,50,267.6016,50,279.6016,62,267.6016,74,72.373,74,60.373,62,72.373,50" style="stroke:#181818;stroke-width:0.5;"/><text fill="#000000" font-family="sans-serif" font-size="11" lengthAdjust="spacing" textLength="19.0083" x="173.9873" y="84.2104">yes</text><text fill="#000000" font-family="sans-serif" font-size="11" lengthAdjust="spacing" textLength="195.2285" x="72.373" y="65.8081">Is there a bed group to be created?</text><text fill="#000000" font-family="sans-serif" font-size="11" lengthAdjust="spacing" textLength="13.7017" x="46.6714" y="59.4058">no</text><ellipse cx="24" cy="109" fill="none" rx="11" ry="11" style="stroke:#222222;stroke-width:1;"/><ellipse cx="24" cy="109" fill="#222222" rx="6" ry="6" style="stroke:#222222;stroke-width:1;"/><line style="stroke:#181818;stroke-width:1;" x1="169.9873" x2="169.9873" y1="144.7734" y2="173.8711"/><polygon fill="#181818" points="165.9873,163.8711,169.9873,173.8711,173.9873,163.8711,169.9873,167.8711" style="stroke:#181818;stroke-width:1;"/><line style="stroke:#181818;stroke-width:1;" x1="169.9873" x2="169.9873" y1="74" y2="110.8047"/><polygon fill="#181818" points="165.9873,100.8047,169.9873,110.8047,173.9873,100.8047,169.9873,104.8047" style="stroke:#181818;stroke-width:1;"/><line style="stroke:#181818;stroke-width:1;" x1="169.9873" x2="169.9873" y1="207.8398" y2="217.8398"/><line style="stroke:#181818;stroke-width:1;" x1="169.9873" x2="306.9746" y1="217.8398" y2="217.8398"/><polygon fill="#181818" points="302.9746,153.8711,306.9746,143.8711,310.9746,153.8711,306.9746,149.8711" style="stroke:#181818;stroke-width:1;"/><line style="stroke:#181818;stroke-width:1;" x1="306.9746" x2="306.9746" y1="62" y2="217.8398"/><line style="stroke:#181818;stroke-width:1;" x1="306.9746" x2="279.6016" y1="62" y2="62"/><polygon fill="#181818" points="289.6016,58,279.6016,62,289.6016,66,285.6016,62" style="stroke:#181818;stroke-width:1;"/><line style="stroke:#181818;stroke-width:1;" x1="60.373" x2="24" y1="62" y2="62"/><line style="stroke:#181818;stroke-width:1;" x1="24" x2="24" y1="62" y2="98"/><polygon fill="#181818" points="20,88,24,98,28,88,24,92" style="stroke:#181818;stroke-width:1;"/><line style="stroke:#181818;stroke-width:1;" x1="169.9873" x2="169.9873" y1="30" y2="50"/><polygon fill="#181818" points="165.9873,40,169.9873,50,173.9873,40,169.9873,44" style="stroke:#181818;stroke-width:1;"/><!--SRC=[JOqz3eCm58FtdC8ZkK8PEdHYuGwXCIKIoaDvZrRSlln9uCsM_Laj57E_8Or4rIXiO242EaPyYimJJ5Q3Ts4mngT7KbGBrJkiUhps_AhNHzoAfNwvKSxzHkENsT3DMZlcU5vdyKvDfZy0]--></g></svg>