<svg xmlns="http://www.w3.org/2000/svg" xmlns:xlink="http://www.w3.org/1999/xlink" contentStyleType="text/css" data-diagram-type="ACTIVITY" height="295px" preserveAspectRatio="none" style="width:339px;height:295px;background:#FFFFFF;" version="1.1" viewBox="0 0 339 295" width="339px" zoomAndPan="magnify"><defs/><g><ellipse cx="173.2715" cy="20" fill="#222222" rx="10" ry="10" style="stroke:#222222;stroke-width:1;"/><rect fill="#F1F1F1" height="33.9688" rx="12.5" ry="12.5" style="stroke:#181818;stroke-width:0.5;" width="191.8203" x="77.3613" y="50"/><text fill="#000000" font-family="sans-serif" font-size="12" lengthAdjust="spacing" textLength="171.8203" x="87.3613" y="71.1387">Get all bed groups to modify</text><rect fill="#F1F1F1" height="33.9688" rx="12.5" ry="12.5" style="stroke:#181818;stroke-width:0.5;" width="148.8418" x="98.8506" y="164.7734"/><text fill="#000000" font-family="sans-serif" font-size="12" lengthAdjust="spacing" textLength="128.8418" x="108.8506" y="185.9121">Modify the bed group</text><rect fill="#F1F1F1" height="33.9688" rx="12.5" ry="12.5" style="stroke:#181818;stroke-width:0.5;" width="256.543" x="45" y="227.8398"/><text fill="#000000" font-family="sans-serif" font-size="12" lengthAdjust="spacing" textLength="236.543" x="55" y="248.9785">Notify bed group modified to event bus</text><polygon fill="#F1F1F1" points="98.5327,103.9688,248.0103,103.9688,260.0103,115.9688,248.0103,127.9688,98.5327,127.9688,86.5327,115.9688,98.5327,103.9688" style="stroke:#181818;stroke-width:0.5;"/><text fill="#000000" font-family="sans-serif" font-size="11" lengthAdjust="spacing" textLength="19.0083" x="177.2715" y="138.1792">yes</text><text fill="#000000" font-family="sans-serif" font-size="11" lengthAdjust="spacing" textLength="149.4775" x="98.5327" y="119.7769">Is there a group to modify?</text><text fill="#000000" font-family="sans-serif" font-size="11" lengthAdjust="spacing" textLength="13.7017" x="72.8311" y="113.3745">no</text><ellipse cx="24" cy="162.9688" fill="none" rx="11" ry="11" style="stroke:#222222;stroke-width:1;"/><ellipse cx="24" cy="162.9688" fill="#222222" rx="6" ry="6" style="stroke:#222222;stroke-width:1;"/><line style="stroke:#181818;stroke-width:1;" x1="173.2715" x2="173.2715" y1="30" y2="50"/><polygon fill="#181818" points="169.2715,40,173.2715,50,177.2715,40,173.2715,44" style="stroke:#181818;stroke-width:1;"/><line style="stroke:#181818;stroke-width:1;" x1="173.2715" x2="173.2715" y1="198.7422" y2="227.8398"/><polygon fill="#181818" points="169.2715,217.8398,173.2715,227.8398,177.2715,217.8398,173.2715,221.8398" style="stroke:#181818;stroke-width:1;"/><line style="stroke:#181818;stroke-width:1;" x1="173.2715" x2="173.2715" y1="127.9688" y2="164.7734"/><polygon fill="#181818" points="169.2715,154.7734,173.2715,164.7734,177.2715,154.7734,173.2715,158.7734" style="stroke:#181818;stroke-width:1;"/><line style="stroke:#181818;stroke-width:1;" x1="173.2715" x2="173.2715" y1="261.8086" y2="271.8086"/><line style="stroke:#181818;stroke-width:1;" x1="173.2715" x2="313.543" y1="271.8086" y2="271.8086"/><polygon fill="#181818" points="309.543,207.8398,313.543,197.8398,317.543,207.8398,313.543,203.8398" style="stroke:#181818;stroke-width:1;"/><line style="stroke:#181818;stroke-width:1;" x1="313.543" x2="313.543" y1="115.9688" y2="271.8086"/><line style="stroke:#181818;stroke-width:1;" x1="313.543" x2="260.0103" y1="115.9688" y2="115.9688"/><polygon fill="#181818" points="270.0103,111.9688,260.0103,115.9688,270.0103,119.9688,266.0103,115.9688" style="stroke:#181818;stroke-width:1;"/><line style="stroke:#181818;stroke-width:1;" x1="86.5327" x2="24" y1="115.9688" y2="115.9688"/><line style="stroke:#181818;stroke-width:1;" x1="24" x2="24" y1="115.9688" y2="151.9688"/><polygon fill="#181818" points="20,141.9688,24,151.9688,28,141.9688,24,145.9688" style="stroke:#181818;stroke-width:1;"/><line style="stroke:#181818;stroke-width:1;" x1="173.2715" x2="173.2715" y1="83.9688" y2="103.9688"/><polygon fill="#181818" points="169.2715,93.9688,173.2715,103.9688,177.2715,93.9688,173.2715,97.9688" style="stroke:#181818;stroke-width:1;"/><!--SRC=[HOr13i8m30JlViKUcoyq1uw80_mXLGoD5E8gTa7zFIb1rBVT7OtLGZKQpsm8EMFYY4ULTL6Ou2antJTFxpbbnd1fvSoL4Jfp82U7f1WsLaTeDrw_zOuVIj-dczW-_UkkI2qs7R-u6APLFN69lxz57Ad9yW40]--></g></svg>