<svg xmlns="http://www.w3.org/2000/svg" xmlns:xlink="http://www.w3.org/1999/xlink" contentStyleType="text/css" data-diagram-type="ACTIVITY" height="295px" preserveAspectRatio="none" style="width:300px;height:295px;background:#FFFFFF;" version="1.1" viewBox="0 0 300 295" width="300px" zoomAndPan="magnify"><defs/><g><ellipse cx="153.8066" cy="20" fill="#222222" rx="10" ry="10" style="stroke:#222222;stroke-width:1;"/><rect fill="#F1F1F1" height="33.9688" rx="12.5" ry="12.5" style="stroke:#181818;stroke-width:0.5;" width="146.6387" x="80.4873" y="50"/><text fill="#000000" font-family="sans-serif" font-size="12" lengthAdjust="spacing" textLength="126.6387" x="90.4873" y="71.1387">Get all bed to modify</text><rect fill="#F1F1F1" height="33.9688" rx="12.5" ry="12.5" style="stroke:#181818;stroke-width:0.5;" width="109.9121" x="98.8506" y="164.7734"/><text fill="#000000" font-family="sans-serif" font-size="12" lengthAdjust="spacing" textLength="89.9121" x="108.8506" y="185.9121">Modify the bed</text><rect fill="#F1F1F1" height="33.9688" rx="12.5" ry="12.5" style="stroke:#181818;stroke-width:0.5;" width="217.6133" x="45" y="227.8398"/><text fill="#000000" font-family="sans-serif" font-size="12" lengthAdjust="spacing" textLength="197.6133" x="55" y="248.9785">Notify bed modified to event bus</text><polygon fill="#F1F1F1" points="84.7961,103.9688,222.8171,103.9688,234.8171,115.9688,222.8171,127.9688,84.7961,127.9688,72.7961,115.9688,84.7961,103.9688" style="stroke:#181818;stroke-width:0.5;"/><text fill="#000000" font-family="sans-serif" font-size="11" lengthAdjust="spacing" textLength="19.0083" x="157.8066" y="138.1792">yes</text><text fill="#000000" font-family="sans-serif" font-size="11" lengthAdjust="spacing" textLength="138.021" x="84.7961" y="119.7769">Is there a bed to modify?</text><text fill="#000000" font-family="sans-serif" font-size="11" lengthAdjust="spacing" textLength="13.7017" x="59.0945" y="113.3745">no</text><ellipse cx="24" cy="162.9688" fill="none" rx="11" ry="11" style="stroke:#222222;stroke-width:1;"/><ellipse cx="24" cy="162.9688" fill="#222222" rx="6" ry="6" style="stroke:#222222;stroke-width:1;"/><line style="stroke:#181818;stroke-width:1;" x1="153.8066" x2="153.8066" y1="30" y2="50"/><polygon fill="#181818" points="149.8066,40,153.8066,50,157.8066,40,153.8066,44" style="stroke:#181818;stroke-width:1;"/><line style="stroke:#181818;stroke-width:1;" x1="153.8066" x2="153.8066" y1="198.7422" y2="227.8398"/><polygon fill="#181818" points="149.8066,217.8398,153.8066,227.8398,157.8066,217.8398,153.8066,221.8398" style="stroke:#181818;stroke-width:1;"/><line style="stroke:#181818;stroke-width:1;" x1="153.8066" x2="153.8066" y1="127.9688" y2="164.7734"/><polygon fill="#181818" points="149.8066,154.7734,153.8066,164.7734,157.8066,154.7734,153.8066,158.7734" style="stroke:#181818;stroke-width:1;"/><line style="stroke:#181818;stroke-width:1;" x1="153.8066" x2="153.8066" y1="261.8086" y2="271.8086"/><line style="stroke:#181818;stroke-width:1;" x1="153.8066" x2="274.6133" y1="271.8086" y2="271.8086"/><polygon fill="#181818" points="270.6133,207.8398,274.6133,197.8398,278.6133,207.8398,274.6133,203.8398" style="stroke:#181818;stroke-width:1;"/><line style="stroke:#181818;stroke-width:1;" x1="274.6133" x2="274.6133" y1="115.9688" y2="271.8086"/><line style="stroke:#181818;stroke-width:1;" x1="274.6133" x2="234.8171" y1="115.9688" y2="115.9688"/><polygon fill="#181818" points="244.8171,111.9688,234.8171,115.9688,244.8171,119.9688,240.8171,115.9688" style="stroke:#181818;stroke-width:1;"/><line style="stroke:#181818;stroke-width:1;" x1="72.7961" x2="24" y1="115.9688" y2="115.9688"/><line style="stroke:#181818;stroke-width:1;" x1="24" x2="24" y1="115.9688" y2="151.9688"/><polygon fill="#181818" points="20,141.9688,24,151.9688,28,141.9688,24,145.9688" style="stroke:#181818;stroke-width:1;"/><line style="stroke:#181818;stroke-width:1;" x1="153.8066" x2="153.8066" y1="83.9688" y2="103.9688"/><polygon fill="#181818" points="149.8066,93.9688,153.8066,103.9688,157.8066,93.9688,153.8066,97.9688" style="stroke:#181818;stroke-width:1;"/><!--SRC=[LOqn3i8m40JxUyMMyHVYWX9Hm1ySUL4i6H_A7Q3ydZYXOSlHxAvvMbp6CnsfLapCSCL3SxclKJvpgSHmCVZCXKZ_mYcW68QL5WHRnkkEkzp5UC2RUeUzkTVACS4tcsDwMHIs_7jg6iHSdry0]--></g></svg>