<svg xmlns="http://www.w3.org/2000/svg" xmlns:xlink="http://www.w3.org/1999/xlink" contentStyleType="text/css" data-diagram-type="ACTIVITY" height="241px" preserveAspectRatio="none" style="width:332px;height:241px;background:#FFFFFF;" version="1.1" viewBox="0 0 332 241" width="332px" zoomAndPan="magnify"><defs/><g><ellipse cx="169.7119" cy="20" fill="#222222" rx="10" ry="10" style="stroke:#222222;stroke-width:1;"/><rect fill="#F1F1F1" height="33.9688" rx="12.5" ry="12.5" style="stroke:#181818;stroke-width:0.5;" width="124.7891" x="107.3174" y="110.8047"/><text fill="#000000" font-family="sans-serif" font-size="12" lengthAdjust="spacing" textLength="104.7891" x="117.3174" y="131.9434">Delete bed group</text><rect fill="#F1F1F1" height="33.9688" rx="12.5" ry="12.5" style="stroke:#181818;stroke-width:0.5;" width="249.4238" x="45" y="173.8711"/><text fill="#000000" font-family="sans-serif" font-size="12" lengthAdjust="spacing" textLength="229.4238" x="55" y="195.0098">Notify bed group deleted to event bus</text><polygon fill="#F1F1F1" points="72.3501,50,267.0737,50,279.0737,62,267.0737,74,72.3501,74,60.3501,62,72.3501,50" style="stroke:#181818;stroke-width:0.5;"/><text fill="#000000" font-family="sans-serif" font-size="11" lengthAdjust="spacing" textLength="19.0083" x="173.7119" y="84.2104">yes</text><text fill="#000000" font-family="sans-serif" font-size="11" lengthAdjust="spacing" textLength="194.7236" x="72.3501" y="65.8081">Is there a bed group to be deleted?</text><text fill="#000000" font-family="sans-serif" font-size="11" lengthAdjust="spacing" textLength="13.7017" x="46.6484" y="59.4058">no</text><ellipse cx="24" cy="109" fill="none" rx="11" ry="11" style="stroke:#222222;stroke-width:1;"/><ellipse cx="24" cy="109" fill="#222222" rx="6" ry="6" style="stroke:#222222;stroke-width:1;"/><line style="stroke:#181818;stroke-width:1;" x1="169.7119" x2="169.7119" y1="144.7734" y2="173.8711"/><polygon fill="#181818" points="165.7119,163.8711,169.7119,173.8711,173.7119,163.8711,169.7119,167.8711" style="stroke:#181818;stroke-width:1;"/><line style="stroke:#181818;stroke-width:1;" x1="169.7119" x2="169.7119" y1="74" y2="110.8047"/><polygon fill="#181818" points="165.7119,100.8047,169.7119,110.8047,173.7119,100.8047,169.7119,104.8047" style="stroke:#181818;stroke-width:1;"/><line style="stroke:#181818;stroke-width:1;" x1="169.7119" x2="169.7119" y1="207.8398" y2="217.8398"/><line style="stroke:#181818;stroke-width:1;" x1="169.7119" x2="306.4238" y1="217.8398" y2="217.8398"/><polygon fill="#181818" points="302.4238,153.8711,306.4238,143.8711,310.4238,153.8711,306.4238,149.8711" style="stroke:#181818;stroke-width:1;"/><line style="stroke:#181818;stroke-width:1;" x1="306.4238" x2="306.4238" y1="62" y2="217.8398"/><line style="stroke:#181818;stroke-width:1;" x1="306.4238" x2="279.0737" y1="62" y2="62"/><polygon fill="#181818" points="289.0737,58,279.0737,62,289.0737,66,285.0737,62" style="stroke:#181818;stroke-width:1;"/><line style="stroke:#181818;stroke-width:1;" x1="60.3501" x2="24" y1="62" y2="62"/><line style="stroke:#181818;stroke-width:1;" x1="24" x2="24" y1="62" y2="98"/><polygon fill="#181818" points="20,88,24,98,28,88,24,92" style="stroke:#181818;stroke-width:1;"/><line style="stroke:#181818;stroke-width:1;" x1="169.7119" x2="169.7119" y1="30" y2="50"/><polygon fill="#181818" points="165.7119,40,169.7119,50,173.7119,40,169.7119,44" style="stroke:#181818;stroke-width:1;"/><!--SRC=[JOqn3eCm54FtdC8ZkK8Pkh2mS0UYk2KIoaVvdrRSla0ZWJTRzhFQMCnzfpGJJQ-mYOKO4HZnBh8kCDaD8cSQuzCZAPgDwXrsFRepl-hjFnx4qckxKUh-eF73R0Yhjeuvrkiitgd9yWC0]--></g></svg>