<svg xmlns="http://www.w3.org/2000/svg" xmlns:xlink="http://www.w3.org/1999/xlink" contentStyleType="text/css" data-diagram-type="ACTIVITY" height="337px" preserveAspectRatio="none" style="width:269px;height:337px;background:#FFFFFF;" version="1.1" viewBox="0 0 269 337" width="269px" zoomAndPan="magnify"><defs/><g><ellipse cx="124.9219" cy="20" fill="#222222" rx="10" ry="10" style="stroke:#222222;stroke-width:1;"/><rect fill="#F1F1F1" height="33.9688" rx="12.5" ry="12.5" style="stroke:#181818;stroke-width:0.5;" width="103.3672" x="73.2383" y="50"/><text fill="#000000" font-family="sans-serif" font-size="12" lengthAdjust="spacing" textLength="83.3672" x="83.2383" y="71.1387">Create device</text><rect fill="#F1F1F1" height="33.9688" rx="12.5" ry="12.5" style="stroke:#181818;stroke-width:0.5;" width="227.8438" x="11" y="103.9688"/><text fill="#000000" font-family="sans-serif" font-size="12" lengthAdjust="spacing" textLength="207.8438" x="21" y="125.1074">Notify device created to event bus</text><rect fill="#F1F1F1" height="33.9688" rx="12.5" ry="12.5" style="stroke:#181818;stroke-width:0.5;" width="217.5957" x="16.124" y="206.3398"/><text fill="#000000" font-family="sans-serif" font-size="12" lengthAdjust="spacing" textLength="197.5957" x="26.124" y="227.4785">Create default list of vital ranges</text><polygon fill="#F1F1F1" points="71.9978,157.9375,177.8459,157.9375,189.8459,169.9375,177.8459,181.9375,71.9978,181.9375,59.9978,169.9375,71.9978,157.9375" style="stroke:#181818;stroke-width:0.5;"/><text fill="#000000" font-family="sans-serif" font-size="11" lengthAdjust="spacing" textLength="19.0083" x="128.9219" y="192.1479">yes</text><text fill="#000000" font-family="sans-serif" font-size="11" lengthAdjust="spacing" textLength="105.8481" x="71.9978" y="173.7456">Is the device a PM?</text><text fill="#000000" font-family="sans-serif" font-size="11" lengthAdjust="spacing" textLength="13.7017" x="189.8459" y="167.3433">no</text><polygon fill="#F1F1F1" points="124.9219,260.3086,136.9219,272.3086,124.9219,284.3086,112.9219,272.3086,124.9219,260.3086" style="stroke:#181818;stroke-width:0.5;"/><ellipse cx="124.9219" cy="315.3086" fill="none" rx="11" ry="11" style="stroke:#222222;stroke-width:1;"/><ellipse cx="124.9219" cy="315.3086" fill="#222222" rx="6" ry="6" style="stroke:#222222;stroke-width:1;"/><line style="stroke:#181818;stroke-width:1;" x1="124.9219" x2="124.9219" y1="30" y2="50"/><polygon fill="#181818" points="120.9219,40,124.9219,50,128.9219,40,124.9219,44" style="stroke:#181818;stroke-width:1;"/><line style="stroke:#181818;stroke-width:1;" x1="124.9219" x2="124.9219" y1="83.9688" y2="103.9688"/><polygon fill="#181818" points="120.9219,93.9688,124.9219,103.9688,128.9219,93.9688,124.9219,97.9688" style="stroke:#181818;stroke-width:1;"/><line style="stroke:#181818;stroke-width:1;" x1="124.9219" x2="124.9219" y1="181.9375" y2="206.3398"/><polygon fill="#181818" points="120.9219,196.3398,124.9219,206.3398,128.9219,196.3398,124.9219,200.3398" style="stroke:#181818;stroke-width:1;"/><line style="stroke:#181818;stroke-width:1;" x1="189.8459" x2="243.7197" y1="169.9375" y2="169.9375"/><polygon fill="#181818" points="239.7197,213.3242,243.7197,223.3242,247.7197,213.3242,243.7197,217.3242" style="stroke:#181818;stroke-width:1;"/><line style="stroke:#181818;stroke-width:1;" x1="243.7197" x2="243.7197" y1="169.9375" y2="272.3086"/><line style="stroke:#181818;stroke-width:1;" x1="243.7197" x2="136.9219" y1="272.3086" y2="272.3086"/><polygon fill="#181818" points="146.9219,268.3086,136.9219,272.3086,146.9219,276.3086,142.9219,272.3086" style="stroke:#181818;stroke-width:1;"/><line style="stroke:#181818;stroke-width:1;" x1="124.9219" x2="124.9219" y1="240.3086" y2="260.3086"/><polygon fill="#181818" points="120.9219,250.3086,124.9219,260.3086,128.9219,250.3086,124.9219,254.3086" style="stroke:#181818;stroke-width:1;"/><line style="stroke:#181818;stroke-width:1;" x1="124.9219" x2="124.9219" y1="137.9375" y2="157.9375"/><polygon fill="#181818" points="120.9219,147.9375,124.9219,157.9375,128.9219,147.9375,124.9219,151.9375" style="stroke:#181818;stroke-width:1;"/><line style="stroke:#181818;stroke-width:1;" x1="124.9219" x2="124.9219" y1="284.3086" y2="304.3086"/><polygon fill="#181818" points="120.9219,294.3086,124.9219,304.3086,128.9219,294.3086,124.9219,298.3086" style="stroke:#181818;stroke-width:1;"/><!--SRC=[LOqn3i8m34NtdkAFoHLWO63g0E8Afd6AfIX1iHkfjoyqPS3RV__PLgDg0pvpkbOcOmHkCl6vitinYUl1CEr6W1LmusnuBjf5YN2Zmbw_VH0Ujuk7ADpAwhzLtjN_Nv6MP4YYXXBHn2YXKfxvECn96IuNtrCE4WUryju0]--></g></svg>