<svg xmlns="http://www.w3.org/2000/svg" xmlns:xlink="http://www.w3.org/1999/xlink" contentStyleType="text/css" data-diagram-type="ACTIVITY" height="190px" preserveAspectRatio="none" style="width:271px;height:190px;background:#FFFFFF;" version="1.1" viewBox="0 0 271 190" width="271px" zoomAndPan="magnify"><defs/><g><ellipse cx="135.9873" cy="20" fill="#222222" rx="10" ry="10" style="stroke:#222222;stroke-width:1;"/><rect fill="#F1F1F1" height="33.9688" rx="12.5" ry="12.5" style="stroke:#181818;stroke-width:0.5;" width="125.498" x="73.2383" y="50"/><text fill="#000000" font-family="sans-serif" font-size="12" lengthAdjust="spacing" textLength="105.498" x="83.2383" y="71.1387">Create bed group</text><rect fill="#F1F1F1" height="33.9688" rx="12.5" ry="12.5" style="stroke:#181818;stroke-width:0.5;" width="249.9746" x="11" y="103.9688"/><text fill="#000000" font-family="sans-serif" font-size="12" lengthAdjust="spacing" textLength="229.9746" x="21" y="125.1074">Notify bed group created to event bus</text><ellipse cx="135.9873" cy="168.9375" fill="none" rx="11" ry="11" style="stroke:#222222;stroke-width:1;"/><ellipse cx="135.9873" cy="168.9375" fill="#222222" rx="6" ry="6" style="stroke:#222222;stroke-width:1;"/><line style="stroke:#181818;stroke-width:1;" x1="135.9873" x2="135.9873" y1="30" y2="50"/><polygon fill="#181818" points="131.9873,40,135.9873,50,139.9873,40,135.9873,44" style="stroke:#181818;stroke-width:1;"/><line style="stroke:#181818;stroke-width:1;" x1="135.9873" x2="135.9873" y1="83.9688" y2="103.9688"/><polygon fill="#181818" points="131.9873,93.9688,135.9873,103.9688,139.9873,93.9688,135.9873,97.9688" style="stroke:#181818;stroke-width:1;"/><line style="stroke:#181818;stroke-width:1;" x1="135.9873" x2="135.9873" y1="137.9375" y2="157.9375"/><polygon fill="#181818" points="131.9873,147.9375,135.9873,157.9375,139.9873,147.9375,135.9873,151.9375" style="stroke:#181818;stroke-width:1;"/><!--SRC=[Aov9B2hXid8kIaqiILL8IarHI2_ABosmvhBooo_9JAj422aaWzMaA9JaAwIMfUQLA2IL5bjp5PVa5m00]--></g></svg>