<svg xmlns="http://www.w3.org/2000/svg" xmlns:xlink="http://www.w3.org/1999/xlink" contentStyleType="text/css" data-diagram-type="ACTIVITY" height="190px" preserveAspectRatio="none" style="width:253px;height:190px;background:#FFFFFF;" version="1.1" viewBox="0 0 253 190" width="253px" zoomAndPan="magnify"><defs/><g><ellipse cx="126.5654" cy="20" fill="#222222" rx="10" ry="10" style="stroke:#222222;stroke-width:1;"/><rect fill="#F1F1F1" height="33.9688" rx="12.5" ry="12.5" style="stroke:#181818;stroke-width:0.5;" width="106.6543" x="73.2383" y="50"/><text fill="#000000" font-family="sans-serif" font-size="12" lengthAdjust="spacing" textLength="86.6543" x="83.2383" y="71.1387">Create patient</text><rect fill="#F1F1F1" height="33.9688" rx="12.5" ry="12.5" style="stroke:#181818;stroke-width:0.5;" width="231.1309" x="11" y="103.9688"/><text fill="#000000" font-family="sans-serif" font-size="12" lengthAdjust="spacing" textLength="211.1309" x="21" y="125.1074">Notify patient created to event bus</text><ellipse cx="126.5654" cy="168.9375" fill="none" rx="11" ry="11" style="stroke:#222222;stroke-width:1;"/><ellipse cx="126.5654" cy="168.9375" fill="#222222" rx="6" ry="6" style="stroke:#222222;stroke-width:1;"/><line style="stroke:#181818;stroke-width:1;" x1="126.5654" x2="126.5654" y1="30" y2="50"/><polygon fill="#181818" points="122.5654,40,126.5654,50,130.5654,40,126.5654,44" style="stroke:#181818;stroke-width:1;"/><line style="stroke:#181818;stroke-width:1;" x1="126.5654" x2="126.5654" y1="83.9688" y2="103.9688"/><polygon fill="#181818" points="122.5654,93.9688,126.5654,103.9688,130.5654,93.9688,126.5654,97.9688" style="stroke:#181818;stroke-width:1;"/><line style="stroke:#181818;stroke-width:1;" x1="126.5654" x2="126.5654" y1="137.9375" y2="157.9375"/><polygon fill="#181818" points="122.5654,147.9375,126.5654,157.9375,130.5654,147.9375,126.5654,151.9375" style="stroke:#181818;stroke-width:1;"/><!--SRC=[Aov9B2hXid8kIaqiILKeI2p9JCqhiUQoyiiloKohX0ae98FbKnHAyXLIoq02IQN5rbp59Va50000]--></g></svg>