<svg xmlns="http://www.w3.org/2000/svg" xmlns:xlink="http://www.w3.org/1999/xlink" contentStyleType="text/css" data-diagram-type="ACTIVITY" height="254px" preserveAspectRatio="none" style="width:365px;height:254px;background:#FFFFFF;" version="1.1" viewBox="0 0 365 254" width="365px" zoomAndPan="magnify"><defs/><g><ellipse cx="158.2739" cy="20" fill="#222222" rx="10" ry="10" style="stroke:#222222;stroke-width:1;"/><polygon fill="#F1F1F1" points="105.801,50,210.7468,50,222.7468,62,210.7468,74,105.801,74,93.801,62,105.801,50" style="stroke:#181818;stroke-width:0.5;"/><text fill="#000000" font-family="sans-serif" font-size="11" lengthAdjust="spacing" textLength="104.9458" x="105.801" y="65.8081">Are there 64 beds?</text><text fill="#000000" font-family="sans-serif" font-size="11" lengthAdjust="spacing" textLength="19.0083" x="74.7927" y="59.4058">yes</text><text fill="#000000" font-family="sans-serif" font-size="11" lengthAdjust="spacing" textLength="13.7017" x="222.7468" y="59.4058">no</text><rect fill="#F1F1F1" height="33.9688" rx="12.5" ry="12.5" style="stroke:#181818;stroke-width:0.5;" width="112.6836" x="11" y="84"/><text fill="#000000" font-family="sans-serif" font-size="12" lengthAdjust="spacing" textLength="92.6836" x="21" y="105.1387">Return an error</text><rect fill="#F1F1F1" height="33.9688" rx="12.5" ry="12.5" style="stroke:#181818;stroke-width:0.5;" width="86.5684" x="205.9219" y="84"/><text fill="#000000" font-family="sans-serif" font-size="12" lengthAdjust="spacing" textLength="66.5684" x="215.9219" y="105.1387">Create bed</text><rect fill="#F1F1F1" height="33.9688" rx="12.5" ry="12.5" style="stroke:#181818;stroke-width:0.5;" width="211.0449" x="143.6836" y="137.9688"/><text fill="#000000" font-family="sans-serif" font-size="12" lengthAdjust="spacing" textLength="191.0449" x="153.6836" y="159.1074">Notify bed created to event bus</text><polygon fill="#F1F1F1" points="158.2739,177.9375,170.2739,189.9375,158.2739,201.9375,146.2739,189.9375,158.2739,177.9375" style="stroke:#181818;stroke-width:0.5;"/><ellipse cx="158.2739" cy="232.9375" fill="none" rx="11" ry="11" style="stroke:#222222;stroke-width:1;"/><ellipse cx="158.2739" cy="232.9375" fill="#222222" rx="6" ry="6" style="stroke:#222222;stroke-width:1;"/><line style="stroke:#181818;stroke-width:1;" x1="249.2061" x2="249.2061" y1="117.9688" y2="137.9688"/><polygon fill="#181818" points="245.2061,127.9688,249.2061,137.9688,253.2061,127.9688,249.2061,131.9688" style="stroke:#181818;stroke-width:1;"/><line style="stroke:#181818;stroke-width:1;" x1="93.801" x2="67.3418" y1="62" y2="62"/><line style="stroke:#181818;stroke-width:1;" x1="67.3418" x2="67.3418" y1="62" y2="84"/><polygon fill="#181818" points="63.3418,74,67.3418,84,71.3418,74,67.3418,78" style="stroke:#181818;stroke-width:1;"/><line style="stroke:#181818;stroke-width:1;" x1="222.7468" x2="249.2061" y1="62" y2="62"/><line style="stroke:#181818;stroke-width:1;" x1="249.2061" x2="249.2061" y1="62" y2="84"/><polygon fill="#181818" points="245.2061,74,249.2061,84,253.2061,74,249.2061,78" style="stroke:#181818;stroke-width:1;"/><line style="stroke:#181818;stroke-width:1;" x1="67.3418" x2="67.3418" y1="117.9688" y2="189.9375"/><line style="stroke:#181818;stroke-width:1;" x1="67.3418" x2="146.2739" y1="189.9375" y2="189.9375"/><polygon fill="#181818" points="136.2739,185.9375,146.2739,189.9375,136.2739,193.9375,140.2739,189.9375" style="stroke:#181818;stroke-width:1;"/><line style="stroke:#181818;stroke-width:1;" x1="249.2061" x2="249.2061" y1="171.9375" y2="189.9375"/><line style="stroke:#181818;stroke-width:1;" x1="249.2061" x2="170.2739" y1="189.9375" y2="189.9375"/><polygon fill="#181818" points="180.2739,185.9375,170.2739,189.9375,180.2739,193.9375,176.2739,189.9375" style="stroke:#181818;stroke-width:1;"/><line style="stroke:#181818;stroke-width:1;" x1="158.2739" x2="158.2739" y1="30" y2="50"/><polygon fill="#181818" points="154.2739,40,158.2739,50,162.2739,40,158.2739,44" style="stroke:#181818;stroke-width:1;"/><line style="stroke:#181818;stroke-width:1;" x1="158.2739" x2="158.2739" y1="201.9375" y2="221.9375"/><polygon fill="#181818" points="154.2739,211.9375,158.2739,221.9375,162.2739,211.9375,158.2739,215.9375" style="stroke:#181818;stroke-width:1;"/><!--SRC=[9Omn3i8m40Hxls9BkqSKf428de8VEF5QM49dT7T1okzno1PRp4XZdjL3guWt9Vp5yUSJPXQx9ZH3t6Xf5n8mTddILnLa0LMxJe5l8wBqTFYxCZltm7I0H_TMjnrW-Ri2x-2NufXN6m4fhGRp_la1]--></g></svg>