<svg xmlns="http://www.w3.org/2000/svg" xmlns:xlink="http://www.w3.org/1999/xlink" contentStyleType="text/css" data-diagram-type="ACTIVITY" height="308px" preserveAspectRatio="none" style="width:401px;height:308px;background:#FFFFFF;" version="1.1" viewBox="0 0 401 308" width="401px" zoomAndPan="magnify"><defs/><g><ellipse cx="176.0984" cy="20" fill="#222222" rx="10" ry="10" style="stroke:#222222;stroke-width:1;"/><rect fill="#F1F1F1" height="33.9688" rx="12.5" ry="12.5" style="stroke:#181818;stroke-width:0.5;" width="91.3262" x="130.4353" y="50"/><text fill="#000000" font-family="sans-serif" font-size="12" lengthAdjust="spacing" textLength="71.3262" x="140.4353" y="71.1387">Get the bed</text><polygon fill="#F1F1F1" points="89.3418,103.9688,262.855,103.9688,274.855,115.9688,262.855,127.9688,89.3418,127.9688,77.3418,115.9688,89.3418,103.9688" style="stroke:#181818;stroke-width:0.5;"/><text fill="#000000" font-family="sans-serif" font-size="11" lengthAdjust="spacing" textLength="173.5132" x="89.3418" y="119.7769">Is the bed assigned to a group?</text><text fill="#000000" font-family="sans-serif" font-size="11" lengthAdjust="spacing" textLength="19.0083" x="58.3335" y="113.3745">yes</text><text fill="#000000" font-family="sans-serif" font-size="11" lengthAdjust="spacing" textLength="13.7017" x="274.855" y="113.3745">no</text><rect fill="#F1F1F1" height="33.9688" rx="12.5" ry="12.5" style="stroke:#181818;stroke-width:0.5;" width="112.6836" x="11" y="137.9688"/><text fill="#000000" font-family="sans-serif" font-size="12" lengthAdjust="spacing" textLength="92.6836" x="21" y="159.1074">Return an error</text><rect fill="#F1F1F1" height="33.9688" rx="12.5" ry="12.5" style="stroke:#181818;stroke-width:0.5;" width="109.3672" x="230.1714" y="137.9688"/><text fill="#000000" font-family="sans-serif" font-size="12" lengthAdjust="spacing" textLength="89.3672" x="240.1714" y="159.1074">Delete the bed</text><rect fill="#F1F1F1" height="33.9688" rx="12.5" ry="12.5" style="stroke:#181818;stroke-width:0.5;" width="210.4941" x="179.6079" y="191.9375"/><text fill="#000000" font-family="sans-serif" font-size="12" lengthAdjust="spacing" textLength="190.4941" x="189.6079" y="213.0762">Notify bed deleted to event bus</text><polygon fill="#F1F1F1" points="176.0984,231.9063,188.0984,243.9063,176.0984,255.9063,164.0984,243.9063,176.0984,231.9063" style="stroke:#181818;stroke-width:0.5;"/><ellipse cx="176.0984" cy="286.9063" fill="none" rx="11" ry="11" style="stroke:#222222;stroke-width:1;"/><ellipse cx="176.0984" cy="286.9063" fill="#222222" rx="6" ry="6" style="stroke:#222222;stroke-width:1;"/><line style="stroke:#181818;stroke-width:1;" x1="176.0984" x2="176.0984" y1="30" y2="50"/><polygon fill="#181818" points="172.0984,40,176.0984,50,180.0984,40,176.0984,44" style="stroke:#181818;stroke-width:1;"/><line style="stroke:#181818;stroke-width:1;" x1="284.855" x2="284.855" y1="171.9375" y2="191.9375"/><polygon fill="#181818" points="280.855,181.9375,284.855,191.9375,288.855,181.9375,284.855,185.9375" style="stroke:#181818;stroke-width:1;"/><line style="stroke:#181818;stroke-width:1;" x1="77.3418" x2="67.3418" y1="115.9688" y2="115.9688"/><line style="stroke:#181818;stroke-width:1;" x1="67.3418" x2="67.3418" y1="115.9688" y2="137.9688"/><polygon fill="#181818" points="63.3418,127.9688,67.3418,137.9688,71.3418,127.9688,67.3418,131.9688" style="stroke:#181818;stroke-width:1;"/><line style="stroke:#181818;stroke-width:1;" x1="274.855" x2="284.855" y1="115.9688" y2="115.9688"/><line style="stroke:#181818;stroke-width:1;" x1="284.855" x2="284.855" y1="115.9688" y2="137.9688"/><polygon fill="#181818" points="280.855,127.9688,284.855,137.9688,288.855,127.9688,284.855,131.9688" style="stroke:#181818;stroke-width:1;"/><line style="stroke:#181818;stroke-width:1;" x1="67.3418" x2="67.3418" y1="171.9375" y2="243.9063"/><line style="stroke:#181818;stroke-width:1;" x1="67.3418" x2="164.0984" y1="243.9063" y2="243.9063"/><polygon fill="#181818" points="154.0984,239.9063,164.0984,243.9063,154.0984,247.9063,158.0984,243.9063" style="stroke:#181818;stroke-width:1;"/><line style="stroke:#181818;stroke-width:1;" x1="284.855" x2="284.855" y1="225.9063" y2="243.9063"/><line style="stroke:#181818;stroke-width:1;" x1="284.855" x2="188.0984" y1="243.9063" y2="243.9063"/><polygon fill="#181818" points="198.0984,239.9063,188.0984,243.9063,198.0984,247.9063,194.0984,243.9063" style="stroke:#181818;stroke-width:1;"/><line style="stroke:#181818;stroke-width:1;" x1="176.0984" x2="176.0984" y1="83.9688" y2="103.9688"/><polygon fill="#181818" points="172.0984,93.9688,176.0984,103.9688,180.0984,93.9688,176.0984,97.9688" style="stroke:#181818;stroke-width:1;"/><line style="stroke:#181818;stroke-width:1;" x1="176.0984" x2="176.0984" y1="255.9063" y2="275.9063"/><polygon fill="#181818" points="172.0984,265.9063,176.0984,275.9063,180.0984,265.9063,176.0984,269.9063" style="stroke:#181818;stroke-width:1;"/><!--SRC=[HOqn2iCm34Ltd-AFyHMIeKkXTEdG6pZa9pK4ALXA8RUlurBw9tqzeMUUYeV-HeU_Y97J4FACxcw_ZcIM5wc3AnAMeljsYSY6xg35yqm2QledVI-2960fMeR0rOXED7xvbIkTVqzRFjJpV3JHr7Zpy4rnZBlL9pBbEPZhzW40]--></g></svg>