<svg xmlns="http://www.w3.org/2000/svg" xmlns:xlink="http://www.w3.org/1999/xlink" contentStyleType="text/css" data-diagram-type="ACTIVITY" height="308px" preserveAspectRatio="none" style="width:417px;height:308px;background:#FFFFFF;" version="1.1" viewBox="0 0 417 308" width="417px" zoomAndPan="magnify"><defs/><g><ellipse cx="246.3945" cy="20" fill="#222222" rx="10" ry="10" style="stroke:#222222;stroke-width:1;"/><rect fill="#F1F1F1" height="33.9688" rx="12.5" ry="12.5" style="stroke:#181818;stroke-width:0.5;" width="106.3613" x="193.2139" y="50"/><text fill="#000000" font-family="sans-serif" font-size="12" lengthAdjust="spacing" textLength="86.3613" x="203.2139" y="71.1387">Get encounter</text><polygon fill="#F1F1F1" points="176.1809,103.9688,316.6082,103.9688,328.6082,115.9688,316.6082,127.9688,176.1809,127.9688,164.1809,115.9688,176.1809,103.9688" style="stroke:#181818;stroke-width:0.5;"/><text fill="#000000" font-family="sans-serif" font-size="11" lengthAdjust="spacing" textLength="140.4272" x="176.1809" y="119.7769">Is encounter "cancelled"?</text><text fill="#000000" font-family="sans-serif" font-size="11" lengthAdjust="spacing" textLength="19.0083" x="145.1726" y="113.3745">yes</text><text fill="#000000" font-family="sans-serif" font-size="11" lengthAdjust="spacing" textLength="13.7017" x="328.6082" y="113.3745">no</text><rect fill="#F1F1F1" height="33.9688" rx="12.5" ry="12.5" style="stroke:#181818;stroke-width:0.5;" width="124.4023" x="80.2813" y="137.9688"/><text fill="#000000" font-family="sans-serif" font-size="12" lengthAdjust="spacing" textLength="104.4023" x="90.2813" y="159.1074">Delete encounter</text><rect fill="#F1F1F1" height="33.9688" rx="12.5" ry="12.5" style="stroke:#181818;stroke-width:0.5;" width="262.9648" x="11" y="191.9375"/><text fill="#000000" font-family="sans-serif" font-size="12" lengthAdjust="spacing" textLength="242.9648" x="21" y="213.0762">Notify admission dismissed to event bus</text><rect fill="#F1F1F1" height="33.9688" rx="12.5" ry="12.5" style="stroke:#181818;stroke-width:0.5;" width="112.6836" x="293.9648" y="137.9688"/><text fill="#000000" font-family="sans-serif" font-size="12" lengthAdjust="spacing" textLength="92.6836" x="303.9648" y="159.1074">Return an error</text><polygon fill="#F1F1F1" points="246.3945,231.9063,258.3945,243.9063,246.3945,255.9063,234.3945,243.9063,246.3945,231.9063" style="stroke:#181818;stroke-width:0.5;"/><ellipse cx="246.3945" cy="286.9063" fill="none" rx="11" ry="11" style="stroke:#222222;stroke-width:1;"/><ellipse cx="246.3945" cy="286.9063" fill="#222222" rx="6" ry="6" style="stroke:#222222;stroke-width:1;"/><line style="stroke:#181818;stroke-width:1;" x1="246.3945" x2="246.3945" y1="30" y2="50"/><polygon fill="#181818" points="242.3945,40,246.3945,50,250.3945,40,246.3945,44" style="stroke:#181818;stroke-width:1;"/><line style="stroke:#181818;stroke-width:1;" x1="142.4824" x2="142.4824" y1="171.9375" y2="191.9375"/><polygon fill="#181818" points="138.4824,181.9375,142.4824,191.9375,146.4824,181.9375,142.4824,185.9375" style="stroke:#181818;stroke-width:1;"/><line style="stroke:#181818;stroke-width:1;" x1="164.1809" x2="142.4824" y1="115.9688" y2="115.9688"/><line style="stroke:#181818;stroke-width:1;" x1="142.4824" x2="142.4824" y1="115.9688" y2="137.9688"/><polygon fill="#181818" points="138.4824,127.9688,142.4824,137.9688,146.4824,127.9688,142.4824,131.9688" style="stroke:#181818;stroke-width:1;"/><line style="stroke:#181818;stroke-width:1;" x1="328.6082" x2="350.3066" y1="115.9688" y2="115.9688"/><line style="stroke:#181818;stroke-width:1;" x1="350.3066" x2="350.3066" y1="115.9688" y2="137.9688"/><polygon fill="#181818" points="346.3066,127.9688,350.3066,137.9688,354.3066,127.9688,350.3066,131.9688" style="stroke:#181818;stroke-width:1;"/><line style="stroke:#181818;stroke-width:1;" x1="142.4824" x2="142.4824" y1="225.9063" y2="243.9063"/><line style="stroke:#181818;stroke-width:1;" x1="142.4824" x2="234.3945" y1="243.9063" y2="243.9063"/><polygon fill="#181818" points="224.3945,239.9063,234.3945,243.9063,224.3945,247.9063,228.3945,243.9063" style="stroke:#181818;stroke-width:1;"/><line style="stroke:#181818;stroke-width:1;" x1="350.3066" x2="350.3066" y1="171.9375" y2="243.9063"/><line style="stroke:#181818;stroke-width:1;" x1="350.3066" x2="258.3945" y1="243.9063" y2="243.9063"/><polygon fill="#181818" points="268.3945,239.9063,258.3945,243.9063,268.3945,247.9063,264.3945,243.9063" style="stroke:#181818;stroke-width:1;"/><line style="stroke:#181818;stroke-width:1;" x1="246.3945" x2="246.3945" y1="83.9688" y2="103.9688"/><polygon fill="#181818" points="242.3945,93.9688,246.3945,103.9688,250.3945,93.9688,246.3945,97.9688" style="stroke:#181818;stroke-width:1;"/><line style="stroke:#181818;stroke-width:1;" x1="246.3945" x2="246.3945" y1="255.9063" y2="275.9063"/><polygon fill="#181818" points="242.3945,265.9063,246.3945,275.9063,250.3945,265.9063,246.3945,269.9063" style="stroke:#181818;stroke-width:1;"/><!--SRC=[JOmn2i9044NxFSN7Ahb2KjW8OcFX3TRi3mwiCx8p4N9xenRwgy-3zpnoYpGS6Q1EjcYmZKbcT2V_4Uoch1DhPTdjUuYZM-azuaPDs3OSM1dyRtpmsKBc5RdSnLrCKSJVbmLXu9CQk2u-9bOdEhN-wrqOIrDa1LkphKOjCYSFUxm0]--></g></svg>