<svg xmlns="http://www.w3.org/2000/svg" xmlns:xlink="http://www.w3.org/1999/xlink" contentStyleType="text/css" data-diagram-type="ACTIVITY" height="298px" preserveAspectRatio="none" style="width:232px;height:298px;background:#FFFFFF;" version="1.1" viewBox="0 0 232 298" width="232px" zoomAndPan="magnify"><defs/><g><ellipse cx="116.1563" cy="20" fill="#222222" rx="10" ry="10" style="stroke:#222222;stroke-width:1;"/><rect fill="#F1F1F1" height="33.9688" rx="12.5" ry="12.5" style="stroke:#181818;stroke-width:0.5;" width="67.8184" x="82.2471" y="50"/><text fill="#000000" font-family="sans-serif" font-size="12" lengthAdjust="spacing" textLength="47.8184" x="92.2471" y="71.1387">Get bed</text><rect fill="#F1F1F1" height="33.9688" rx="12.5" ry="12.5" style="stroke:#181818;stroke-width:0.5;" width="106.748" x="62.7822" y="103.9688"/><text fill="#000000" font-family="sans-serif" font-size="12" lengthAdjust="spacing" textLength="86.748" x="72.7822" y="125.1074">Get bed group</text><rect fill="#F1F1F1" height="33.9688" rx="12.5" ry="12.5" style="stroke:#181818;stroke-width:0.5;" width="166.6016" x="32.8555" y="157.9375"/><text fill="#000000" font-family="sans-serif" font-size="12" lengthAdjust="spacing" textLength="146.6016" x="42.8555" y="179.0762">Remove bed from group</text><rect fill="#F1F1F1" height="33.9688" rx="12.5" ry="12.5" style="stroke:#181818;stroke-width:0.5;" width="210.3125" x="11" y="211.9063"/><text fill="#000000" font-family="sans-serif" font-size="12" lengthAdjust="spacing" textLength="190.3125" x="21" y="233.0449">Notify bed removed from group</text><ellipse cx="116.1563" cy="276.875" fill="none" rx="11" ry="11" style="stroke:#222222;stroke-width:1;"/><ellipse cx="116.1563" cy="276.875" fill="#222222" rx="6" ry="6" style="stroke:#222222;stroke-width:1;"/><line style="stroke:#181818;stroke-width:1;" x1="116.1563" x2="116.1563" y1="30" y2="50"/><polygon fill="#181818" points="112.1563,40,116.1563,50,120.1563,40,116.1563,44" style="stroke:#181818;stroke-width:1;"/><line style="stroke:#181818;stroke-width:1;" x1="116.1563" x2="116.1563" y1="83.9688" y2="103.9688"/><polygon fill="#181818" points="112.1563,93.9688,116.1563,103.9688,120.1563,93.9688,116.1563,97.9688" style="stroke:#181818;stroke-width:1;"/><line style="stroke:#181818;stroke-width:1;" x1="116.1563" x2="116.1563" y1="137.9375" y2="157.9375"/><polygon fill="#181818" points="112.1563,147.9375,116.1563,157.9375,120.1563,147.9375,116.1563,151.9375" style="stroke:#181818;stroke-width:1;"/><line style="stroke:#181818;stroke-width:1;" x1="116.1563" x2="116.1563" y1="191.9063" y2="211.9063"/><polygon fill="#181818" points="112.1563,201.9063,116.1563,211.9063,120.1563,201.9063,116.1563,205.9063" style="stroke:#181818;stroke-width:1;"/><line style="stroke:#181818;stroke-width:1;" x1="116.1563" x2="116.1563" y1="245.875" y2="265.875"/><polygon fill="#181818" points="112.1563,255.875,116.1563,265.875,120.1563,255.875,116.1563,259.875" style="stroke:#181818;stroke-width:1;"/><!--SRC=[Aov9B2hXid9FBL58IasnXhCKqeloImk0_A3KtFooLB1GMb5-BbpSBxyaCwqIB5u4Le8gNroINm00]--></g></svg>