<svg xmlns="http://www.w3.org/2000/svg" xmlns:xlink="http://www.w3.org/1999/xlink" contentStyleType="text/css" data-diagram-type="ACTIVITY" height="590px" preserveAspectRatio="none" style="width:459px;height:590px;background:#FFFFFF;" version="1.1" viewBox="0 0 459 590" width="459px" zoomAndPan="magnify"><defs/><g><ellipse cx="200.9102" cy="20" fill="#222222" rx="10" ry="10" style="stroke:#222222;stroke-width:1;"/><rect fill="#F1F1F1" height="33.9688" rx="12.5" ry="12.5" style="stroke:#181818;stroke-width:0.5;" width="87.9043" x="156.958" y="50"/><text fill="#000000" font-family="sans-serif" font-size="12" lengthAdjust="spacing" textLength="67.9043" x="166.958" y="71.1387">Get patient</text><rect fill="#F1F1F1" height="33.9688" rx="12.5" ry="12.5" style="stroke:#181818;stroke-width:0.5;" width="84.6172" x="158.6016" y="103.9688"/><text fill="#000000" font-family="sans-serif" font-size="12" lengthAdjust="spacing" textLength="64.6172" x="168.6016" y="125.1074">Get device</text><rect fill="#F1F1F1" height="33.9688" rx="12.5" ry="12.5" style="stroke:#181818;stroke-width:0.5;" width="244.2031" x="78.8086" y="157.9375"/><text fill="#000000" font-family="sans-serif" font-size="12" lengthAdjust="spacing" textLength="224.2031" x="88.8086" y="179.0762">Get current patient-device encounter</text><polygon fill="#F1F1F1" points="120.4539,260.3086,281.3665,260.3086,293.3665,272.3086,281.3665,284.3086,120.4539,284.3086,108.4539,272.3086,120.4539,260.3086" style="stroke:#181818;stroke-width:0.5;"/><text fill="#000000" font-family="sans-serif" font-size="11" lengthAdjust="spacing" textLength="160.9126" x="120.4539" y="276.1167">Is the encounter in progress?</text><text fill="#000000" font-family="sans-serif" font-size="11" lengthAdjust="spacing" textLength="19.0083" x="89.4456" y="269.7144">yes</text><text fill="#000000" font-family="sans-serif" font-size="11" lengthAdjust="spacing" textLength="13.7017" x="293.3665" y="269.7144">no</text><rect fill="#F1F1F1" height="33.9688" rx="12.5" ry="12.5" style="stroke:#181818;stroke-width:0.5;" width="112.6836" x="42.1121" y="294.3086"/><text fill="#000000" font-family="sans-serif" font-size="12" lengthAdjust="spacing" textLength="92.6836" x="52.1121" y="315.4473">Return an error</text><ellipse cx="98.4539" cy="362.7773" fill="none" rx="11" ry="11" style="stroke:#222222;stroke-width:1;"/><ellipse cx="98.4539" cy="362.7773" fill="#222222" rx="6" ry="6" style="stroke:#222222;stroke-width:1;"/><rect fill="#F1F1F1" height="33.9688" rx="12.5" ry="12.5" style="stroke:#181818;stroke-width:0.5;" width="185.3574" x="210.6877" y="294.3086"/><text fill="#000000" font-family="sans-serif" font-size="12" lengthAdjust="spacing" textLength="165.3574" x="220.6877" y="315.4473">Remove existing encounter</text><rect fill="#F1F1F1" height="33.9688" rx="12.5" ry="12.5" style="stroke:#181818;stroke-width:0.5;" width="232.8242" x="186.9543" y="351.7773"/><text fill="#000000" font-family="sans-serif" font-size="12" lengthAdjust="spacing" textLength="212.8242" x="196.9543" y="372.916">Notify existing encounter cancelled</text><polygon fill="#F1F1F1" points="32,211.9063,369.8203,211.9063,381.8203,223.9063,369.8203,235.9063,32,235.9063,20,223.9063,32,211.9063" style="stroke:#181818;stroke-width:0.5;"/><text fill="#000000" font-family="sans-serif" font-size="11" lengthAdjust="spacing" textLength="19.0083" x="204.9102" y="246.1167">yes</text><text fill="#000000" font-family="sans-serif" font-size="11" lengthAdjust="spacing" textLength="337.8203" x="32" y="227.7144">Does an encounter exist for the pair patient-device selected?</text><text fill="#000000" font-family="sans-serif" font-size="11" lengthAdjust="spacing" textLength="13.7017" x="381.8203" y="221.312">no</text><polygon fill="#F1F1F1" points="200.9102,405.7461,212.9102,417.7461,200.9102,429.7461,188.9102,417.7461,200.9102,405.7461" style="stroke:#181818;stroke-width:0.5;"/><rect fill="#F1F1F1" height="33.9688" rx="12.5" ry="12.5" style="stroke:#181818;stroke-width:0.5;" width="374.7734" x="13.5234" y="449.7461"/><text fill="#000000" font-family="sans-serif" font-size="12" lengthAdjust="spacing" textLength="354.7734" x="23.5234" y="470.8848">Create an encounter for the pair patient-device as planned</text><rect fill="#F1F1F1" height="33.9688" rx="12.5" ry="12.5" style="stroke:#181818;stroke-width:0.5;" width="219.125" x="91.3477" y="503.7148"/><text fill="#000000" font-family="sans-serif" font-size="12" lengthAdjust="spacing" textLength="199.125" x="101.3477" y="524.8535">Notify patient admission planned</text><ellipse cx="200.9102" cy="568.6836" fill="none" rx="11" ry="11" style="stroke:#222222;stroke-width:1;"/><ellipse cx="200.9102" cy="568.6836" fill="#222222" rx="6" ry="6" style="stroke:#222222;stroke-width:1;"/><line style="stroke:#181818;stroke-width:1;" x1="200.9102" x2="200.9102" y1="30" y2="50"/><polygon fill="#181818" points="196.9102,40,200.9102,50,204.9102,40,200.9102,44" style="stroke:#181818;stroke-width:1;"/><line style="stroke:#181818;stroke-width:1;" x1="200.9102" x2="200.9102" y1="83.9688" y2="103.9688"/><polygon fill="#181818" points="196.9102,93.9688,200.9102,103.9688,204.9102,93.9688,200.9102,97.9688" style="stroke:#181818;stroke-width:1;"/><line style="stroke:#181818;stroke-width:1;" x1="200.9102" x2="200.9102" y1="137.9375" y2="157.9375"/><polygon fill="#181818" points="196.9102,147.9375,200.9102,157.9375,204.9102,147.9375,200.9102,151.9375" style="stroke:#181818;stroke-width:1;"/><line style="stroke:#181818;stroke-width:1;" x1="98.4539" x2="98.4539" y1="328.2773" y2="351.7773"/><polygon fill="#181818" points="94.4539,341.7773,98.4539,351.7773,102.4539,341.7773,98.4539,345.7773" style="stroke:#181818;stroke-width:1;"/><line style="stroke:#181818;stroke-width:1;" x1="303.3665" x2="303.3665" y1="328.2773" y2="351.7773"/><polygon fill="#181818" points="299.3665,341.7773,303.3665,351.7773,307.3665,341.7773,303.3665,345.7773" style="stroke:#181818;stroke-width:1;"/><line style="stroke:#181818;stroke-width:1;" x1="108.4539" x2="98.4539" y1="272.3086" y2="272.3086"/><line style="stroke:#181818;stroke-width:1;" x1="98.4539" x2="98.4539" y1="272.3086" y2="294.3086"/><polygon fill="#181818" points="94.4539,284.3086,98.4539,294.3086,102.4539,284.3086,98.4539,288.3086" style="stroke:#181818;stroke-width:1;"/><line style="stroke:#181818;stroke-width:1;" x1="293.3665" x2="303.3665" y1="272.3086" y2="272.3086"/><line style="stroke:#181818;stroke-width:1;" x1="303.3665" x2="303.3665" y1="272.3086" y2="294.3086"/><polygon fill="#181818" points="299.3665,284.3086,303.3665,294.3086,307.3665,284.3086,303.3665,288.3086" style="stroke:#181818;stroke-width:1;"/><line style="stroke:#181818;stroke-width:1;" x1="303.3665" x2="303.3665" y1="385.7461" y2="390.7461"/><line style="stroke:#181818;stroke-width:1;" x1="303.3665" x2="200.9102" y1="390.7461" y2="390.7461"/><line style="stroke:#181818;stroke-width:1;" x1="200.9102" x2="200.9102" y1="390.7461" y2="405.7461"/><polygon fill="#181818" points="196.9102,395.7461,200.9102,405.7461,204.9102,395.7461,200.9102,399.7461" style="stroke:#181818;stroke-width:1;"/><line style="stroke:#181818;stroke-width:1;" x1="200.9102" x2="200.9102" y1="235.9063" y2="260.3086"/><polygon fill="#181818" points="196.9102,250.3086,200.9102,260.3086,204.9102,250.3086,200.9102,254.3086" style="stroke:#181818;stroke-width:1;"/><line style="stroke:#181818;stroke-width:1;" x1="381.8203" x2="433.7786" y1="223.9063" y2="223.9063"/><polygon fill="#181818" points="429.7786,321.7773,433.7786,331.7773,437.7786,321.7773,433.7786,325.7773" style="stroke:#181818;stroke-width:1;"/><line style="stroke:#181818;stroke-width:1;" x1="433.7786" x2="433.7786" y1="223.9063" y2="417.7461"/><line style="stroke:#181818;stroke-width:1;" x1="433.7786" x2="212.9102" y1="417.7461" y2="417.7461"/><polygon fill="#181818" points="222.9102,413.7461,212.9102,417.7461,222.9102,421.7461,218.9102,417.7461" style="stroke:#181818;stroke-width:1;"/><line style="stroke:#181818;stroke-width:1;" x1="200.9102" x2="200.9102" y1="191.9063" y2="211.9063"/><polygon fill="#181818" points="196.9102,201.9063,200.9102,211.9063,204.9102,201.9063,200.9102,205.9063" style="stroke:#181818;stroke-width:1;"/><line style="stroke:#181818;stroke-width:1;" x1="200.9102" x2="200.9102" y1="429.7461" y2="449.7461"/><polygon fill="#181818" points="196.9102,439.7461,200.9102,449.7461,204.9102,439.7461,200.9102,443.7461" style="stroke:#181818;stroke-width:1;"/><line style="stroke:#181818;stroke-width:1;" x1="200.9102" x2="200.9102" y1="483.7148" y2="503.7148"/><polygon fill="#181818" points="196.9102,493.7148,200.9102,503.7148,204.9102,493.7148,200.9102,497.7148" style="stroke:#181818;stroke-width:1;"/><line style="stroke:#181818;stroke-width:1;" x1="200.9102" x2="200.9102" y1="537.6836" y2="557.6836"/><polygon fill="#181818" points="196.9102,547.6836,200.9102,557.6836,204.9102,547.6836,200.9102,551.6836" style="stroke:#181818;stroke-width:1;"/><!--SRC=[VL2xRiCm3Dpz5HpjeJ-G31qQeEZIeNyWIEU4W48P91qaVr_RYkkq2ChjT0yTQHxKczqxd8RW3F5zHGaNZhY3EAfEr2fvgIH1OXd5eVk6UseF1KP1jcV2bSsfBqf-mkHc_HjXo8YEzDeH6xKtM3ThfQ5fvj0FMxnR9WiDMeuAiwUcUNPVy55bAQDQfduhOrw61I0Rg9NIFPhEvO9QckNukDwFvhCuzxSd6ef18d96gcf8uhxPVgbuoNXJ1CVlI_rtes0qv22oHgybxZ8AwSncN6IJpMj-0m00]--></g></svg>