<svg xmlns="http://www.w3.org/2000/svg" xmlns:xlink="http://www.w3.org/1999/xlink" contentStyleType="text/css" data-diagram-type="ACTIVITY" height="244px" preserveAspectRatio="none" style="width:253px;height:244px;background:#FFFFFF;" version="1.1" viewBox="0 0 253 244" width="253px" zoomAndPan="magnify"><defs/><g><ellipse cx="126.8848" cy="20" fill="#222222" rx="10" ry="10" style="stroke:#222222;stroke-width:1;"/><rect fill="#F1F1F1" height="33.9688" rx="12.5" ry="12.5" style="stroke:#181818;stroke-width:0.5;" width="84.6172" x="84.5762" y="50"/><text fill="#000000" font-family="sans-serif" font-size="12" lengthAdjust="spacing" textLength="64.6172" x="94.5762" y="71.1387">Get device</text><rect fill="#F1F1F1" height="33.9688" rx="12.5" ry="12.5" style="stroke:#181818;stroke-width:0.5;" width="133.0098" x="60.3799" y="103.9688"/><text fill="#000000" font-family="sans-serif" font-size="12" lengthAdjust="spacing" textLength="113.0098" x="70.3799" y="125.1074">Update device info</text><rect fill="#F1F1F1" height="33.9688" rx="12.5" ry="12.5" style="stroke:#181818;stroke-width:0.5;" width="231.7695" x="11" y="157.9375"/><text fill="#000000" font-family="sans-serif" font-size="12" lengthAdjust="spacing" textLength="211.7695" x="21" y="179.0762">Notify device updated to event bus</text><ellipse cx="126.8848" cy="222.9063" fill="none" rx="11" ry="11" style="stroke:#222222;stroke-width:1;"/><ellipse cx="126.8848" cy="222.9063" fill="#222222" rx="6" ry="6" style="stroke:#222222;stroke-width:1;"/><line style="stroke:#181818;stroke-width:1;" x1="126.8848" x2="126.8848" y1="30" y2="50"/><polygon fill="#181818" points="122.8848,40,126.8848,50,130.8848,40,126.8848,44" style="stroke:#181818;stroke-width:1;"/><line style="stroke:#181818;stroke-width:1;" x1="126.8848" x2="126.8848" y1="83.9688" y2="103.9688"/><polygon fill="#181818" points="122.8848,93.9688,126.8848,103.9688,130.8848,93.9688,126.8848,97.9688" style="stroke:#181818;stroke-width:1;"/><line style="stroke:#181818;stroke-width:1;" x1="126.8848" x2="126.8848" y1="137.9375" y2="157.9375"/><polygon fill="#181818" points="122.8848,147.9375,126.8848,157.9375,130.8848,147.9375,126.8848,151.9375" style="stroke:#181818;stroke-width:1;"/><line style="stroke:#181818;stroke-width:1;" x1="126.8848" x2="126.8848" y1="191.9063" y2="211.9063"/><polygon fill="#181818" points="122.8848,201.9063,126.8848,211.9063,130.8848,201.9063,126.8848,205.9063" style="stroke:#181818;stroke-width:1;"/><!--SRC=[Aov9B2hXid9FBL58IItBJ4wrvh8ABKX9B4c5yXKoyzBoWO9- -IMPQPKmmLAmaXI5ado5rBBKl1A5fD9YQwxYalm20000]--></g></svg>